<?xml version="1.0" encoding="utf-8"?>
<!-- Generator: Adobe Illustrator 28.0.0, SVG Export Plug-In . SVG Version: 6.00 Build 0)  -->
<svg version="1.1" xmlns="http://www.w3.org/2000/svg" xmlns:xlink="http://www.w3.org/1999/xlink" x="0px" y="0px"
	 viewBox="0 0 500 500" style="enable-background:new 0 0 500 500;" xml:space="preserve">
<style type="text/css">
	.st0{clip-path:url(#SVGID_00000018220459813691524070000011317610575470293155_);}
	.st1{fill:#B5D1F0;}
	.st2{opacity:0.46;fill:#91BAE8;}
	.st3{opacity:0.3;fill:#FFFFFF;}
	.st4{fill:#B57A68;}
	.st5{fill:#D59880;}
	.st6{fill:#56221C;}
	.st7{fill:#EFEEE4;}
	.st8{fill:#D66562;}
	.st9{fill:none;stroke:#56221C;stroke-width:0.5;stroke-miterlimit:10;}
	.st10{fill:#AF4A4A;}
	.st11{opacity:0.5;fill:#AF4A4A;}
	.st12{fill:none;stroke:#924D3E;stroke-width:0.5;stroke-linecap:round;stroke-miterlimit:10;}
	.st13{fill:#312A2E;}
	.st14{opacity:0.31;fill:#EFEEE4;}
	.st15{opacity:0.33;fill:#312A2E;}
	.st16{fill:none;stroke:#666064;stroke-miterlimit:10;}
	.st17{fill:#924D3E;}
	.st18{fill:#D8D5C3;}
	.st19{opacity:0.64;fill:#312A2E;}
	.st20{fill:none;stroke:#56221C;stroke-linecap:round;stroke-miterlimit:10;}
	.st21{fill:#723328;}
</style>
<g id="BACKGROUND">
	<g>
		<defs>
			<path id="SVGID_1_" d="M63.75,186.55c1.05-24.77,8.1-48.72,23.76-70.77c58.9-82.9,206.53-80.81,288.22-34.13
				c24.53,14.02,45.63,35.51,54.08,62.09c6.83,21.47,5.06,44.46,4.94,66.92c-0.14,25.32,5.28,44.1,15.67,66.82
				c8.32,18.19,10.07,39.8,6.7,59.24c-7.3,42.18-38.73,76.31-76.44,95.66c-59.93,30.77-155.02,31.14-228.14,13.42
				c-36.95-8.96-72.24-27.09-90.19-52.59c-14.28-20.29-16.49-43.5-11.93-64.87c3.67-17.18,12.33-32.54,19.58-48.75
				c5.81-12.99,3.35-24.28-0.12-38.4C65.36,222.82,62.99,204.47,63.75,186.55z"/>
		</defs>
		<clipPath id="SVGID_00000183249623954905233440000005938901021648349835_">
			<use xlink:href="#SVGID_1_"  style="overflow:visible;"/>
		</clipPath>
		<g style="clip-path:url(#SVGID_00000183249623954905233440000005938901021648349835_);">
			<g>
				<rect x="21.88" y="17.06" class="st1" width="466.08" height="466.08"/>
				<path class="st2" d="M244.13,17.09c0,0,73.5,112.2-55.06,154.7S21.88,358.34,21.88,358.34V17.06L244.13,17.09z"/>
				<path class="st2" d="M347.88,483.14c0,0-81.01-111.96,35.22-154.36c78.25-30.45,104.86-169.69,104.86-169.69v324.05H347.88z"/>
				<path class="st2" d="M210.29,483.14c0,0-11.24-185.18-120.23-124.04c-33.25,19.59-29.22,96.07-68.18,69.83c0,54.2,0,54.2,0,54.2
					H210.29z"/>
			</g>
			
				<ellipse transform="matrix(0.3852 -0.9228 0.9228 0.3852 111.3759 383.2222)" class="st3" cx="343.29" cy="108.03" rx="21.14" ry="21.14"/>
		</g>
	</g>
</g>
<g id="OBJECTS">
	<g>
		<g>
			<path class="st4" d="M436.71,182.87c0,0,3.74-12.72,0-13.96s-6.83,8.89-10.57,13.96c-3.74,5.06-7.03,12.99-10.01,15.19
				C413.15,200.27,430.54,199.39,436.71,182.87z"/>
			<path class="st5" d="M427.05,204.81c0,0,8.34-9.17,11.2-16.65c2.86-7.49,5.5-14.31,1.1-16.29c-4.4-1.98-7.27,11.01-12.77,14.97
				C421.07,190.8,427.05,204.81,427.05,204.81z"/>
			<path class="st4" d="M375.05,208.46c0,0,3.53-6.87,10.57-9.73c7.05-2.86,18.94-12.99,23.01-17.17c4.07-4.18,11.56-1.54,4.73,9.03
				c-4.18,7.27-4.73,11.75-4.73,11.75L375.05,208.46z"/>
			<path class="st6" d="M356.78,229.99c0,0,27.96-8.15,51.85,11.23C398.18,252.67,358.1,246.29,356.78,229.99z"/>
			<path class="st7" d="M363.61,238.8l3.74-14.09c0,0,18.28,6.83,34.35,5.28c-5.28,17.61-5.28,17.61-5.28,17.61
				S370.87,249.59,363.61,238.8z"/>
			<path class="st8" d="M312.3,164.82c0,0,18.72-6.17,25.98,31.82c7.27,37.98,11.56,71.01,11.56,71.01l6.94-37.65
				c0,0,13.54,20.48,51.85,11.23c-25.76,102.72-31.93,113.69-59.12,108.66c-27.19-5.03-34.12-29.82-34.12-29.82
				S293.26,201.37,312.3,164.82z"/>
			<path class="st9" d="M434.07,282.84"/>
			<path class="st10" d="M356.78,229.99l-4.06,22.05c5.16,6.43,19.93,19.51,50.43,10.77c1.73-6.7,3.55-13.88,5.48-21.59
				C370.32,250.47,356.78,229.99,356.78,229.99z"/>
			<path class="st11" d="M383.02,328.9c-4.71-4.86-11.31-7.89-18.61-7.89c-14.13,0-25.61,11.31-25.91,25.37
				c3.24,1.52,6.89,2.74,11.02,3.5C365,352.75,373.67,350.41,383.02,328.9z"/>
			<line class="st9" x1="349.85" y1="267.64" x2="337.63" y2="319.83"/>
			<path class="st5" d="M367.35,224.71c0,0,1.32-16.95,14.75-19.6c13.65-2.42,15.41-3.08,15.41-3.08s1.1-17.17,4.84-19.82
				s6.17-1.76,5.72,3.74c-0.44,5.5,0.05,15.19,0.05,15.19s9.2-4.84,10.08-8.15c0.88-3.3,0.22-13.21,2.2-17.61
				c1.98-4.4,8.81-3.96,8.81,8.59c0,12.55-0.66,22.83-5.72,25.07c-5.06,2.24-19.65,13.8-21.8,20.95
				C389.59,236.16,367.35,224.71,367.35,224.71z"/>
			<path class="st12" d="M429.22,183.97c0,0,0.39,14.81-2.17,20.84"/>
			<path class="st13" d="M368.01,247.5c0,2.37-1.92,4.29-4.29,4.29c-2.37,0-4.29-1.92-4.29-4.29c0-2.37,1.92-4.29,4.29-4.29
				C366.09,243.2,368.01,245.13,368.01,247.5z"/>
			<path class="st14" d="M360.84,350.78c18.26-1.51,26.04-22.84,47.79-109.56c-9.77,2.36-17.92,2.78-24.65,2.1
				c-3.83,11.86-11.79,34.65-24.56,62.85C348.36,330.62,354.13,343.93,360.84,350.78z"/>
		</g>
		<g>
			<path class="st4" d="M64.19,182.87c0,0-3.74-12.72,0-13.96c3.74-1.24,6.83,8.89,10.57,13.96c3.74,5.06,7.03,12.99,10.01,15.19
				C87.75,200.27,70.35,199.39,64.19,182.87z"/>
			<path class="st5" d="M73.85,204.81c0,0-8.34-9.17-11.2-16.65c-2.86-7.49-5.5-14.31-1.1-16.29c4.4-1.98,7.27,11.01,12.77,14.97
				C79.82,190.8,73.85,204.81,73.85,204.81z"/>
			<path class="st4" d="M125.84,208.46c0,0-3.53-6.87-10.57-9.73c-7.05-2.86-18.94-12.99-23.01-17.17
				c-4.07-4.18-11.56-1.54-4.73,9.03c4.18,7.27,4.73,11.75,4.73,11.75L125.84,208.46z"/>
			<path class="st6" d="M144.11,229.99c0,0-27.96-8.15-51.85,11.23C102.72,252.67,142.79,246.29,144.11,229.99z"/>
			<path class="st7" d="M137.29,238.8l-3.74-14.09c0,0-18.28,6.83-34.35,5.28c5.28,17.61,5.28,17.61,5.28,17.61
				S130.02,249.59,137.29,238.8z"/>
			<path class="st8" d="M188.59,164.82c0,0-18.72-6.17-25.98,31.82c-7.27,37.98-11.56,71.01-11.56,71.01l-6.94-37.65
				c0,0-13.54,20.48-51.85,11.23c25.76,102.72,31.93,113.69,59.12,108.66c27.19-5.03,34.12-29.82,34.12-29.82
				S207.64,201.37,188.59,164.82z"/>
			<path class="st9" d="M66.83,282.84"/>
			<path class="st10" d="M144.11,229.99l4.06,22.05c-5.16,6.43-19.93,19.51-50.43,10.77c-1.73-6.7-3.55-13.88-5.48-21.59
				C130.57,250.47,144.11,229.99,144.11,229.99z"/>
			<path class="st11" d="M117.88,328.9c4.71-4.86,11.31-7.89,18.61-7.89c14.13,0,25.61,11.31,25.91,25.37
				c-3.24,1.52-6.89,2.74-11.02,3.5C135.89,352.75,127.23,350.41,117.88,328.9z"/>
			<line class="st9" x1="151.05" y1="267.64" x2="163.27" y2="319.83"/>
			<path class="st5" d="M133.55,224.71c0,0-1.32-16.95-14.75-19.6c-13.65-2.42-15.41-3.08-15.41-3.08s-1.1-17.17-4.84-19.82
				c-3.74-2.64-6.17-1.76-5.72,3.74c0.44,5.5-0.05,15.19-0.05,15.19s-9.2-4.84-10.08-8.15c-0.88-3.3-0.22-13.21-2.2-17.61
				c-1.98-4.4-8.81-3.96-8.81,8.59c0,12.55,0.66,22.83,5.72,25.07c5.06,2.24,19.65,13.8,21.8,20.95
				C111.31,236.16,133.55,224.71,133.55,224.71z"/>
			<path class="st12" d="M71.67,183.97c0,0-0.39,14.81,2.17,20.84"/>
			<path class="st13" d="M132.88,247.5c0,2.37,1.92,4.29,4.29,4.29c2.37,0,4.29-1.92,4.29-4.29c0-2.37-1.92-4.29-4.29-4.29
				C134.81,243.2,132.88,245.13,132.88,247.5z"/>
			<path class="st15" d="M140.05,350.78c-18.26-1.51-26.04-22.84-47.79-109.56c9.77,2.36,17.92,2.78,24.65,2.1
				c3.83,11.86,11.79,34.65,24.56,62.85C152.53,330.62,146.76,343.93,140.05,350.78z"/>
		</g>
		<g>
			<rect x="207.06" y="314.54" class="st7" width="84.91" height="95.12"/>
			<path class="st6" d="M153.36,426.84c0,0,1.71,7.63,42.12,13.39c-3.84-39.81-3.84-39.81-3.84-39.81L153.36,426.84z"/>
			<path class="st6" d="M347.5,426.84c0,0-1.71,7.63-42.12,13.39c3.84-39.81,3.84-39.81,3.84-39.81L347.5,426.84z"/>
			<g>
				<path class="st13" d="M319.84,380.48c-27.74,3.91-69.41,5.38-69.41,5.38s-41.66-1.47-69.4-5.38c0,0-5.9,50.6,5.33,119.49
					c58.79,0,58.79,0,58.79,0l5.28-57.39l5.28,57.39c0,0,0,0,58.79,0C325.74,431.09,319.84,380.48,319.84,380.48z"/>
				<path class="st16" d="M290.88,499.97c0,0,2.78-56.4,1.09-94.27"/>
				<path class="st16" d="M209.99,499.97c0,0-2.78-56.4-1.09-94.27"/>
				<rect x="235.74" y="392.93" class="st17" width="29.42" height="11.45"/>
				<line class="st16" x1="250.43" y1="442.58" x2="250.43" y2="404.38"/>
			</g>
			<polygon class="st13" points="263.82,359.18 250.53,373.11 238.26,359.18 250.37,325.55 			"/>
			<path class="st8" d="M250.46,188.6c0,0-36.77-20.26-61.87-23.78c-14.09,71.78-4.4,130.35-2.64,148.4
				c1.76,18.05-31.27,87.19-32.59,113.61c38.31-1.76,82.37,8.37,82.37,8.37l14.63-109.65L250.46,188.6z"/>
			<path class="st10" d="M216.52,235.28l-13.03-3.68c-0.93-27.37,8.48-50.2,12.66-58.9c18.18,7.02,34.3,15.9,34.3,15.9l-0.09,127.27
				c0,0,0,0-0.01-0.01c-29.3-22.05-41.67-47.27-45.52-70.53L216.52,235.28z"/>
			<path class="st7" d="M226.07,176.77c13.74,5.97,24.4,11.83,24.4,11.83l-0.09,127.24c0,0.01,0,0.01-0.01,0.02
				C229.11,270.75,226.4,192.23,226.07,176.77z"/>
			<path class="st9" d="M188.59,164.82c0,0-15.26,56.81-2.34,151.05"/>
			<path class="st10" d="M175.15,354.74c5-1.96,18.94-7.73,34.87-16.86c-3.37,22.46-3.37,22.46-3.37,22.46s-17.3,14.08-40.68,20.14
				C168.99,371.87,172.2,363.08,175.15,354.74z"/>
			<path class="st10" d="M227.56,323.14c0,0-28.4-26.65-35.45-38.54C185.07,272.71,198.72,308.83,227.56,323.14z"/>
			<path class="st10" d="M235.74,435.2c0,0-44.06-10.13-82.37-8.37c0.19-3.71,1-8.26,2.25-13.39c32.87-1.01,65.98,4.54,82,7.73
				L235.74,435.2z"/>
			<path class="st8" d="M250.43,188.6c0,0,36.77-20.26,61.87-23.78c14.09,71.78,4.4,130.35,2.64,148.4
				c-1.76,18.05,31.27,87.19,32.59,113.61c-38.31-1.76-82.37,8.37-82.37,8.37l-14.79-109.65L250.43,188.6z"/>
			<path class="st10" d="M284.38,235.28l13.03-3.68c0.93-27.37-8.48-50.2-12.66-58.9c-18.18,7.02-34.3,15.9-34.3,15.9l0.09,127.27
				c0,0,0,0,0.01-0.01c29.3-22.05,41.67-47.27,45.52-70.53L284.38,235.28z"/>
			<path class="st7" d="M274.83,176.77c-13.74,5.97-24.4,11.83-24.4,11.83l0.09,127.24c0,0.01,0,0.01,0.01,0.02
				C271.79,270.75,274.5,192.23,274.83,176.77z"/>
			<path class="st9" d="M312.3,164.82c0,0,15.26,56.81,2.34,151.05"/>
			<path class="st10" d="M325.75,354.74c-5-1.96-18.94-7.73-34.87-16.86c3.37,22.46,3.37,22.46,3.37,22.46s17.3,14.08,40.68,20.14
				C331.9,371.87,328.69,363.08,325.75,354.74z"/>
			<path class="st10" d="M260.09,323.14c0,0,12.58-12.56,22.27-18.28C292.05,299.13,275.69,316.32,260.09,323.14z"/>
			<path class="st13" d="M255.48,228.29c5.05-7.86,6.26-15.91,6.26-15.91l-11.29-6.36v0l0,0l0,0v0l-11.29,6.36
				c0,0,1.21,8.05,6.26,15.91c-4.27,23.81-6.82,38-8.34,46.46c3.33,14.85,7.66,29.16,13.29,41.11c0-0.01,0-0.01,0.01-0.02
				c0,0.01,0.15,0.01,0.16,0.02c5.63-11.96,9.96-26.26,13.29-41.11C262.3,266.29,259.76,252.1,255.48,228.29z"/>
			<path class="st10" d="M273.33,323.14c0,0,28.4-26.65,35.45-38.54C315.83,272.71,302.18,308.83,273.33,323.14z"/>
			<circle class="st13" cx="260.09" cy="323.14" r="5.07"/>
			<path class="st18" d="M250.45,209.75l21.12,16.41c2.49-23.26,3.11-42.53,3.26-49.39c-3.2,1.39-6.23,2.77-9,4.08l-15.38,28.86
				V209.75z"/>
			<path class="st10" d="M265.16,435.2c0,0,44.06-10.13,82.37-8.37c-0.19-3.71-1-8.26-2.25-13.39c-32.87-1.01-65.98,4.54-82,7.73
				L265.16,435.2z"/>
			<path class="st10" d="M240.81,323.14c0,0-12.58-12.56-22.27-18.28C208.85,299.13,225.21,316.32,240.81,323.14z"/>
			<path class="st18" d="M250.45,209.75l-21.12,16.41c-2.49-23.26-3.11-42.53-3.26-49.39c3.2,1.39,6.23,2.77,9,4.08l15.38,28.86
				V209.75z"/>
			<path class="st19" d="M216,172.63c1.29,10.91,6.61,41.46,25.84,41.1c23.41-0.43,26.26-19.35,26.26-19.35l-3.12-13.15
				c-8.56,4.07-14.41,7.28-14.54,7.35C250.24,188.47,234.12,179.62,216,172.63z"/>
			<path class="st10" d="M240.3,337c0,0-23.19,27.96-20.22,38.97C223.06,386.98,240.3,337,240.3,337z"/>
		</g>
		<g>
			<path class="st6" d="M221.52,146.32c0,0-5.22-23.78,4.25-35.23c-7.05-4.62-3.96-8.37,0.66-4.4c0.88-9.03,7.93-13.21,6.17-2.2
				c17.83-11.89,36.96-11,43.91-6.6c6.95,4.4-7.36,6.38-7.36,6.38s13.87,1.32,20.26,21.14c6.39,19.82-10.06,0.66-10.06,0.66
				s2.1,10.39-0.51,18.63c-2.6,8.24-25.98,14.84-25.98,14.84L221.52,146.32z"/>
			<path class="st14" d="M289.41,125.41c-6.39-19.82-20.26-21.14-20.26-21.14s14.31-1.98,7.36-6.38c-6.95-4.4-26.08-5.29-43.91,6.6
				c0,0,17.67-6.77,21.8-2.81c4.13,3.96-19.24,8.75-19.24,8.75l2.04,3.75l10.26,14.41l21.18,24.84c4.83-2.45,9.16-5.46,10.2-8.75
				c2.6-8.24,0.51-18.63,0.51-18.63S295.79,145.22,289.41,125.41z"/>
			<ellipse class="st4" cx="281.37" cy="152.05" rx="8.04" ry="10.35"/>
			<path class="st5" d="M279.34,155.02c0,2.88,0.91,5.48,2.38,7.35c4.27-0.24,7.68-4.77,7.68-10.33c0-2.88-0.91-5.48-2.38-7.35
				C282.75,144.94,279.34,149.46,279.34,155.02z"/>
			<ellipse class="st4" cx="219.5" cy="152.05" rx="8.04" ry="10.35"/>
			<path class="st5" d="M221.52,155.02c0,2.88-0.91,5.48-2.38,7.35c-4.27-0.24-7.68-4.77-7.68-10.33c0-2.88,0.91-5.48,2.38-7.35
				C218.11,144.94,221.52,149.46,221.52,155.02z"/>
			<path class="st5" d="M275.97,144.12c1.63-30.54-16.61-32.31-23.21-31.96c3.21,3.05,8.93,9.39,2.72,10.82
				c-8.23,1.89-18.25-8.76-18.29-8.8c-6.73,3.19-13.31,11.07-12.3,29.94c-0.88,34.13-3.96,62.53,25.54,65.61
				C279.94,206.65,276.86,178.25,275.97,144.12z"/>
			<path class="st6" d="M276.05,146.9c-0.1,7.47-2.54,27.38-25.62,27.38c-23.08,0-25.52-19.92-25.62-27.38
				c-0.95,32.88-3.08,59.83,25.62,62.83C279.13,206.74,277,179.78,276.05,146.9z"/>
			<ellipse class="st7" cx="265.16" cy="146.72" rx="6.58" ry="5.02"/>
			<path class="st20" d="M258.58,146.72c0-2.77,2.95-5.02,6.58-5.02c3.63,0,6.58,2.25,6.58,5.02"/>
			<path class="st6" d="M269.87,146.79c0,2.57-2.08,4.65-4.65,4.65c-2.57,0-4.65-2.08-4.65-4.65c0-2.57,2.08-4.65,4.65-4.65
				C267.79,142.14,269.87,144.22,269.87,146.79z"/>
			<ellipse class="st7" cx="235.71" cy="146.72" rx="6.58" ry="5.02"/>
			<path class="st20" d="M242.29,146.72c0-2.77-2.95-5.02-6.58-5.02c-3.63,0-6.58,2.25-6.58,5.02"/>
			<path class="st6" d="M231,146.79c0,2.57,2.08,4.65,4.65,4.65c2.57,0,4.65-2.08,4.65-4.65c0-2.57-2.08-4.65-4.65-4.65
				C233.08,142.14,231,144.22,231,146.79z"/>
			<path class="st6" d="M259.02,133.64c0,0,8.75,0,13.38,4.05c0.08-4.95-5.7-11.31-13.38-12.06
				C259.02,133.64,259.02,133.64,259.02,133.64z"/>
			<path class="st6" d="M241.85,133.64c0,0-8.75,0-13.38,4.05c-0.08-4.95,5.7-11.31,13.38-12.06
				C241.85,133.64,241.85,133.64,241.85,133.64z"/>
			<path class="st5" d="M257.26,177.48c0,1.88-3.03,3.41-6.77,3.41s-6.77-1.53-6.77-3.41c0-1.88,3.03-3.41,6.77-3.41
				S257.26,175.59,257.26,177.48z"/>
			<path class="st21" d="M250.43,167.02v7.27c0,0,1.49,6.94,14.73,5.5C261,170.87,258.69,166.8,250.43,167.02z"/>
			<path class="st21" d="M250.43,167.02v7.27c0,0-1.49,6.94-14.73,5.5C239.86,170.87,242.18,166.8,250.43,167.02z"/>
			<g>
				<path class="st4" d="M257.8,150.26c1.27,1.54,2.89,2.53,4.65,3.16c0.88,0.33,1.81,0.51,2.75,0.7l1.44,0.21
					c0.49,0.05,0.97,0.09,1.48,0.18c-0.48,0.13-0.98,0.22-1.47,0.31c-0.5,0.03-1.01,0.09-1.51,0.07c-1.01-0.03-2.04-0.19-3.01-0.53
					c-0.97-0.36-1.89-0.87-2.66-1.57C258.7,152.1,258.06,151.24,257.8,150.26z"/>
			</g>
			<g>
				<path class="st4" d="M243.07,150.26c-0.26,0.98-0.9,1.84-1.66,2.53c-0.76,0.7-1.69,1.21-2.66,1.57c-0.97,0.35-2,0.5-3.01,0.53
					c-0.51,0.02-1.01-0.04-1.51-0.07c-0.5-0.09-0.99-0.18-1.47-0.31c0.5-0.09,0.99-0.13,1.48-0.18l1.44-0.21
					c0.94-0.18,1.87-0.37,2.75-0.7C240.18,152.78,241.8,151.8,243.07,150.26z"/>
			</g>
			<g>
				<path class="st5" d="M246.91,145.44c0,0-3.96,25.54,5.06,23.34c3.27-1.77,3.04-1.77,3.04-1.77l-0.39-21.57H246.91z"/>
				<path class="st12" d="M248.04,167.29c0,0-3.33-7.78-1.13-21.84"/>
			</g>
			<path class="st14" d="M254.74,209.04c24.86-5.36,22.07-32.56,21.23-64.92c1.63-30.54-16.61-32.31-23.21-31.96
				c3.21,3.05,8.93,9.39,2.72,10.82c-8.23,1.89-18.25-8.76-18.29-8.8C237.2,114.18,213.07,197.4,254.74,209.04z"/>
		</g>
	</g>
	<g>
		<g>
			<path class="st8" d="M385.81,107.89c-1.8,2.87-3.76,5.07-5.89,6.62c-2.13,1.55-4.34,2.73-6.62,3.53c-2.29,0.8-4.6,1.37-6.95,1.7
				c-2.35,0.33-4.62,0.7-6.8,1.11c-2.18,0.41-4.25,1-6.2,1.77c-1.95,0.77-3.69,1.98-5.2,3.63c-1.49-1.46-3-2.79-4.54-3.97
				c-1.54-1.19-3.14-2.3-4.8-3.34c-1-0.63-2.03-1.24-3.08-1.83c-1.05-0.59-2.13-1.11-3.24-1.57c1.5-2.38,3.02-4.24,4.58-5.57
				c1.56-1.33,3.14-2.39,4.73-3.17c1.6-0.78,3.2-1.43,4.81-1.96c1.61-0.53,3.21-1.18,4.81-1.96c1.6-0.78,3.17-1.82,4.72-3.14
				c1.55-1.31,3.07-3.16,4.57-5.55c1.02-1.62,1.73-3.15,2.15-4.57c0.41-1.43,0.6-2.74,0.56-3.94c-0.04-1.2-0.25-2.29-0.63-3.25
				c-0.38-0.96-0.83-1.81-1.33-2.53c-0.51-0.73-1.04-1.34-1.59-1.83c-0.56-0.49-1.04-0.87-1.46-1.13c-1.31-0.82-2.52-1.12-3.64-0.88
				c-1.11,0.24-1.89,0.7-2.32,1.4c-0.24,0.38-0.42,0.78-0.54,1.21c-0.12,0.43-0.14,0.86-0.06,1.3c0.09,0.44,0.28,0.87,0.59,1.31
				c0.31,0.43,0.79,0.86,1.44,1.27c0.5,0.27,1.03,0.43,1.57,0.48c0.49,0.07,1.05,0.02,1.68-0.14c0.63-0.16,1.28-0.54,1.94-1.13
				c0.09,1.55-0.1,3.13-0.56,4.74c-0.46,1.61-1.14,3.14-2.06,4.59c-0.91,1.45-2,2.72-3.26,3.8c-1.26,1.09-2.68,1.88-4.24,2.39
				c-1.57,0.51-3.25,0.64-5.05,0.4c-1.8-0.24-3.67-0.97-5.6-2.18c-2.38-1.5-4.14-3.33-5.27-5.52c-1.13-2.18-1.79-4.45-1.98-6.8
				c-0.18-2.35,0.03-4.66,0.63-6.93c0.6-2.27,1.44-4.25,2.5-5.94c0.98-1.55,2.18-3.05,3.61-4.48c1.43-1.44,3.06-2.7,4.88-3.8
				c1.82-1.1,3.83-1.95,6.02-2.57c2.19-0.62,4.53-0.91,7.01-0.87c2.48,0.04,5.1,0.48,7.87,1.33c2.77,0.85,5.63,2.2,8.6,4.07
				c2.42,1.52,4.7,3.24,6.86,5.18c2.16,1.93,4.06,4.02,5.71,6.26c1.65,2.24,2.99,4.62,4.03,7.15c1.04,2.53,1.65,5.17,1.85,7.92
				c0.2,2.75-0.08,5.58-0.83,8.51C389.01,101.92,387.69,104.89,385.81,107.89z M320.02,127.66c0.93-1.48,2.1-2.71,3.51-3.68
				c1.4-0.97,2.91-1.65,4.53-2.03c1.61-0.38,3.26-0.44,4.95-0.18c1.69,0.26,3.29,0.87,4.81,1.83c1.52,0.95,2.76,2.13,3.74,3.54
				c0.97,1.4,1.63,2.92,1.99,4.54c0.35,1.62,0.4,3.27,0.13,4.96c-0.27,1.69-0.86,3.27-1.8,4.76c-0.95,1.52-2.13,2.76-3.54,3.74
				c-1.4,0.97-2.91,1.64-4.51,2.01c-1.6,0.37-3.25,0.42-4.93,0.15c-1.69-0.27-3.29-0.88-4.81-1.83c-1.52-0.95-2.76-2.13-3.74-3.54
				c-0.97-1.4-1.64-2.91-2.01-4.51c-0.37-1.6-0.42-3.25-0.15-4.93C318.45,130.79,319.06,129.18,320.02,127.66z"/>
		</g>
		<g>
			<path class="st10" d="M183.41,63.56c1.53,3.02,2.41,5.84,2.64,8.47c0.23,2.62,0.1,5.12-0.39,7.5c-0.49,2.37-1.2,4.65-2.13,6.83
				c-0.93,2.18-1.78,4.32-2.55,6.4c-0.77,2.08-1.33,4.16-1.68,6.23c-0.35,2.07-0.2,4.18,0.43,6.33c-2.02,0.52-3.94,1.14-5.75,1.85
				c-1.81,0.71-3.59,1.51-5.34,2.39c-1.06,0.53-2.11,1.1-3.15,1.7c-1.05,0.6-2.05,1.25-3.01,1.97c-1.27-2.51-2.07-4.78-2.41-6.8
				c-0.34-2.02-0.43-3.92-0.27-5.69c0.16-1.77,0.42-3.48,0.8-5.13c0.37-1.65,0.64-3.36,0.8-5.13c0.16-1.77,0.07-3.66-0.26-5.66
				c-0.33-2-1.13-4.26-2.4-6.77c-0.87-1.71-1.8-3.11-2.81-4.2c-1.01-1.09-2.04-1.93-3.09-2.51c-1.05-0.59-2.09-0.97-3.11-1.13
				c-1.02-0.17-1.97-0.22-2.86-0.16c-0.88,0.06-1.68,0.2-2.39,0.42c-0.71,0.22-1.28,0.44-1.72,0.66c-1.38,0.7-2.26,1.59-2.63,2.67
				c-0.37,1.08-0.37,1.98,0,2.71c0.2,0.4,0.46,0.76,0.76,1.09c0.3,0.33,0.66,0.57,1.08,0.72c0.42,0.15,0.89,0.21,1.42,0.17
				c0.53-0.04,1.14-0.23,1.83-0.58c0.49-0.29,0.9-0.66,1.23-1.1c0.31-0.38,0.56-0.89,0.74-1.51c0.19-0.62,0.2-1.37,0.03-2.24
				c1.37,0.72,2.63,1.7,3.77,2.92c1.15,1.23,2.1,2.6,2.88,4.13c0.77,1.53,1.3,3.11,1.58,4.75c0.28,1.64,0.23,3.26-0.14,4.87
				c-0.38,1.61-1.13,3.12-2.26,4.54c-1.13,1.42-2.72,2.64-4.75,3.67c-2.51,1.27-4.99,1.83-7.44,1.68c-2.45-0.15-4.74-0.76-6.85-1.81
				c-2.11-1.06-3.98-2.43-5.61-4.12c-1.63-1.69-2.9-3.42-3.8-5.21c-0.83-1.64-1.49-3.44-1.98-5.41c-0.49-1.97-0.74-4.01-0.74-6.14
				c0-2.12,0.3-4.29,0.9-6.49c0.6-2.2,1.56-4.35,2.87-6.45c1.31-2.1,3.04-4.12,5.19-6.06c2.15-1.93,4.79-3.69,7.92-5.28
				c2.55-1.29,5.2-2.36,7.97-3.21c2.77-0.85,5.54-1.41,8.31-1.67c2.77-0.26,5.5-0.18,8.21,0.23c2.7,0.42,5.28,1.25,7.74,2.49
				c2.46,1.25,4.75,2.94,6.86,5.09S181.81,60.4,183.41,63.56z M166.46,130.13c-0.79-1.56-1.24-3.2-1.35-4.9
				c-0.11-1.7,0.09-3.35,0.59-4.93c0.5-1.58,1.3-3.02,2.4-4.33c1.1-1.31,2.44-2.37,4.05-3.18c1.6-0.81,3.25-1.27,4.96-1.38
				c1.7-0.11,3.34,0.1,4.91,0.63c1.57,0.53,3.01,1.34,4.32,2.44c1.31,1.1,2.36,2.43,3.15,3.99c0.81,1.6,1.27,3.25,1.38,4.96
				c0.11,1.7-0.09,3.34-0.6,4.9c-0.51,1.56-1.32,3-2.41,4.31c-1.1,1.31-2.45,2.37-4.05,3.18c-1.6,0.81-3.25,1.27-4.96,1.38
				c-1.7,0.11-3.34-0.09-4.9-0.6c-1.56-0.51-3-1.32-4.31-2.41C168.33,133.08,167.27,131.73,166.46,130.13z"/>
		</g>
		<g>
			<path class="st6" d="M391.76,175.6c-1.81,1.05-3.51,1.68-5.12,1.92s-3.15,0.24-4.63,0.02c-1.48-0.22-2.9-0.58-4.28-1.07
				c-1.38-0.5-2.72-0.95-4.03-1.35c-1.31-0.4-2.61-0.68-3.89-0.82c-1.29-0.14-2.58,0.02-3.88,0.48c-0.39-1.23-0.84-2.38-1.34-3.47
				c-0.5-1.09-1.05-2.16-1.66-3.2c-0.37-0.63-0.75-1.26-1.15-1.88c-0.4-0.62-0.84-1.22-1.32-1.79c1.5-0.87,2.87-1.44,4.1-1.72
				c1.23-0.28,2.4-0.4,3.49-0.37c1.09,0.03,2.16,0.14,3.19,0.31c1.03,0.17,2.09,0.28,3.19,0.31c1.09,0.03,2.25-0.08,3.47-0.36
				c1.22-0.27,2.58-0.84,4.08-1.71c1.02-0.59,1.85-1.22,2.49-1.88c0.64-0.66,1.12-1.32,1.44-1.99c0.33-0.67,0.52-1.32,0.59-1.95
				c0.07-0.63,0.07-1.22,0-1.77c-0.07-0.54-0.18-1.03-0.34-1.46c-0.16-0.43-0.32-0.77-0.47-1.04c-0.48-0.83-1.06-1.33-1.73-1.52
				c-0.68-0.19-1.23-0.16-1.67,0.09c-0.24,0.14-0.45,0.31-0.64,0.5c-0.19,0.2-0.33,0.43-0.41,0.69c-0.08,0.26-0.1,0.56-0.06,0.88
				c0.04,0.32,0.18,0.69,0.42,1.11c0.2,0.29,0.44,0.53,0.72,0.72c0.25,0.18,0.56,0.31,0.95,0.41c0.39,0.09,0.85,0.07,1.38-0.06
				c-0.4,0.87-0.95,1.68-1.67,2.42c-0.71,0.75-1.53,1.39-2.44,1.91c-0.91,0.53-1.87,0.91-2.87,1.14c-1,0.23-2,0.26-3,0.08
				c-1-0.18-1.96-0.59-2.87-1.23c-0.91-0.65-1.72-1.58-2.43-2.8c-0.87-1.5-1.3-3.01-1.29-4.52c0.01-1.52,0.3-2.94,0.88-4.28
				c0.58-1.34,1.36-2.53,2.34-3.6c0.98-1.06,2.01-1.9,3.07-2.52c0.98-0.57,2.06-1.04,3.26-1.41c1.19-0.37,2.44-0.59,3.75-0.67
				c1.31-0.07,2.65,0.04,4.02,0.33c1.37,0.29,2.73,0.81,4.07,1.54c1.34,0.73,2.64,1.73,3.91,2.99c1.26,1.26,2.44,2.82,3.52,4.69
				c0.88,1.52,1.63,3.12,2.25,4.79c0.62,1.67,1.06,3.36,1.31,5.05c0.26,1.7,0.3,3.38,0.14,5.06c-0.16,1.68-0.58,3.29-1.27,4.85
				c-0.68,1.56-1.65,3.02-2.9,4.4C395.22,173.27,393.65,174.51,391.76,175.6z M350.2,167.47c0.93-0.54,1.93-0.88,2.97-1
				c1.04-0.13,2.06-0.06,3.05,0.19c0.99,0.25,1.91,0.7,2.75,1.33c0.84,0.63,1.54,1.42,2.1,2.38c0.55,0.96,0.89,1.96,1.02,3
				c0.13,1.04,0.05,2.06-0.22,3.05c-0.27,0.99-0.72,1.9-1.35,2.74c-0.63,0.84-1.41,1.54-2.35,2.08c-0.96,0.55-1.96,0.89-3,1.02
				c-1.05,0.13-2.06,0.06-3.04-0.2s-1.89-0.71-2.73-1.34c-0.84-0.63-1.54-1.42-2.1-2.38c-0.55-0.96-0.89-1.96-1.02-3
				c-0.13-1.05-0.06-2.06,0.2-3.04c0.26-0.98,0.71-1.89,1.34-2.73C348.45,168.73,349.25,168.03,350.2,167.47z"/>
		</g>
		<g>
			<path class="st6" d="M135.96,134.25c1.77,1.8,3.03,3.61,3.79,5.43s1.23,3.62,1.42,5.42c0.19,1.8,0.2,3.58,0.03,5.34
				c-0.17,1.76-0.29,3.47-0.37,5.13c-0.08,1.66-0.01,3.26,0.21,4.81c0.22,1.55,0.8,3.02,1.73,4.41c-1.32,0.83-2.55,1.7-3.67,2.61
				c-1.13,0.91-2.21,1.88-3.26,2.91c-0.63,0.62-1.25,1.26-1.86,1.92c-0.61,0.66-1.18,1.36-1.7,2.08c-1.47-1.5-2.55-2.93-3.25-4.29
				c-0.7-1.36-1.19-2.69-1.48-3.99c-0.29-1.29-0.49-2.57-0.59-3.83c-0.11-1.26-0.3-2.54-0.59-3.83c-0.29-1.29-0.78-2.62-1.46-3.97
				c-0.69-1.35-1.76-2.78-3.23-4.28c-1-1.02-1.98-1.81-2.95-2.35c-0.96-0.55-1.88-0.91-2.77-1.09c-0.88-0.18-1.7-0.22-2.47-0.1
				c-0.77,0.11-1.46,0.29-2.07,0.53c-0.62,0.24-1.15,0.52-1.61,0.84c-0.46,0.32-0.81,0.61-1.07,0.86c-0.83,0.81-1.25,1.64-1.27,2.49
				c-0.02,0.85,0.18,1.49,0.61,1.93c0.23,0.24,0.5,0.44,0.79,0.61c0.29,0.16,0.6,0.25,0.93,0.27c0.33,0.01,0.68-0.05,1.05-0.2
				c0.37-0.15,0.76-0.42,1.17-0.83c0.28-0.32,0.49-0.67,0.62-1.06c0.13-0.34,0.2-0.76,0.19-1.24c-0.01-0.48-0.17-1.02-0.48-1.6
				c1.14,0.21,2.25,0.61,3.35,1.23c1.09,0.61,2.08,1.38,2.98,2.29c0.9,0.91,1.63,1.92,2.2,3.02c0.57,1.1,0.9,2.27,1,3.5
				c0.1,1.23-0.1,2.47-0.59,3.74c-0.49,1.27-1.34,2.49-2.55,3.69c-1.5,1.47-3.14,2.43-4.92,2.87c-1.78,0.45-3.54,0.53-5.28,0.25
				c-1.74-0.28-3.38-0.83-4.92-1.66c-1.54-0.83-2.83-1.78-3.88-2.85c-0.96-0.98-1.84-2.11-2.63-3.4c-0.79-1.29-1.43-2.69-1.91-4.2
				c-0.48-1.51-0.75-3.12-0.82-4.82c-0.07-1.7,0.13-3.45,0.58-5.24c0.46-1.79,1.24-3.62,2.33-5.48c1.09-1.86,2.58-3.71,4.45-5.54
				c1.52-1.49,3.17-2.85,4.95-4.08c1.78-1.23,3.62-2.25,5.53-3.06c1.91-0.81,3.88-1.37,5.89-1.69c2.02-0.31,4.04-0.3,6.07,0.03
				c2.03,0.33,4.04,1.02,6.03,2.08C132.18,130.89,134.1,132.36,135.96,134.25z M138.91,185.46c-0.92-0.93-1.61-2-2.07-3.18
				c-0.46-1.19-0.69-2.4-0.69-3.64c0-1.24,0.24-2.45,0.73-3.62c0.48-1.18,1.21-2.24,2.16-3.17c0.96-0.94,2.03-1.64,3.22-2.1
				c1.19-0.46,2.4-0.68,3.64-0.66c1.24,0.02,2.45,0.28,3.62,0.76c1.18,0.49,2.23,1.2,3.14,2.13c0.94,0.96,1.64,2.03,2.1,3.22
				c0.46,1.19,0.69,2.4,0.67,3.62c-0.01,1.23-0.26,2.43-0.75,3.61c-0.49,1.18-1.21,2.24-2.16,3.17c-0.96,0.94-2.03,1.64-3.22,2.1
				c-1.19,0.46-2.4,0.69-3.62,0.67c-1.23-0.01-2.43-0.26-3.61-0.75C140.91,187.13,139.85,186.41,138.91,185.46z"/>
		</g>
	</g>
</g>
</svg>
