<?xml version="1.0" encoding="utf-8"?>
<!-- Generator: Adobe Illustrator 28.0.0, SVG Export Plug-In . SVG Version: 6.00 Build 0)  -->
<svg version="1.1" xmlns="http://www.w3.org/2000/svg" xmlns:xlink="http://www.w3.org/1999/xlink" x="0px" y="0px"
	 viewBox="0 0 500 500" style="enable-background:new 0 0 500 500;" xml:space="preserve">
<style type="text/css">
	.st0{fill:#EB8455;}
	.st1{fill:#E0E0E0;}
	.st2{fill:#E6E6E6;}
	.st3{fill:#FAFAFA;}
	.st4{fill:#EBEBEB;}
	.st5{display:none;}
	.st6{display:inline;fill:#F0F0F0;}
	.st7{fill:#263238;}
	.st8{fill:#E8505B;}
	.st9{opacity:0.4;}
	.st10{clip-path:url(#SVGID_00000065776828384670387130000000774107048410419586_);}
	.st11{fill:#FFBE9D;}
	.st12{fill:#FFFFFF;}
	.st13{fill:#EB996E;}
	.st14{fill:#455A64;}
</style>
<g id="Background_Complete">
	<g>
		<g>
			<g>
				<path class="st0" d="M120.82,421.41c20.6-14.39,25.27-41.1,24.46-65.11c-0.14-4.01,0.3-8.23-1.6-11.75
					c-1.91-3.52-6.36-5.92-9.94-4.23c-2.98,1.4-4.27,4.86-5.94,7.73c-2.21,3.81-5.52,6.96-9.4,8.98c-2.55,1.32-5.71,2.13-8.23,0.74
					c-3.46-1.91-3.86-6.68-3.84-10.67c0.05-7.43,0.09-14.86,0.14-22.29c0.02-3.99,0.04-8.06-1.2-11.84
					c-1.24-3.78-3.98-7.3-7.77-8.36c-3.79-1.06-8.48,1.12-9.28,5.03c-0.33,1.62,0,3.31-0.11,4.96c-0.11,1.65-0.88,3.49-2.45,3.95
					c-1.59,0.47-3.19-0.66-4.38-1.83c-4.11-4.02-6.91-9.21-9.52-14.37c-2.61-5.16-5.14-10.44-8.88-14.83
					c-3.73-4.39-8.9-7.87-14.61-8.19c-5.71-0.32-11.79,3.2-13.23,8.8c-1.45,5.62,1.83,11.32,5.4,15.87
					c5.29,6.75,11.56,12.72,18.53,17.66c1.26,0.89,2.62,1.86,3.1,3.33c0.87,2.66-1.65,5.3-4.28,6.17c-2.97,0.99-6.2,0.68-9.3,1.05
					c-3.11,0.37-6.48,1.74-7.65,4.67c-1.63,4.07,1.77,8.35,5.13,11.14c6.71,5.6,14.38,10.03,22.56,13.02
					c2.93,1.07,6.02,2.01,8.38,4.07c2.36,2.06-1.3,9.35-2.73,12.16c-1.43,2.81,0,0-3.07-0.57c-3.07-0.57-5.82-2.24-8.75-3.34
					c-5.48-2.07-12.55-1.69-16.06,3.04c-2.31,3.11-2.51,7.45-1.34,11.16c1.17,3.71,3.53,6.91,6.04,9.85
					c8.78,10.3,20.02,18.59,32.73,23C96.42,424.83,108.19,426.03,120.82,421.41"/>
			</g>
		</g>
		<g>
			<g>
				<g>
					<path class="st1" d="M121.14,439.21c-0.87-9.51-2.96-20.75-6.51-32.85c-3.53-12.12-8.51-25.08-14.18-38.46
						c-1.43-3.34-2.84-6.64-4.23-9.89c-1.4-3.24-2.78-6.46-4.33-9.52c-3.07-6.14-6.5-11.81-9.91-17.08
						c-3.42-5.28-6.85-10.17-10.09-14.71c-3.26-4.54-6.37-8.72-9.37-12.4c-5.98-7.39-11.5-12.78-15.44-16.32
						c-1.97-1.78-3.54-3.11-4.61-3.99c-0.52-0.42-0.92-0.75-1.23-1c-0.28-0.22-0.43-0.33-0.44-0.32c-0.01,0.01,0.12,0.14,0.39,0.38
						c0.29,0.26,0.69,0.61,1.18,1.06c1.04,0.92,2.58,2.28,4.52,4.09c3.87,3.6,9.32,9.02,15.23,16.43c2.97,3.69,6.05,7.88,9.28,12.43
						c3.22,4.56,6.63,9.45,10.02,14.73c3.39,5.27,6.79,10.93,9.83,17.04c1.54,3.05,2.91,6.24,4.3,9.49c1.39,3.25,2.8,6.55,4.23,9.89
						c5.66,13.37,10.65,26.29,14.21,38.36c3.58,12.06,5.71,23.24,6.64,32.71"/>
				</g>
			</g>
		</g>
		<g>
			<g>
				<g>
					<path class="st1" d="M91.67,348.46c0.05,0.01,0.19-0.6,0.39-1.7c0.21-1.1,0.46-2.7,0.74-4.69c0.56-3.97,1.15-9.48,1.78-15.55
						c0.63-6.08,1.3-11.56,1.92-15.51c0.31-1.98,0.57-3.57,0.77-4.67c0.19-1.1,0.27-1.72,0.22-1.73c-0.05-0.01-0.23,0.58-0.5,1.67
						c-0.28,1.09-0.63,2.67-1,4.64c-0.76,3.94-1.51,9.44-2.14,15.52c-0.61,6-1.15,11.42-1.57,15.57c-0.2,1.87-0.37,3.45-0.51,4.71
						C91.66,347.83,91.62,348.45,91.67,348.46z"/>
				</g>
			</g>
		</g>
		<g>
			<g>
				<g>
					<path class="st1" d="M40.42,338.88c0,0.05,0.73,0.14,2.04,0.24c1.32,0.12,3.22,0.28,5.56,0.55c4.69,0.51,11.15,1.43,18.24,2.77
						c7.08,1.35,13.44,2.84,18.01,4.05c2.29,0.59,4.13,1.12,5.4,1.47c1.27,0.36,1.98,0.54,2,0.49c0.02-0.05-0.67-0.32-1.92-0.77
						c-1.25-0.44-3.07-1.05-5.35-1.7c-4.54-1.35-10.91-2.92-18.01-4.28c-7.1-1.34-13.6-2.19-18.32-2.56
						c-2.36-0.21-4.27-0.29-5.6-0.31C41.15,338.82,40.42,338.83,40.42,338.88z"/>
				</g>
			</g>
		</g>
		<g>
			<g>
				<g>
					<path class="st1" d="M114,405.41c0.02,0.01,0.14-0.2,0.35-0.62c0.24-0.5,0.53-1.11,0.88-1.85c0.75-1.61,1.78-3.98,3.02-6.91
						c2.47-5.87,5.63-14.09,9-23.2c3.37-9.12,6.45-17.35,8.79-23.27c1.15-2.88,2.1-5.24,2.8-7c0.3-0.76,0.55-1.39,0.75-1.91
						c0.16-0.44,0.24-0.67,0.22-0.69c-0.02-0.01-0.14,0.21-0.35,0.63c-0.24,0.5-0.53,1.11-0.88,1.85c-0.75,1.61-1.78,3.98-3.02,6.91
						c-2.47,5.87-5.63,14.09-9,23.21c-3.37,9.12-6.45,17.35-8.79,23.27c-1.15,2.87-2.1,5.24-2.8,7c-0.3,0.76-0.55,1.39-0.75,1.91
						C114.05,405.17,113.97,405.4,114,405.41z"/>
				</g>
			</g>
		</g>
		<g>
			<g>
				<g>
					<path class="st1" d="M45.89,383.46c-0.01,0.02,0.23,0.12,0.68,0.28c0.53,0.18,1.19,0.4,1.98,0.66
						c1.83,0.59,4.29,1.39,7.29,2.36c6.16,2,14.63,4.85,23.99,8.02c9.36,3.17,17.87,5.95,24.07,7.82c3.1,0.94,5.62,1.67,7.36,2.14
						c0.81,0.21,1.48,0.39,2.02,0.53c0.46,0.11,0.71,0.16,0.72,0.14c0.01-0.02-0.23-0.12-0.68-0.28c-0.53-0.18-1.18-0.4-1.98-0.66
						c-1.83-0.59-4.29-1.39-7.29-2.36c-6.16-2-14.63-4.85-23.99-8.02c-9.36-3.17-17.87-5.95-24.07-7.82
						c-3.1-0.94-5.62-1.67-7.37-2.14c-0.81-0.21-1.47-0.39-2.02-0.53C46.14,383.49,45.9,383.44,45.89,383.46z"/>
				</g>
			</g>
		</g>
	</g>
	<g>
		<g>
			<polygon class="st2" points="373.2,71.38 318.16,205.79 416.97,245.47 471.17,111.94 			"/>
			<g>
				<path class="st2" d="M373.2,71.38c0.9,0.37,38.62,15.94,98.01,40.45l0.11,0.04l-0.04,0.11
					c-15.22,37.52-33.95,83.69-54.17,133.55l-0.05,0.13l-0.13-0.05c-0.23-0.09-0.47-0.19-0.72-0.29
					c-35.18-14.13-68.53-27.53-98.08-39.41l-0.12-0.05l0.05-0.12C350.67,126.26,372.76,72.45,373.2,71.38
					c-0.44,1.07-22.43,54.92-54.92,134.46l-0.07-0.17c29.55,11.87,62.91,25.26,98.09,39.38c0.25,0.1,0.49,0.2,0.72,0.29l-0.19,0.08
					c20.24-49.85,38.99-96.01,54.22-133.53l0.06,0.15C411.79,87.4,374.1,71.75,373.2,71.38z"/>
			</g>
		</g>
		<g>
			<g>
				<polygon class="st3" points="365.99,58.55 310.95,192.96 409.76,232.65 463.96,99.11 				"/>
				<g>
					<path class="st4" d="M365.99,58.55c0.9,0.37,38.62,15.94,98.01,40.45l0.11,0.04l-0.04,0.11
						c-15.22,37.52-33.95,83.69-54.17,133.55l-0.05,0.13l-0.13-0.05c-0.23-0.09-0.47-0.19-0.72-0.29
						c-35.18-14.13-68.53-27.53-98.08-39.41l-0.12-0.05l0.05-0.12C343.46,113.43,365.55,59.62,365.99,58.55
						c-0.44,1.07-22.43,54.92-54.92,134.46l-0.07-0.17c29.55,11.87,62.91,25.26,98.09,39.38c0.25,0.1,0.49,0.2,0.72,0.29l-0.19,0.08
						c20.24-49.85,38.99-96.01,54.22-133.53l0.06,0.15C404.58,74.58,366.89,58.92,365.99,58.55z"/>
				</g>
			</g>
			<g>
				<path class="st1" d="M440.37,119.54c-0.09,0.22-17.22-6.25-38.26-14.45c-21.05-8.21-38.03-15.04-37.95-15.26
					c0.09-0.22,17.21,6.25,38.26,14.45C423.46,112.49,440.46,119.32,440.37,119.54z"/>
			</g>
			<g>
				<path class="st1" d="M436.59,131.84c-0.09,0.22-17.22-6.25-38.26-14.45c-21.05-8.21-38.03-15.04-37.95-15.26
					c0.09-0.22,17.21,6.25,38.26,14.45C419.68,124.79,436.67,131.62,436.59,131.84z"/>
			</g>
			<g>
				<path class="st1" d="M423.81,169.1c-0.09,0.22-17.22-6.25-38.26-14.45c-21.05-8.21-38.03-15.04-37.95-15.26
					c0.09-0.22,17.21,6.25,38.26,14.45C406.91,162.05,423.9,168.88,423.81,169.1z"/>
			</g>
			<g>
				<path class="st1" d="M417.78,181.69c-0.09,0.22-17.22-6.25-38.26-14.45c-21.05-8.21-38.03-15.04-37.95-15.26
					c0.09-0.22,17.21,6.25,38.26,14.45C400.88,174.63,417.87,181.46,417.78,181.69z"/>
			</g>
			<g>
				<path class="st1" d="M412.77,194.4c-0.09,0.22-17.22-6.25-38.26-14.45c-21.05-8.21-38.03-15.04-37.95-15.26
					c0.09-0.22,17.21,6.25,38.26,14.45C395.87,187.34,412.86,194.18,412.77,194.4z"/>
			</g>
			<g>
				<path class="st1" d="M407.76,207.11c-0.09,0.22-17.22-6.25-38.26-14.45c-21.05-8.21-38.03-15.04-37.95-15.26
					c0.09-0.22,17.21,6.25,38.26,14.45C390.86,200.05,407.85,206.89,407.76,207.11z"/>
			</g>
			<path class="st4" d="M377.4,106.43c-0.25,0.52-1.28,2.88-1.28,2.88l41.69,16.91l1.27-3.57L377.4,106.43z"/>
			<path class="st4" d="M356.41,111.66c-0.25,0.52-1.79,3.73-1.79,3.73l78.15,29.76l1.92-4.08L356.41,111.66z"/>
			<path class="st4" d="M351.87,124.32c-0.25,0.52-1.79,3.73-1.79,3.73l78.15,29.76l1.92-4.08L351.87,124.32z"/>
			<path class="st4" d="M347.94,137.6c-0.09,0.18-1.41,4.02-1.41,4.02l39.11,15l2.2-4.6L347.94,137.6z"/>
		</g>
	</g>
</g>
<g id="Background_Simple" class="st5">
	<path class="st6" d="M377.69,103.65c-39.48-34.45-92.92-0.01-144.83,72.6c-51.91,72.61-76.62,42.07-120.78,74.05
		c-44.16,31.98-55.91,163.06,99.6,150.32C367.18,387.88,480.9,193.72,377.69,103.65z"/>
</g>
<g id="Floor">
	<g>
		<path class="st7" d="M35.45,437.64c4.57,0,414.67,0,414.67,0"/>
		<g>
			<path class="st7" d="M450.12,437.64c0,0.14-92.83,0.26-207.32,0.26c-114.53,0-207.34-0.12-207.34-0.26s92.81-0.26,207.34-0.26
				C357.28,437.38,450.12,437.5,450.12,437.64z"/>
		</g>
	</g>
</g>
<g id="Document">
	<g>
		<g>
			<path class="st8" d="M98.94,66.79c-1.33,45.24-5.27,215.14-6.31,260.48c-0.14,6.19,4.74,11.33,10.93,11.52l186.23,5.69
				c6.26,0.19,11.48-4.76,11.62-11.02l2.9-131.34l15.77-0.26c3.88-0.06,7-3.2,7.05-7.08l1.21-105.84c0.05-3.94-3.11-7.18-7.05-7.24
				l-14.24-0.23l0.11-10.24c0.06-6.14-4.83-11.2-10.97-11.33l-185.79-4C104.23,55.79,99.12,60.64,98.94,66.79z"/>
			<path class="st9" d="M98.94,66.79c-1.33,45.24-5.27,215.14-6.31,260.48c-0.14,6.19,4.74,11.33,10.93,11.52l186.23,5.69
				c6.26,0.19,11.48-4.76,11.62-11.02l2.9-131.34l15.77-0.26c3.88-0.06,7-3.2,7.05-7.08l1.21-105.84c0.05-3.94-3.11-7.18-7.05-7.24
				l-14.24-0.23l0.11-10.24c0.06-6.14-4.83-11.2-10.97-11.33l-185.79-4C104.23,55.79,99.12,60.64,98.94,66.79z"/>
		</g>
		<polygon class="st1" points="113.09,68.73 96.66,330.4 288.58,341.15 304.06,81.45 		"/>
		<polygon class="st4" points="90.02,63.05 91.3,325.24 283.5,323 281.42,62.85 		"/>
		<g>
			<g>
				<polygon class="st3" points="64.86,81.09 101.14,340.76 291.32,312.88 254.52,55.34 				"/>
				<g>
					<path class="st7" d="M64.86,81.09c1.74-0.24,74.72-10.23,189.63-25.96l0.21-0.03l0.03,0.21
						c10.35,72.36,23.09,161.38,36.85,257.53l0.04,0.26l-0.26,0.04c-0.44,0.06-0.91,0.13-1.39,0.2
						c-67.71,9.92-131.92,19.32-188.8,27.65l-0.24,0.03l-0.03-0.24C79.58,187.16,65.15,83.16,64.86,81.09
						c0.29,2.07,14.91,106.04,36.51,259.64l-0.27-0.2c56.88-8.35,121.08-17.76,188.79-27.7c0.48-0.07,0.95-0.14,1.39-0.2l-0.22,0.29
						c-13.72-96.16-26.43-185.19-36.75-257.55l0.24,0.18C139.61,71.03,66.6,80.86,64.86,81.09z"/>
				</g>
			</g>
			<g>
				<path class="st7" d="M242.57,141.26c0.07,0.43-32.53,5.9-72.81,12.22c-40.29,6.33-72.99,11.11-73.06,10.68
					c-0.07-0.43,32.53-5.9,72.81-12.22C209.79,145.62,242.5,140.84,242.57,141.26z"/>
			</g>
			<g>
				<path class="st7" d="M256.5,210.99c0.07,0.43-32.53,5.9-72.81,12.22c-40.29,6.33-72.99,11.11-73.06,10.68
					c-0.07-0.43,32.53-5.9,72.81-12.22C223.72,215.34,256.43,210.56,256.5,210.99z"/>
			</g>
			<g>
				<path class="st7" d="M258.53,236.1c0.07,0.43-32.53,5.9-72.81,12.22c-40.29,6.33-72.99,11.11-73.06,10.68
					c-0.07-0.43,32.53-5.9,72.81-12.22C225.75,240.46,258.46,235.67,258.53,236.1z"/>
			</g>
			<g>
				<path class="st7" d="M235.17,86.17c0.02,0.39-21.88,3.8-48.9,7.62c-27.03,3.82-48.95,6.6-48.96,6.21
					c-0.02-0.39,21.88-3.8,48.91-7.62C213.23,88.56,235.15,85.78,235.17,86.17z"/>
			</g>
			<g>
				<path class="st7" d="M238.26,100.07c0.02,0.39-21.88,3.8-48.9,7.62c-27.03,3.82-48.95,6.6-48.96,6.21
					c-0.02-0.39,21.88-3.8,48.91-7.62C216.32,102.46,238.25,99.68,238.26,100.07z"/>
			</g>
			<g>
				<path class="st7" d="M242,114.74c0.02,0.39-21.88,3.8-48.9,7.62c-27.03,3.82-48.95,6.6-48.96,6.21
					c-0.02-0.39,21.88-3.8,48.91-7.62C220.06,117.13,241.98,114.35,242,114.74z"/>
			</g>
			<g>
				<path class="st7" d="M262.26,260.48c0.07,0.43-32.53,5.9-72.81,12.22c-40.29,6.33-72.99,11.11-73.06,10.68
					c-0.07-0.43,32.53-5.9,72.81-12.22C229.48,264.83,262.19,260.05,262.26,260.48z"/>
			</g>
			<g>
				<path class="st7" d="M265.99,284.86c0.07,0.43-32.53,5.9-72.81,12.22c-40.29,6.33-72.99,11.11-73.06,10.68
					c-0.07-0.43,32.53-5.9,72.81-12.22C233.22,289.21,265.93,284.43,265.99,284.86z"/>
			</g>
			<path class="st8" d="M127.16,155.4c0.08,1.04,0.63,5.66,0.63,5.66l80.39-11.51l-1.26-6.73L127.16,155.4z"/>
			<path class="st8" d="M99.16,182.64c0.08,1.04,0.6,7.44,0.6,7.44l148.93-24.59l-0.71-8.11L99.16,182.64z"/>
			<path class="st8" d="M103.59,206.5c0.08,1.04,0.6,7.44,0.6,7.44l148.93-24.59l-0.71-8.11L103.59,206.5z"/>
			<path class="st8" d="M109.54,230.79c0.03,0.37,1.46,7.55,1.46,7.55l74.64-12.14l-0.74-9.18L109.54,230.79z"/>
			<polygon class="st7" points="87.86,98.58 94.54,146.78 138.43,140.63 132.45,92.58 			"/>
			<g>
				<defs>
					<polygon id="SVGID_1_" points="87.86,98.58 94.54,146.78 138.43,140.63 132.45,92.58 					"/>
				</defs>
				<use xlink:href="#SVGID_1_"  style="overflow:visible;fill:#E8505B;"/>
				<clipPath id="SVGID_00000152983424383601335910000011331479893118452608_">
					<use xlink:href="#SVGID_1_"  style="overflow:visible;"/>
				</clipPath>
				<g style="clip-path:url(#SVGID_00000152983424383601335910000011331479893118452608_);">
					<g>
						<g>
							<g>
								<g>
									<path class="st11" d="M109.74,138.5l13.22-3.58c-0.21-1.58-1.45-7.63-1.45-7.63s5.42-1.91,4.45-7.51
										c-0.97-5.6-4.34-18.24-4.34-18.24l0,0c-6.98-1.57-14.27,0.76-19.04,6.09l-0.71,0.79L109.74,138.5z"/>
								</g>
								<g>
									<g>
										<path class="st7" d="M122.13,111.38c-0.39-0.24-0.51-0.75-0.27-1.14c0.24-0.39,0.75-0.51,1.14-0.27
											c0.39,0.24,0.51,0.75,0.27,1.14S122.52,111.62,122.13,111.38z"/>
									</g>
									<g>
										<g>
											<path class="st7" d="M123.25,109.85c-0.07,0.11-0.7-0.21-1.47-0.07c-0.77,0.13-1.25,0.64-1.36,0.56
												c-0.05-0.04,0-0.23,0.21-0.46c0.2-0.23,0.58-0.48,1.06-0.57c0.48-0.08,0.92,0.03,1.19,0.17
												C123.17,109.64,123.28,109.8,123.25,109.85z"/>
										</g>
									</g>
								</g>
								<g>
									<g>
										<path class="st7" d="M114.51,112.18c0.43,0.16,0.64,0.64,0.47,1.07c-0.16,0.43-0.64,0.64-1.07,0.47
											c-0.43-0.16-0.64-0.64-0.47-1.07C113.61,112.23,114.09,112.01,114.51,112.18z"/>
									</g>
									<g>
										<g>
											<path class="st7" d="M115.02,112.09c-0.07,0.11-0.7-0.21-1.47-0.07c-0.77,0.13-1.25,0.64-1.36,0.56
												c-0.05-0.04,0-0.23,0.21-0.46c0.2-0.23,0.58-0.48,1.06-0.57c0.48-0.08,0.92,0.03,1.19,0.17
												C114.94,111.88,115.06,112.04,115.02,112.09z"/>
										</g>
									</g>
								</g>
								<g>
									<g>
										<path class="st7" d="M119.29,117.86c-0.02-0.06,0.44-0.24,1.19-0.5c0.2-0.06,0.35-0.13,0.34-0.25
											c0.01-0.13-0.1-0.33-0.25-0.55c-0.29-0.47-0.59-0.95-0.9-1.45c-1.26-2.07-2.19-3.8-2.08-3.86
											c0.11-0.06,1.21,1.56,2.46,3.63c0.3,0.51,0.59,0.99,0.87,1.47c0.12,0.22,0.31,0.46,0.27,0.82
											c-0.02,0.18-0.16,0.33-0.29,0.39c-0.13,0.07-0.24,0.09-0.33,0.11C119.79,117.84,119.31,117.92,119.29,117.86z"/>
									</g>
								</g>
								<g>
									<path class="st12" d="M116.95,119.18c-0.89-0.33,2.43,0.76,3.98,0.39c0,0-0.63,1.6-2.35,1.31
										C116.79,120.58,116.95,119.18,116.95,119.18z"/>
								</g>
								<g>
									<path class="st13" d="M121.51,127.21c0,0-3.48,0.95-7.67-0.71c0,0,2.47,3.7,7.95,2.15L121.51,127.21z"/>
								</g>
							</g>
						</g>
						<g>
							<g>
								<path class="st11" d="M102.87,113.83c-0.13-0.01-4.22,0.47-2.67,5.05c1.55,4.58,5.67,1.5,5.63,1.37
									C105.79,120.12,102.87,113.83,102.87,113.83z"/>
							</g>
							<g>
								<g>
									<path class="st13" d="M103.88,119.12c-0.03-0.01-0.06,0.08-0.17,0.19c-0.11,0.1-0.32,0.22-0.59,0.21
										c-0.54-0.01-1.21-0.64-1.51-1.46c-0.15-0.41-0.2-0.84-0.16-1.22c0.03-0.38,0.16-0.69,0.39-0.82
										c0.22-0.14,0.45-0.05,0.55,0.06c0.1,0.11,0.11,0.21,0.13,0.21c0.02,0.01,0.07-0.11-0.03-0.29
										c-0.05-0.08-0.14-0.17-0.28-0.23c-0.14-0.05-0.32-0.04-0.48,0.03c-0.34,0.14-0.55,0.58-0.59,0.99
										c-0.06,0.42-0.02,0.91,0.16,1.37c0.34,0.91,1.11,1.62,1.83,1.59c0.35-0.02,0.59-0.21,0.69-0.37
										C103.91,119.23,103.9,119.12,103.88,119.12z"/>
								</g>
							</g>
						</g>
						<path class="st7" d="M121.58,101.38c-0.73,4.1-6.01,6.65-10.06,7.65c1.59-2.02,0.48-1.45,1.43-2.84
							c-2.04,2.6-5.86,5.59-10.58,6.35c-0.98-1.77-1.2-3.94-0.62-5.88c0.59-1.94,1.99-3.61,3.79-4.54c1.19-0.61,2.51-0.9,3.74-1.43
							c1.03-0.45,1.99-1.08,3.06-1.44C115.55,98.15,120.72,96.26,121.58,101.38"/>
						<path class="st7" d="M104.5,109.99c-0.11,0.58-0.11,7.14-0.11,7.14l-2.57-5.85L104.5,109.99z"/>
					</g>
					<path class="st14" d="M83.46,161.85l11.12-16.36l0,0c2.13-3.24,4.86-5.85,8.31-7.89c1.68-0.99,3.52-1.74,5.71-2.24l0,0
						c5.05,0.58,9.82-0.3,14.32-2.66c2.01-0.12,6.46-0.38,11.89,1.12l0,0l22,4.48l-3.18,19.3l-11.65-1.64l2.52,17.12l6.91,25.03
						l-42.35,8.36l-3.76-23.17l-3.08-16.69l-5.01,7.1L83.46,161.85z"/>
				</g>
			</g>
		</g>
	</g>
</g>
<g id="Character">
	<g>
		<g>
			<g>
				<g>
					<g>
						<g>
							<path class="st8" d="M323.69,434.16l-0.05-9.2l17.22-0.21l0.22,13.45l-1.07,0.08c-4.75,0.32-24.17,1.3-27.36,0.38
								C309.1,437.63,323.69,434.16,323.69,434.16z"/>
						</g>
					</g>
					<g>
						<g>
							<path class="st8" d="M334.83,438.15c0.23-1.44,1.01-2.79,2.15-3.7c1.14-0.91,2.55-1.4,4.01-1.3l0.06,4.81L334.83,438.15z"/>
						</g>
					</g>
				</g>
				<g>
					<g>
						<path class="st8" d="M316.56,436.11c0,0-5.11,1.54-4.46,2.38c0.65,0.84,20.31,0.59,28.98-0.28l-0.03-0.38l-22.93,0.49
							C318.11,438.31,317.57,436.14,316.56,436.11z"/>
					</g>
				</g>
				<g>
					<g>
						<g>
							<path class="st7" d="M341.32,437.81c0,0.01-0.1,0.02-0.3,0.04c-0.26,0.02-0.53,0.04-0.85,0.06c-0.85,0.05-1.9,0.11-3.13,0.17
								c-2.64,0.13-6.3,0.26-10.33,0.31c-4.04,0.05-7.69,0.02-10.34-0.03c-1.23-0.04-2.28-0.07-3.13-0.09
								c-0.32-0.01-0.6-0.03-0.85-0.04c-0.19-0.01-0.3-0.02-0.3-0.03c0-0.01,0.1-0.01,0.3-0.01c0.26,0,0.54,0,0.85,0
								c0.85,0.01,1.9,0.01,3.13,0.02c2.64,0.02,6.3,0.03,10.33-0.03c4.03-0.05,7.69-0.16,10.33-0.25c1.23-0.04,2.28-0.08,3.13-0.11
								c0.32-0.01,0.6-0.02,0.85-0.02C341.22,437.8,341.32,437.8,341.32,437.81z"/>
						</g>
					</g>
				</g>
				<g>
					<g>
						<g>
							<path class="st7" d="M318.12,438.58c-0.06,0.01-0.12-0.74-0.6-1.49c-0.47-0.76-1.12-1.13-1.08-1.18
								c0.01-0.05,0.75,0.26,1.26,1.07C318.21,437.78,318.17,438.59,318.12,438.58z"/>
						</g>
					</g>
				</g>
				<g>
					<g>
						<g>
							<path class="st7" d="M323.17,435.93c-0.05,0.03-0.3-0.26-0.55-0.65c-0.26-0.39-0.42-0.74-0.38-0.77
								c0.05-0.03,0.3,0.26,0.55,0.65C323.05,435.56,323.22,435.9,323.17,435.93z"/>
						</g>
					</g>
				</g>
				<g>
					<g>
						<g>
							<path class="st7" d="M324.56,435.18c-0.04,0.04-0.31-0.13-0.61-0.4c-0.3-0.26-0.51-0.51-0.47-0.55
								c0.04-0.04,0.31,0.13,0.61,0.4C324.38,434.89,324.59,435.14,324.56,435.18z"/>
						</g>
					</g>
				</g>
				<g>
					<g>
						<g>
							<path class="st7" d="M325.42,433.54c0,0.06-0.4,0.11-0.9,0.13c-0.5,0.01-0.9-0.03-0.9-0.08c0-0.06,0.4-0.11,0.9-0.13
								C325.01,433.45,325.42,433.49,325.42,433.54z"/>
						</g>
					</g>
				</g>
				<g>
					<g>
						<g>
							<path class="st7" d="M325.71,432.39c0.02,0.05-0.42,0.25-1,0.3c-0.58,0.05-1.05-0.07-1.04-0.12
								c0.01-0.06,0.46-0.03,1.02-0.08C325.24,432.44,325.69,432.34,325.71,432.39z"/>
						</g>
					</g>
				</g>
				<g>
					<g>
						<g>
							<path class="st7" d="M322.57,434.44c0,0.02-0.42,0.08-1.11,0.01c-0.34-0.04-0.75-0.11-1.18-0.24
								c-0.22-0.07-0.44-0.13-0.68-0.27c-0.11-0.07-0.23-0.17-0.28-0.34c-0.05-0.17,0.04-0.35,0.16-0.44
								c1.05-0.56,2.12,0.02,2.52,0.56c0.22,0.28,0.32,0.55,0.37,0.73c0.05,0.19,0.04,0.3,0.03,0.3c-0.04,0.01-0.08-0.43-0.52-0.94
								c-0.21-0.25-0.54-0.48-0.95-0.6c-0.39-0.11-0.95-0.14-1.32,0.11c-0.17,0.13-0.1,0.34,0.09,0.45
								c0.18,0.12,0.42,0.18,0.63,0.26c0.42,0.14,0.81,0.23,1.14,0.28C322.15,434.41,322.57,434.41,322.57,434.44z"/>
						</g>
					</g>
				</g>
				<g>
					<g>
						<g>
							<path class="st7" d="M322.28,434.5c-0.02,0.01-0.18-0.27-0.14-0.77c0.02-0.24,0.11-0.54,0.29-0.81
								c0.19-0.25,0.44-0.59,0.91-0.58c0.26,0.03,0.39,0.32,0.35,0.51c-0.02,0.19-0.1,0.36-0.18,0.5c-0.16,0.28-0.34,0.5-0.51,0.68
								c-0.34,0.34-0.62,0.48-0.63,0.46c-0.02-0.03,0.22-0.2,0.52-0.56c0.15-0.18,0.31-0.4,0.45-0.67c0.15-0.24,0.25-0.66-0.03-0.7
								c-0.28-0.02-0.56,0.26-0.72,0.48c-0.17,0.24-0.26,0.5-0.3,0.72C322.21,434.2,322.32,434.49,322.28,434.5z"/>
						</g>
					</g>
				</g>
				<g>
					<g>
						<g>
							<path class="st7" d="M340.91,433.1c0,0.04-0.49-0.04-1.27,0.06c-0.77,0.1-1.84,0.43-2.76,1.18c-0.92,0.76-1.46,1.74-1.7,2.47
								c-0.25,0.74-0.27,1.24-0.31,1.23c-0.01,0-0.02-0.12,0-0.35c0.02-0.22,0.06-0.55,0.18-0.93c0.22-0.77,0.75-1.8,1.71-2.59
								c0.96-0.79,2.08-1.1,2.88-1.16c0.4-0.03,0.73-0.02,0.95,0.01C340.79,433.06,340.91,433.09,340.91,433.1z"/>
						</g>
					</g>
				</g>
				<g>
					<g>
						<g>
							<path class="st7" d="M339.03,425.96c0.06,0,0.14,1.58,0.19,3.54c0.05,1.95,0.04,3.54-0.01,3.54c-0.06,0-0.14-1.58-0.19-3.54
								C338.97,427.54,338.97,425.96,339.03,425.96z"/>
						</g>
					</g>
				</g>
				<g>
					<g>
						<g>
							<path class="st7" d="M332.65,436.5c0.01,0.05-1.11,0.25-2.51,0.28c-1.4,0.03-2.53-0.12-2.52-0.17c0-0.06,1.13-0.01,2.52-0.04
								C331.52,436.54,332.64,436.44,332.65,436.5z"/>
						</g>
					</g>
				</g>
				<g>
					<g>
						<g>
							<path class="st7" d="M336.02,436.45c0.04,0.04-0.09,0.24-0.2,0.5c-0.12,0.26-0.17,0.49-0.23,0.49
								c-0.06,0-0.09-0.27,0.04-0.57C335.76,436.56,335.98,436.41,336.02,436.45z"/>
						</g>
					</g>
				</g>
				<g>
					<g>
						<g>
							<path class="st7" d="M337.27,434.85c0.04,0.04-0.07,0.22-0.24,0.4c-0.18,0.18-0.35,0.3-0.39,0.26
								c-0.04-0.04,0.07-0.22,0.24-0.4C337.06,434.92,337.23,434.81,337.27,434.85z"/>
						</g>
					</g>
				</g>
				<g>
					<g>
						<g>
							<path class="st7" d="M339.08,434.1c-0.01,0.06-0.24,0.06-0.49,0.15c-0.25,0.09-0.43,0.23-0.48,0.19
								c-0.05-0.03,0.1-0.28,0.41-0.39C338.84,433.95,339.1,434.05,339.08,434.1z"/>
						</g>
					</g>
				</g>
				<g>
					<g>
						<g>
							<path class="st7" d="M340.38,433.74c0.02,0.05-0.08,0.14-0.22,0.2c-0.14,0.06-0.27,0.06-0.3,0.01
								c-0.02-0.05,0.08-0.14,0.22-0.2C340.22,433.69,340.35,433.69,340.38,433.74z"/>
						</g>
					</g>
				</g>
			</g>
		</g>
		<g>
			<g>
				<g>
					<g>
						<g>
							<path class="st8" d="M411.71,429.41l-2.8-8.76l-16.44,5.15l3.97,12.86l1.04-0.25c4.61-1.17,23.38-6.27,26.13-8.14
								C426.66,428.18,411.71,429.41,411.71,429.41z"/>
						</g>
					</g>
					<g>
						<g>
							<path class="st8" d="M402.35,436.66c-0.66-1.3-1.83-2.34-3.19-2.85s-2.86-0.54-4.22,0.01l1.44,4.6L402.35,436.66z"/>
						</g>
					</g>
				</g>
				<g>
					<g>
						<path class="st8" d="M419.09,429.05c0,0,5.34-0.12,4.98,0.88c-0.36,1-19.13,6.86-27.63,8.73l-0.09-0.38l21.95-6.66
							C418.3,431.62,418.15,429.39,419.09,429.05z"/>
					</g>
				</g>
				<g>
					<g>
						<g>
							<path class="st7" d="M396.08,438.35c0,0.01,0.1-0.01,0.29-0.06c0.25-0.06,0.52-0.13,0.83-0.2c0.82-0.22,1.83-0.49,3.03-0.8
								c2.55-0.7,6.07-1.71,9.92-2.91c3.86-1.2,7.32-2.37,9.82-3.24c1.16-0.42,2.15-0.77,2.95-1.06c0.3-0.11,0.56-0.21,0.8-0.3
								c0.18-0.07,0.28-0.11,0.27-0.12c0-0.01-0.1,0.02-0.29,0.08c-0.24,0.08-0.51,0.17-0.81,0.26c-0.81,0.27-1.8,0.6-2.97,0.99
								c-2.51,0.84-5.98,1.98-9.83,3.18c-3.85,1.2-7.36,2.23-9.9,2.97c-1.19,0.34-2.19,0.63-3.01,0.87
								c-0.3,0.09-0.57,0.17-0.82,0.24C396.18,438.31,396.08,438.34,396.08,438.35z"/>
						</g>
					</g>
				</g>
				<g>
					<g>
						<g>
							<path class="st7" d="M418.37,431.88c0.06-0.01-0.11-0.74,0.11-1.6c0.21-0.87,0.71-1.42,0.66-1.46
								c-0.03-0.05-0.64,0.48-0.86,1.41C418.05,431.15,418.33,431.91,418.37,431.88z"/>
						</g>
					</g>
				</g>
				<g>
					<g>
						<g>
							<path class="st7" d="M412.75,430.93c0.06,0.02,0.2-0.34,0.32-0.79c0.12-0.45,0.18-0.83,0.12-0.85
								c-0.06-0.02-0.2,0.34-0.32,0.79C412.75,430.54,412.7,430.92,412.75,430.93z"/>
						</g>
					</g>
				</g>
				<g>
					<g>
						<g>
							<path class="st7" d="M411.2,430.65c0.05,0.03,0.25-0.22,0.46-0.57c0.2-0.34,0.33-0.64,0.28-0.67
								c-0.05-0.03-0.25,0.22-0.46,0.57C411.28,430.31,411.15,430.62,411.2,430.65z"/>
						</g>
					</g>
				</g>
				<g>
					<g>
						<g>
							<path class="st7" d="M409.88,429.36c0.02,0.06,0.42-0.02,0.89-0.16c0.48-0.14,0.85-0.3,0.83-0.36
								c-0.02-0.06-0.42,0.02-0.89,0.16C410.23,429.14,409.86,429.3,409.88,429.36z"/>
						</g>
					</g>
				</g>
				<g>
					<g>
						<g>
							<path class="st7" d="M409.25,428.35c0,0.05,0.47,0.11,1.04-0.02c0.57-0.13,0.97-0.39,0.95-0.44
								c-0.03-0.05-0.45,0.11-0.99,0.24C409.7,428.26,409.25,428.29,409.25,428.35z"/>
						</g>
					</g>
				</g>
				<g>
					<g>
						<g>
							<path class="st7" d="M412.86,429.32c0.01,0.02,0.43-0.05,1.05-0.34c0.31-0.14,0.67-0.34,1.05-0.6
								c0.18-0.14,0.38-0.26,0.56-0.47c0.08-0.1,0.17-0.24,0.16-0.41c-0.01-0.17-0.15-0.32-0.29-0.37
								c-1.17-0.21-2.01,0.68-2.22,1.32c-0.12,0.33-0.14,0.62-0.12,0.81c0.01,0.19,0.05,0.3,0.06,0.29c0.04,0-0.06-0.44,0.2-1.05
								c0.13-0.3,0.36-0.63,0.72-0.87c0.34-0.23,0.86-0.42,1.29-0.31c0.21,0.07,0.2,0.29,0.05,0.46c-0.14,0.17-0.34,0.31-0.51,0.44
								c-0.36,0.26-0.7,0.47-1,0.62C413.26,429.17,412.85,429.29,412.86,429.32z"/>
						</g>
					</g>
				</g>
				<g>
					<g>
						<g>
							<path class="st7" d="M413.15,429.29c0.02,0.01,0.09-0.31-0.11-0.77c-0.1-0.23-0.27-0.48-0.53-0.68
								c-0.26-0.18-0.6-0.42-1.05-0.26c-0.24,0.11-0.27,0.42-0.17,0.59c0.08,0.18,0.21,0.31,0.33,0.42c0.24,0.21,0.48,0.37,0.7,0.48
								c0.43,0.22,0.73,0.26,0.74,0.24c0.01-0.03-0.27-0.12-0.67-0.37c-0.2-0.12-0.42-0.29-0.64-0.5c-0.21-0.18-0.44-0.55-0.19-0.68
								c0.26-0.11,0.61,0.07,0.84,0.23c0.24,0.18,0.41,0.39,0.51,0.59C413.13,428.99,413.12,429.29,413.15,429.29z"/>
						</g>
					</g>
				</g>
				<g>
					<g>
						<g>
							<path class="st7" d="M395.01,433.74c0.02,0.04,0.46-0.19,1.23-0.34c0.76-0.15,1.88-0.17,2.99,0.26
								c1.11,0.43,1.92,1.2,2.39,1.82c0.47,0.63,0.64,1.09,0.68,1.08c0.01,0-0.02-0.12-0.1-0.33c-0.08-0.21-0.23-0.5-0.46-0.83
								c-0.44-0.66-1.27-1.48-2.43-1.93c-1.16-0.45-2.32-0.4-3.1-0.21c-0.39,0.09-0.7,0.21-0.9,0.31
								C395.11,433.66,395.01,433.73,395.01,433.74z"/>
						</g>
					</g>
				</g>
				<g>
					<g>
						<g>
							<path class="st7" d="M394.58,426.37c-0.06,0.02,0.35,1.55,0.91,3.42c0.56,1.87,1.06,3.38,1.11,3.36
								c0.06-0.02-0.35-1.55-0.91-3.42C395.13,427.86,394.64,426.35,394.58,426.37z"/>
						</g>
					</g>
				</g>
				<g>
					<g>
						<g>
							<path class="st7" d="M403.92,434.41c0.01,0.05,1.14-0.11,2.47-0.51c1.34-0.4,2.37-0.89,2.34-0.94
								c-0.02-0.06-1.08,0.35-2.4,0.74C405.01,434.1,403.91,434.35,403.92,434.41z"/>
						</g>
					</g>
				</g>
				<g>
					<g>
						<g>
							<path class="st7" d="M400.7,435.41c-0.03,0.05,0.16,0.2,0.35,0.41c0.19,0.21,0.31,0.41,0.37,0.39c0.05-0.02,0-0.29-0.21-0.53
								C400.98,435.44,400.72,435.36,400.7,435.41z"/>
						</g>
					</g>
				</g>
				<g>
					<g>
						<g>
							<path class="st7" d="M399.01,434.28c-0.03,0.05,0.13,0.19,0.36,0.31c0.22,0.12,0.43,0.17,0.45,0.12
								c0.03-0.05-0.13-0.19-0.36-0.31C399.24,434.28,399.04,434.23,399.01,434.28z"/>
						</g>
					</g>
				</g>
				<g>
					<g>
						<g>
							<path class="st7" d="M397.06,434.13c0.03,0.05,0.25-0.02,0.51-0.01c0.27,0,0.48,0.08,0.51,0.03
								c0.03-0.04-0.18-0.23-0.51-0.24C397.25,433.9,397.03,434.08,397.06,434.13z"/>
						</g>
					</g>
				</g>
				<g>
					<g>
						<g>
							<path class="st7" d="M395.72,434.19c0,0.06,0.12,0.11,0.27,0.12c0.15,0.01,0.28-0.03,0.28-0.09c0-0.06-0.12-0.11-0.27-0.12
								C395.85,434.1,395.72,434.13,395.72,434.19z"/>
						</g>
					</g>
				</g>
			</g>
		</g>
		<g>
			<polyline class="st7" points="311.97,251.55 320.01,430.2 346.83,430.76 342.38,281.2 390.98,432.54 412.9,426.54 363.99,251.55 
							"/>
			<polygon class="st14" points="389.83,431.53 391.08,433.93 414.31,427.16 412.9,423.26 			"/>
			<g>
				<g>
					<path class="st14" d="M410.22,422.37c0.14-0.04,0.35,0.25,0.46,0.64c0.12,0.4,0.1,0.75-0.03,0.79
						c-0.14,0.04-0.35-0.25-0.46-0.64C410.07,422.77,410.08,422.41,410.22,422.37z"/>
				</g>
				<g>
					<path class="st14" d="M408.48,416.57c0.14-0.04,0.44,0.57,0.68,1.38c0.24,0.8,0.32,1.48,0.19,1.53
						c-0.14,0.04-0.44-0.57-0.68-1.38C408.43,417.29,408.34,416.61,408.48,416.57z"/>
				</g>
				<g>
					<path class="st14" d="M406.74,410.77c0.14-0.04,0.44,0.57,0.68,1.38c0.24,0.8,0.32,1.48,0.19,1.53
						c-0.14,0.04-0.44-0.57-0.68-1.38C406.69,411.49,406.6,410.81,406.74,410.77z"/>
				</g>
				<g>
					<path class="st14" d="M405,404.97c0.14-0.04,0.44,0.57,0.68,1.38c0.24,0.8,0.32,1.48,0.19,1.52c-0.14,0.04-0.44-0.57-0.68-1.38
						C404.95,405.69,404.86,405.01,405,404.97z"/>
				</g>
				<g>
					<path class="st14" d="M403.26,399.17c0.14-0.04,0.44,0.57,0.68,1.38c0.24,0.8,0.32,1.48,0.19,1.52
						c-0.14,0.04-0.44-0.57-0.68-1.38C403.21,399.89,403.13,399.21,403.26,399.17z"/>
				</g>
				<g>
					<path class="st14" d="M401.52,393.37c0.14-0.04,0.44,0.57,0.68,1.38c0.24,0.8,0.32,1.48,0.19,1.53
						c-0.14,0.04-0.44-0.57-0.68-1.38C401.47,394.09,401.39,393.41,401.52,393.37z"/>
				</g>
				<g>
					<path class="st14" d="M399.78,387.56c0.14-0.04,0.44,0.57,0.68,1.38c0.24,0.8,0.32,1.48,0.19,1.53
						c-0.14,0.04-0.44-0.57-0.68-1.38C399.73,388.29,399.65,387.61,399.78,387.56z"/>
				</g>
				<g>
					<path class="st14" d="M398.04,381.76c0.14-0.04,0.44,0.57,0.68,1.38c0.24,0.8,0.32,1.48,0.19,1.53
						c-0.14,0.04-0.44-0.57-0.68-1.38C397.99,382.49,397.91,381.8,398.04,381.76z"/>
				</g>
				<g>
					<path class="st14" d="M396.3,375.96c0.14-0.04,0.44,0.57,0.68,1.38c0.24,0.8,0.32,1.48,0.19,1.53
						c-0.14,0.04-0.44-0.57-0.68-1.38C396.25,376.69,396.17,376,396.3,375.96z"/>
				</g>
				<g>
					<path class="st14" d="M394.57,370.16c0.14-0.04,0.44,0.57,0.68,1.38c0.24,0.8,0.32,1.48,0.19,1.53
						c-0.14,0.04-0.44-0.57-0.68-1.38C394.51,370.89,394.43,370.2,394.57,370.16z"/>
				</g>
				<g>
					<path class="st14" d="M392.83,364.36c0.14-0.04,0.44,0.57,0.68,1.38c0.24,0.8,0.32,1.48,0.19,1.53
						c-0.14,0.04-0.44-0.57-0.68-1.38C392.77,365.09,392.69,364.4,392.83,364.36z"/>
				</g>
				<g>
					<path class="st14" d="M391.09,358.56c0.14-0.04,0.44,0.57,0.68,1.38c0.24,0.8,0.32,1.48,0.19,1.53
						c-0.14,0.04-0.44-0.57-0.68-1.38C391.03,359.28,390.95,358.6,391.09,358.56z"/>
				</g>
				<g>
					<path class="st14" d="M389.35,352.76c0.14-0.04,0.44,0.57,0.68,1.38c0.24,0.8,0.32,1.48,0.19,1.53
						c-0.14,0.04-0.44-0.57-0.68-1.38C389.29,353.48,389.21,352.8,389.35,352.76z"/>
				</g>
				<g>
					<path class="st14" d="M387.61,346.96c0.14-0.04,0.44,0.57,0.68,1.38c0.24,0.8,0.32,1.48,0.19,1.53
						c-0.14,0.04-0.44-0.57-0.68-1.38C387.55,347.68,387.47,347,387.61,346.96z"/>
				</g>
				<g>
					<path class="st14" d="M385.87,341.16c0.14-0.04,0.44,0.57,0.68,1.38c0.24,0.8,0.32,1.48,0.19,1.53
						c-0.14,0.04-0.44-0.57-0.68-1.38C385.81,341.88,385.73,341.2,385.87,341.16z"/>
				</g>
				<g>
					<path class="st14" d="M384.13,335.36c0.14-0.04,0.44,0.57,0.68,1.38c0.24,0.8,0.32,1.48,0.19,1.53
						c-0.14,0.04-0.44-0.57-0.68-1.38C384.07,336.08,383.99,335.4,384.13,335.36z"/>
				</g>
				<g>
					<path class="st14" d="M382.39,329.56c0.14-0.04,0.44,0.57,0.68,1.38c0.24,0.8,0.32,1.48,0.19,1.53
						c-0.14,0.04-0.44-0.57-0.68-1.38C382.33,330.28,382.25,329.6,382.39,329.56z"/>
				</g>
				<g>
					<path class="st14" d="M380.65,323.75c0.14-0.04,0.44,0.57,0.68,1.38c0.24,0.8,0.32,1.48,0.19,1.53
						c-0.14,0.04-0.44-0.57-0.68-1.38C380.59,324.48,380.51,323.8,380.65,323.75z"/>
				</g>
				<g>
					<path class="st14" d="M378.91,317.95c0.14-0.04,0.44,0.57,0.68,1.38c0.24,0.8,0.32,1.48,0.19,1.53
						c-0.14,0.04-0.44-0.57-0.68-1.38C378.85,318.68,378.77,318,378.91,317.95z"/>
				</g>
				<g>
					<path class="st14" d="M377.17,312.15c0.14-0.04,0.44,0.57,0.68,1.38c0.24,0.8,0.32,1.48,0.19,1.53
						c-0.14,0.04-0.44-0.57-0.68-1.38C377.11,312.88,377.03,312.19,377.17,312.15z"/>
				</g>
				<g>
					<path class="st14" d="M375.43,306.35c0.14-0.04,0.44,0.57,0.68,1.38c0.24,0.8,0.32,1.48,0.19,1.53
						c-0.14,0.04-0.44-0.57-0.68-1.38C375.37,307.08,375.29,306.39,375.43,306.35z"/>
				</g>
				<g>
					<path class="st14" d="M373.69,300.55c0.14-0.04,0.44,0.57,0.68,1.38c0.24,0.8,0.32,1.48,0.19,1.53
						c-0.14,0.04-0.44-0.57-0.68-1.38C373.64,301.28,373.55,300.59,373.69,300.55z"/>
				</g>
				<g>
					<path class="st14" d="M371.95,294.75c0.14-0.04,0.44,0.57,0.68,1.38c0.24,0.8,0.32,1.48,0.19,1.53
						c-0.14,0.04-0.44-0.57-0.68-1.38C371.9,295.47,371.81,294.79,371.95,294.75z"/>
				</g>
				<g>
					<path class="st14" d="M370.21,288.95c0.14-0.04,0.44,0.57,0.68,1.38c0.24,0.8,0.32,1.48,0.19,1.53
						c-0.14,0.04-0.44-0.57-0.68-1.38C370.16,289.67,370.07,288.99,370.21,288.95z"/>
				</g>
				<g>
					<path class="st14" d="M368.47,283.15c0.14-0.04,0.44,0.57,0.68,1.38c0.24,0.8,0.32,1.48,0.19,1.53
						c-0.14,0.04-0.44-0.57-0.68-1.38C368.42,283.87,368.33,283.19,368.47,283.15z"/>
				</g>
				<g>
					<path class="st14" d="M366.73,277.35c0.14-0.04,0.44,0.57,0.68,1.38c0.24,0.8,0.32,1.48,0.19,1.53
						c-0.14,0.04-0.44-0.57-0.68-1.38C366.68,278.07,366.59,277.39,366.73,277.35z"/>
				</g>
				<g>
					<path class="st14" d="M364.99,271.55c0.14-0.04,0.44,0.57,0.68,1.38c0.24,0.8,0.32,1.48,0.19,1.53
						c-0.14,0.04-0.44-0.57-0.68-1.38C364.94,272.27,364.85,271.59,364.99,271.55z"/>
				</g>
				<g>
					<path class="st14" d="M363.25,265.75c0.14-0.04,0.44,0.57,0.68,1.38c0.24,0.8,0.32,1.48,0.19,1.53
						c-0.14,0.04-0.44-0.57-0.68-1.38C363.2,266.47,363.11,265.79,363.25,265.75z"/>
				</g>
				<g>
					<path class="st14" d="M361.51,259.95c0.14-0.04,0.44,0.57,0.68,1.38c0.24,0.8,0.32,1.48,0.19,1.53
						c-0.14,0.04-0.44-0.57-0.68-1.38C361.46,260.67,361.38,259.99,361.51,259.95z"/>
				</g>
				<g>
					<path class="st14" d="M360.21,255.61c0.14-0.04,0.35,0.25,0.46,0.64c0.12,0.4,0.1,0.75-0.03,0.79
						c-0.14,0.04-0.35-0.25-0.46-0.64C360.06,256,360.07,255.65,360.21,255.61z"/>
				</g>
			</g>
			<g>
				<g>
					<path class="st14" d="M342.21,429.3c0.14-0.01,0.28,0.32,0.3,0.74c0.02,0.41-0.08,0.75-0.22,0.76
						c-0.14,0.01-0.28-0.32-0.3-0.74C341.96,429.65,342.06,429.31,342.21,429.3z"/>
				</g>
				<g>
					<path class="st14" d="M341.96,423.35c0.14-0.01,0.29,0.66,0.32,1.48c0.03,0.82-0.06,1.49-0.2,1.5
						c-0.14,0.01-0.29-0.66-0.32-1.48C341.73,424.02,341.82,423.35,341.96,423.35z"/>
				</g>
				<g>
					<path class="st14" d="M341.78,417.4c0.14,0,0.28,0.66,0.3,1.48c0.02,0.82-0.07,1.49-0.22,1.5c-0.14,0-0.28-0.66-0.3-1.48
						C341.54,418.07,341.63,417.4,341.78,417.4z"/>
				</g>
				<g>
					<path class="st14" d="M341.63,411.44c0.14,0,0.28,0.66,0.3,1.48c0.02,0.82-0.08,1.49-0.22,1.5c-0.14,0-0.28-0.66-0.3-1.48
						C341.38,412.11,341.48,411.44,341.63,411.44z"/>
				</g>
				<g>
					<path class="st14" d="M341.48,405.48c0.14,0,0.28,0.66,0.3,1.48c0.02,0.82-0.08,1.49-0.22,1.5c-0.14,0-0.28-0.66-0.3-1.48
						C341.24,406.16,341.34,405.49,341.48,405.48z"/>
				</g>
				<g>
					<path class="st14" d="M341.33,399.52c0.14,0,0.28,0.66,0.3,1.48c0.02,0.82-0.08,1.49-0.22,1.5c-0.14,0-0.28-0.66-0.3-1.48
						C341.09,400.2,341.19,399.53,341.33,399.52z"/>
				</g>
				<g>
					<path class="st14" d="M341.13,393.57c0.14-0.01,0.28,0.66,0.31,1.48c0.03,0.82-0.06,1.49-0.21,1.5c-0.14,0-0.28-0.66-0.31-1.48
						C340.9,394.24,340.99,393.57,341.13,393.57z"/>
				</g>
				<g>
					<path class="st14" d="M340.88,387.62c0.14-0.01,0.29,0.66,0.32,1.48c0.03,0.82-0.05,1.49-0.2,1.5
						c-0.14,0.01-0.29-0.66-0.32-1.48C340.65,388.29,340.74,387.62,340.88,387.62z"/>
				</g>
				<g>
					<path class="st14" d="M340.65,381.66c0.14-0.01,0.29,0.66,0.32,1.48c0.03,0.82-0.06,1.49-0.2,1.5s-0.29-0.66-0.32-1.48
						C340.42,382.34,340.51,381.67,340.65,381.66z"/>
				</g>
				<g>
					<path class="st14" d="M340.44,375.71c0.14,0,0.28,0.66,0.31,1.48c0.03,0.82-0.07,1.49-0.21,1.5c-0.14,0-0.28-0.66-0.31-1.48
						C340.2,376.39,340.3,375.71,340.44,375.71z"/>
				</g>
				<g>
					<path class="st14" d="M340.26,369.75c0.14,0,0.28,0.66,0.3,1.48c0.02,0.82-0.07,1.49-0.22,1.5c-0.14,0-0.28-0.66-0.3-1.48
						C340.02,370.43,340.12,369.76,340.26,369.75z"/>
				</g>
				<g>
					<path class="st14" d="M340.1,363.8c0.14,0,0.28,0.66,0.3,1.48c0.02,0.82-0.08,1.49-0.22,1.5c-0.14,0-0.28-0.66-0.3-1.48
						C339.86,364.47,339.96,363.8,340.1,363.8z"/>
				</g>
				<g>
					<path class="st14" d="M339.98,357.84c0.14,0,0.27,0.66,0.29,1.48c0.02,0.82-0.09,1.49-0.23,1.49c-0.14,0-0.27-0.66-0.29-1.48
						C339.73,358.51,339.83,357.84,339.98,357.84z"/>
				</g>
				<g>
					<path class="st14" d="M339.88,351.89c0.14,0,0.27,0.66,0.28,1.48c0.01,0.82-0.09,1.49-0.24,1.49c-0.14,0-0.27-0.66-0.28-1.48
						C339.63,352.56,339.73,351.89,339.88,351.89z"/>
				</g>
				<g>
					<path class="st14" d="M339.8,345.93c0.14,0,0.27,0.66,0.28,1.49c0.01,0.82-0.1,1.49-0.24,1.49c-0.14,0-0.27-0.66-0.28-1.49
						C339.55,346.6,339.66,345.93,339.8,345.93z"/>
				</g>
				<g>
					<path class="st14" d="M339.76,339.97c0.14,0,0.26,0.67,0.27,1.49c0,0.82-0.11,1.49-0.25,1.49s-0.26-0.67-0.27-1.49
						C339.51,340.64,339.62,339.97,339.76,339.97z"/>
				</g>
				<g>
					<path class="st14" d="M339.75,334.02c0.14,0,0.26,0.67,0.26,1.49c0,0.82-0.12,1.49-0.26,1.49c-0.14,0-0.26-0.67-0.26-1.49
						C339.49,334.68,339.61,334.02,339.75,334.02z"/>
				</g>
				<g>
					<path class="st14" d="M339.77,328.06c0.14,0,0.26,0.67,0.25,1.49c0,0.82-0.12,1.49-0.27,1.49c-0.14,0-0.26-0.67-0.25-1.49
						C339.5,328.73,339.62,328.06,339.77,328.06z"/>
				</g>
				<g>
					<path class="st14" d="M339.81,322.1c0.14,0,0.25,0.67,0.25,1.49c-0.01,0.82-0.13,1.49-0.27,1.49c-0.14,0-0.25-0.67-0.25-1.49
						C339.55,322.77,339.67,322.1,339.81,322.1z"/>
				</g>
				<g>
					<path class="st14" d="M339.89,316.15c0.14,0,0.25,0.67,0.24,1.49c-0.01,0.82-0.14,1.49-0.28,1.49c-0.14,0-0.25-0.67-0.24-1.49
						C339.62,316.81,339.75,316.15,339.89,316.15z"/>
				</g>
				<g>
					<path class="st14" d="M340,310.19c0.14,0,0.25,0.67,0.23,1.49c-0.02,0.82-0.14,1.49-0.29,1.48c-0.14,0-0.25-0.67-0.23-1.49
						C339.72,310.85,339.85,310.19,340,310.19z"/>
				</g>
				<g>
					<path class="st14" d="M340.13,304.23c0.14,0,0.24,0.67,0.22,1.5c-0.02,0.82-0.15,1.49-0.3,1.48c-0.14,0-0.24-0.67-0.22-1.5
						C339.85,304.89,339.99,304.23,340.13,304.23z"/>
				</g>
				<g>
					<path class="st14" d="M340.34,298.27c0.14,0.01,0.23,0.68,0.2,1.5c-0.03,0.82-0.18,1.48-0.32,1.48c-0.14,0-0.23-0.68-0.2-1.5
						C340.05,298.93,340.2,298.27,340.34,298.27z"/>
				</g>
				<g>
					<path class="st14" d="M340.69,292.33c0.14,0.01,0.22,0.68,0.16,1.5c-0.05,0.82-0.21,1.48-0.36,1.47
						c-0.14-0.01-0.22-0.68-0.16-1.5C340.38,292.97,340.54,292.31,340.69,292.33z"/>
				</g>
				<g>
					<path class="st14" d="M341.23,286.39c0.14,0.02,0.19,0.69,0.11,1.51c-0.08,0.82-0.27,1.47-0.41,1.46
						c-0.14-0.01-0.19-0.69-0.11-1.51C340.91,287.03,341.09,286.38,341.23,286.39z"/>
				</g>
				<g>
					<path class="st14" d="M341.81,281.97c0.14,0.02,0.21,0.37,0.15,0.78c-0.06,0.41-0.22,0.72-0.36,0.71
						c-0.14-0.02-0.21-0.37-0.15-0.78C341.5,282.26,341.67,281.94,341.81,281.97z"/>
				</g>
			</g>
			<polygon class="st14" points="319.31,431.07 347.67,431.53 347.45,426.8 319.31,426.95 			"/>
			<g>
				<path class="st14" d="M337.91,253.81c0.04,0,0.09,0.39,0.17,1.09c0.07,0.71,0.17,1.73,0.27,2.99c0.2,2.53,0.45,6.02,0.69,9.88
					c0.11,1.92,0.22,3.76,0.32,5.44c0.1,1.67,0.1,3.19,0.52,4.35c0.39,1.17,1.2,1.86,1.81,2.15c0.62,0.29,1.04,0.24,1.03,0.3
					c0,0.02-0.1,0.04-0.29,0.05c-0.19,0.01-0.48-0.03-0.82-0.16c-0.68-0.25-1.6-0.96-2.08-2.21c-0.5-1.23-0.52-2.79-0.65-4.45
					c-0.11-1.69-0.23-3.52-0.36-5.44c-0.24-3.86-0.43-7.35-0.54-9.89c-0.05-1.27-0.09-2.29-0.1-3
					C337.86,254.21,337.87,253.81,337.91,253.81z"/>
			</g>
			<g>
				<path class="st14" d="M340.66,256.18c0.04,0.07-0.23,0.24-0.25,0.67c-0.01,0.2,0.04,0.45,0.21,0.61c0.15,0.16,0.43,0.2,0.7,0.09
					c0.27-0.11,0.44-0.34,0.44-0.56c0.01-0.23-0.13-0.45-0.28-0.58c-0.31-0.29-0.63-0.23-0.64-0.3c-0.05-0.05,0.33-0.3,0.86,0.01
					c0.24,0.15,0.51,0.43,0.54,0.87c0.04,0.44-0.29,0.89-0.72,1.05c-0.42,0.18-0.97,0.09-1.25-0.25c-0.28-0.33-0.28-0.73-0.22-1
					C340.22,256.2,340.66,256.12,340.66,256.18z"/>
			</g>
			<g>
				<path class="st14" d="M365.9,260.42c0.03,0.04-0.76,0.55-2.23,0.85c-1.44,0.31-3.61,0.3-5.71-0.63
					c-2.11-0.94-3.55-2.55-4.28-3.83c-0.75-1.29-0.9-2.22-0.85-2.23c0.09-0.03,0.36,0.84,1.16,2.03c0.79,1.18,2.2,2.66,4.19,3.56
					c1.99,0.89,4.03,0.95,5.44,0.75C365.03,260.71,365.87,260.34,365.9,260.42z"/>
			</g>
			<g>
				<path class="st14" d="M321.3,253.81c0.06,0,0.17,0.75-0.1,1.94c-0.26,1.17-0.99,2.78-2.4,4.02c-1.42,1.24-3.1,1.75-4.3,1.85
					c-1.21,0.11-1.94-0.11-1.93-0.16c0.01-0.09,0.74-0.01,1.88-0.2c1.13-0.19,2.68-0.73,4-1.88c1.32-1.15,2.05-2.62,2.39-3.72
					C321.19,254.55,321.21,253.81,321.3,253.81z"/>
			</g>
		</g>
		<path class="st11" d="M317.31,176.14c0,0-26.72,11.3-27.57,10.87c-0.73-0.36-1.45-21.96-1.45-21.96h-13.33
			c0,0-2.52,31.93,5.49,37.04c10.95,6.99,37.46-7.56,37.46-7.56L317.31,176.14z"/>
		<g>
			<path class="st7" d="M228.08,137.59l-2.75,11.94l12.82,3.05c0,0,5.27,1.17,10.52,8.64c5.24,7.47,7.27,10.82,7.27,10.82
				l8.88-43.88l-9.64,6.83c-1.91,1.35-4.03,2.37-6.27,3.02c-2.76,0.8-6.43,1.71-8.47,1.61C235.8,139.37,228.08,137.59,228.08,137.59
				z"/>
			<path class="st8" d="M371.93,188.52l-115.99-16.48l8.88-43.88l112.78,27.17c2.52,0.61,4.14,3.05,3.72,5.6l-3.82,23.49
				C377.07,187.07,374.59,188.9,371.93,188.52z"/>
			<path class="st8" d="M217.73,138.15c-0.35-0.07-0.65,0.24-0.58,0.59c0.35,1.71,1.24,5.95,1.91,7.68
				c0.27,0.69,6.69,1.31,6.69,1.31l1.77-7.71L217.73,138.15z"/>
			<polygon class="st7" points="362.62,173.41 364.39,166.32 289.46,151.11 287.93,158.25 			"/>
		</g>
		<g>
			<g>
				<g>
					<g>
						<path class="st11" d="M348.06,173.17l-16.56-1.32c-0.1-1.93,0.04-9.41,0.04-9.41s-6.89-1.07-6.97-7.96
							c-0.08-6.89,1.11-22.71,1.11-22.71l0,0c7.97-3.43,17.18-2.27,24.06,3.02l1.02,0.79L348.06,173.17z"/>
					</g>
					<g>
						<g>
							<path class="st7" d="M327.25,143.6c0.41-0.37,0.44-1,0.07-1.41c-0.37-0.41-1-0.44-1.41-0.07c-0.41,0.37-0.44,1-0.07,1.41
								C326.21,143.95,326.84,143.98,327.25,143.6z"/>
						</g>
						<g>
							<g>
								<path class="st7" d="M325.58,142.03c0.11,0.12,0.78-0.4,1.73-0.41c0.95-0.02,1.64,0.49,1.74,0.36
									c0.05-0.05-0.06-0.27-0.36-0.5c-0.29-0.23-0.8-0.45-1.39-0.44c-0.59,0.01-1.09,0.24-1.38,0.47
									C325.63,141.76,325.53,141.98,325.58,142.03z"/>
							</g>
						</g>
					</g>
					<g>
						<g>
							<path class="st7" d="M336.51,142.86c-0.47,0.29-0.62,0.91-0.33,1.38c0.29,0.47,0.91,0.62,1.38,0.33
								c0.47-0.29,0.62-0.91,0.33-1.38C337.6,142.72,336.98,142.57,336.51,142.86z"/>
						</g>
						<g>
							<g>
								<path class="st7" d="M335.89,142.87c0.11,0.12,0.78-0.4,1.73-0.41c0.95-0.02,1.64,0.49,1.74,0.36
									c0.05-0.05-0.06-0.27-0.36-0.5c-0.29-0.23-0.8-0.45-1.39-0.44c-0.59,0.01-1.09,0.24-1.38,0.47
									C335.94,142.6,335.83,142.82,335.89,142.87z"/>
							</g>
						</g>
					</g>
					<g>
						<g>
							<path class="st7" d="M332.08,150.69c0.01-0.07-0.58-0.19-1.53-0.33c-0.25-0.03-0.44-0.08-0.46-0.22
								c-0.04-0.15,0.05-0.41,0.18-0.71c0.24-0.63,0.49-1.26,0.75-1.93c1.04-2.75,1.76-5.01,1.62-5.07s-1.09,2.13-2.13,4.88
								c-0.25,0.67-0.48,1.31-0.71,1.94c-0.09,0.29-0.26,0.62-0.14,1.03c0.07,0.21,0.26,0.35,0.43,0.4c0.16,0.05,0.3,0.05,0.42,0.06
								C331.48,150.78,332.08,150.77,332.08,150.69z"/>
						</g>
					</g>
					<g>
						<path class="st12" d="M335.16,151.74c0.99-0.59-2.72,1.45-4.65,1.35c0,0,1.11,1.77,3.09,1.04
							C335.67,153.38,335.16,151.74,335.16,151.74z"/>
					</g>
					<g>
						<path class="st13" d="M331.52,162.33c0,0,4.35,0.35,8.98-2.55c0,0-2.12,4.96-9,4.34L331.52,162.33z"/>
					</g>
				</g>
			</g>
			<g>
				<g>
					<path class="st11" d="M350.76,142.24c0.15-0.05,5.13-0.38,4.31,5.42c-0.83,5.81-6.42,3.05-6.4,2.88
						C348.67,150.38,350.76,142.24,350.76,142.24z"/>
				</g>
				<g>
					<g>
						<path class="st13" d="M350.73,148.76c0.03-0.01,0.09,0.09,0.25,0.19c0.16,0.1,0.43,0.19,0.75,0.12
							c0.65-0.14,1.3-1.04,1.48-2.08c0.09-0.53,0.05-1.05-0.08-1.49c-0.12-0.45-0.35-0.79-0.65-0.89c-0.3-0.11-0.54,0.04-0.64,0.19
							c-0.1,0.15-0.08,0.27-0.11,0.28c-0.02,0.01-0.11-0.11-0.03-0.35c0.04-0.11,0.13-0.24,0.28-0.33c0.16-0.09,0.37-0.12,0.58-0.07
							c0.44,0.09,0.79,0.56,0.93,1.05c0.16,0.49,0.22,1.08,0.12,1.67c-0.2,1.16-0.96,2.17-1.83,2.3c-0.42,0.05-0.75-0.12-0.9-0.29
							C350.72,148.91,350.71,148.77,350.73,148.76z"/>
					</g>
				</g>
			</g>
			<path class="st7" d="M325.68,131.56c1.79,4.73,8.64,6.59,13.69,6.88c-2.34-2.05-0.89-1.62-2.34-3.06
				c3.01,2.65,8.23,5.36,14.02,5.21c0.77-2.33,0.56-4.97-0.57-7.14c-1.13-2.18-3.17-3.86-5.52-4.56c-1.55-0.46-3.2-0.51-4.77-0.87
				c-1.33-0.31-2.61-0.84-3.97-1.04C332.16,126.37,325.57,125.27,325.68,131.56"/>
			<path class="st7" d="M347.96,138.02c0.26,0.66,1.71,8.49,1.71,8.49l1.76-7.54L347.96,138.02z"/>
		</g>
		<path class="st11" d="M397.25,234.71c5.51-6.33,5.47-15.76-0.08-22.06l-26.75-30.33l-7.16,20.01
			c0.49,0.33,20.82,22.13,20.82,22.13l-17.48,21.78c-2.69,3.35-3.48,7.86-2.08,11.92l4.67,11.43l12.78-5.74l-0.97-1.49h-9.6
			l-0.57-2.3l0,0L397.25,234.71z"/>
		<path class="st14" d="M384.58,195.15l-16.89-17.03l0,0c-3.27-3.39-7.09-5.9-11.66-7.55c-2.22-0.8-4.58-1.28-7.31-1.4l0,0
			c-5.89,1.82-11.77,1.82-17.66,0.01c-2.42,0.3-7.78,0.98-13.92,3.99l0,0l-25.23,10.23l8.08,22.3l13.52-4.55l0.8,20.97l-2.67,31.37
			l52.34,0.54l-0.68-28.45l-0.04-20.58l7.55,7.35L384.58,195.15z"/>
	</g>
</g>
</svg>
