<?xml version="1.0" encoding="utf-8"?>
<!-- Generator: Adobe Illustrator 28.0.0, SVG Export Plug-In . SVG Version: 6.00 Build 0)  -->
<svg version="1.1" xmlns="http://www.w3.org/2000/svg" xmlns:xlink="http://www.w3.org/1999/xlink" x="0px" y="0px"
	 viewBox="0 0 500 500" style="enable-background:new 0 0 500 500;" xml:space="preserve">
<g id="Floor" style="display:none;">
	<path id="Floor_00000013876646643919197920000017874447876317227658_" style="display:inline;fill:#FAFAFA;" d="M89.17,257.05
		c-88.82,51.28-88.82,134.43,0,185.71c88.83,51.28,232.84,51.28,321.66,0s88.82-134.43,0-185.71
		C322,205.76,177.99,205.76,89.17,257.05z"/>
</g>
<g id="Shadows">
	
		<ellipse id="Shadow_00000070101267998793187380000000496834666359127990_" style="fill:#E0E0E0;" cx="217.36" cy="439.42" rx="42.91" ry="24.77"/>
	
		<ellipse id="Shadow_00000113335031550996092770000010721100194336771736_" style="fill:#E0E0E0;" cx="289.24" cy="419.81" rx="46.02" ry="26.57"/>
</g>
<g id="Plants">
	<g id="Plants_00000101066594264321812220000001324739403299257779_">
		<g id="XMLID_348_">
			<path style="fill:#C84C5E;" d="M74.4,408.32l-9.32,5.38c0.08-5.09-0.26-14.73-2.96-27.26c-6.18-28.72-18.72-33.71-24.83-44.89
				c-6.42-11.76,1.83-18.81,9.61-17.6c6.95,1.07,17.96,9.62,23.47,27.27C77.64,374.49,75.85,397.71,74.4,408.32z"/>
			<path style="opacity:0.5;fill:#FFFFFF;" d="M74.4,408.32l-9.32,5.38c0.08-5.09-0.26-14.73-2.96-27.26
				c-6.18-28.72-18.72-33.71-24.83-44.89c-6.42-11.76,1.83-18.81,9.61-17.6c6.95,1.07,17.96,9.62,23.47,27.27
				C77.64,374.49,75.85,397.71,74.4,408.32z"/>
			<g id="XMLID_406_">
				<path style="fill:#FFFFFF;" d="M68.92,406.05c-0.27-0.04-0.45-0.29-0.42-0.55c4.94-34.57-10.47-64.36-23-74.47
					c-0.21-0.17-0.24-0.48-0.07-0.69c0.17-0.21,0.48-0.24,0.69-0.07c12.7,10.26,28.35,40.42,23.35,75.37
					C69.44,405.9,69.19,406.08,68.92,406.05z"/>
			</g>
		</g>
		<g id="XMLID_342_">
			<path style="fill:#C84C5E;" d="M69.73,411.02l-4.65,2.68l-0.76,0.44c-1.53-6.95-5.62-14.2-13.37-21.97
				c-9.09-9.11-21.76-17.62-19.52-25.27c2.23-7.65,12.46-5.63,19.52-1.1C57.58,370.06,71.7,385.77,69.73,411.02z"/>
			<path style="opacity:0.65;fill:#FFFFFF;" d="M69.73,411.02l-4.65,2.68l-0.76,0.44c-1.53-6.95-5.62-14.2-13.37-21.97
				c-9.09-9.11-21.76-17.62-19.52-25.27c2.23-7.65,12.46-5.63,19.52-1.1C57.58,370.06,71.7,385.77,69.73,411.02z"/>
			<g id="XMLID_429_">
				<path style="fill:#FFFFFF;" d="M67.26,408.87c-0.23-0.03-0.41-0.23-0.42-0.47c-0.65-16.94-19.24-38.87-28.09-42.47
					c-0.25-0.1-0.37-0.39-0.27-0.64c0.1-0.25,0.38-0.37,0.64-0.27c9.28,3.77,28.03,25.73,28.7,43.34c0.01,0.27-0.2,0.5-0.47,0.51
					C67.31,408.87,67.29,408.87,67.26,408.87z"/>
			</g>
		</g>
	</g>
</g>
<g id="Arrow_00000076566463977385047610000012271667997913997731_">
	<g id="Arrow">
		<g>
			<g>
				<g>
					<polygon style="fill:#C84C5E;" points="104.26,460.12 184.95,337.59 130.52,306.17 49.83,428.7 					"/>
					<polygon style="opacity:0.2;fill:#FFFFFF;" points="104.26,460.12 184.95,337.59 130.52,306.17 49.83,428.7 					"/>
				</g>
			</g>
			<polygon style="fill:#C84C5E;" points="184.95,337.59 104.26,460.12 136.91,441.27 195.76,352.26 			"/>
			<polygon style="opacity:0.2;" points="184.95,337.59 104.26,460.12 136.91,441.27 195.76,352.26 			"/>
		</g>
		<g>
			<polygon style="fill:#C84C5E;" points="331.38,71.91 336.71,95.77 358.63,108.6 353.18,84.49 			"/>
			<polygon style="opacity:0.2;" points="331.38,71.91 336.71,95.77 358.63,108.6 353.18,84.49 			"/>
			<g>
				<polygon style="fill:#C84C5E;" points="284.13,189.61 353.18,84.49 331.38,71.91 414.26,48.52 429.35,128.47 407.61,115.91 
					338.56,221.03 				"/>
				<polygon style="opacity:0.2;fill:#FFFFFF;" points="284.13,189.61 353.18,84.49 331.38,71.91 414.26,48.52 429.35,128.47 
					407.61,115.91 338.56,221.03 				"/>
			</g>
			<polygon style="fill:#C84C5E;" points="407.61,115.91 338.59,221.03 350.82,234.93 413.14,140.06 434.83,152.59 429.35,128.47 
							"/>
			<polygon style="opacity:0.2;" points="407.61,115.91 338.59,221.03 350.82,234.93 413.14,140.06 434.83,152.59 429.35,128.47 			
				"/>
			<polygon style="fill:#C84C5E;" points="296.35,203.6 284.13,189.71 338.59,221.03 350.82,234.93 			"/>
			<polygon style="opacity:0.4;" points="296.35,203.6 284.13,189.71 338.59,221.03 350.82,234.93 			"/>
			<polygon style="opacity:0.2;" points="413.14,140.06 407.61,115.91 429.35,128.47 434.83,152.59 			"/>
		</g>
	</g>
</g>
<g id="Hand_00000108308197908197656490000003399886740613852314_">
	<g id="Hand">
		<g id="XMLID_4575_">
			<path id="XMLID_4186_" style="fill:#FFB178;" d="M328.92,395.62c0,5.78-0.05,13.59-0.02,18.57c0.01,1.08,0.02,2.42,0.02,4.19
				c0.01,0.01,0.01,0.02,0,0.02c-0.8,5.2-4.64,10.28-11.54,14.27c-15.6,9-40.89,9-56.49,0c-8.04-4.64-11.94-10.78-11.68-16.86v-0.05
				c0.05-0.51,0.1-1.05,0.17-1.61c0-0.02,0.01-0.05,0.01-0.06c0.67-5.91,1.16-11.83,1.49-17.38c0.53-8.81,0.46-12.69,0.38-17.43
				c-0.09-5.85-2.52-10.45-8.69-15.64c-6.17-5.2-18.44-22.93-18.44-22.93l81.37-41.83l23.14,73.28
				C328.63,372.17,328.92,389.84,328.92,395.62z"/>
		</g>
		<g id="XMLID_4503_">
			<g id="XMLID_4578_">
				<g id="XMLID_4496_">
					<path style="fill:#FFB178;" d="M306.12,283.73c0,0-1.54,6.16-8.81-1.99c-7.27-8.15-19.17-20.62-31.7-32.61
						c-6.01-5.75-30.09-25.12-46.24-39.75c-5.15-5.31-12.46-9.03-17.49-5.16c-5.03,3.86-5.04,13.35-1.88,18.06
						c2.8,4.16,8.81,9.94,13.39,14.1c-0.03,0.25-0.06,0.5-0.09,0.75c-0.87,7.57-2.42,16.08-3.15,25.25
						c-0.44,5.46-7.03,12.35-6.94,17.96c1.94,7.97,12.53,16.57,20.01,22.55c7.49,5.98,10.75,8.41,10.66,10.3
						c-0.13,2.89-12.26-7.63-17.65-11.33c0.3,17.17-10.67,19.24-10.67,19.24c1.65,3.31,11.01,10.59,24.31,27.62
						c5.25,6.72,58.69-37.51,58.69-37.51l12.69-8.15l8.93-14.78L306.12,283.73z"/>
					<path style="fill:#F2BA92;" d="M301.69,298.88c-5.01,6.29-24.7,26.4-9.21,53.05c-1.67-1.58-2.54-2.79-2.9-3.27
						c-2.23-2.94-3.97-6.25-5.21-9.72c-0.05-0.13-0.08-0.25-0.13-0.37c-3.52-10.15-2.32-20.47,4.25-29.19
						c5.17-6.85,14.59-13.51,15.84-20.9c0.05-0.27,0.08-0.54,0.09-0.8C304.64,289.98,304.9,294.86,301.69,298.88z"/>
					<path style="opacity:0.5;fill:#F2BA92;" d="M199.03,208.01c-1.97,4.52-1.39,10.74,0.98,14.26c2.8,4.16,8.81,9.94,13.39,14.1
						c-0.02,0.2-0.05,0.4-0.07,0.6c2.02,1.73,4.19,3.57,6.58,5.67c5.74,5.05,13.33,11.57,19.06,16.63
						c2.87,2.53,16.5,13.5,21.45,17.91c-7.61-8.35-24.71-23.5-33.31-31.97c-6.49-6.39-16.07-15.31-19.18-18.87
						c-3.12-3.55-4.94-5.98-6.03-7.33C198.07,214.33,198.91,208.92,199.03,208.01z"/>
				</g>
				<path style="fill:#F2BA92;" d="M213.62,328.5c2.69-0.24,6.16-2.24,7.55-4.56c2.01-3.33,2.39-5.92,1.85-11.12
					c-0.14-1.33-0.47-3.73-1.47-7.17c-1.78-1.28-3.64-2.66-5.29-3.8c0.3,17.17-10.67,19.24-10.67,19.24
					c0.75,1.5,3.08,3.81,6.64,7.48C212.69,328.57,213.15,328.54,213.62,328.5z"/>
				<g id="XMLID_4583_">
					<path id="XMLID_4585_" style="fill:#F2BA92;" d="M204.83,259.12c-0.43,0.39,5.65,6.25,6.29,6.61c2.25,1.25,6.55-0.31,8.42-1.86
						c1.17-0.98,2.03-2.3,2.63-3.72c2.02-4.81,1.04-10.29,0.01-15.41c-0.16-0.8-0.39-1.7-1.1-2.1c-0.12,2.68-2.48,3.84-4.23,5.45
						c-1.67,1.53-3.34,3.06-5,4.6C209.5,254.83,207.16,256.97,204.83,259.12z"/>
				</g>
				<polygon style="fill:#F2BA92;" points="218.65,262.27 250.47,294.39 213.32,263.24 				"/>
				<path style="fill:#F2BA92;" d="M214.3,289.71c3.08-1,5.65-3.48,6.72-6.53c0.91-2.61,0.76-5.45,0.58-8.2
					c-0.15-2.34-0.32-4.73-1.18-6.91l-14.89,5.05c-1.29,2.5-2.34,4.96-2.31,7.22c0.79,3.25,2.86,6.54,5.77,9.71
					C210.7,290.33,212.66,290.24,214.3,289.71z"/>
			</g>
			<g id="XMLID_4488_">
				<path id="XMLID_4584_" style="fill:#FFB178;" d="M210.34,236.13c6.54-0.6,9.97,2.27,11.44,8.14c0.55,2.22,0.61,5.74,0,10.1
					c-0.61,4.36-4.74,9.59-10.06,8.8c-0.09-0.01-0.17-0.03-0.26-0.04c-8.6-1.4-9.57-6.01-9.57-13.47
					C201.89,242.21,204.52,236.66,210.34,236.13z"/>
				<path id="XMLID_4500_" style="opacity:0.5;fill:#F2BA92;" d="M218.06,237.86c0.47,0.41,3.25,3.13,3.27,10.65
					c0.03,8.22-4.1,9.93-8.65,10.66c-4.55,0.73-10.69-2.1-10.69-6.22l0,0c0.39,5.53,2.22,9,9.47,10.18
					c0.09,0.01,0.17,0.03,0.26,0.04c5.32,0.78,9.45-4.44,10.06-8.8c0.61-4.36,0.55-7.88,0-10.1
					C221.06,241.39,219.86,239.24,218.06,237.86z"/>
			</g>
			<g id="XMLID_4494_">
				<path id="XMLID_4580_" style="fill:#FFB178;" d="M210.49,262.34c5.98-0.55,9.11,2.08,10.45,7.43c0.51,2.03,0.56,5.24,0,9.22
					c-0.56,3.98-4.33,8.76-9.19,8.04c-0.08-0.01-0.16-0.02-0.24-0.04c-7.85-1.28-8.74-5.49-8.74-12.3
					C202.77,267.89,205.17,262.82,210.49,262.34z"/>
				<path id="XMLID_4502_" style="opacity:0.5;fill:#F2BA92;" d="M218.82,265.17c0.84,1.25,1.45,4.32,0.96,8.98
					c-0.65,6.1-1.95,9.07-7.29,9.45c-5.53,0.4-8.93-2.16-9.51-4.86c0.53,4.44,2.4,7.25,8.55,8.25c0.08,0.01,0.16,0.02,0.24,0.04
					c4.86,0.71,8.63-4.06,9.19-8.04c0.56-3.98,0.51-7.2,0-9.22C220.47,267.89,219.77,266.36,218.82,265.17z"/>
			</g>
			<g id="XMLID_4501_">
				<path id="XMLID_4587_" style="fill:#FFB178;" d="M210.81,299.3c6.2-0.57,10.84,2.38,10.84,7.71v9.57c0,5.1-4.5,9.09-9.54,8.35
					c-0.08-0.01-0.16-0.02-0.24-0.04c-8.15-1.32-8.05-8.77-8.15-12.68C203.62,308.31,205.29,299.81,210.81,299.3z"/>
				<path id="XMLID_4572_" style="opacity:0.5;fill:#F2BA92;" d="M218.63,301.01c2.71,2.84,1.65,8.61,1.45,14.3
					c-0.14,3.95-2.2,7.22-7.6,7.22s-7.81-3.3-8.55-6.53l0-0.01c0.45,3.73,2.01,7.94,7.94,8.9c0.08,0.01,0.16,0.03,0.24,0.04
					c5.04,0.74,9.54-3.25,9.54-8.35v-9.57C221.65,304.39,220.52,302.34,218.63,301.01z"/>
			</g>
		</g>
		<g>
			<polygon style="fill:#C84C5E;" points="142.07,297.42 275.46,196.28 329.92,227.71 196.5,328.85 			"/>
			<polygon style="fill:#C84C5E;" points="329.92,227.71 342.15,241.6 207.31,343.51 196.5,328.85 			"/>
			<polygon style="opacity:0.2;" points="329.92,227.71 342.15,241.6 207.31,343.51 196.5,328.85 			"/>
			<polygon style="fill:#C84C5E;" points="142.07,297.42 152.88,312.09 207.31,343.51 196.5,328.85 			"/>
			<polygon style="opacity:0.4;" points="142.07,297.42 152.88,312.09 207.31,343.51 196.5,328.85 			"/>
		</g>
		<g id="XMLID_4573_">
			<path id="XMLID_5075_" style="fill:#FFB178;" d="M328.63,372.17c0-14.18,1.03-33.21,3.38-49.62c2.35-16.41,1.89-30.45,1.17-34.42
				c-0.72-3.97-0.92-9.73-7.04-17.05c-2.89-3.45-9.21-8.48-14.49-14.68c-5.32-6.25-10.29-13.2-13.11-16.99
				c-2.82-3.8-9.81,2.32-9.47,14.42c0.28,9.89,7.04,18.54,9.65,22.24c3.19,4.51,5.45,8.87,5.7,11.59c0.21,2.3,0.47,7.18-2.74,11.22
				c-5.01,6.29-24.7,26.4-9.21,53.05v24.45L328.63,372.17z"/>
			<path id="XMLID_5078_" style="fill:#FFB178;" d="M299.81,246.82c0,0,6.01,8.15,7.93,9.2c1.92,1.05,2.47-1.34,2.47-1.34
				l-0.01-0.01c-2.76-3.88-7.91-10.93-11.66-15.25C299.02,240.23,300.12,243.21,299.81,246.82z"/>
			<path id="XMLID_4526_" style="opacity:0.6;fill:#FFFFFF;" d="M299.81,246.82c0,0,6.01,8.16,7.93,9.2
				c1.8,0.98,2.47-1.34,2.47-1.34l-0.01-0.01c-2.76-3.88-7.91-10.93-11.66-15.25C299.02,240.23,300.12,243.21,299.81,246.82z"/>
			<path id="XMLID_5144_" style="fill:#F2BA92;" d="M310.21,254.68l-0.01-0.01c0.01,0.01-0.58-0.92-0.89-1.25
				c0.27,1.91-1.11,2.8-1.11,2.8l0,0C309.77,256.68,310.21,254.68,310.21,254.68z"/>
		</g>
	</g>
</g>
<g id="Coins_00000083049784496214317170000009279600788974970533_">
	<g id="Coins">
		<g id="Coin_00000103980611594076281040000007134025056386098057_">
			<g id="XMLID_00000098193741233465738780000013208253727249361549_">
				<g id="XMLID_00000135691052817113445260000010643706408479429257_">
					<path id="XMLID_00000062153751115291488060000009112604095745193381_" style="fill:#C84C5E;" d="M251.2,430.15
						c-1.71-2.89-4.56-5.6-8.54-7.9c-13.97-8.07-36.62-8.07-50.59,0c-3.99,2.3-6.83,5.02-8.54,7.9h-1.93v7.31h0.03
						c0.26,5.08,3.73,10.12,10.45,14c13.97,8.07,36.62,8.07,50.59,0c6.72-3.88,10.22-8.92,10.48-14v0v-7.31H251.2z"/>
					<path id="XMLID_00000048492207602884127190000008810650329617001888_" style="opacity:0.25;" d="M251.2,430.15
						c-1.71-2.89-4.56-5.6-8.54-7.9c-13.97-8.07-36.62-8.07-50.59,0c-3.99,2.3-6.83,5.02-8.54,7.9h-1.93v7.31h0.03
						c0.26,5.08,3.73,10.12,10.45,14c13.97,8.07,36.62,8.07,50.59,0c6.72-3.88,10.22-8.92,10.48-14v0v-7.31H251.2z"/>
					<path id="XMLID_00000076592974962876449350000004921394022638588556_" style="opacity:0.1;" d="M217.36,416.2
						c-9.16,0-18.31,2.02-25.3,6.05c-3.99,2.3-6.83,5.02-8.54,7.9h-1.93v7.31h0.03c0.26,5.08,3.73,10.12,10.45,14
						c6.99,4.03,16.14,6.05,25.3,6.05V416.2z"/>
					<path id="XMLID_00000165236813520921300420000008700596493100345508_" style="opacity:0.1;" d="M197.82,419.56
						c-2.04,0.77-3.97,1.66-5.76,2.7c-3.99,2.3-6.83,5.02-8.54,7.9h-1.93v7.31h0.03c0.26,5.08,3.73,10.12,10.45,14
						c1.79,1.03,3.72,1.93,5.76,2.7V419.56z"/>
					<path id="XMLID_00000075881099399439102900000015730558681411440568_" style="opacity:0.5;fill:#C84C5E;" d="M236.89,419.56
						c2.04,0.77,3.97,1.66,5.76,2.7c3.99,2.3,6.83,5.02,8.54,7.9h1.93v7.31v0c-0.26,5.08-3.76,10.12-10.48,14
						c-1.79,1.03-3.72,1.93-5.76,2.7V419.56z"/>
				</g>
				<g id="XMLID_00000065792373886931239900000014519379980595777460_">
					<g>
						<g>
							<path id="XMLID_00000132806614950989387490000017171574323181616810_" style="fill:#C84C5E;" d="M192.06,415.55
								c-13.97,8.07-13.97,21.14,0,29.21c12.22,7.06,31.09,7.94,44.97,2.65l0,0c0.18-0.07,0.37-0.14,0.55-0.22
								c1.78-0.71,3.47-1.52,5.06-2.43c11.65-6.73,13.58-16.94,5.8-24.82c0,0,0,0,0,0c-1.55-1.57-3.48-3.05-5.8-4.38
								C228.68,407.49,206.03,407.49,192.06,415.55z"/>
							<path id="XMLID_00000023972121443260143970000015492221557111523495_" style="opacity:0.2;" d="M192.06,415.55
								c-13.97,8.07-13.97,21.14,0,29.21c12.22,7.06,31.09,7.94,44.97,2.65l0,0c0.18-0.07,0.37-0.14,0.55-0.22
								c1.78-0.71,3.47-1.52,5.06-2.43c11.65-6.73,13.58-16.94,5.8-24.82c0,0,0,0,0,0c-1.55-1.57-3.48-3.05-5.8-4.38
								C228.68,407.49,206.03,407.49,192.06,415.55z"/>
						</g>
					</g>
					<g>
						<path id="XMLID_00000027598461227497604900000006996426904957704847_" style="opacity:0.5;fill:#F5F5F5;" d="M248.45,419.94
							c0.15,0.17,5.04,5.32,3.74,12.74c-1.24,7.1-11.18,13.07-14.6,14.51c1.78-0.71,3.47-1.52,5.06-2.43
							C254.3,438.03,256.24,427.83,248.45,419.94z"/>
						<path id="XMLID_00000042728436356887422960000010687846705417800865_" style="opacity:0.5;fill:#F5F5F5;" d="M186.26,440.37
							c-0.15-0.17-5.04-5.32-3.74-12.74c1.24-7.1,11.18-13.07,14.6-14.51c-1.78,0.71-3.47,1.52-5.06,2.43
							C180.41,422.28,178.48,432.49,186.26,440.37z"/>
					</g>
				</g>
			</g>
			<g>
				<g id="XMLID_00000164471524041712897720000011869238116602220717_">
					<path style="fill:#C84C5E;" d="M240.88,443.7c12.99-7.5,12.99-19.65,0-27.15c-12.99-7.5-34.04-7.5-47.03,0
						c-12.99,7.5-12.99,19.65,0,27.15C206.84,451.2,227.9,451.2,240.88,443.7z"/>
					<path style="opacity:0.4;fill:#FFFFFF;" d="M240.88,443.7c12.99-7.5,12.99-19.65,0-27.15c-12.99-7.5-34.04-7.5-47.03,0
						c-12.99,7.5-12.99,19.65,0,27.15C206.84,451.2,227.9,451.2,240.88,443.7z"/>
					<path id="XMLID_00000071541504601609598130000001206223098516179584_" style="opacity:0.2;fill:#FFFFFF;" d="M249.11,435.86
						c2.67-4.94,1.8-10.39-2.61-15.01c-0.82-0.85-1.76-1.68-2.82-2.47c-0.82-0.62-1.72-1.21-2.69-1.77
						c-0.53-0.31-1.08-0.61-1.64-0.89c1.38,2.27,0.88,4.71-6.96,5.17c-15.33,0.9,4.1,15.54,4.1,15.54S246.37,431.67,249.11,435.86z"
						/>
					<path id="XMLID_00000151523000271589786590000007131072593966003121_" style="opacity:0.5;fill:#FFFFFF;" d="M247.53,431.81
						c2.3-0.26,3.44-2.62,2.55-5.28c-0.89-2.66-3.48-4.61-5.78-4.35c-2.3,0.26-3.44,2.62-2.55,5.28S245.23,432.07,247.53,431.81z"/>
					<path id="XMLID_00000170253496081874527980000011080035471828115359_" style="fill:#C84C5E;" d="M223.29,444.02
						c-0.75-5.69-25.63-21.45-25.63-21.45s-5.52-2.21-3.69-6.07c-0.96,0.55-1.84,1.12-2.66,1.72c-0.58,0.42-1.11,0.84-1.62,1.28
						c-7.41,6.41-7.42,14.84,0,21.26c0.5,0.44,1.04,0.86,1.61,1.28c0.76,0.56,1.58,1.09,2.47,1.6c0.84,0.49,1.73,0.95,2.64,1.38
						c0.73,0.34,1.48,0.67,2.24,0.97c0.76,0.3,1.54,0.58,2.33,0.84c2.36,0.78,4.86,1.37,7.42,1.78c0.55,0.09,1.11,0.17,1.67,0.24
						c2.44,0.31,4.93,0.47,7.42,0.47c3.06-0.01,6.11-0.25,9.08-0.75C226.58,448.58,222.58,447.76,223.29,444.02z"/>
					<path id="XMLID_00000169518002892707873580000000710276852642772896_" style="opacity:0.3;fill:#FFFFFF;" d="M223.29,444.02
						c-0.75-5.69-25.63-21.45-25.63-21.45s-5.52-2.21-3.69-6.07c-0.96,0.55-1.84,1.12-2.66,1.72c-0.58,0.42-1.11,0.84-1.62,1.28
						c-7.41,6.41-7.42,14.84,0,21.26c0.5,0.44,1.04,0.86,1.61,1.28c0.76,0.56,1.58,1.09,2.47,1.6c0.84,0.49,1.73,0.95,2.64,1.38
						c0.73,0.34,1.48,0.67,2.24,0.97c0.76,0.3,1.54,0.58,2.33,0.84c2.36,0.78,4.86,1.37,7.42,1.78c0.55,0.09,1.11,0.17,1.67,0.24
						c2.44,0.31,4.93,0.47,7.42,0.47c3.06-0.01,6.11-0.25,9.08-0.75C226.58,448.58,222.58,447.76,223.29,444.02z"/>
					<path id="XMLID_00000142142893654978381720000005364988252515423113_" style="fill:#C84C5E;" d="M199.84,420.01
						c-9.28,5.36-9.66,13.91-1.13,19.52c0.36,0.24,0.74,0.47,1.14,0.7c9.67,5.59,25.36,5.59,35.03,0c9.67-5.59,9.68-14.64,0-20.23
						c-0.39-0.23-0.8-0.45-1.22-0.66C223.93,414.44,209.12,414.66,199.84,420.01z"/>
					<path id="XMLID_00000047043761176189183880000005208398859833575048_" style="opacity:0.2;" d="M199.84,420.01
						c-9.28,5.36-9.66,13.91-1.13,19.52c0.36,0.24,0.74,0.47,1.14,0.7c9.67,5.59,25.36,5.59,35.03,0c9.67-5.59,9.68-14.64,0-20.23
						c-0.39-0.23-0.8-0.45-1.22-0.66C223.93,414.44,209.12,414.66,199.84,420.01z"/>
					<ellipse style="fill:#C84C5E;" cx="217.37" cy="430.13" rx="23.68" ry="13.67"/>
					<ellipse style="opacity:0.5;" cx="217.37" cy="430.13" rx="23.68" ry="13.67"/>
					<path style="fill:#C84C5E;" d="M200.63,424.27c9.25-5.34,24.24-5.34,33.49,0c3.78,2.18,6.01,4.92,6.7,7.76
						c-0.69,2.84-2.92,5.58-6.7,7.76c-9.25,5.34-24.24,5.34-33.49,0c-3.78-2.18-6.01-4.92-6.7-7.76
						C194.61,429.2,196.85,426.46,200.63,424.27z"/>
					<path style="opacity:0.35;" d="M200.63,424.27c9.25-5.34,24.24-5.34,33.49,0c3.78,2.18,6.01,4.92,6.7,7.76
						c-0.69,2.84-2.92,5.58-6.7,7.76c-9.25,5.34-24.24,5.34-33.49,0c-3.78-2.18-6.01-4.92-6.7-7.76
						C194.61,429.2,196.85,426.46,200.63,424.27z"/>
				</g>
				<path style="fill:#C84C5E;" d="M232.28,434.25c0-0.46,0.01-2.34,0-2.83c-0.01-1.16-0.8-2.28-2.53-3.29
					c-0.02-0.01-0.04-0.03-0.06-0.04c-3.18-1.84-6.47-1.6-9.39-0.86c-0.01,0-0.02,0-0.02,0c-1.24,0.31-2.43,0.72-3.5,1.09
					c-1.49,0.52-2.71,0.94-3.76,1.16c0,0,0,0-0.01,0c-0.65,0.14-1.24,0.2-1.79,0.17c-0.52-0.03-1.01-0.16-1.48-0.39
					c0.04-0.03,0.08-0.05,0.12-0.08c0.12-0.08,0.24-0.15,0.37-0.23c0.33-0.19,0.66-0.36,0.99-0.49c1.84-0.78,3.62-0.74,5.26-0.12
					l3.04-3.06v-2.81c-2.7-0.92-5.5-1.01-8.3-0.3c-0.88,0.22-1.76,0.53-2.64,0.91l-3.04-1.75l-3.62,2.09v2.81l1.24,0.72
					c-0.35,0.55-0.53,1.1-0.53,1.64c0,0.47,0,2.33,0,2.8c0,1.16,0.83,2.28,2.58,3.29c1.69,0.97,3.37,1.38,5,1.44l0,0
					c0.33,0.01,0.67,0.01,1,0c1.89-0.09,3.71-0.6,5.37-1.16c0.36-0.12,0.7-0.24,1.05-0.36l-3.06,3.06v2.81
					c4.31,1.73,8.53,0.91,11.71-0.51l3,1.73l3.62-2.09v-2.81l-1.24-0.72C232.07,435.46,232.28,434.85,232.28,434.25z M224.64,434
					c-0.28,0.16-0.56,0.3-0.84,0.42c-2.15,0.92-4.37,0.73-5.92,0.09c2.84-1,5.21-1.88,7.23-0.8
					C224.96,433.81,224.81,433.91,224.64,434z"/>
				<g>
					<g id="XMLID_00000163037492733251557660000000263119536872273294_">
						<g>
							<path id="XMLID_00000148625897766624441900000016348931044119580317_" style="fill:#C84C5E;" d="M220.3,427.23
								c-0.01,0-0.02,0-0.02,0c-1.24,0.31-2.43,0.72-3.5,1.09c-1.49,0.52-2.71,0.94-3.76,1.16c0,0,0,0-0.01,0
								c-0.65,0.14-1.24,0.2-1.79,0.17c-0.61-0.04-1.18-0.2-1.72-0.51c-1.17-0.67-1.34-1.66,0.36-2.77
								c0.12-0.08,0.24-0.15,0.37-0.23c0.33-0.19,0.66-0.36,0.99-0.49c1.84-0.78,3.62-0.74,5.26-0.12l3.04-3.06
								c-2.7-0.92-5.5-1.01-8.3-0.3c-0.88,0.22-1.76,0.53-2.64,0.91l-3.04-1.75l-3.62,2.09l3,1.73c0,0-0.01,0.01-0.03,0.02
								c-3.05,2.31-3.11,4.71,0.32,6.69c1.69,0.97,3.37,1.38,5,1.44l0,0c0.33,0.01,0.67,0.01,1,0c1.89-0.09,3.71-0.6,5.37-1.16
								c3.48-1.16,6.29-2.53,8.64-1.18c1.57,0.91,1.13,2.05-0.59,3.04c-0.28,0.16-0.56,0.3-0.84,0.42c-2.2,0.94-4.48,0.72-6.03,0.04
								l-3.18,3.19c4.31,1.73,8.53,0.91,11.71-0.51l3,1.73l3.62-2.09l-3-1.73c3.01-2.33,3.36-4.87-0.16-6.93
								c-0.02-0.01-0.04-0.03-0.06-0.04C226.52,426.25,223.23,426.49,220.3,427.23z"/>
						</g>
					</g>
					<g id="XMLID_00000078015170183054493730000009806017073484197822_" style="opacity:0.3;">
						<path id="XMLID_00000149346392159309809460000002889264348203871623_" style="fill:#FFFFFF;" d="M220.3,427.23
							c-0.01,0-0.02,0-0.02,0c-1.24,0.31-2.43,0.72-3.5,1.09c-1.49,0.52-2.71,0.94-3.76,1.16c0,0,0,0-0.01,0
							c-0.65,0.14-1.24,0.2-1.79,0.17c-0.61-0.04-1.18-0.2-1.72-0.51c-1.17-0.67-1.34-1.66,0.36-2.77c0.12-0.08,0.24-0.15,0.37-0.23
							c0.33-0.19,0.66-0.36,0.99-0.49c1.84-0.78,3.62-0.74,5.26-0.12l3.04-3.06c-2.7-0.92-5.5-1.01-8.3-0.3
							c-0.88,0.22-1.76,0.53-2.64,0.91l-3.04-1.75l-3.62,2.09l3,1.73c0,0-0.01,0.01-0.03,0.02c-3.05,2.31-3.11,4.71,0.32,6.69
							c1.69,0.97,3.37,1.38,5,1.44l0,0c0.33,0.01,0.67,0.01,1,0c1.89-0.09,3.71-0.6,5.37-1.16c3.48-1.16,6.29-2.53,8.64-1.18
							c1.57,0.91,1.13,2.05-0.59,3.04c-0.28,0.16-0.56,0.3-0.84,0.42c-2.2,0.94-4.48,0.72-6.03,0.04l-3.18,3.19
							c4.31,1.73,8.53,0.91,11.71-0.51l3,1.73l3.62-2.09l-3-1.73c3.01-2.33,3.36-4.87-0.16-6.93c-0.02-0.01-0.04-0.03-0.06-0.04
							C226.52,426.25,223.23,426.49,220.3,427.23z"/>
					</g>
					<g>
						<polygon id="XMLID_00000018208885617566159570000012934037870796565651_" style="opacity:0.45;fill:#F5F5F5;" points="
							201.92,423.42 205.58,421.76 208.58,423.08 205.55,421.33 						"/>
						<path id="XMLID_00000057116705687482108130000008337070713544992904_" style="opacity:0.45;fill:#F5F5F5;" d="M210.8,422.28
							c1.95-0.42,5.11-0.54,7.79,0.26l-2.1,2.99l3.04-3.06C216.29,421.44,213.43,421.51,210.8,422.28z"/>
						<path id="XMLID_00000093145736112218101680000012460138664762458514_" style="opacity:0.45;fill:#F5F5F5;" d="M229.7,428.09
							c0.02,0.01,0.04,0.02,0.06,0.04c3.52,2.06,3.17,4.6,0.16,6.93c2.67-2.91,2.19-4.94-0.71-6.61c-2.9-1.67-6.6-1.65-8.9-1.22
							C223.23,426.49,226.52,426.25,229.7,428.09z"/>
						<polygon id="XMLID_00000177482504518061130460000005849675274544127629_" style="opacity:0.45;fill:#F5F5F5;" points="
							229.91,435.06 232.21,436.83 229.29,438.88 232.91,436.79 						"/>
						<path id="XMLID_00000168077687060320367420000002110061124444760212_" style="opacity:0.45;fill:#F5F5F5;" d="M223.8,434.42
							c-3.18,1.51-5.77,0.5-5.77,0.5l-3.44,2.73l3.18-3.19C219.32,435.14,221.6,435.37,223.8,434.42z"/>
						<path id="XMLID_00000085949461970402180930000013472613368081249462_" style="opacity:0.45;fill:#F5F5F5;" d="M213.01,429.49
							c-1.37,0.54-3.34,0.45-4.34-0.41c-1.05-0.9-0.38-1.87,1.19-2.7c-1.69,1.11-1.53,2.1-0.36,2.77c0.55,0.32,1.11,0.48,1.72,0.51
							C211.77,429.69,212.35,429.63,213.01,429.49z"/>
						<path id="XMLID_00000065787771885037770130000012436828871805221265_" style="opacity:0.45;fill:#F5F5F5;" d="M204.89,425.18
							c-0.26,0.23-2.44,2.26-1.47,4.29c1.02,2.17,4.22,3.56,6.8,3.84l0,0c-1.64-0.06-3.31-0.47-5-1.44
							C201.79,429.89,201.85,427.49,204.89,425.18z"/>
					</g>
				</g>
			</g>
		</g>
		<g id="Coin_00000149383375364639736200000005687636815385633175_">
			<g id="XMLID_00000111906556823549774270000001681892117087400353_">
				<g id="XMLID_00000102507921013546043360000010898014835018269874_">
					<path id="XMLID_00000060732066356979980090000015685723096975385525_" style="fill:#C84C5E;" d="M257.96,419.86
						c-1.71-2.89-4.56-5.6-8.54-7.9c-13.97-8.07-36.62-8.07-50.59,0c-3.99,2.3-6.83,5.02-8.54,7.9h-1.93v7.31h0.03
						c0.26,5.08,3.73,10.12,10.45,14c13.97,8.07,36.62,8.07,50.59,0c6.72-3.88,10.22-8.92,10.48-14v0v-7.31H257.96z"/>
					<path id="XMLID_00000150069076333276728040000013425194565922729876_" style="opacity:0.25;" d="M257.96,419.86
						c-1.71-2.89-4.56-5.6-8.54-7.9c-13.97-8.07-36.62-8.07-50.59,0c-3.99,2.3-6.83,5.02-8.54,7.9h-1.93v7.31h0.03
						c0.26,5.08,3.73,10.12,10.45,14c13.97,8.07,36.62,8.07,50.59,0c6.72-3.88,10.22-8.92,10.48-14v0v-7.31H257.96z"/>
					<path id="XMLID_00000093149182669680956720000000458645422232377746_" style="opacity:0.1;" d="M224.13,405.91
						c-9.16,0-18.31,2.02-25.3,6.05c-3.99,2.3-6.83,5.02-8.54,7.9h-1.93v7.31h0.02c0.26,5.08,3.73,10.12,10.45,14
						c6.99,4.03,16.14,6.05,25.3,6.05V405.91z"/>
					<path id="XMLID_00000172420775487325088390000007535898364619309969_" style="opacity:0.1;" d="M204.59,409.26
						c-2.04,0.77-3.97,1.66-5.76,2.7c-3.99,2.3-6.83,5.02-8.54,7.9h-1.93v7.31h0.02c0.26,5.08,3.73,10.12,10.45,14
						c1.79,1.03,3.72,1.93,5.76,2.7V409.26z"/>
					<path id="XMLID_00000125595844922013568370000006131491861743865488_" style="opacity:0.5;fill:#C84C5E;" d="M243.66,409.26
						c2.04,0.77,3.97,1.66,5.76,2.7c3.99,2.3,6.83,5.02,8.54,7.9h1.93v7.31v0c-0.26,5.08-3.76,10.12-10.48,14
						c-1.79,1.03-3.72,1.93-5.76,2.7V409.26z"/>
				</g>
				<g id="XMLID_00000141450728454403191090000010649722510432578455_">
					<g>
						<g>
							<path id="XMLID_00000139975278816358507610000007967783246791797909_" style="fill:#C84C5E;" d="M198.83,405.26
								c-13.97,8.07-13.97,21.14,0,29.21c12.22,7.06,31.09,7.94,44.97,2.65l0,0c0.18-0.07,0.37-0.14,0.55-0.22
								c1.78-0.71,3.47-1.52,5.06-2.43c11.65-6.73,13.59-16.94,5.8-24.82c0,0,0,0,0,0c-1.55-1.57-3.48-3.05-5.8-4.38
								C235.45,397.19,212.8,397.19,198.83,405.26z"/>
							<path id="XMLID_00000096049566672255515950000013259231464142876598_" style="opacity:0.2;" d="M198.83,405.26
								c-13.97,8.07-13.97,21.14,0,29.21c12.22,7.06,31.09,7.94,44.97,2.65l0,0c0.18-0.07,0.37-0.14,0.55-0.22
								c1.78-0.71,3.47-1.52,5.06-2.43c11.65-6.73,13.59-16.94,5.8-24.82c0,0,0,0,0,0c-1.55-1.57-3.48-3.05-5.8-4.38
								C235.45,397.19,212.8,397.19,198.83,405.26z"/>
						</g>
					</g>
					<g>
						<path id="XMLID_00000166640882703091115860000006345780597206560649_" style="opacity:0.5;fill:#F5F5F5;" d="M255.22,409.65
							c0.15,0.17,5.04,5.32,3.74,12.74c-1.24,7.1-11.18,13.07-14.6,14.51c1.78-0.71,3.47-1.52,5.06-2.43
							C261.07,427.74,263,417.53,255.22,409.65z"/>
						<path id="XMLID_00000070798277357088628880000002983999578214175391_" style="opacity:0.5;fill:#F5F5F5;" d="M193.03,430.08
							c-0.15-0.17-5.04-5.32-3.74-12.74c1.24-7.1,11.18-13.07,14.6-14.51c-1.78,0.71-3.47,1.52-5.06,2.43
							C187.18,411.99,185.25,422.2,193.03,430.08z"/>
					</g>
				</g>
			</g>
			<g>
				<g id="XMLID_00000171709334758437979120000013464288578896904580_">
					<path style="fill:#C84C5E;" d="M247.65,433.41c12.99-7.5,12.99-19.65,0-27.15c-12.99-7.5-34.04-7.5-47.03,0
						c-12.99,7.5-12.99,19.65,0,27.15C213.61,440.91,234.66,440.91,247.65,433.41z"/>
					<path style="opacity:0.4;fill:#FFFFFF;" d="M247.65,433.41c12.99-7.5,12.99-19.65,0-27.15c-12.99-7.5-34.04-7.5-47.03,0
						c-12.99,7.5-12.99,19.65,0,27.15C213.61,440.91,234.66,440.91,247.65,433.41z"/>
					<path id="XMLID_00000155854625492989094570000006349871592901062034_" style="opacity:0.2;fill:#FFFFFF;" d="M255.88,425.57
						c2.67-4.94,1.8-10.39-2.61-15.01c-0.82-0.85-1.76-1.68-2.82-2.47c-0.82-0.62-1.72-1.21-2.69-1.77
						c-0.53-0.31-1.08-0.61-1.64-0.89c1.38,2.27,0.88,4.71-6.96,5.17c-15.33,0.9,4.1,15.54,4.1,15.54S253.14,421.37,255.88,425.57z"
						/>
					<path id="XMLID_00000002365009207369903940000004316140383657997748_" style="opacity:0.5;fill:#FFFFFF;" d="M254.3,421.52
						c2.3-0.26,3.44-2.62,2.55-5.28c-0.89-2.66-3.48-4.61-5.78-4.35c-2.3,0.26-3.44,2.62-2.55,5.28
						C249.41,419.83,252,421.77,254.3,421.52z"/>
					<path id="XMLID_00000154425033125477405540000007770001179240472240_" style="fill:#C84C5E;" d="M230.06,433.72
						c-0.75-5.69-25.63-21.45-25.63-21.45s-5.52-2.21-3.69-6.07c-0.96,0.55-1.84,1.12-2.66,1.72c-0.58,0.42-1.11,0.84-1.62,1.28
						c-7.41,6.41-7.42,14.84,0,21.26c0.5,0.44,1.04,0.86,1.61,1.28c0.76,0.56,1.58,1.09,2.47,1.6c0.84,0.49,1.73,0.95,2.64,1.38
						c0.73,0.34,1.48,0.67,2.24,0.97c0.76,0.3,1.54,0.58,2.33,0.84c2.36,0.78,4.86,1.37,7.42,1.78c0.55,0.09,1.11,0.17,1.67,0.24
						c2.44,0.31,4.93,0.47,7.42,0.47c3.06-0.01,6.11-0.25,9.08-0.75C233.35,438.28,229.34,437.47,230.06,433.72z"/>
					<path id="XMLID_00000075141327430028709690000008068275248579191228_" style="opacity:0.3;fill:#FFFFFF;" d="M230.06,433.72
						c-0.75-5.69-25.63-21.45-25.63-21.45s-5.52-2.21-3.69-6.07c-0.96,0.55-1.84,1.12-2.66,1.72c-0.58,0.42-1.11,0.84-1.62,1.28
						c-7.41,6.41-7.42,14.84,0,21.26c0.5,0.44,1.04,0.86,1.61,1.28c0.76,0.56,1.58,1.09,2.47,1.6c0.84,0.49,1.73,0.95,2.64,1.38
						c0.73,0.34,1.48,0.67,2.24,0.97c0.76,0.3,1.54,0.58,2.33,0.84c2.36,0.78,4.86,1.37,7.42,1.78c0.55,0.09,1.11,0.17,1.67,0.24
						c2.44,0.31,4.93,0.47,7.42,0.47c3.06-0.01,6.11-0.25,9.08-0.75C233.35,438.28,229.34,437.47,230.06,433.72z"/>
					<path id="XMLID_00000165217275131803462910000014264760972278047145_" style="fill:#C84C5E;" d="M206.61,409.72
						c-9.28,5.36-9.66,13.91-1.13,19.52c0.36,0.24,0.74,0.47,1.14,0.7c9.67,5.59,25.36,5.59,35.03,0c9.67-5.59,9.68-14.64,0-20.23
						c-0.39-0.23-0.8-0.45-1.22-0.66C230.7,404.14,215.89,404.36,206.61,409.72z"/>
					<path id="XMLID_00000173845026287724846250000005432354189069086104_" style="opacity:0.2;" d="M206.61,409.72
						c-9.28,5.36-9.66,13.91-1.13,19.52c0.36,0.24,0.74,0.47,1.14,0.7c9.67,5.59,25.36,5.59,35.03,0c9.67-5.59,9.68-14.64,0-20.23
						c-0.39-0.23-0.8-0.45-1.22-0.66C230.7,404.14,215.89,404.36,206.61,409.72z"/>
					<path style="fill:#C84C5E;" d="M207.39,410.17c-9.25,5.34-9.25,14,0,19.33c9.25,5.34,24.24,5.34,33.49,0
						c9.25-5.34,9.25-14,0-19.33C231.63,404.83,216.64,404.83,207.39,410.17z"/>
					<path style="opacity:0.5;" d="M207.39,410.17c-9.25,5.34-9.25,14,0,19.33c9.25,5.34,24.24,5.34,33.49,0
						c9.25-5.34,9.25-14,0-19.33C231.63,404.83,216.64,404.83,207.39,410.17z"/>
					<path style="fill:#C84C5E;" d="M207.39,413.98c9.25-5.34,24.24-5.34,33.49,0c3.78,2.18,6.01,4.92,6.7,7.76
						c-0.69,2.84-2.92,5.58-6.7,7.76c-9.25,5.34-24.24,5.34-33.49,0c-3.78-2.18-6.01-4.92-6.7-7.76
						C201.38,418.9,203.61,416.16,207.39,413.98z"/>
					<path style="opacity:0.35;" d="M207.39,413.98c9.25-5.34,24.24-5.34,33.49,0c3.78,2.18,6.01,4.92,6.7,7.76
						c-0.69,2.84-2.92,5.58-6.7,7.76c-9.25,5.34-24.24,5.34-33.49,0c-3.78-2.18-6.01-4.92-6.7-7.76
						C201.38,418.9,203.61,416.16,207.39,413.98z"/>
				</g>
				<path style="fill:#C84C5E;" d="M239.05,423.95c0-0.46,0.01-2.34,0-2.83c-0.01-1.16-0.8-2.28-2.53-3.29
					c-0.02-0.01-0.04-0.03-0.06-0.04c-3.18-1.84-6.47-1.6-9.39-0.86c-0.01,0-0.02,0-0.03,0c-1.24,0.31-2.43,0.72-3.5,1.09
					c-1.49,0.52-2.71,0.94-3.76,1.16c0,0,0,0-0.01,0c-0.65,0.14-1.24,0.2-1.79,0.17c-0.52-0.03-1.01-0.16-1.48-0.39
					c0.04-0.03,0.08-0.05,0.12-0.08c0.12-0.08,0.24-0.15,0.37-0.23c0.33-0.19,0.66-0.36,0.99-0.49c1.84-0.78,3.62-0.74,5.26-0.12
					l3.04-3.06v-2.81c-2.7-0.92-5.5-1.01-8.3-0.3c-0.88,0.22-1.76,0.53-2.64,0.91l-3.04-1.75l-3.62,2.09v2.81l1.24,0.72
					c-0.35,0.55-0.53,1.1-0.53,1.64c0,0.47,0,2.33,0,2.8c0,1.16,0.83,2.28,2.58,3.29c1.69,0.97,3.37,1.38,5,1.44l0,0
					c0.33,0.01,0.67,0.01,1,0c1.89-0.09,3.71-0.6,5.37-1.16c0.36-0.12,0.7-0.24,1.05-0.36l-3.06,3.06v2.81
					c4.31,1.73,8.53,0.91,11.71-0.51l3,1.73l3.62-2.09v-2.81l-1.24-0.72C238.84,425.17,239.05,424.56,239.05,423.95z M231.41,423.71
					c-0.28,0.16-0.56,0.3-0.84,0.42c-2.15,0.92-4.37,0.73-5.92,0.09c2.84-1,5.21-1.88,7.23-0.8
					C231.73,423.52,231.57,423.61,231.41,423.71z"/>
				<g>
					<g id="XMLID_00000104688026668025914410000008539861739176539042_">
						<g>
							<path id="XMLID_00000088095125594968221070000002998553864718677641_" style="fill:#C84C5E;" d="M227.07,416.94
								c-0.01,0-0.02,0-0.02,0c-1.24,0.31-2.43,0.72-3.5,1.09c-1.49,0.52-2.71,0.94-3.76,1.16c0,0,0,0-0.01,0
								c-0.65,0.14-1.24,0.2-1.79,0.17c-0.61-0.04-1.18-0.2-1.72-0.51c-1.17-0.67-1.34-1.66,0.36-2.77
								c0.12-0.08,0.24-0.15,0.37-0.23c0.33-0.19,0.66-0.36,0.99-0.49c1.84-0.78,3.62-0.74,5.26-0.12l3.04-3.06
								c-2.7-0.92-5.5-1.01-8.3-0.3c-0.88,0.22-1.76,0.53-2.64,0.91l-3.04-1.75l-3.62,2.09l3,1.73c0,0-0.01,0.01-0.03,0.02
								c-3.05,2.31-3.11,4.71,0.32,6.69c1.69,0.97,3.37,1.38,5,1.44l0,0c0.33,0.01,0.67,0.01,1,0c1.89-0.09,3.71-0.6,5.37-1.16
								c3.48-1.16,6.29-2.53,8.64-1.18c1.57,0.91,1.14,2.05-0.59,3.04c-0.28,0.16-0.56,0.3-0.84,0.42c-2.2,0.94-4.48,0.72-6.03,0.04
								l-3.18,3.19c4.31,1.73,8.53,0.91,11.71-0.51l3,1.73l3.62-2.09l-3-1.73c3.01-2.33,3.36-4.87-0.16-6.93
								c-0.02-0.01-0.04-0.03-0.06-0.04C233.28,415.96,230,416.2,227.07,416.94z"/>
						</g>
					</g>
					<g id="XMLID_00000103227365517426779830000004896231482859690370_" style="opacity:0.3;">
						<path id="XMLID_00000141423845646592343340000000785702892226165165_" style="fill:#FFFFFF;" d="M227.07,416.94
							c-0.01,0-0.02,0-0.02,0c-1.24,0.31-2.43,0.72-3.5,1.09c-1.49,0.52-2.71,0.94-3.76,1.16c0,0,0,0-0.01,0
							c-0.65,0.14-1.24,0.2-1.79,0.17c-0.61-0.04-1.18-0.2-1.72-0.51c-1.17-0.67-1.34-1.66,0.36-2.77c0.12-0.08,0.24-0.15,0.37-0.23
							c0.33-0.19,0.66-0.36,0.99-0.49c1.84-0.78,3.62-0.74,5.26-0.12l3.04-3.06c-2.7-0.92-5.5-1.01-8.3-0.3
							c-0.88,0.22-1.76,0.53-2.64,0.91l-3.04-1.75l-3.62,2.09l3,1.73c0,0-0.01,0.01-0.03,0.02c-3.05,2.31-3.11,4.71,0.32,6.69
							c1.69,0.97,3.37,1.38,5,1.44l0,0c0.33,0.01,0.67,0.01,1,0c1.89-0.09,3.71-0.6,5.37-1.16c3.48-1.16,6.29-2.53,8.64-1.18
							c1.57,0.91,1.14,2.05-0.59,3.04c-0.28,0.16-0.56,0.3-0.84,0.42c-2.2,0.94-4.48,0.72-6.03,0.04l-3.18,3.19
							c4.31,1.73,8.53,0.91,11.71-0.51l3,1.73l3.62-2.09l-3-1.73c3.01-2.33,3.36-4.87-0.16-6.93c-0.02-0.01-0.04-0.03-0.06-0.04
							C233.28,415.96,230,416.2,227.07,416.94z"/>
					</g>
					<g>
						<polygon id="XMLID_00000066515752481465728490000010601961409204683671_" style="opacity:0.45;fill:#F5F5F5;" points="
							208.69,413.13 212.35,411.47 215.35,412.79 212.31,411.04 						"/>
						<path id="XMLID_00000173861645315613463080000011055754835530883509_" style="opacity:0.45;fill:#F5F5F5;" d="M217.57,411.99
							c1.95-0.42,5.12-0.54,7.79,0.26l-2.1,2.99l3.04-3.06C223.05,411.15,220.19,411.22,217.57,411.99z"/>
						<path id="XMLID_00000181065822146212370960000002715777678946064772_" style="opacity:0.45;fill:#F5F5F5;" d="M236.46,417.79
							c0.02,0.01,0.04,0.02,0.06,0.04c3.52,2.06,3.17,4.6,0.16,6.93c2.67-2.91,2.19-4.94-0.71-6.61c-2.89-1.67-6.6-1.65-8.9-1.22
							C230,416.2,233.28,415.96,236.46,417.79z"/>
						<polygon id="XMLID_00000003821854838079178050000016216811520518133685_" style="opacity:0.45;fill:#F5F5F5;" points="
							236.68,424.77 238.98,426.53 236.06,428.59 239.68,426.5 						"/>
						<path id="XMLID_00000101099490025832488740000001947255105217174712_" style="opacity:0.45;fill:#F5F5F5;" d="M230.57,424.13
							c-3.18,1.51-5.77,0.5-5.77,0.5l-3.44,2.73l3.18-3.19C226.09,424.85,228.36,425.07,230.57,424.13z"/>
						<path id="XMLID_00000137837275399687822180000002646879517193538210_" style="opacity:0.45;fill:#F5F5F5;" d="M219.77,419.2
							c-1.37,0.54-3.34,0.45-4.34-0.41c-1.05-0.9-0.38-1.87,1.19-2.7c-1.69,1.11-1.53,2.1-0.36,2.77c0.55,0.32,1.11,0.48,1.72,0.51
							C218.53,419.4,219.12,419.33,219.77,419.2z"/>
						<path id="XMLID_00000160151731238138276300000004130869339377836696_" style="opacity:0.45;fill:#F5F5F5;" d="M211.66,414.88
							c-0.26,0.23-2.44,2.26-1.47,4.29c1.02,2.17,4.22,3.56,6.8,3.84l0,0c-1.64-0.06-3.31-0.47-5-1.44
							C208.55,419.6,208.62,417.2,211.66,414.88z"/>
					</g>
				</g>
			</g>
		</g>
		<g id="Coin_00000176002915601192159410000010017466221300783253_">
			<g id="XMLID_00000146489000773738300880000018337502445030669733_">
				<g id="XMLID_1481_">
					<path id="XMLID_1578_" style="fill:#C84C5E;" d="M249.84,407.82c-1.71-2.89-4.56-5.6-8.54-7.9c-13.97-8.07-36.62-8.07-50.59,0
						c-3.99,2.3-6.83,5.02-8.54,7.9h-1.93v7.31h0.03c0.26,5.08,3.73,10.12,10.45,14c13.97,8.07,36.62,8.07,50.59,0
						c6.72-3.88,10.22-8.92,10.48-14v0v-7.31H249.84z"/>
					<path id="XMLID_1489_" style="opacity:0.25;" d="M249.84,407.82c-1.71-2.89-4.56-5.6-8.54-7.9c-13.97-8.07-36.62-8.07-50.59,0
						c-3.99,2.3-6.83,5.02-8.54,7.9h-1.93v7.31h0.03c0.26,5.08,3.73,10.12,10.45,14c13.97,8.07,36.62,8.07,50.59,0
						c6.72-3.88,10.22-8.92,10.48-14v0v-7.31H249.84z"/>
					<path id="XMLID_1488_" style="opacity:0.1;" d="M216,393.87c-9.15,0-18.31,2.02-25.3,6.05c-3.99,2.3-6.83,5.02-8.54,7.9h-1.93
						v7.31h0.03c0.26,5.08,3.73,10.12,10.45,14c6.99,4.03,16.14,6.05,25.3,6.05V393.87z"/>
					<path id="XMLID_1487_" style="opacity:0.1;" d="M196.46,397.22c-2.04,0.77-3.97,1.66-5.76,2.7c-3.99,2.3-6.83,5.02-8.54,7.9
						h-1.93v7.31h0.03c0.26,5.08,3.73,10.12,10.45,14c1.79,1.03,3.72,1.93,5.76,2.7V397.22z"/>
					<path id="XMLID_00000070111939579698687200000010224096504578254771_" style="opacity:0.5;fill:#C84C5E;" d="M235.54,397.22
						c2.04,0.77,3.97,1.66,5.76,2.7c3.99,2.3,6.83,5.02,8.54,7.9h1.93v7.31v0c-0.26,5.08-3.76,10.12-10.48,14
						c-1.79,1.03-3.72,1.93-5.76,2.7V397.22z"/>
				</g>
				<g id="XMLID_00000093862272411855920340000015994792163149998986_">
					<g>
						<g>
							<path id="XMLID_1470_" style="fill:#C84C5E;" d="M190.71,393.22c-13.97,8.07-13.97,21.14,0,29.21
								c12.22,7.06,31.09,7.94,44.97,2.65l0,0c0.18-0.07,0.37-0.14,0.55-0.22c1.78-0.71,3.47-1.52,5.06-2.43
								c11.65-6.73,13.59-16.94,5.8-24.82c0,0,0,0,0,0c-1.55-1.57-3.48-3.04-5.8-4.38C227.33,385.16,204.68,385.16,190.71,393.22z"
								/>
							<path id="XMLID_1463_" style="opacity:0.2;" d="M190.71,393.22c-13.97,8.07-13.97,21.14,0,29.21
								c12.22,7.06,31.09,7.94,44.97,2.65l0,0c0.18-0.07,0.37-0.14,0.55-0.22c1.78-0.71,3.47-1.52,5.06-2.43
								c11.65-6.73,13.59-16.94,5.8-24.82c0,0,0,0,0,0c-1.55-1.57-3.48-3.04-5.8-4.38C227.33,385.16,204.68,385.16,190.71,393.22z"
								/>
						</g>
					</g>
					<g>
						<path id="XMLID_1431_" style="opacity:0.5;fill:#F5F5F5;" d="M247.1,397.61c0.15,0.17,5.04,5.32,3.74,12.74
							c-1.24,7.1-11.18,13.07-14.6,14.51c1.78-0.71,3.47-1.52,5.06-2.43C252.94,415.7,254.88,405.49,247.1,397.61z"/>
						<path id="XMLID_1429_" style="opacity:0.5;fill:#F5F5F5;" d="M184.9,418.04c-0.15-0.17-5.04-5.32-3.74-12.74
							c1.24-7.1,11.18-13.07,14.6-14.51c-1.78,0.71-3.47,1.52-5.06,2.43C179.06,399.95,177.12,410.16,184.9,418.04z"/>
					</g>
				</g>
			</g>
			<g>
				<g id="XMLID_1395_">
					<ellipse style="fill:#C84C5E;" cx="216.01" cy="407.8" rx="33.25" ry="19.2"/>
					<ellipse style="opacity:0.4;fill:#FFFFFF;" cx="216.01" cy="407.8" rx="33.25" ry="19.2"/>
					<path id="XMLID_1425_" style="opacity:0.2;fill:#FFFFFF;" d="M184.27,413.53c-2.67-4.94-1.8-10.39,2.61-15.01
						c0.82-0.85,1.76-1.68,2.82-2.47c0.82-0.62,1.72-1.21,2.69-1.77c0.53-0.31,1.08-0.61,1.64-0.89c-1.38,2.27-0.88,4.71,6.96,5.17
						c15.33,0.9-4.1,15.54-4.1,15.54S187.01,409.34,184.27,413.53z"/>
					<path id="XMLID_00000093896723523682461760000007710220840462018703_" style="opacity:0.5;fill:#FFFFFF;" d="M185.85,409.48
						c-2.3-0.26-3.44-2.62-2.55-5.28c0.89-2.66,3.48-4.61,5.78-4.35c2.3,0.26,3.44,2.62,2.55,5.28
						C190.74,407.79,188.15,409.74,185.85,409.48z"/>
					<path id="XMLID_00000036967860311541394730000000619562925727131058_" style="fill:#C84C5E;" d="M210.09,421.69
						c0.75-5.69,25.63-21.45,25.63-21.45s5.52-2.21,3.69-6.07c0.96,0.55,1.84,1.12,2.66,1.72c0.58,0.42,1.11,0.84,1.62,1.28
						c7.41,6.41,7.42,14.84,0,21.26c-0.5,0.44-1.04,0.86-1.61,1.28c-0.76,0.56-1.58,1.09-2.47,1.6c-0.84,0.49-1.73,0.95-2.64,1.38
						c-0.73,0.34-1.48,0.67-2.24,0.97c-0.76,0.3-1.54,0.58-2.33,0.84c-2.36,0.78-4.86,1.37-7.42,1.78
						c-0.55,0.09-1.11,0.17-1.67,0.24c-2.44,0.31-4.93,0.47-7.42,0.47c-3.06-0.01-6.11-0.25-9.08-0.75
						C206.8,426.25,210.81,425.43,210.09,421.69z"/>
					<path id="XMLID_1413_" style="opacity:0.3;fill:#FFFFFF;" d="M210.09,421.69c0.75-5.69,25.63-21.45,25.63-21.45
						s5.52-2.21,3.69-6.07c0.96,0.55,1.84,1.12,2.66,1.72c0.58,0.42,1.11,0.84,1.62,1.28c7.41,6.41,7.42,14.84,0,21.26
						c-0.5,0.44-1.04,0.86-1.61,1.28c-0.76,0.56-1.58,1.09-2.47,1.6c-0.84,0.49-1.73,0.95-2.64,1.38c-0.73,0.34-1.48,0.67-2.24,0.97
						c-0.76,0.3-1.54,0.58-2.33,0.84c-2.36,0.78-4.86,1.37-7.42,1.78c-0.55,0.09-1.11,0.17-1.67,0.24
						c-2.44,0.31-4.93,0.47-7.42,0.47c-3.06-0.01-6.11-0.25-9.08-0.75C206.8,426.25,210.81,425.43,210.09,421.69z"/>
					<path id="XMLID_1399_" style="fill:#C84C5E;" d="M233.54,397.68c9.28,5.36,9.66,13.91,1.13,19.52
						c-0.36,0.24-0.74,0.47-1.14,0.7c-9.67,5.59-25.36,5.59-35.03,0s-9.68-14.64,0-20.23c0.39-0.23,0.8-0.45,1.22-0.66
						C209.45,392.11,224.26,392.33,233.54,397.68z"/>
					<path id="XMLID_1396_" style="opacity:0.2;" d="M233.54,397.68c9.28,5.36,9.66,13.91,1.13,19.52c-0.36,0.24-0.74,0.47-1.14,0.7
						c-9.67,5.59-25.36,5.59-35.03,0s-9.68-14.64,0-20.23c0.39-0.23,0.8-0.45,1.22-0.66C209.45,392.11,224.26,392.33,233.54,397.68z
						"/>
					<path style="fill:#C84C5E;" d="M232.76,398.13c9.25,5.34,9.25,14,0,19.33c-9.25,5.34-24.24,5.34-33.49,0
						c-9.25-5.34-9.25-13.99,0-19.33C208.52,392.79,223.51,392.79,232.76,398.13z"/>
					<path style="opacity:0.5;" d="M232.76,398.13c9.25,5.34,9.25,14,0,19.33c-9.25,5.34-24.24,5.34-33.49,0
						c-9.25-5.34-9.25-13.99,0-19.33C208.52,392.79,223.51,392.79,232.76,398.13z"/>
					<path style="fill:#C84C5E;" d="M232.76,401.94c-9.25-5.34-24.24-5.34-33.49,0c-3.78,2.18-6.01,4.92-6.7,7.76
						c0.69,2.84,2.92,5.58,6.7,7.76c9.25,5.34,24.24,5.34,33.49,0c3.78-2.18,6.01-4.92,6.7-7.76
						C238.77,406.86,236.54,404.13,232.76,401.94z"/>
					<path style="opacity:0.35;" d="M232.76,401.94c-9.25-5.34-24.24-5.34-33.49,0c-3.78,2.18-6.01,4.92-6.7,7.76
						c0.69,2.84,2.92,5.58,6.7,7.76c9.25,5.34,24.24,5.34,33.49,0c3.78-2.18,6.01-4.92,6.7-7.76
						C238.77,406.86,236.54,404.13,232.76,401.94z"/>
				</g>
				<path style="fill:#C84C5E;" d="M230.92,411.91c0-0.46,0.01-2.34,0-2.83c-0.01-1.16-0.8-2.28-2.53-3.29
					c-0.02-0.01-0.04-0.03-0.06-0.04c-3.18-1.84-6.47-1.6-9.39-0.86c-0.01,0-0.02,0-0.03,0c-1.24,0.31-2.43,0.72-3.5,1.09
					c-1.49,0.52-2.71,0.94-3.76,1.16c0,0,0,0-0.01,0c-0.65,0.14-1.24,0.2-1.79,0.17c-0.52-0.03-1.01-0.16-1.48-0.39
					c0.04-0.03,0.08-0.05,0.12-0.08c0.12-0.08,0.24-0.15,0.37-0.23c0.33-0.19,0.66-0.36,0.99-0.49c1.84-0.78,3.62-0.74,5.26-0.12
					l3.04-3.06v-2.81c-2.7-0.92-5.5-1.01-8.3-0.3c-0.88,0.22-1.76,0.53-2.64,0.91l-3.04-1.75l-3.62,2.09v2.81l1.24,0.72
					c-0.36,0.55-0.53,1.1-0.53,1.64c0,0.47,0.01,2.33,0,2.8c0,1.16,0.83,2.28,2.58,3.29c1.69,0.97,3.37,1.38,5,1.44l0,0
					c0.33,0.01,0.67,0.01,1,0c1.89-0.09,3.71-0.6,5.37-1.16c0.36-0.12,0.7-0.24,1.05-0.36l-3.06,3.06v2.81
					c4.31,1.73,8.53,0.91,11.71-0.51l3,1.73l3.62-2.09v-2.81l-1.24-0.72C230.72,413.13,230.93,412.52,230.92,411.91z M223.28,411.67
					c-0.28,0.16-0.56,0.3-0.84,0.42c-2.15,0.92-4.37,0.73-5.92,0.09c2.84-1,5.21-1.88,7.23-0.8
					C223.6,411.48,223.45,411.58,223.28,411.67z"/>
				<g>
					<g id="XMLID_1388_">
						<g>
							<path id="XMLID_00000022533898681508433640000007583952153594544769_" style="fill:#C84C5E;" d="M218.95,404.9
								c-0.01,0-0.02,0-0.03,0c-1.24,0.31-2.43,0.72-3.5,1.09c-1.49,0.52-2.71,0.94-3.76,1.16c0,0,0,0-0.01,0
								c-0.65,0.14-1.24,0.2-1.79,0.17c-0.61-0.04-1.18-0.2-1.72-0.51c-1.17-0.67-1.33-1.66,0.36-2.77
								c0.12-0.08,0.24-0.15,0.37-0.23c0.33-0.19,0.66-0.36,0.99-0.49c1.84-0.78,3.62-0.74,5.26-0.12l3.04-3.06
								c-2.7-0.92-5.5-1.01-8.3-0.3c-0.88,0.22-1.76,0.53-2.64,0.91l-3.04-1.75l-3.62,2.09l3,1.73c0,0-0.01,0.01-0.03,0.02
								c-3.05,2.31-3.11,4.71,0.32,6.69c1.69,0.97,3.37,1.38,5,1.44l0,0c0.33,0.01,0.67,0.01,1,0c1.89-0.09,3.71-0.6,5.37-1.16
								c3.48-1.16,6.29-2.53,8.64-1.18c1.57,0.91,1.13,2.05-0.59,3.04c-0.28,0.16-0.56,0.3-0.84,0.42c-2.2,0.94-4.48,0.72-6.03,0.04
								l-3.18,3.19c4.31,1.73,8.53,0.91,11.71-0.51l3,1.73l3.62-2.09l-3-1.73c3.01-2.33,3.36-4.87-0.16-6.93
								c-0.02-0.01-0.04-0.03-0.06-0.04C225.16,403.92,221.87,404.16,218.95,404.9z"/>
						</g>
					</g>
					<g id="XMLID_1364_" style="opacity:0.3;">
						<path id="XMLID_1384_" style="fill:#FFFFFF;" d="M218.95,404.9c-0.01,0-0.02,0-0.03,0c-1.24,0.31-2.43,0.72-3.5,1.09
							c-1.49,0.52-2.71,0.94-3.76,1.16c0,0,0,0-0.01,0c-0.65,0.14-1.24,0.2-1.79,0.17c-0.61-0.04-1.18-0.2-1.72-0.51
							c-1.17-0.67-1.33-1.66,0.36-2.77c0.12-0.08,0.24-0.15,0.37-0.23c0.33-0.19,0.66-0.36,0.99-0.49c1.84-0.78,3.62-0.74,5.26-0.12
							l3.04-3.06c-2.7-0.92-5.5-1.01-8.3-0.3c-0.88,0.22-1.76,0.53-2.64,0.91l-3.04-1.75l-3.62,2.09l3,1.73c0,0-0.01,0.01-0.03,0.02
							c-3.05,2.31-3.11,4.71,0.32,6.69c1.69,0.97,3.37,1.38,5,1.44l0,0c0.33,0.01,0.67,0.01,1,0c1.89-0.09,3.71-0.6,5.37-1.16
							c3.48-1.16,6.29-2.53,8.64-1.18c1.57,0.91,1.13,2.05-0.59,3.04c-0.28,0.16-0.56,0.3-0.84,0.42c-2.2,0.94-4.48,0.72-6.03,0.04
							l-3.18,3.19c4.31,1.73,8.53,0.91,11.71-0.51l3,1.73l3.62-2.09l-3-1.73c3.01-2.33,3.36-4.87-0.16-6.93
							c-0.02-0.01-0.04-0.03-0.06-0.04C225.16,403.92,221.87,404.16,218.95,404.9z"/>
					</g>
					<g>
						<polygon id="XMLID_00000164511183427753121400000003479622389223762567_" style="opacity:0.45;fill:#F5F5F5;" points="
							200.57,401.09 204.22,399.43 207.22,400.75 204.19,399 						"/>
						<path id="XMLID_1338_" style="opacity:0.45;fill:#F5F5F5;" d="M209.44,399.95c1.95-0.42,5.12-0.54,7.79,0.26l-2.1,2.99
							l3.04-3.06C214.93,399.11,212.07,399.18,209.44,399.95z"/>
						<path id="XMLID_00000089536370023123361710000012510729592158578861_" style="opacity:0.45;fill:#F5F5F5;" d="M228.34,405.76
							c0.02,0.01,0.04,0.02,0.06,0.04c3.52,2.06,3.17,4.6,0.16,6.93c2.67-2.91,2.19-4.94-0.71-6.61c-2.9-1.67-6.6-1.65-8.9-1.22
							C221.87,404.16,225.16,403.92,228.34,405.76z"/>
						<polygon id="XMLID_1283_" style="opacity:0.45;fill:#F5F5F5;" points="228.56,412.73 230.86,414.49 227.93,416.55 
							231.56,414.46 						"/>
						<path id="XMLID_1282_" style="opacity:0.45;fill:#F5F5F5;" d="M222.44,412.09c-3.18,1.51-5.77,0.5-5.77,0.5l-3.44,2.73
							l3.18-3.19C217.96,412.81,220.24,413.04,222.44,412.09z"/>
						<path id="XMLID_00000100343528343843476970000000542236909882622870_" style="opacity:0.45;fill:#F5F5F5;" d="M211.65,407.16
							c-1.37,0.54-3.34,0.45-4.34-0.41c-1.05-0.9-0.38-1.87,1.19-2.7c-1.69,1.11-1.53,2.1-0.36,2.77c0.55,0.32,1.11,0.48,1.72,0.51
							C210.41,407.36,211,407.3,211.65,407.16z"/>
						<path id="XMLID_1271_" style="opacity:0.45;fill:#F5F5F5;" d="M203.54,402.85c-0.26,0.23-2.44,2.26-1.47,4.29
							c1.02,2.17,4.22,3.56,6.8,3.84l0,0c-1.64-0.06-3.31-0.47-5-1.44C200.43,407.56,200.49,405.16,203.54,402.85z"/>
					</g>
				</g>
				<polygon id="XMLID_00000067938266104530296520000008723836425605707193_" style="fill:#FFFFFF;" points="184.41,404.19 
					185.31,397.34 186.21,404.19 198.06,404.71 186.21,405.23 185.31,412.07 184.41,405.23 172.55,404.71 				"/>
			</g>
		</g>
	</g>
</g>
<g id="Bar_graph">
	<g id="Bar_graph_00000128445088429163182100000015566493697034198199_">
		<g>
			<g style="opacity:0.3;">
				<path style="fill:#C84C5E;" d="M398.77,418.08c-0.05,0-0.1-0.01-0.15-0.04l-19.36-11.18c-0.09-0.05-0.15-0.15-0.15-0.26
					c0-0.11,0.06-0.2,0.15-0.26l24.21-13.97c0.09-0.05,0.21-0.05,0.3,0l19.36,11.18c0.09,0.05,0.15,0.15,0.15,0.26
					c0,0.11-0.06,0.2-0.15,0.26l-24.21,13.97C398.88,418.07,398.82,418.08,398.77,418.08z M380.01,406.6l18.77,10.84l23.61-13.63
					l-18.77-10.84L380.01,406.6z"/>
			</g>
			<g id="XMLID_866_">
				<g id="XMLID_878_">
					<polygon id="XMLID_886_" style="fill:#C84C5E;" points="398.77,414.99 398.77,314.76 384.25,306.38 384.25,406.61 					"/>
					<polygon id="XMLID_558_" style="opacity:0.2;" points="398.77,414.99 398.77,314.76 384.25,306.38 384.25,406.61 					"/>
					<polygon id="XMLID_885_" style="fill:#C84C5E;" points="398.77,414.99 418.14,403.81 418.14,303.59 398.77,314.76 					"/>
					<polygon id="XMLID_00000005944782037607821150000014641838378737943442_" style="fill:#C84C5E;" points="418.14,303.59 
						403.62,295.2 384.25,306.38 398.77,314.76 					"/>
					<polygon id="XMLID_559_" style="opacity:0.25;fill:#FFFFFF;" points="418.14,303.59 403.62,295.2 384.25,306.38 398.77,314.76 
											"/>
				</g>
				<path style="opacity:0.3;fill:#FFFFFF;" d="M418.14,303.59l-19.56,10.78l-6.35-3.55l-7.98-4.44l7.84,4.69l6.42,3.83
					c-0.15,2.18-0.19,91.23-0.16,93.41c0.03,2.23,0.14,4.45,0.43,6.68c0.29-2.23,0.39-4.45,0.43-6.68
					c0.03-2.11-0.01-91.09-0.15-93.2L418.14,303.59z"/>
			</g>
		</g>
		<g>
			<g style="opacity:0.3;">
				<path style="fill:#C84C5E;" d="M362.47,439.05c-0.05,0-0.1-0.01-0.15-0.04l-19.36-11.18c-0.09-0.05-0.15-0.15-0.15-0.26
					c0-0.11,0.06-0.2,0.15-0.26l24.21-13.97c0.09-0.05,0.21-0.05,0.3,0l19.36,11.18c0.09,0.05,0.15,0.15,0.15,0.26
					c0,0.11-0.06,0.2-0.15,0.26l-24.21,13.97C362.57,439.03,362.52,439.05,362.47,439.05z M343.7,427.57l18.77,10.84l23.61-13.63
					l-18.77-10.84L343.7,427.57z"/>
			</g>
			<g id="XMLID_00000084492773739996765280000011941234846098014107_">
				<g id="XMLID_3658_">
					<polygon id="XMLID_00000057115321808720448980000007173842863637717419_" style="fill:#C84C5E;" points="362.47,435.95 
						362.46,375.82 347.94,367.43 347.94,427.57 					"/>
					<polygon id="XMLID_00000121258594741848386310000015962153139727514033_" style="opacity:0.1;fill:#FFFFFF;" points="
						362.47,435.95 362.46,375.82 347.94,367.43 347.94,427.57 					"/>
					<polygon id="XMLID_00000135672586008862475340000004454967143530721469_" style="fill:#C84C5E;" points="362.47,435.95 
						381.83,424.77 381.83,364.64 362.46,375.82 					"/>
					<polygon id="XMLID_00000120536508862016053060000000565386069325954237_" style="opacity:0.3;fill:#FFFFFF;" points="
						362.47,435.95 381.83,424.77 381.83,364.64 362.46,375.82 					"/>
					<polygon id="XMLID_3661_" style="fill:#C84C5E;" points="381.83,364.64 367.31,356.26 347.94,367.43 362.46,375.82 					"/>
					<polygon id="XMLID_00000082368146354387424790000001299597719877093513_" style="opacity:0.55;fill:#FFFFFF;" points="
						381.83,364.64 367.31,356.26 347.94,367.43 362.46,375.82 					"/>
				</g>
				<path style="opacity:0.3;fill:#FFFFFF;" d="M362.72,376.18l19.11-11.54l-19.56,10.78c-2.11-1.19-4.23-2.37-6.35-3.55l-7.98-4.44
					l7.84,4.69c2.14,1.28,4.28,2.57,6.43,3.83c-0.07,2.26-0.14,13.17-0.16,15.43c-0.02,2.31-0.03,28.42-0.01,30.72
					c0.01,2.31,0.05,4.61,0.13,6.92c0.06,2.31,0.15,4.61,0.3,6.92c0.15-2.31,0.24-4.61,0.3-6.92c0.08-2.31,0.11-4.61,0.13-6.92
					c0.02-2.31,0.01-28.42-0.02-30.72C362.85,389.2,362.79,378.36,362.72,376.18z"/>
			</g>
		</g>
		<g>
			<g style="opacity:0.3;">
				<path style="fill:#C84C5E;" d="M326.16,460.01c-0.05,0-0.1-0.01-0.15-0.04l-19.36-11.18c-0.09-0.05-0.15-0.15-0.15-0.26
					c0-0.11,0.06-0.2,0.15-0.26l24.21-13.97c0.09-0.05,0.21-0.05,0.3,0l19.36,11.18c0.09,0.05,0.15,0.15,0.15,0.26
					c0,0.11-0.06,0.2-0.15,0.26l-24.21,13.97C326.26,459.99,326.21,460.01,326.16,460.01z M307.39,448.53l18.77,10.84l23.61-13.63
					L331,434.9L307.39,448.53z"/>
			</g>
			<g id="XMLID_00000119103264228319126750000004256423887361539457_">
				<g id="XMLID_00000097502185351330587750000009806445730830038679_">
					<polygon id="XMLID_00000008151167679861838870000017822691223953342336_" style="fill:#C84C5E;" points="326.16,456.91 
						326.16,435.78 311.63,427.4 311.63,448.53 					"/>
					<polygon id="XMLID_00000177455956696190525740000011578264176838261410_" style="opacity:0.45;" points="326.16,456.91 
						326.16,435.78 311.63,427.4 311.63,448.53 					"/>
					<polygon id="XMLID_00000060730504564643589180000009780291934650644623_" style="fill:#C84C5E;" points="326.16,456.91 
						345.52,445.73 345.52,424.6 326.16,435.78 					"/>
					<polygon id="XMLID_775_" style="opacity:0.3;" points="326.16,456.91 345.52,445.73 345.52,424.6 326.16,435.78 					"/>
					<polygon id="XMLID_00000098903267627467072430000002876318151378135723_" style="fill:#C84C5E;" points="345.52,424.6 
						331,416.22 311.63,427.4 326.16,435.78 					"/>
					<polygon id="XMLID_00000041289532293999779310000013061537540966977717_" style="opacity:0.15;" points="345.52,424.6 
						331,416.22 311.63,427.4 326.16,435.78 					"/>
				</g>
				<path style="opacity:0.3;fill:#FFFFFF;" d="M345.52,424.6l-19.56,10.78l-6.35-3.55l-7.98-4.44l7.84,4.69l6.42,3.83
					c-0.15,1.33-0.19,15.55-0.16,16.88c0.03,1.37,0.14,2.75,0.43,4.12c0.29-1.37,0.39-2.75,0.42-4.12
					c0.03-1.26-0.01-15.42-0.14-16.67L345.52,424.6z"/>
			</g>
		</g>
		<g>
			<g style="opacity:0.3;">
				<path style="fill:#C84C5E;" d="M435.08,397.12c-0.05,0-0.1-0.01-0.15-0.04l-19.36-11.18c-0.09-0.05-0.15-0.15-0.15-0.26
					c0-0.11,0.06-0.2,0.15-0.26l24.21-13.97c0.09-0.05,0.21-0.05,0.3,0l19.36,11.18c0.09,0.05,0.15,0.15,0.15,0.26
					c0,0.11-0.06,0.2-0.15,0.26l-24.21,13.97C435.18,397.11,435.13,397.12,435.08,397.12z M416.31,385.64l18.77,10.84l23.61-13.63
					l-18.77-10.84L416.31,385.64z"/>
			</g>
			<g id="XMLID_4543_">
				<g id="XMLID_4554_">
					<polygon id="XMLID_4557_" style="fill:#C84C5E;" points="435.08,394.03 435.08,255.29 420.56,246.9 420.56,385.64 					"/>
					<polygon id="XMLID_00000029020740056547534980000012792703969235730876_" style="opacity:0.3;fill:#FFFFFF;" points="
						435.08,394.03 435.08,255.29 420.56,246.9 420.56,385.64 					"/>
					<polygon id="XMLID_4556_" style="fill:#C84C5E;" points="435.08,394.03 454.45,382.85 454.45,244.11 435.08,255.29 					"/>
					<polygon id="XMLID_787_" style="opacity:0.55;fill:#FFFFFF;" points="435.08,394.03 454.45,382.85 454.45,244.11 
						435.08,255.29 					"/>
					<polygon id="XMLID_4555_" style="fill:#C84C5E;" points="454.45,244.11 439.92,235.72 420.56,246.9 435.08,255.29 					"/>
					<polygon id="XMLID_00000174568663065387220200000013053754534446425780_" style="opacity:0.75;fill:#FFFFFF;" points="
						454.45,244.11 439.92,235.72 420.56,246.9 435.08,255.29 					"/>
				</g>
				<path style="opacity:0.3;fill:#FFFFFF;" d="M435.34,255.65l19.11-11.54l-19.56,10.78c-2.11-1.19-4.23-2.37-6.35-3.55l-7.98-4.44
					l7.84,4.69c2.14,1.28,4.28,2.57,6.43,3.84c-0.07,2.56-0.14,34.7-0.16,37.26c-0.02,2.61-0.03,83.08-0.01,85.69
					c0.01,2.61,0.05,5.22,0.13,7.83c0.06,2.61,0.15,5.22,0.3,7.83c0.15-2.61,0.24-5.22,0.3-7.83c0.08-2.61,0.11-5.22,0.13-7.83
					c0.02-2.61,0.01-83.08-0.02-85.69C435.47,290.2,435.4,258.14,435.34,255.65z"/>
			</g>
		</g>
	</g>
</g>
<g id="Triangles_00000040542990165861373990000015222869501995311253_">
	<g id="Triangles">
		<polygon style="opacity:0.5;fill:#C84C5E;" points="97.97,169.84 41.87,202.23 69.92,150.7 		"/>
		<polygon style="opacity:0.3;fill:#C84C5E;" points="97.97,193.4 41.87,225.79 69.92,174.26 		"/>
		<polygon style="opacity:0.15;fill:#C84C5E;" points="97.97,216.95 41.87,249.34 69.92,197.81 		"/>
	</g>
</g>
<g id="Character">
	<g id="Character_00000138571629387104383730000007548711603390958738_">
		<path id="Shadow_10_" style="opacity:0.2;" d="M225.51,284.07c4.47-3.85,10.39-7.47,17.61-10.74c8.11-3.68,17.85-6.93,24.62-10.93
			c8.8-5.2,12.15-11.46,11.51-17.76c-0.36-3.57-2.49-7.53-10.6-10.16c-2.08-0.67-4.61-1.25-7.33-1.38c-4-0.19-7.47,0.59-10.27,1.44
			c-14.91,4.51-21.24,11.44-26.24,18.18c-5,6.73-11.07,10.64-21.99,16.98c-4.67,2.72-9.68,5.38-14.09,8.13
			c-0.04,0.02-0.07,0.04-0.11,0.07c-2.23,1.4-4.68,2.69-6.44,4.19c-2.8,2.39-5.26,4.86-6.27,7.47c-1.01,2.61-0.51,5.39,2.47,7.99
			c0.77,0.67,1.76,1.35,3.47,1.81c1.44,0.38,3.24,0.56,4.99,0.62c3.55,0.12,6.98-0.22,9.88-0.79c2.9-0.57,5.32-1.36,7.55-2.19
			C213.99,293.36,220.18,288.67,225.51,284.07z"/>
		<g id="Character_15_">
			<g id="Arm_00000090267331252223168050000014042855622765582501_">
				<g>
					<path style="fill:#FFB178;" d="M179.8,151.35c-0.82,2.17-3.2,6.77-3.05,7.35c0.41,1.59,0.49,2.56,0.13,4.42
						c-0.21,1.11-9.8,4.88-9.8,4.88l-0.23-1.52c-0.16-1.02-0.03-2.07,0.38-3.02c1.11-2.59,3.38-8.27,4.09-12.85L179.8,151.35z"/>
					<path style="fill:#F2BA92;" d="M177.04,162.14l-10.15,4.56l0.2,1.29c0,0,9.59-3.77,9.8-4.88
						C176.95,162.76,177,162.45,177.04,162.14z"/>
					<g id="Briefcase_2_">
						<g id="XMLID_635_">
							<g id="XMLID_845_">
								<path id="XMLID_1162_" style="fill:#3A384F;" d="M146.25,181.66L143.2,213c-0.15,1.52,0.84,2.5,2.08,3.4l3.11,2.23
									c0.86,0.62,1.35,0.84,2.52,0.76c0.51-0.03,1.4-0.36,1.83-0.55c0.03,0,0.05-0.02,0.07-0.03l0.19-0.09l35.58-16.17
									c2.6-1.18,4.37-3.66,4.65-6.5l2.78-28.54c0.06-0.65-0.32-1.49-0.85-1.87l-5.31-3.79c-0.53-0.38-1.45-0.47-2.04-0.2
									l-40.36,18.34c-0.3,0.13-0.58,0.39-0.8,0.69C146.44,180.99,146.28,181.34,146.25,181.66z"/>
								<path id="XMLID_1019_" style="fill:#282738;" d="M146.25,181.66L143.2,213c-0.15,1.52,0.84,2.5,2.08,3.4l3.11,2.23
									c0.86,0.62,1.35,0.84,2.52,0.76c0.51-0.03,1.4-0.36,1.83-0.55l0-0.01c-1.37,0.49-2.34-0.3-2.19-1.85l2.87-29.53
									c0.05-0.49,0.27-1.02,0.6-1.48l-7.38-5.28C146.44,180.99,146.28,181.34,146.25,181.66z"/>
							</g>
							<g id="XMLID_638_">
								<path style="fill:#494664;" d="M153.43,187.44c0.1-0.98,0.91-2.12,1.81-2.53l38.15-17.34c1.51-0.69,2.61,0.1,2.45,1.75
									l-2.6,26.72c-0.28,2.84-2.05,5.32-4.65,6.5l-35.58,16.17c-1.51,0.69-2.61-0.1-2.45-1.75L153.43,187.44z"/>
								<path style="fill:#3A384F;" d="M194.37,168.83c-0.03,0.04-0.01,0.16-0.03,0.35l-2.6,26.72c-0.22,2.3-1.67,4.33-3.78,5.28
									l-35.58,16.17c-0.17,0.08-0.29,0.1-0.36,0.11c0.02-0.04,0-0.17,0.02-0.35l2.87-29.53c0.05-0.51,0.47-1.1,0.94-1.31
									l38.15-17.33C194.19,168.86,194.31,168.84,194.37,168.83 M194.41,167.33c-0.31,0-0.65,0.08-1.02,0.25l-38.15,17.34
									c-0.9,0.41-1.71,1.55-1.81,2.53l-2.87,29.53c-0.12,1.24,0.48,2,1.43,2c0.31,0,0.65-0.08,1.02-0.25l35.58-16.17
									c2.6-1.18,4.37-3.66,4.65-6.5l2.6-26.72C195.96,168.09,195.36,167.33,194.41,167.33L194.41,167.33z"/>
							</g>
							<g>
								<path style="fill:#C84C5E;" d="M191.57,163.08l-40.45,18.59c-1.16,0.53-1.95,1.65-2.08,2.92l-3.14,32.25l0.55,0.39
									l3.17-32.59c0.1-1.06,0.77-2,1.74-2.44l40.76-18.73L191.57,163.08z"/>
								<path style="opacity:0.2;" d="M149.69,182.86c-0.36,0.5-0.59,1.1-0.65,1.74l-3.14,32.25l0.55,0.39l3.17-32.59
									c0.05-0.53,0.24-1.03,0.54-1.45L149.69,182.86z"/>
								<path style="opacity:0.2;" d="M150.17,183.2c0.3-0.42,0.71-0.77,1.2-0.99l40.76-18.73l-0.55-0.39l-40.45,18.59
									c-0.58,0.27-1.07,0.68-1.43,1.18"/>
							</g>
						</g>
						<g id="XMLID_00000102532883198572060800000017332711680317758396_">
							<path id="XMLID_632_" style="fill:#C84C5E;" d="M177.58,165.76l-0.47,4.85l1.79,1.28l0.63-6.45
								c0.03-0.33-0.19-0.49-0.49-0.35L177.58,165.76z"/>
							<path id="XMLID_1256_" style="opacity:0.4;" d="M177.58,165.76l-0.47,4.85l1.79,1.28l0.63-6.45
								c0.03-0.33-0.19-0.49-0.49-0.35L177.58,165.76z"/>
							<path id="XMLID_630_" style="fill:#C84C5E;" d="M163.78,169.26l-0.76,7.86l1.71,1.23l1.29-0.59l0.63-6.44
								c0.03-0.33,0.31-0.71,0.61-0.85l9.76-4.44l2.03-0.92c0.3-0.14,0.52,0.02,0.49,0.35l-0.63,6.44l1.29-0.59l0.76-7.85
								c0-0.03,0-0.07,0-0.1c-0.01-0.31-0.19-0.68-0.44-0.85l-0.73-0.52c-0.27-0.19-0.74-0.24-1.04-0.1l-14.37,6.53
								C164.08,168.55,163.81,168.93,163.78,169.26z"/>
							<path id="XMLID_338_" style="opacity:0.2;" d="M165.49,170.48l-0.76,7.86l1.29-0.59l0.63-6.44c0.03-0.33,0.31-0.71,0.61-0.85
								l9.76-4.44l2.03-0.92c0.3-0.14,0.52,0.02,0.49,0.35l-0.63,6.44l1.29-0.59l0.76-7.85c0-0.03,0-0.07,0-0.1
								c-0.02-0.26-0.22-0.37-0.49-0.25l-14.37,6.53C165.8,169.77,165.52,170.15,165.49,170.48z"/>
						</g>
					</g>
					<path style="fill:#FFB178;" d="M175.48,165.4c0.21,0.01,0.41,0.07,0.58,0.2c0.26-0.44,0.77-0.72,1.28-0.71
						c0.22,0,0.49,0.09,0.54,0.31c0.02,0.07,0.01,0.15,0.01,0.22c-0.07,0.72-0.17,1.44-0.3,2.16c-0.09,0.52-0.22,1.07-0.62,1.41
						c-0.32,0.28-0.8,0.37-1.21,0.23c-0.15,0.34-0.44,0.61-0.79,0.75c-0.08,0.03-1.09,0.12-1.03,0c-0.38,0.71-1.22,1.44-2.3,1.22
						c0,0-0.27,0.78-1.69,0.61c-1.42-0.17-2.05-1.74-2.05-1.74c0.08-0.44,0.23-0.61,0.72-0.8c0.24-0.09,0.5-0.2,0.74-0.32
						c0.34-0.17,0.55-0.56,0.79-0.84c0.25-0.29,0.53-0.56,0.89-0.7c0.35-0.14,0.79-0.11,1.07,0.15c0.03-0.29,0.23-0.54,0.43-0.76
						c0.18-0.19,0.41-0.38,0.69-0.41c0.08-0.01,0.73,0.1,0.65,0.28c0.19-0.42,0.47-0.83,0.86-1.06
						C174.97,165.46,175.23,165.39,175.48,165.4z"/>
					<path style="fill:#FFB178;" d="M181.23,150.62c-0.62,2.87-2.18,5.45-1.49,7.86c0.47,1.63,0.6,1.46,0.41,3.12
						c-0.07,0.62-0.32,1.59-0.53,2.17c-0.13,0.35-0.25,0.69-0.37,1.04c-0.13,0.36-0.27,0.73-0.46,1.07
						c-0.25,0.43-0.58,0.81-0.9,1.19c-0.56,0.67-1.15,1.33-1.87,1.82c-0.04,0.03-0.08,0.05-0.12,0.06
						c-0.18,0.06-0.38-0.02-0.51-0.16c-0.63-0.69-0.15-1.69,0.18-2.39c0.37-0.78,0.8-1.56,0.78-2.44c0-0.11-0.01-0.46,0-1
						c0,0-0.89-0.22-0.89-0.22s-2.87-0.69-2.92-2.08c-0.05-1.39,1.05-2.72,1.88-4.35c0.85-1.66,1.17-2.69,2.02-6.89L181.23,150.62z"
						/>
					<g>
						<path style="fill:#F2BA92;" d="M178.79,165.89c-0.65,1.06-1.49,2.01-2.43,2.84c-0.16,0.12-0.29,0.33-0.58,0.35
							c-1.34-0.25-0.71-2.02-0.26-2.8c0.37-0.74,0.79-1.47,0.81-2.32c0.06,0.84-0.32,1.64-0.66,2.39c-0.35,0.72-0.98,2.2,0.11,2.53
							C176.91,168.2,177.94,166.94,178.79,165.89L178.79,165.89z"/>
					</g>
					<path style="fill:#F2BA92;" d="M176.11,162.69c-0.35-0.18-0.73-0.31-1.06-0.52c-0.26-0.17-0.47-0.4-0.64-0.65
						c-0.42-0.61-0.79-1.41-0.67-2.17c0.01-0.05-0.04-0.13-0.07-0.05c-0.31,0.85-0.07,1.81,0.39,2.57c0.21,0.35,0.53,0.64,0.88,0.85
						c0.18,0.11,0.37,0.2,0.58,0.25c0.23,0.06,0.4,0.06,0.62-0.04C176.21,162.89,176.17,162.72,176.11,162.69z"/>
				</g>
				<path style="fill:#E6E6E6;" d="M198.27,93.05c-6.2-0.48-11.15,0.75-14.35,8.9c-3.62,9.21-7.18,16.31-8.97,23.01
					c-1.79,6.7-4.44,27.89-4.44,27.89s4.68,4.08,9.84,2.22l7.8-24.08l10.13-19.49V93.05z"/>
			</g>
			<g id="Bottom">
				<g id="Bottom_15_">
					<g id="XMLID_4947_">
						<g>
							<path style="fill:#3A384F;" d="M268.64,245.09c0.43-0.3,1.07,0.81,1.08,1.51c0.04,2-1.3,4.93-4.22,7.53
								c-2.92,2.59-9.93,5.35-11.95,6.38c-2.02,1.03-4.87,3.93-6.66,5.34c-3.26,2.58-6.27,2.95-8.09,2.46
								c-0.71-0.19-1.13-0.84-1.43-1.42c-0.73-1.38-0.76-1.72-0.6-1.8L268.64,245.09z"/>
							<g id="XMLID_4991_">
								<g id="XMLID_4994_">
									<path id="XMLID_4998_" style="fill:#494664;" d="M234.95,260.9c0.45,1.49,1.48,3.84,2.43,5.09
										c0.98,0.78,2.41,0.74,3.45,0.52c2.75-0.57,4.97-2,7.24-3.98c1.36-1.19,2.85-2.49,4.76-3.42c2.1-1.03,6.85-3.08,8.92-4.19
										c1.75-0.95,3.78-2.54,4.97-4.18c1-1.38,2.27-3.91,2.15-5.21c-0.92-2.7-1.99-4.02-3.86-4.06c-1.98-0.04-4.21,0.97-7.28,2.39
										c-0.92,0.43-2.06,1-2.56,1.21c-1.89,0.8-3.63,1.59-5.03,2.26c-1.2,0.57-2.38,1.12-3.74,1.13
										c-0.65,0.01-1.17-0.07-1.69-0.45c-0.63-0.47-1.13-1.39-1.71-1.13c0,0-9.13,7.34-9.9,7.88
										C232.21,255.37,233.57,256.37,234.95,260.9z"/>
								</g>
							</g>
							<path style="fill:#FAFAFA;" d="M255.89,244.54c0.4,0.03,0.93,0.27,1.24,0.47c0.42,0.27,0.77,0.55,1.12,0.91
								c0.42,0.44-0.16,0.9-0.73,0.44c-0.39-0.31-0.82-0.67-1.5-1c-0.33-0.16-0.91-0.27-1.22-0.14c-0.23,0.1-0.54,0.23-0.54,0.23
								C254.17,245,255.36,244.5,255.89,244.54z"/>
							<path style="fill:#FAFAFA;" d="M251.05,246.54c0.34-0.24,0.69-0.31,1.11-0.24c0.5,0.08,0.93,0.35,1.31,0.67
								c0.31,0.26,1.02,0.97,1.25,1.3c0.22,0.31-0.56,0.73-0.85,0.42c-0.28-0.31-0.82-0.87-1.17-1.16c-0.22-0.18-1.1-0.82-1.69-0.61
								l-0.25,0.12c-0.07-0.11,0.04-0.28,0.14-0.36C250.94,246.62,251,246.58,251.05,246.54z"/>
							<path style="fill:#FAFAFA;" d="M248.34,247.95c0.31-0.05,0.49-0.11,0.78,0.01c0.28,0.12,0.65,0.35,0.86,0.57
								c0.59,0.59,0.79,0.91,1.15,1.5c0.25,0.42-0.59,0.74-0.77,0.47c-0.58-0.85-0.91-1.44-1.7-1.86c-0.65-0.34-1.06-0.33-1.06-0.33
								c-0.02-0.09,0.09-0.16,0.17-0.19C247.88,248.08,248.2,247.98,248.34,247.95z"/>
						</g>
						<path id="XMLID_4970_" style="fill:#FFB178;" d="M226.82,244.24c0,0,5.13,9.07,6.54,11.09c0.45,0.65,1.9,0.2,2.73,0.12
							c0.83-0.08,2.14-0.21,3.03,0.04c2.63,0.74,4.13,0.42,3.51-3.1c-0.13-0.72,0.12-1.2,0.97-1.49c0.64-0.22,1.37-0.29,1.89-0.73
							c0.06-0.11-0.07-0.22-0.18-0.27c-0.85-0.41-1.32-0.71-1.91-1.99c-1.82-3.96-3.49-12.11-3.49-12.11L226.82,244.24z"/>
					</g>
					<g>
						<path style="fill:#FFB178;" d="M187.99,264.52c1.57-2.51,2.42-7.35,5.87-17.17l12.81,9.38l-7.34,14.31
							c-0.42,0.72-0.43,1.8-0.58,2.01C197.05,275.51,187.99,264.52,187.99,264.52z"/>
						<g>
							<path style="fill:#494664;" d="M183.24,269.88c0.02-0.15-0.06-1.33-0.02-1.47c0.33-1.27,1.12-1.63,2.13-2.34
								c1.25-0.88,2.47-1.94,2.79-2.39c0.34-0.47,0.4-0.71,0.93-0.93c0.9-0.36,2.34-0.39,4.11,0.54c2.91,1.53,3.79,3.36,3.63,5.36
								c-0.13,1.52-0.25,3.54,1.09,4.44c0.56,0.38,1.44-2.05,1.44-2.05c0.83,1.38-0.33,3.3-0.94,6.1c-0.42,1.92-0.31,2.76-0.08,4.71
								c0.29,2.46,0.63,2.45,1.94,2.62c1.13,0.15,4.32-0.07,6.26,1.29c2.68,1.87,1.96,4.36,1.96,4.36
								c-0.35,0.95-3.26,5.54-13.89,3.82c-3.08-0.5-9.57-5.35-9.47-5.8c0.09-0.42-0.01-0.97-0.02-1.39
								c-0.04-1.09-0.08-2.17-0.13-3.26c-0.04-0.99,0.06-2.14-0.18-3.11c-0.21-0.86-0.31-1.68-0.4-2.57
								c-0.2-2.18-0.41-4.37-0.61-6.55C183.72,270.64,183.16,270.5,183.24,269.88z"/>
							<path id="XMLID_4942_" style="fill:#282738;" d="M181.91,269.45c-1.05,1.01-0.41,3.96,1,7.49c0.62,1.57,1.79,4.27,1.44,7.14
								c-0.34,2.87-0.4,4.23,0.34,5.57c1.16,2.1,7.34,4.8,10.99,5.64c0,0-3.34-4.19-3.7-10.52c-0.37-6.33-0.85-10.42-3.75-13.22
								C184.56,267.99,181.91,269.45,181.91,269.45z"/>
							<path id="XMLID_4939_" style="fill:#3A384F;" d="M208.48,290.13c0,0-2.13,4-10.36,3.87c-3.24-0.05-4.97-1.63-5.05-6.55
								c-0.1-5.93-0.57-11.93-2.49-14.87c-1.92-2.95-4.98-4.37-7.35-4.16c-0.41,0.07-0.93,0.46-1.32,1.04c0,0,2.37-0.78,6.07,2.28
								c2.73,2.26,3.46,6.99,3.42,12.85c-0.02,2.53-0.17,5.39,0.57,7.3c0.68,1.77,2.19,2.98,3.93,3.46
								c4.47,1.26,10.6-0.81,12.14-2.7C208.92,291.39,208.48,290.13,208.48,290.13z"/>
							<g>
								<path id="XMLID_4938_" style="fill:#FAFAFA;" d="M198.59,283.41c0,0,0.6,0.42,0.67,0.98c0.07,0.56-0.13,1.85-1.3,2.58
									c-0.5,0.31-0.93,0.2-0.14-0.84C198.61,285.09,198.59,283.41,198.59,283.41z"/>
								<path id="XMLID_4937_" style="fill:#FAFAFA;" d="M198.15,280.34c0,0,0.26,0.17,0.33,0.99c0.04,0.44-0.65,2.22-1.52,2.65
									c-0.87,0.42-0.4-0.57-0.02-1.06C197.35,282.37,198.08,281.15,198.15,280.34z"/>
								<path id="XMLID_4936_" style="fill:#FAFAFA;" d="M198.44,276.94c0,0,0.28,0.08-0.02,1.21c-0.1,0.38-1.24,1.51-1.79,1.57
									c-0.56,0.07-0.83-0.21-0.14-0.71C197.03,278.63,198.34,277.49,198.44,276.94z"/>
							</g>
						</g>
					</g>
					<g>
						<path id="XMLID_4912_" style="fill:#3A384F;" d="M219.44,150.12c0,0,4.98,5.97,7.99,17.13c3.65,13.55,5.07,23.97,6.21,31.53
							c0.72,4.75,1.41,9.33,3.06,18.47c1.57,8.68,5.47,27.46,5.47,27.46s-0.69,2.86-4.55,4.55c-3.86,1.69-8.04,1.04-8.04,1.04
							s-2.65-4.52-8.17-15.18c-3.75-7.23-4.36-11.17-5.09-14.87c-0.54-2.79-1.19-8.23-1.13-10.73l-20.72-35.21
							c0,0-2.22-2.31-4.16-7.17c-2.93-7.35,0.81-17.95,0.81-17.95L219.44,150.12z"/>
						<path id="XMLID_00000027568124663965352600000015272522397559046582_" style="fill:#3A384F;" d="M219.44,150.12
							c0,0,4.98,5.97,7.99,17.13c3.65,13.55,5.07,23.97,6.21,31.53c0.72,4.75,1.41,9.33,3.06,18.47c1.57,8.68,5.47,27.46,5.47,27.46
							s-0.69,2.86-4.55,4.55c-3.86,1.69-8.04,1.04-8.04,1.04s-2.65-4.52-8.17-15.18c-3.75-7.23-4.36-11.17-5.09-14.87
							c-0.54-2.79-1.19-8.23-1.13-10.73l-20.72-35.21c0,0-2.22-2.31-4.16-7.17c-2.93-7.35,0.81-17.95,0.81-17.95L219.44,150.12z"/>
						<path style="fill:#282738;" d="M233.23,196.06c-1.09-7.28-2.57-16.82-5.8-28.81c-0.93-3.46-2.06-6.42-3.16-8.86l-26.29-0.46
							c-1.96,4.57-3.5,10.28,0.78,17.26l1.13,8.32l15.31,26.01c-0.05,2.5,0.59,7.94,1.13,10.73c0.73,3.7,1.34,7.64,5.09,14.87
							c0.16,0.32,0.32,0.61,0.48,0.92c1.66-2.48,4.26-6.5,5.25-8.84c1.51-3.57,2.54-10.44,4.12-19.15
							C231.84,204.83,232.59,200.18,233.23,196.06z"/>
					</g>
					<g>
						<path id="XMLID_4911_" style="fill:#3A384F;" d="M202.16,150.12c-1.3,1.33-4.54,5.8-5.06,12.67c-0.22,2.91,0.6,8.39,4,12.52
							c1.04,15.24,4.05,44.59,4.05,44.59c-4.03,4.15-5.07,6.82-7.4,14.25c-1.42,4.51-5.54,18.15-7.14,23.24
							c9.77,0.42,11.61,8.8,11.61,8.8s11.84-19.09,17.82-29.87c4.42-7.97,4.98-9.87,6.18-14.62c1.2-4.75,1.42-9.15,2.88-19.07
							c1.45-9.92,4.03-23.58,4.74-33.34c0.71-9.76,0.84-20.11,0.84-20.11L202.16,150.12z"/>
					</g>
					<path style="fill:#282738;" d="M189.24,162.06c0.99-0.28,2.39-1.23,2.93-2.08c0.32-0.51,0.51-1.24,0.76-2.16
						c0.27-1,0.6-2.25,1.23-3.66l0.75,0.34c-0.6,1.35-0.91,2.51-1.18,3.54c-0.26,0.99-0.47,1.77-0.85,2.38
						c-0.63,1.01-2.27,2.15-3.55,2.46C189.29,162.61,189.26,162.34,189.24,162.06z"/>
					<path style="fill:#282738;" d="M208.82,170.79c-0.21-0.01-0.39-0.02-0.53-0.05c-1.2-0.26-2.13-1.07-3.98-3.44
						c-1.41-1.8-1.27-3.1-1.03-5.25c0.09-0.79,0.92-5,0.97-6.11l0.79,0.44c-0.05,1.14-0.85,4.96-0.94,5.76
						c-0.24,2.13-0.34,3.11,0.86,4.65c1.71,2.19,2.53,2.92,3.51,3.14c0.94,0.21,5.13-0.48,6.24-1.25c0.64-0.45,1.72-5.95,2.35-10.8
						l0.82,0.11c-0.32,2.45-1.45,10.51-2.7,11.37C214.07,170.13,210.48,170.84,208.82,170.79z"/>
				</g>
			</g>
			<g id="Top_13_">
				<g>
					<path style="fill:#F5F5F5;" d="M190.91,97.47c-2.79,5.34-2.45,10.12-1.64,17.6c0.74,6.9,1.26,11.18,1.9,19.72
						c0.73,9.76-0.57,15.91-0.57,15.91s0.28,4.13,12.44,7.23c21.38,5.45,31.64-0.76,31.64-0.76s0.52-12.04-0.31-27.79
						c-0.93-17.64-1.24-20.23-2.6-24.42c-1-2.32-2.9-4.4-5.47-5.57c-2.12-0.96-7.2-2.63-10.22-3.79
						c-7.02-2.71-15.14-2.54-15.14-2.54C194.85,92.65,192.36,94.7,190.91,97.47z"/>
					<path style="fill:#E0E0E0;" d="M199.44,94.01c0.45,0,0.93,0.02,1.43,0.05l0.04,0l0.04,0c0.01,0,0.1,0,0.27,0
						c1.35,0,8.38,0.12,14.49,2.48c1.22,0.47,2.8,1.03,4.32,1.57c2.27,0.81,4.61,1.64,5.85,2.2c2.18,0.99,3.98,2.82,4.95,5.01
						c1.29,3.97,1.59,6.17,2.54,24.12c0.72,13.6,0.42,24.55,0.33,27.12c-1.42,0.69-6.13,2.61-14.18,2.61
						c-5.02,0-10.49-0.74-16.24-2.21c-10.07-2.56-11.5-5.75-11.67-6.26c0.22-1.16,1.22-7.06,0.55-15.99
						c-0.54-7.23-0.99-11.41-1.57-16.7l-0.33-3.06c-0.8-7.47-1.13-11.95,1.53-17.03C192.81,95.99,194.51,94.01,199.44,94.01
						 M199.44,93.01c-5.02,0-7.21,1.93-8.53,4.46c-2.79,5.34-2.45,10.12-1.64,17.6c0.74,6.9,1.26,11.18,1.9,19.72
						c0.73,9.76-0.57,15.91-0.57,15.91s0.28,4.13,12.44,7.23c6.52,1.66,12.01,2.24,16.48,2.24c10.2,0,15.16-3,15.16-3
						s0.52-12.04-0.31-27.79c-0.93-17.64-1.24-20.23-2.6-24.42c-1-2.32-2.9-4.4-5.47-5.57c-2.12-0.96-7.2-2.63-10.22-3.79
						c-6.24-2.41-13.35-2.54-14.85-2.54c-0.19,0-0.29,0-0.29,0C200.41,93.03,199.92,93.01,199.44,93.01L199.44,93.01z"/>
				</g>
				<g>
					<path id="XMLID_00000032644841497024455520000006801182370556244371_" style="fill:#FFB178;" d="M216.6,89.56l-0.57,6.49
						c-3.55,0.77-12.18,0.22-13.8-1.99l0.34-5.95L216.6,89.56z"/>
					<g id="XMLID_4882_">
						<g id="XMLID_00000150061532897658048300000008971246726470467506_">
							<path id="XMLID_00000067224783922405146040000001487345466135191713_" style="fill:#F2BA92;" d="M225.85,72.92
								c0,0,1.65,1.25,2.9,5.56l-2.44,1.79C225.51,77.24,224.64,74.16,225.85,72.92z"/>
						</g>
						<g id="XMLID_4899_">
							<path id="XMLID_4900_" style="fill:#FFB178;" d="M219.55,60.86c6.06,0.4,7.08,3.56,6.18,13.9c2.13,9.82-0.81,13.7-2.08,14.99
								c-2.86,1.53-5.76,1.78-9.71,0.75c-3.01-0.78-10.63-3.05-13.83-7.78c-3.76-5.56-4.74-14.03-0.74-17.18
								C205.01,61.12,217.14,60.7,219.55,60.86z"/>
						</g>
						<path style="fill:#F2BA92;" d="M223.65,89.75c-0.7,0.71-4.76,2-7.26,1.72l0.21-1.92C216.6,89.56,220.07,90.21,223.65,89.75z"
							/>
					</g>
					<g id="XMLID_1617_">
						<g id="XMLID_4874_">
							<g id="XMLID_00000005976154114993435590000015591932290200612267_">
								<path id="XMLID_00000082342501386592433430000004414790631549292214_" style="fill:#282738;" d="M220.19,68
									c-0.13,0.44-0.32,0.87-0.57,1.26c-0.68,1.07-1.66,1.65-2.7,2.3c0.38,1.26,0.79,2.57,0.8,3.92c0.01,0.43-0.03,0.88-0.27,1.24
									c-0.43,0.63-1.15,0.57-1.48-0.02c-0.4-0.71-0.68-1.44-1.23-2.05c-0.64-0.71-1.52-1.25-2.49-1.34
									c-3.66-0.36-3.67,5.34-2.21,7.27c2.4,3.16,4.37,1.13,4.37,1.13s1.23,4.87-2.29,6.98c0,0-5.68,1.39-9.56-0.57
									c-1.78-3.65-4.17-5.79-6.08-9.67c-3.33-6.8-1.74-12.78,0.53-14.01c-0.64-3.18,1.29-6.3,5.4-8.24
									c4.05-1.91,9.65-0.94,13.96-0.25c2.56,0.41,5.21,0.26,7.71-0.44c0.35-0.1,0.71-0.21,1.08-0.21c0.37,0,0.76,0.14,0.97,0.44
									c0.28,0.39,0.18,0.94-0.03,1.37c-0.21,0.43-0.53,0.81-0.68,1.26c0.89-0.24,1.82,0.42,2.22,1.25
									c0.56,1.16,0.33,2.61-0.41,3.67c-0.74,1.06-1.91,1.76-3.14,2.12c-1.24,0.37-2.54,0.43-3.83,0.42
									C220.43,66.54,220.39,67.29,220.19,68z"/>
							</g>
						</g>
					</g>
					<path style="fill:#E6E6E6;" d="M216.27,93.28c0.93-0.05,1.93,1.87,3.75,3.76c0,0-5.13,2.97-12.77,1.82
						c-7.65-1.15-9.12-5.81-9.12-5.81s1.75-1.34,2.67-2.25c1.12-1.1,1.67-1.12,1.67-1.12l-0.09,1.57c0,0,1.47,1.52,6.13,2.46
						C213.17,94.66,216.27,93.28,216.27,93.28z"/>
				</g>
				<g>
					<path id="Arm_00000011716718743027405930000017792785235835785398_" style="fill:#FFB178;" d="M243.34,138.31
						c0,0-2.19-10.96-3.78-18.65c-1.59-7.69-0.98-16.57-13.08-19.61c-2,3.05-3.31,7.73-2.63,13.56c0.67,5.83,3.34,14.98,4.01,18.07
						c0.67,3.09,2.94,9.25,5.82,13.54c3.84,5.7,10.99,15.34,13.88,18.88c1.34,1.64,2.5,3.3,3.74,5.04c1.29,1.82,2.99,3.23,4.52,4.86
						c0.7,0.75,1.71,1.29,2.7,1.57c0.65,0.18,1.29-0.07,1.91,0.1c0.64,0.17,1.02,0.76,1.78,0.78c0.84,0.02,1.52-0.56,2.28-0.48
						c0.79,0.08,1.56,0.36,2.39,0.34c0.75-0.02,1.26-0.13,1.97,0.17c0.59,0.25,1.41,1.02,2.07,0.63c0.75-0.44,0.52-1.26,0.26-1.94
						c-0.47-1.19-1.78-2.36-2.9-2.95c-1.29-0.69-2.41-1.66-3.78-2.2c-1.24-0.48-2.33-1.54-3.22-2.54c-0.63-0.69-1.03-1.77,0.23-1.78
						c1.49-0.02,3.35,0.55,4.71-0.39c0.94-0.65,0.62-1.49-0.29-1.88c-1.53-0.66-2.91-1.4-4.34-2.28c-1.42-0.88-2.73-1.9-4.16-2.74
						c-0.75-0.44-1.57-0.8-2.37-1.13c-2.25-0.94-3.23-3.19-4.37-5.18C249.1,149.33,245.11,142,243.34,138.31z"/>
					<g>
						<path style="fill:#E6E6E6;" d="M225.9,126.59c0,0-2.12-8.34-2.67-11.82c-0.55-3.48-0.85-12.55,2.75-15.51
							c2.61,0.63,9.57,1.87,11.58,8.43c2.01,6.55,5.04,23.82,5.04,23.82l9.07,21.43c0,0,0.04,2-3.76,4.57
							c-3.8,2.58-5.74,1.7-5.74,1.7s-7.49-11.34-11.13-16.93C228.6,138.52,228,136.03,225.9,126.59z"/>
					</g>
				</g>
			</g>
		</g>
	</g>
</g>
<g id="Speech_Bubble">
	<g id="Speech_Bubble_11_">
		<g id="Speech_Bubble_00000168074982404905952840000003505087169070105221_">
			<g>
				<path style="fill:#C84C5E;" d="M157.35,90.77l0.02-12.89l10.84-1.14c0.24-0.02,0.45,0.03,0.62,0.13
					c0.52,0.31,5.51,3.19,5.68,3.29c0.53,0.31,0.73,1.08,0.23,1.59l-11.7,12.31L157.35,90.77z"/>
			</g>
			<g>
				<path id="XMLID_5443_" style="fill:#C84C5E;" d="M123.35,119.85l0-39.88c0-0.58,0.41-1.28,0.91-1.57l32.52-18.74
					c0.5-0.29,1.31-0.29,1.81,0.01l5.06,2.99c0.5,0.29,0.9,1,0.9,1.58l0,39.88c0,0.58-0.41,1.28-0.91,1.57l-32.52,18.74
					c-0.5,0.29-1.31,0.29-1.81-0.01l-5.06-2.99C123.75,121.13,123.35,120.42,123.35,119.85z"/>
				<path id="XMLID_5442_" style="opacity:0.15;" d="M130.97,124.49c-0.43,0.17-0.76-0.07-0.76-0.6l0-39.88
					c0-0.29,0.1-0.61,0.27-0.9l-6.88-4.02c-0.15,0.28-0.25,0.58-0.25,0.86l0,39.88c0,0.58,0.4,1.28,0.9,1.58l5.06,2.99
					C129.76,124.68,130.47,124.71,130.97,124.49z"/>
				<path style="fill:#C84C5E;" d="M173.9,80.03l-9.35,0.99l0-16.79c0-0.58-0.41-0.81-0.91-0.52l-32.52,18.74
					c-0.5,0.29-0.91,0.99-0.91,1.57l0,39.88c0,0.58,0.41,0.81,0.91,0.52l32.52-18.74c0.5-0.29,0.91-0.99,0.91-1.57l0-11.63
					l10.19-10.72C175.4,81.07,174.84,79.94,173.9,80.03z"/>
				<path style="opacity:0.35;fill:#FFFFFF;" d="M173.9,80.03l-9.35,0.99l0-16.79c0-0.58-0.41-0.81-0.91-0.52l-32.52,18.74
					c-0.5,0.29-0.91,0.99-0.91,1.57l0,39.88c0,0.58,0.41,0.81,0.91,0.52l32.52-18.74c0.5-0.29,0.91-0.99,0.91-1.57l0-11.63
					l10.19-10.72C175.4,81.07,174.84,79.94,173.9,80.03z"/>
			</g>
		</g>
		<path id="Gear_00000162334576627926917480000014737056611456918456_" style="fill:#FFFFFF;" d="M156.85,98.06
			c0.07-0.19,0.07-0.37-0.01-0.46l-1.39-1.54c-0.31-0.35-0.38-1.02-0.17-1.8c0.01-0.01,0.01-0.03,0.01-0.04c0,0,0,0,0-0.01
			c0.2-0.76,0.63-1.46,1.13-1.83l2.23-1.62c0.13-0.09,0.23-0.28,0.26-0.47c0.12-0.94,0.18-1.91,0.18-2.86
			c0-0.92-0.06-1.81-0.17-2.67c-0.02-0.15-0.12-0.23-0.25-0.17l-2.22,0.94c-0.5,0.2-0.93,0.01-1.12-0.51
			c-0.01-0.02-0.01-0.04-0.02-0.05c-0.2-0.53-0.14-1.29,0.18-1.99l1.4-3.14c0.08-0.18,0.08-0.37,0.01-0.47
			c-0.8-1.07-1.78-1.82-2.92-2.22c-0.1-0.04-0.24,0.05-0.35,0.21l-1.76,2.86c-0.39,0.63-0.94,1.04-1.43,1.06c-0.01,0-0.02,0-0.02,0
			c-0.49,0.01-0.83-0.38-0.88-1.01l-0.25-2.83c-0.01-0.17-0.11-0.24-0.24-0.21c-1.32,0.44-2.82,1.31-4.15,2.38
			c-0.12,0.1-0.22,0.29-0.24,0.48l-0.26,3.12c-0.05,0.69-0.39,1.46-0.88,2.02c-0.01,0.01-0.02,0.02-0.03,0.03
			c-0.49,0.54-1.04,0.77-1.43,0.58l-1.75-0.85c-0.1-0.05-0.24,0.03-0.35,0.19c-1.14,1.72-2.13,3.6-2.93,5.59
			c-0.07,0.18-0.07,0.37,0.01,0.46l1.39,1.54c0.31,0.34,0.37,1.03,0.17,1.8c0,0.02-0.01,0.04-0.01,0.06
			c-0.21,0.78-0.63,1.44-1.12,1.81l-2.24,1.63c-0.12,0.09-0.23,0.28-0.25,0.47c-0.12,0.95-0.18,1.91-0.19,2.87
			c0,0.94,0.06,1.84,0.17,2.65c0.02,0.16,0.13,0.23,0.25,0.17l2.23-0.93c0.49-0.21,0.92,0,1.13,0.53c0,0.01,0.01,0.02,0.01,0.03
			c0.21,0.55,0.14,1.29-0.17,2l-1.39,3.15c-0.08,0.18-0.09,0.37-0.02,0.47c0.8,1.07,1.78,1.82,2.93,2.23
			c0.1,0.04,0.25-0.05,0.35-0.22l1.76-2.86c0.39-0.63,0.94-1.04,1.43-1.05c0.01,0,0.02,0,0.03-0.01c0.49-0.01,0.82,0.37,0.88,1
			l0.25,2.83c0.01,0.17,0.11,0.25,0.24,0.21c0.66-0.22,1.36-0.54,2.07-0.95c0.71-0.41,1.41-0.89,2.08-1.43
			c0.12-0.1,0.22-0.3,0.24-0.48l0.26-3.12c0.06-0.69,0.39-1.46,0.88-2.01c0.01-0.01,0.03-0.02,0.03-0.03
			c0.49-0.56,1.04-0.78,1.43-0.59l1.75,0.86c0.1,0.05,0.24-0.03,0.35-0.19C155.06,101.92,156.04,100.04,156.85,98.06z
			 M146.92,102.61c-3.39,1.94-6.14-0.15-6.13-4.67c0.01-4.52,2.77-9.79,6.16-11.74c3.39-1.94,6.13,0.16,6.13,4.69
			C153.07,95.41,150.3,100.66,146.92,102.61z"/>
	</g>
</g>
</svg>
