<?xml version="1.0" encoding="UTF-8"?>
<svg id="Layer_2" data-name="Layer 2" xmlns="http://www.w3.org/2000/svg" viewBox="0 0 490.49 447.9">
  <defs>
    <style>
      .cls-1 {
        fill: #fff;
        stroke-width: 0px;
      }
    </style>
  </defs>
  <g id="Layer_1-2" data-name="Layer 1">
    <g id="Gradient">
      <path id="M" class="cls-1" d="m296.38,194.1h0c-12.26-12.26-32.14-12.26-44.41,0l-66.25,66.25-88.46-88.46H11.31v275.99h85.95v-187.18l88.34,88.34.12-.12.12.12,110.54-110.54c12.26-12.26,12.26-32.14,0-44.41Z"/>
      <path id="C" class="cls-1" d="m490.48,192.91c0,106.54-86.37,192.91-192.91,192.91-34.26,0-66.42-8.93-94.31-24.59l45.99-45.99c14.96,5.91,31.26,9.16,48.32,9.16,72.62,0,131.49-58.87,131.49-131.49s-58.87-131.49-131.49-131.49c-36.86,0-70.17,15.16-94.04,39.59l-43.44-43.43C195.09,22.04,243.76,0,297.58,0c106.54,0,192.91,86.37,192.91,192.91Z"/>
      <circle id="Head" class="cls-1" cx="54.29" cy="79.08" r="54.29"/>
      <path id="Bar" class="cls-1" d="m478.92,442.3c-12.67,9.37-30.53,6.7-39.9-5.96l-40.49-54.72c16.77-9.28,32.18-20.73,45.83-33.98l40.52,54.76c9.37,12.67,6.7,30.53-5.96,39.9Z"/>
    </g>
  </g>
</svg>