<?xml version="1.0" encoding="utf-8"?>
<!-- Generator: Adobe Illustrator 28.0.0, SVG Export Plug-In . SVG Version: 6.00 Build 0)  -->
<svg version="1.1" xmlns="http://www.w3.org/2000/svg" xmlns:xlink="http://www.w3.org/1999/xlink" x="0px" y="0px"
	 viewBox="0 0 650 500" style="enable-background:new 0 0 650 500;" xml:space="preserve">
<style type="text/css">
	.st0{display:none;}
	.st1{display:inline;fill:#FFFFFF;}
	.st2{opacity:0.45;fill:#61A8E8;}
	.st3{fill:#FE8E68;}
	.st4{fill:#3D302A;}
	.st5{fill:#BC744A;}
	.st6{fill:#874C2E;}
	.st7{fill:#56211A;}
	.st8{fill:#FFFFFF;}
	.st9{fill:#CC6144;}
	.st10{fill:none;stroke:#000000;stroke-width:2.1886;stroke-linecap:round;stroke-miterlimit:10;}
	.st11{fill:#2D2442;}
	.st12{fill:#5A4F72;}
	.st13{fill:#C1ADA4;}
	.st14{fill:#433735;}
	.st15{fill:#9B8580;}
	.st16{fill:#EED9CE;}
	.st17{fill:#FFFBF9;}
	.st18{fill:#DBC4BD;}
	.st19{fill:#D6CED7;}
	.st20{fill:#594C4A;}
	.st21{fill:none;stroke:#F9F9F9;stroke-width:1.0943;stroke-miterlimit:10;}
	.st22{fill:#F9F9F9;}
	.st23{fill:#EE63D5;}
	.st24{opacity:0.16;}
	.st25{display:inline;fill:#6D83D7;}
	.st26{display:inline;opacity:0.16;}
	.st27{fill:#6D83D7;}
	.st28{opacity:0.29;}
</style>
<g id="BACKGROUND" class="st0">
	<rect class="st1" width="650" height="500"/>
</g>
<g id="OBJECTS">
	<path class="st2" d="M538.86,307.48c-11.04-20.24-26.17-36.37-41.88-50.89c-13.16-12.18-27.68-24.71-33.11-44.14
		c-2.97-10.59-2.88-22.3-6.22-32.71c-4.45-13.88-18.22-30.69-29.94-36.75c-17.95-9.28-39.64,4.79-58.28-2.44
		c-7.7-2.99-9.73-8.69-15.04-14.68c-5.68-6.42-12.51-11.99-19.07-17.13c-12.87-10.09-27.11-18.19-42.45-21.71
		c-27.02-6.2-55.84,2.66-78.14,22.01c-13.4,11.64-24.49,26.9-32.77,44.06c-7.92,16.41-11.42,34.6-18.75,51.17
		c-13.75,31.05-42.28,48.26-55.78,79.49c-9.93,22.99-10.33,51.09-5.11,76.44c5.23,25.34,15.62,48.46,26.54,70.73
		c0.05,0.1,0.1,0.19,0.15,0.28h18.03c68.8-0.27,365.22-1.33,372.26,0.27H533c9.99-10.03,19.11-37.74,20.93-54.48
		C556.58,352.64,549.9,327.72,538.86,307.48z"/>
	<g>
		<g>
			<g>
				<path class="st3" d="M414.18,265.63c-3.2,5.02-11.56,10.87-17.49,10.79c-20.2-0.37-26.85-14.13-29.03-19.14
					c0.41-0.1,1.1-0.18,1.59-0.24c3.72-0.54,7.52-4.22,8.63-8.37c1.43-5.4,3.19-15.96,2.98-22.67l25.55,14.14
					c-0.04,1.94-0.17,4.06-0.35,6.2c-0.13,1.3-0.26,2.58-0.41,3.82c-0.14,1.19-0.3,2.32-0.45,3.36c-0.47,3.5,1.09,6.97,4.04,8.9
					L414.18,265.63z"/>
			</g>
			<g>
				<path class="st4" d="M416.38,210.64c-1.38,3.62-0.8,7.73,0.6,11.34c0.99,2.55,3.19,0.3,5.93,0.35
					c4.24,0.07,7.55-4.34,10.11-16.03c1.63-8.58,2.04-12.93,1.71-13.76c-1.17-2.97-5.03-4.56-8.21-4.84"/>
			</g>
			<g>
				<path class="st3" d="M422.83,184.93c6.68,8.05,9.11,30.7,3.47,46.48c-4.01,11.22-8.67,18.46-14.11,18.23
					c-8.26-0.35-24.27-7.14-29.48-12.81c-9.39-10.21-6.66-30.23-4.72-42.83c1.76-11.45,7.12-26.32,21.51-23.49
					C408.96,172.35,416.84,177.7,422.83,184.93z"/>
			</g>
			<g>
				<path class="st4" d="M384.89,192.17c1.48,1.77,4.09,2.16,6.24,2.51c2.89,0.47,4.32,1.45,5.82,4.08c0.95,1.68,1.9,3.52,3.6,4.43
					c0.8,0.43,2.02,0.49,2.41-0.33c-0.76-0.51-1.02-1.55-0.83-2.45c0.19-0.89,0.74-1.66,1.32-2.37c0.49,0.66,0.54,1.54,0.81,2.33
					c0.36,1.04,1.13,1.92,2.11,2.41c0.16,0.08,0.33,0.15,0.5,0.12c0.23-0.03,0.41-0.23,0.56-0.41c1.05-1.26,2.08-3.66,3.54-4.43
					c0.29,1.37,0.82,2.46,1.66,3.59c0.74,0.99,1.62,2.01,2.83,2.24c0.39,0.08,0.88,0.02,1.06-0.33c0.23-0.43-0.13-0.86-0.07-1.3
					c0.05-0.41,0.24-0.59,0.45-0.94c0.54-0.89,1.02-1.75,1.73-2.53c1.43,1.63,2.99,3.13,4.66,4.51c0.37,0.3,0.91,0.6,1.28,0.3
					c0.2-0.16,0.25-0.43,0.29-0.69c0.21-1.27,0.41-2.54,0.62-3.81c0.12-0.71,0.53-1.64,1.23-1.46c0.34,0.09,0.54,0.42,0.73,0.72
					c0.23,0.38,4.34,4.71,4.42,4.38c0.64-2.46,1.95-4.7,2.59-7.16c4.11-15.84-14.25-28.57-28.28-28.64
					c-3.12-0.02-6.04,0.64-9.07,1.31c-3.23,0.72-6.57,1.25-9.5,2.86c-4.11,2.25-7.22,6.34-6.42,11.22"/>
			</g>
			<g>
				<path class="st4" d="M391.65,187.98c2.04,2.31,2.58,5.56,2.77,8.63c0.28,4.63-0.1,9.44-2.24,13.55c-0.61,1.17-1.06,6.96-2,6.64
					c-0.3-0.1-0.25-4.59-1.04-7.01c-1.22-3.75-6.84-5.18-9.37-2.81c-4.04,3.77-1.67,8.35-0.33,11.2c0.8,1.72,2.07,3.65,2.29,5.47
					c0.27,2.33,0.35,10.82-1.17,12.8c-1.27,1.66-2.62-6.36-3.77-7.94c-8.51-11.77-16.67-41.74-2.14-48.24
					c2.21-0.99,9.03-1.5,11.1-0.24"/>
			</g>
		</g>
		<path class="st5" d="M445.45,426.22c0.84,0.14,1.69,0.26,2.57,0.29c4.68,0.15,9.2-0.88,13.77-1.66c4.02-0.69,5.11-1.07,5.03-5.92
			c-0.7-38.41-6.35-76.72-16.51-113.77c-1.55-5.66-3.24-11.36-6.21-16.42c-5.07-8.63-16.71-16.08-25.64-20.26
			c-1.26-0.59-6.48,2.73-7.75,2.16c-1.11-0.5-2.09-1.28-3.21-1.77c-3.28-1.43-5.48,1.56-8.22,2.81c-1.42,0.64-3,1.05-4.56,0.98
			c-1.27-0.05-2.42-0.82-3.58-0.22c-5.22,2.7-18.18-17.34-18.18-17.34l-5.61,5.87l-16.43,17.21l-41.06,56.57
			c0,0-7.45,46.36-12.57,76.75c-0.89,5.24-4.41,16.57-5.11,20.54c0.15-0.86,35.05-1.09,36.93-1.09c24.26,0,46.86,0,71.13,0
			c3.99,0,14.72,1.69,17.52-1.24c3.45-3.6,7.44-20.12,7.65-24.75c0.69-15.57-0.38-31.02-0.59-46.68c0.09,6.37,1.92,12.13,2.7,18.37
			c1.01,8.03,2.45,16.05,3.75,24.04c1.04,6.42,2.04,12.86,2.84,19.32c0.36,2.91-0.1,4.64,2.36,5.78
			C438.52,426.71,443.03,425.81,445.45,426.22z"/>
		<path class="st3" d="M432.27,412.92c-1.9-0.78-13.63-3.69-18.92-4.79c-2.77-0.57-15.33-3.83-18.24-3.83
			c-2.91,0-6.87,4.16-6.87,4.16l1.05,14.31c2.8-0.28,6.55,1.17,8.56,1.45c2.01,0.28,8.84,0.32,13.04-1.79
			c0.24-0.12,0.46-0.25,0.68-0.38c1.69,1.5,3.81,2.96,6.16,3.08c0,0,1.84-0.19,1.66-0.93c-0.08-0.36-1.3-2.22-2.52-4.04
			c1.8,1.83,4.74,4.8,8.13,4.97c0,0,1.84-0.19,1.66-0.93c-0.1-0.44-1.86-3.07-3.28-5.16c0.02,0.02,0.05,0.03,0.06,0.05
			c1.49,1.31,5.03,5.83,9.22,6.04c0,0,1.84-0.19,1.66-0.93c-0.06-0.27-0.76-1.38-1.61-2.67c1.07,0.82,2.38,1.69,3.97,2.48
			c4.53,2.24,7.11,0.54,7.11,0C443.8,423.46,434.17,413.7,432.27,412.92z"/>
		<path class="st6" d="M391.48,396.3c0,0,7.3,4.14,6.65,12.94c-0.65,8.8-3.29,19-14.31,17.93C372.8,426.1,391.48,396.3,391.48,396.3
			z"/>
		<path class="st5" d="M381.45,426.3c-26.42,9.17-61.77,0.41-84.18-14.82c-14.04-9.52-23-21.61-21.49-33.42
			c3.91-30.68,28.02-101,48.88-111.26c14.18-6.98,31.38-9.87,40.97-11.03c4.5-0.55,7.31-0.68,7.31-0.68l-3.48,9.82l-17.42,49.12
			c-0.65,29.15-21.51,46.46-17.36,53.25c4.15,6.77,36.92,14.08,54.13,25.67C393.57,396.17,399.61,419.46,381.45,426.3z"/>
		<g>
			<path class="st6" d="M275.78,378.82l-0.06,2.05c0,0.34-0.05,0.68,0,1.02l0.12,1.01c0.1,0.67,0.1,1.36,0.27,2.01l0.48,1.97
				c0.8,2.58,1.91,5.07,3.43,7.31c2.9,4.56,6.74,8.48,10.98,11.84c8.49,6.74,18.27,11.78,28.47,15.44
				c10.18,3.75,20.85,6.22,31.68,7.12c5.41,0.46,10.86,0.52,16.27,0.06c5.42-0.42,10.8-1.41,16.02-3.04
				c-5.11,1.95-10.51,3.1-15.94,3.77c-5.45,0.62-10.95,0.69-16.43,0.36c-5.48-0.31-10.93-1.13-16.29-2.31
				c-5.36-1.17-10.65-2.69-15.82-4.55c-5.15-1.91-10.19-4.14-15.01-6.78c-4.81-2.65-9.47-5.63-13.67-9.19
				c-4.21-3.53-8.04-7.61-10.87-12.35c-1.45-2.35-2.48-4.94-3.19-7.59C275.51,384.31,275.46,381.52,275.78,378.82z"/>
		</g>
		<g>
			<path class="st6" d="M352.04,314.03c0.02,5.53-0.75,11.07-2.19,16.43c-1.45,5.36-3.57,10.53-6.03,15.51
				c-1.23,2.49-2.54,4.93-3.89,7.34c-1.33,2.42-2.7,4.82-3.82,7.28c-0.55,1.23-1.03,2.5-1.22,3.75c-0.05,0.61-0.1,1.24,0.07,1.77
				c0.04,0.29,0.21,0.51,0.31,0.77c0.19,0.23,0.32,0.48,0.56,0.7c1.79,1.79,4.35,3,6.78,4.17c9.98,4.55,20.58,7.92,30.68,12.46
				c5.05,2.27,10.05,4.72,14.7,7.78l0.86,0.58c0.29,0.2,0.56,0.46,0.84,0.69c0.52,0.51,0.97,1.07,1.33,1.68
				c0.74,1.21,1.24,2.53,1.63,3.87c0.74,2.69,1.05,5.46,1.07,8.23c-0.18-2.75-0.64-5.5-1.45-8.11c-0.86-2.59-2.19-5.11-4.68-6.32
				c-4.67-2.9-9.68-5.21-14.76-7.34c-5.09-2.1-10.24-4.09-15.41-6.02c-5.17-1.96-10.37-3.83-15.45-6.15
				c-2.5-1.24-5.07-2.41-7.2-4.56c-0.27-0.26-0.49-0.62-0.72-0.93c-0.17-0.38-0.4-0.74-0.46-1.14c-0.24-0.8-0.16-1.59-0.09-2.34
				c0.24-1.48,0.78-2.82,1.36-4.1c1.19-2.56,2.58-4.95,3.93-7.36c1.35-2.41,2.71-4.8,4-7.23
				C347.95,335.75,351.52,325.1,352.04,314.03z"/>
		</g>
		<path class="st5" d="M420.51,269.43c-2.52,2.5-13.74,10.49-24.44,10.49c-1.78,0-3.66-0.16-5.65-0.53
			c-8.98-1.64-16.54-7.63-20.96-14.49c-0.82-1.29-1.54-2.62-2.13-3.95c-0.8-1.72-1.37-3.48-1.7-5.18c4.5-0.55,8.8-1.68,9.5-2.48
			c0.76,5.24,7.23,14.7,17.03,16.48c1.23,0.23,2.39,0.33,3.5,0.35h0.02c4.6,0.08,8.13-1.39,10.54-2.87c0.02,0,4.69-3.68,4.71-3.7
			L420.51,269.43z"/>
		<ellipse class="st7" cx="405.33" cy="217.36" rx="1.81" ry="3.58"/>
		<ellipse class="st8" cx="406.1" cy="218.77" rx="0.79" ry="1.09"/>
		<ellipse class="st7" cx="424.84" cy="219" rx="1.81" ry="3.58"/>
		<path class="st8" d="M418.63,234.38c-0.02,0.76-3.18,5.35-6.25,4.99c-2.58-0.31-4.83-5.14-3.48-7.34
			C409.62,231.26,418.65,233.62,418.63,234.38z"/>
		<g>
			<g>
				<path class="st4" d="M399.93,208.57c2.25-1.98,7.65-1.21,9.95,0.26c0.45,0.29,0.94-0.36,0.56-0.73
					c-1.55-1.55-4.15-1.64-6.22-1.56c-1.57,0.06-4.14-0.01-4.68,1.82C399.48,208.57,399.77,208.71,399.93,208.57L399.93,208.57z"/>
			</g>
		</g>
		<g>
			<g>
				<path class="st4" d="M421.88,209.91c1.37-0.1,2.65-0.36,4.02-0.02c1.37,0.34,2.38,1.18,3.6,1.82c0.26,0.14,0.5-0.13,0.39-0.39
					c-1.2-2.65-5.85-3.62-8.17-2.03C421.47,209.47,421.53,209.93,421.88,209.91L421.88,209.91z"/>
			</g>
		</g>
		<g>
			<g>
				<path class="st9" d="M416.37,217.45c-0.09,2.06-0.01,4.17,0.33,6.21c0.12,0.73,1.06,2.69,0.91,3.31
					c-0.17,0.68-1.36,1.53-1.77,2.21c-0.21,0.34,0.2,0.69,0.52,0.52c1.22-0.63,2.62-1.57,2.36-3.04c-0.23-1.37-0.86-2.68-1.07-4.09
					c-0.26-1.7-0.27-3.41-0.43-5.13C417.18,216.91,416.39,216.89,416.37,217.45L416.37,217.45z"/>
			</g>
		</g>
		<ellipse class="st8" cx="425.39" cy="220.41" rx="0.79" ry="1.16"/>
		<g>
			<g>
				<path class="st9" d="M394.82,243c2.82,3.31,7.64,5.53,11.97,5.66c0.43,0.01,0.54-0.69,0.1-0.77c-4.59-0.85-7.98-2.43-11.65-5.32
					C394.95,242.33,394.56,242.7,394.82,243L394.82,243z"/>
			</g>
		</g>
		<g>
			<g>
				<path class="st6" d="M372.93,253.45c-6.5-3.08-9.98,6.69-10.64,11.48c-1.26,9.21,2.82,17.78,6.54,25.93
					c3.9,8.56,8.36,16.83,12.35,25.34c2.06,4.41,3.89,8.92,5.26,13.59c1.44,4.88,1.6,10.32,3.37,15.03c0.24,0.64,1.07,0.5,1.15-0.16
					c0.86-6.82-2.16-15.21-4.51-21.59c-2.25-6.11-5.16-11.95-8.06-17.77c-3.79-7.59-7.63-15.26-10.74-23.16
					c-1.56-3.96-2.85-8.1-3.13-12.38c-0.22-3.42,1.03-17.33,7.68-14.58C373.18,255.6,373.9,253.91,372.93,253.45L372.93,253.45z"/>
			</g>
		</g>
		<g>
			<g>
				<path class="st6" d="M410.91,263.97c8.18,3.11,5.32,18.06,4.2,24.54c-1.36,7.89-3.91,15.54-7.11,22.87
					c-6.23,14.29-14.63,27.55-22.15,41.17c-0.62,1.12,1.08,2.12,1.72,1.01c9.35-16.41,20-32.33,26.17-50.31
					c2.86-8.34,4.69-17.12,4.82-25.96c0.08-5.88-0.78-13.03-7.15-15.18C410.24,261.71,409.78,263.53,410.91,263.97L410.91,263.97z"
					/>
			</g>
		</g>
		<path class="st6" d="M400,345.6c-6.32-0.19-12.64-0.37-18.96-0.56c-1.02-0.03-1.62,0.82-1.73,1.73
			c-1.19,9.49-1.6,19.16-3.03,28.61c-0.17,1.11,0.44,2.17,1.67,2.19c6.23,0.13,12.47,0.32,18.7,0.38c0.33,0,0.6-0.07,0.83-0.2
			c0.01,0,0.02-0.01,0.03-0.02c0.06-0.03,0.12-0.07,0.18-0.11c0.29-0.2,0.52-0.51,0.63-0.95c2.41-9.33,2.41-19.78,3.41-29.35
			C401.83,346.38,400.86,345.62,400,345.6z"/>
		<g>
			<g>
				<path class="st6" d="M425.08,384.09c0.27-5.15-0.24-10.36-0.27-15.52c-0.04-5.34,0.12-10.68,0.41-16.02
					c0.28-5.17,0.69-10.34,1.28-15.48c0.61-5.3,1.72-10.55,2.28-15.85c0.08-0.71-1.06-0.84-1.23-0.17
					c-1.24,4.87-1.72,10.06-2.31,15.05c-0.64,5.46-1.12,10.95-1.38,16.45c-0.26,5.33-0.29,10.68-0.17,16.02
					c0.12,5.16,0.12,10.49,1.18,15.55C424.88,384.25,425.07,384.21,425.08,384.09L425.08,384.09z"/>
			</g>
		</g>
		<g>
			<g>
				<path class="st6" d="M372.52,263.06c1.69,6.93,9.45,12.81,16.27,13.83c0.58,0.09,0.83-0.71,0.25-0.89
					c-3.52-1.12-6.84-2.57-9.68-4.98c-2.75-2.33-4.43-5.2-6.36-8.16C372.83,262.62,372.45,262.77,372.52,263.06L372.52,263.06z"/>
			</g>
		</g>
		<g>
			<g>
				<path class="st6" d="M395.24,276.93c1.19-0.27,2.37-0.55,3.54-0.88c1.05-0.3,2.15-0.5,3.06-1.11c0.27-0.18,0.17-0.61-0.17-0.62
					c-2.15-0.06-4.65,1.13-6.65,1.84C394.54,276.32,394.73,277.04,395.24,276.93L395.24,276.93z"/>
			</g>
		</g>
		<g>
			<g>
				<path class="st9" d="M383.65,211.99c0.66-1.01,1.68,2.13,1.72,2.39c0.19,1.22-0.06,2.31-0.37,3.48
					c-0.12,0.44,1.24,0.09,1.4-0.22c0.88-1.7,0.95-4.66-0.58-6.06c-0.96-0.87-2.82-0.63-3.51,0.46
					C381.99,212.53,383.43,212.33,383.65,211.99L383.65,211.99z"/>
			</g>
		</g>
		<g>
			<g>
				<path class="st9" d="M385.81,214.4c-0.01-0.13,0-0.26,0.04-0.39c0.01-0.04,0.01-0.07-0.03-0.1c-0.54-0.66-1.39-0.97-2.21-0.66
					c-0.05,0.02-0.22,0.1-0.15,0.18c0.2,0.21,0.58,0.2,0.83,0.32c0.21,0.1,0.36,0.24,0.54,0.39c0.18,0.16,0.4,0.23,0.58,0.38
					C385.5,214.59,385.81,214.52,385.81,214.4L385.81,214.4z"/>
			</g>
		</g>
		<g>
			<g>
				<path class="st9" d="M408.68,240.07c0.76,1.05,2.39,1.6,3.57,0.89c0.09-0.05,0.08-0.12-0.03-0.11
					c-1.05,0.05-2.01-0.25-2.64-1.13C409.43,239.51,408.5,239.82,408.68,240.07L408.68,240.07z"/>
			</g>
		</g>
		<g>
			<g>
				<path class="st9" d="M401.26,219.12c-0.12,0.81-0.09,1.46,0.37,2.17c0.39,0.6,0.9,1.05,1.62,1.19c0.08,0.02,0.5-0.07,0.4-0.21
					c-0.39-0.54-0.98-0.85-1.32-1.45c-0.3-0.54-0.58-1.17-0.62-1.79C401.71,218.91,401.28,219.02,401.26,219.12L401.26,219.12z"/>
			</g>
		</g>
		<g>
			<g>
				<path class="st9" d="M425.25,224.07c0.07,0,0.26-0.11,0.1-0.11C425.27,223.96,425.09,224.07,425.25,224.07L425.25,224.07z"/>
			</g>
		</g>
		<g>
			<g>
				<path class="st9" d="M426.36,223.86c0.66-0.34,1.59-1.33,0.97-2.08c-0.05-0.06-0.24,0.01-0.26,0.07
					c-0.31,0.71-0.38,1.47-1.14,1.86C425.48,223.94,426.15,223.96,426.36,223.86L426.36,223.86z"/>
			</g>
		</g>
		<g>
			<g>
				<path class="st6" d="M425.37,344.1c0.28-4.25,2.23-7.57,4.83-10.86c2.02-2.55,4.54-4.2,6.86-6.4c0.25-0.24-0.01-0.69-0.34-0.59
					c-3.38,1.06-6.12,4.49-8.14,7.23c-2.12,2.87-5.06,6.92-3.76,10.68C424.92,344.48,425.34,344.42,425.37,344.1L425.37,344.1z"/>
			</g>
		</g>
		<g>
			<g>
				<path class="st6" d="M424.86,346.63c1.07-1.31,1.75-2.9,2.69-4.31c1.11-1.66,2.41-3.21,3.84-4.61c0.28-0.27,2.93-2.98,3.19-0.81
					c0.16,1.37-2.58,1.89-3.39,2.38c-0.91,0.55-1.52,0.98-1.52,2.1c0,0.36,0.54,0.54,0.71,0.19c1.08-2.17,4.97-2.09,5.38-5
					c0.16-1.17-0.77-1.91-1.91-1.79c-2.05,0.22-4.18,3.2-5.33,4.63c-1.6,2-3.49,4.49-3.88,7.08
					C424.62,346.61,424.77,346.74,424.86,346.63L424.86,346.63z"/>
			</g>
		</g>
		<g>
			<g>
				<path class="st6" d="M385.16,399.36c0.01,3.46-0.05,6.81-1.27,10.1c-1.21,3.28-3.4,5.78-5.42,8.55
					c-0.15,0.21,0.14,0.45,0.34,0.34c5.92-3.28,8.92-12.78,6.89-19.06C385.61,399,385.16,399.04,385.16,399.36L385.16,399.36z"/>
			</g>
		</g>
		<g>
			<g>
				<path class="st6" d="M411.53,367.53c-0.85,5.33-1.83,10.19-4.59,14.93c-2.74,4.71-6.64,8.8-11.21,11.76
					c-0.37,0.24-0.04,0.81,0.34,0.59c9.17-5.22,16.89-16.22,16.25-27.17C412.3,367.22,411.61,367.06,411.53,367.53L411.53,367.53z"
					/>
			</g>
		</g>
		<g>
			<g>
				<path class="st6" d="M441.57,231.86c1.15-0.47,2.63-0.92,3.36-1.99c0.11-0.16-0.04-0.37-0.22-0.38
					c-1.26-0.04-2.48,0.89-3.5,1.52C440.79,231.28,441.06,232.06,441.57,231.86L441.57,231.86z"/>
			</g>
		</g>
		<g>
			<g>
				<path class="st6" d="M441.73,234.85c0.7,0.48,1.83,0.92,2.63,0.43c0.23-0.14,0.24-0.49,0-0.63c-0.33-0.19-0.72-0.24-1.08-0.33
					c-0.4-0.1-0.79-0.22-1.16-0.38C441.56,233.72,441.3,234.55,441.73,234.85L441.73,234.85z"/>
			</g>
		</g>
		<g>
			<g>
				<path class="st6" d="M440.67,240.53c0.68,0.4,1.58,1.05,2.41,1c0.2-0.01,0.35-0.23,0.24-0.41c-0.44-0.71-1.45-1.06-2.18-1.38
					C440.61,239.49,440.14,240.21,440.67,240.53L440.67,240.53z"/>
			</g>
		</g>
	</g>
	<g>
		<polyline class="st10" points="110.53,431.47 134.47,431.47 174.74,431.47 191.51,431.47 233.83,431.47 544.88,431.47 
			560.37,431.47 573.5,431.47 		"/>
		<line class="st10" x1="104.68" y1="431.47" x2="78.74" y2="431.47"/>
		<line class="st10" x1="581.6" y1="431.47" x2="577.25" y2="431.47"/>
	</g>
	<g>
		<path class="st11" d="M546.75,425.43h-166c-1.6,0-2.91,1.3-2.91,2.91v0.21c0,1.6,1.3,2.91,2.91,2.91h166c1.6,0,2.91-1.3,2.91-2.91
			v-0.21C549.66,426.73,548.36,425.43,546.75,425.43z"/>
		<g>
			<path class="st11" d="M579.16,351.48c-34.54-0.35-69.08-0.7-103.62-1.05c-4.9-0.05-9.81-0.1-14.71-0.15
				c-0.76-0.01-1.74,0.44-2.07,1.18c-9.49,21.91-18.98,43.82-28.47,65.73c-1.35,3.13-2.71,6.25-4.06,9.38
				c-0.05,0.1-0.07,0.21-0.1,0.31c0,0,0,0,0,0.01c-0.03,0.1-0.06,0.2-0.08,0.3c-0.27,1.27,0.37,2.76,1.93,2.95
				c0.36,0.11,0.73,0.13,1.09,0.04c35.5,0.28,71,0.55,106.5,0.83c5.07,0.04,10.14,0.08,15.2,0.12c1.13,0.01,1.93-0.76,2.31-1.76
				c9.46-24.96,18.93-49.92,28.39-74.88C582.04,353.02,580.6,351.49,579.16,351.48z"/>
			<g>
				<path class="st11" d="M579.16,349.84c-31.88-0.32-63.77-0.64-95.65-0.97c-3.88-0.04-7.77-0.08-11.65-0.12
					c-3.51-0.04-7.57-0.65-11.04-0.11c-5.15,0.8-6.47,8.89-8.23,12.95c-6.33,14.61-12.65,29.22-18.98,43.82
					c-2.71,6.26-5.43,12.51-8.13,18.77c-1.02,2.36-2.01,5.22,0.67,7.01c1.36,0.91,3.41,0.62,4.88,0.64
					c3.94,0.05,7.89,0.06,11.83,0.09c7.89,0.06,15.78,0.12,23.67,0.18c15.78,0.12,31.56,0.25,47.33,0.37
					c7.87,0.06,15.73,0.12,23.6,0.18c3.17,0.02,6.33,0.05,9.5,0.07c2.44,0.02,4.86,0.49,6.75-1.31c2.05-1.95,2.74-6.38,3.71-8.93
					c1.38-3.65,2.77-7.31,4.15-10.96c3.23-8.52,6.46-17.05,9.69-25.57c3-7.91,6-15.83,9-23.74c1.5-3.96,5.68-10.71-0.68-12.35
					c-2.05-0.53-2.92,2.64-0.87,3.17c2.1,0.54-5.05,17.39-5.76,19.27c-2.31,6.09-4.62,12.18-6.92,18.26
					c-2.31,6.09-4.62,12.18-6.92,18.26c-1.04,2.74-2.08,5.48-3.12,8.22c-1.13,2.99-1.95,7.41-3.81,10.04
					c-2.39,3.4-7.38,2.33-10.92,2.3c-3.22-0.03-6.43-0.05-9.65-0.08c-6.57-0.05-13.15-0.1-19.72-0.15
					c-13.15-0.1-26.3-0.21-39.45-0.31c-13.15-0.1-26.3-0.21-39.45-0.31c-1.36-0.01-3.66,0.57-4.62-0.64
					c-1.23-1.54-0.53,0.68-0.07-2.09c0.39-2.31,2.12-4.89,3.05-7.04c2.75-6.35,5.5-12.69,8.25-19.04
					c5.27-12.17,10.54-24.35,15.82-36.52c1.17-2.7,2.11-6.93,3.95-9.13c2.46-2.94,6.36-2.15,9.72-2.11
					c6.8,0.07,13.59,0.14,20.39,0.21c29.89,0.3,59.78,0.6,89.67,0.91C581.28,353.14,581.28,349.86,579.16,349.84z"/>
			</g>
		</g>
		<ellipse class="st12" cx="499.63" cy="393.17" rx="8.01" ry="5.84"/>
		<ellipse class="st12" cx="515.03" cy="393.77" rx="4.18" ry="3.04"/>
	</g>
	<g>
		<path class="st13" d="M319.26,410.11c5.11-0.61,14.16-1.99,14.39-5.13c-3.31-2.14-6.95-4.3-10.89-4.49
			c-3.14-0.15-6.18,1-9.05,2.28c-2.44,1.09-4.84,2.27-7.18,3.55c-0.96,0.53-3.48,2.41-3.52,3.72c-0.05,1.63,2.94,0.67,4.13,0.75
			C311.19,411.08,315.25,410.6,319.26,410.11z"/>
		<path class="st3" d="M307.19,407.45c0,0,6.8,22.25,10.39,22.79c3.6,0.53,38.78,0.8,39.71,0.4c0.93-0.4,1.07-1.07,1.07-1.07
			s22.39,1.47,22.79,0.93s0-3.2-1.07-3.6s-34.91-7.99-37.84-9.06s-12.13-0.8-12.13-0.8l-1.87-12.93L307.19,407.45z"/>
		<path class="st14" d="M315.4,128.24c2.2,2.36,3.4,5.63,3.24,8.86c-0.1,1.92-0.65,3.79-1.23,5.63c-1.11,3.54-2.43,7.2-5.18,9.69
			c-0.45,0.4-1.01,0.79-1.6,0.69c-1.1-3.4-2.21-6.79-3.31-10.19c-0.53-1.63-1.06-3.27-1.36-4.96c-0.5-2.86-0.32-5.85,0.64-8.58
			c0.44-1.24,1.07-2.47,2.12-3.27C311.27,124.15,313.66,126.38,315.4,128.24z"/>
		<g>
			<g>
				<path class="st15" d="M250.22,316.48c-0.36,3.48,0.18,7.15,0.37,10.63c0.11,1.98,0.22,3.96,0.21,5.94
					c0,1.15-0.34,2.55,0.05,3.63c0.04,0.11,0.21,0.19,0.3,0.08c1.54-1.87,0.67-6.34,0.59-8.6c-0.12-3.89-0.31-7.79-0.46-11.68
					C251.27,315.78,250.29,315.8,250.22,316.48L250.22,316.48z"/>
			</g>
		</g>
		<g>
			<g>
				<path class="st15" d="M260.13,309.62c-3.7,8.4-5.75,16.95-10.82,24.8c-0.29,0.44,0.43,0.86,0.71,0.41
					c4.48-7.04,9.36-16.71,10.54-25.04C260.59,309.56,260.25,309.35,260.13,309.62L260.13,309.62z"/>
			</g>
		</g>
		<path class="st11" d="M178.81,431.47l2.28-76.87l16.71,76.87h47.92c-3.18-25.57-17.31-132.46-32.07-141.52l-58-36.11
			c0,0-33.56,8.75-32.83,57.26c2.68,46.73,8.39,101.71,10.41,120.37H178.81z"/>
		<path class="st16" d="M333.52,405.06c-1.24,1.89-7.58,0.47-9.45,0.65c-1.68,0.16-3.26,0.8-4.89,1.22
			c-5.18,1.35-10.97,0.64-15.63,3.28c-0.14,0.08-0.31,0.17-0.47,0.12c-0.18-0.05-0.26-0.25-0.32-0.42
			c-2.98-8.24-5.3-16.84-7.91-25.24c-3.92-12.62-7.83-25.25-11.75-37.87c-2.02-6.52-4.05-13.04-6.07-19.56l-14.23-65.93l6.33-46.47
			l1.5-10.96l0.11-0.83c0,0,0.31,0.11,0.88,0.31c1.98,0.7,7.07,2.6,12.7,5.35c9.03,4.41,19.47,11.02,20.89,18.5
			c0,0.03,0.01,0.05,0.01,0.08c0.75,5.25,1.6,10.48,2.42,15.72c1.46,9.29,2.94,18.57,4.43,27.85c1.85,11.55,3.7,23.1,5.56,34.65
			c1.94,12.04,3.88,24.07,5.82,36.1c1.73,10.74,3.47,21.48,5.21,32.21c1.24,7.66,2.48,15.32,3.72,22.98
			c0.34,2.12,0.69,4.24,1.03,6.36c0.06,0.37,0.38,1.24,0.26,1.6C333.63,404.87,333.58,404.97,333.52,405.06z"/>
		<path class="st16" d="M270.73,203.04l-0.11,0.83l-1.5,10.96l-6.33,46.47c0,0-30.96,19.07-30.96,19.07c-1.62,1-3.01,7.84-3.67,9.56
			c-2.14,5.57-4,11.36-6.45,16.8c-0.5,1.12-0.95,4.15-2.06,4.83c-2.23,1.37-11.31-0.51-14.11-0.69
			c-10.37-0.67-20.86-2.19-30.35-6.66c-7.5-3.54-14.15-8.54-21.21-12.83c-4.32-2.62-9.13-4.26-13.69-6.37
			c-3.05-1.41-9.64-4.11-10.82-7.7c-0.34-1.04,0.19-2.14,0.69-3.1c2.18-4.22,3.63-9.31,6.2-13.23c2.37-3.61,5.3-6.87,7.61-10.58
			c4.66-7.45,8.77-15.32,14.59-21.97c9.9-11.32,18.23-24.25,28.43-35.53c4.53-5.01,18.65-9.78,25.4-10.06
			c6.14-0.25,12.09,0.76,17.3,2.21c4.19,1.18,7.91,2.65,10.84,3.97c4.3,1.95,6.92,3.6,6.92,3.6L270.73,203.04z"/>
		<g id="XMLID_56_">
			<g id="XMLID_66_">
				<path class="st3" d="M282.17,264.87c3.26-2.01,18.49-11.73,19.86-15.24c0.63-1.63,4.09-6.65,7.07-11.36
					c1.77-2.79,6.24-8.26,7.37-9.43c1.94-2.01,4.73-6.99,6.42-5.35c2.1,2.04-1.18,7.14-3.03,10.27c-0.68,1.15-1.41,2.3-1.7,3.6
					c-0.29,1.3-0.23,2.27,0.54,3.37c0.42,0.6,3.26,0.88,4.22,0.84c7.19-0.32,10.31,0.11,15.68-1.89s10.38-4.82,15.44-7.5
					c0.87-0.46,1.39-1.4,3.35-1.58c0.98-0.09,3.04,0.04,2.93,1.02c-0.09,0.76-6.13,5.48-6.75,5.92c-3.35,2.38-2.97,2.11-6.32,4.49
					c-0.52,0.37-1.08,0.8-1.21,1.42c-0.11,0.52,0.12,1.06,0.13,1.59c0.02,0.96-0.64,1.78-1.3,2.48c-1.15,1.23-2.36,2.38-3.64,3.47
					c-1.78,1.53-0.33,2.83-2.27,4.17c-2.14,1.48-7.68,2.98-9.88,4.36c-1.75,1.11-3.52,2.23-5.45,3c-2.31,0.92-4.78,1.33-7.22,1.83
					c-6.67,1.38-18.35,13.47-23.99,17.46"/>
			</g>
			<path id="XMLID_64_" class="st3" d="M320.48,263.49c0,0,8.39-1.06,15.06-4.16c6.67-3.1,23.16-13.28,23.16-13.28
				s0.23-0.58,0.05-0.98c-0.17-0.4-2.68-0.96-4.7-0.09s-14.94,6.48-14.94,6.48"/>
			<path id="XMLID_58_" class="st3" d="M318.82,260.67c0,0,10.63-2.22,17.3-5.32c6.67-3.1,23.16-13.28,23.16-13.28
				s0.23-0.58,0.05-0.98c-0.18-0.4-2.68-0.96-4.7-0.09c-2.02,0.88-14.94,6.48-14.94,6.48"/>
			<path id="XMLID_57_" class="st3" d="M322.18,254.56c0,0,10.63-2.22,17.3-5.32c6.67-3.1,17.03-8.4,22.9-12.41
				c0.39-0.26,0.49-1.44,0.31-1.85c-0.18-0.4-2.68-0.96-4.7-0.08c-2.02,0.88-14.94,6.48-14.94,6.48"/>
		</g>
		<path class="st3" d="M282.76,190.91c0,0,25.72,15.68,31.73-16.05c1.46-13.13,3.28-34.47-7.66-42.81
			c-10.94-8.34-36.11-9.3-36.66,15.46c0.96,7.11,0.68,7.66,0.68,7.66s-9.44-2.6-7.39,9.16c1.09,5.33,2.51,7.25,2.51,7.25
			s-19.31,15.12-19.33,15.14c-1.78,1.39-3.27,3.71-5.73,2.59c-0.27-0.12-0.53-0.28-0.82-0.33s-0.63,0.04-0.78,0.3
			c-0.09,0.16-0.08,0.36-0.09,0.55c-0.03,0.95-0.4,1.84-0.65,2.75c-0.97,3.49,0.04,6.76,1.88,9.78c1.56,2.56,3.78,4.74,6.4,6.2
			c2.51,1.4,5.33,2.16,8.16,2.67c3.56,0.64,7.33,0.89,10.85-0.09c2.16-0.6,3.63-1.27,5.13-3.02c0.28-0.33,0.55-0.67,0.74-1.06
			c0.43-0.88,0.45-1.89,0.44-2.87c0-0.14-0.01-0.28-0.1-0.39c-0.09-0.11-0.25-0.13-0.39-0.15c-1.57-0.26-0.53-1.09,0.12-1.77
			c0.65-0.68,1.31-1.35,1.97-2.03c1.38-1.41,2.78-2.81,4.18-4.21C279.56,194.06,281.16,192.48,282.76,190.91z"/>
		<ellipse class="st7" cx="301.91" cy="161.14" rx="1.81" ry="3.58"/>
		<g>
			<g>
				<path class="st14" d="M305.84,148.82c-3.92-1.44-10.69,0.11-13.17,3.6c-0.17,0.24,0.12,0.63,0.4,0.51
					c1.97-0.78,3.62-2.04,5.71-2.63c2.34-0.66,4.57-0.48,6.94-0.59C306.25,149.7,306.32,149,305.84,148.82L305.84,148.82z"/>
			</g>
		</g>
		<path class="st3" d="M315.46,157.87c-0.59,1.9,0,4.07,0.77,5.91c0.77,1.84,1.96,3.46,3.13,5.07c0.53,0.72,1.06,1.45,1.59,2.17
			c-1.65,0.55-3.27,1.23-4.82,2.03c-0.93,0.48-1.93,1.13-2.12,2.16"/>
		<path class="st17" d="M303.62,177.13c1.11,0.38,2.3,0.51,3.46,0.37c0.12-0.01,0.25-0.02,0.33,0.06c0.05,0.06,0.06,0.14,0.07,0.21
			c0.08,1.15-0.42,2.25-0.9,3.29c-0.32,0.7-0.65,1.41-1.16,1.99c-1.07,1.22-3.46,1.99-4.98,1.25c-0.68-0.33-1.19-0.95-1.58-1.6
			c-1.07-1.77-1.82-4.77-0.91-6.77c0.61-1.34,0.76-0.84,1.94-0.3c1.09,0.5,2.22,0.9,3.32,1.35
			C303.34,177.03,303.48,177.09,303.62,177.13z"/>
		<path class="st16" d="M283.68,259.31c-18.76,8.71-47.97,24.44-47.97,24.44l-4.19-30.28l-44.14,0.36c0,0,12.77,70.4,22.62,76.97
			c0,0,11.67,8.75,30.64-4.38c12.52-8.67,41.64-31.45,55.95-43.91L283.68,259.31z"/>
		<g>
			<g>
				<path class="st18" d="M200.76,310.33c-0.29-4.84-2.58-10.09-3.81-14.77c-1.75-6.64-3.5-13.28-5.14-19.95
					c-2.95-12.06-5.47-24.18-8.1-36.3c-0.08-0.35-0.67-0.28-0.64,0.09c0.98,12.09,4.17,24.18,7.08,35.91
					c1.6,6.47,3.25,12.94,5.06,19.35c1.4,4.95,2.39,11.37,5.07,15.8C200.4,310.67,200.77,310.6,200.76,310.33L200.76,310.33z"/>
			</g>
		</g>
		<g>
			<g>
				<path class="st18" d="M295.51,280.92c-9.16,6.04-17.33,13.97-24.84,21.92c-0.66,0.7,0.39,1.75,1.05,1.05
					c7.64-8.05,16.08-14.86,24.56-21.97C296.85,281.46,296.12,280.52,295.51,280.92L295.51,280.92z"/>
			</g>
		</g>
		<g>
			<g>
				<path class="st18" d="M264.89,269.03c3.03-0.46,6.07-2.01,8.8-3.35c2.38-1.17,5.52-2.28,7.09-4.49c0.28-0.4-0.18-0.79-0.56-0.73
					c-2.59,0.39-5.1,2.5-7.43,3.67c-2.71,1.36-5.72,2.36-8.28,3.98C263.99,268.43,264.34,269.12,264.89,269.03L264.89,269.03z"/>
			</g>
		</g>
		<g>
			<g>
				<path class="st15" d="M239.77,188.55c-3.39-3.48-6.71,2.72-7.73,5.55c-2.72,7.57-1.1,16.6,1.11,24.07
					c2.68,9.1,7.17,17.43,9.57,26.64c2.73,10.5,4.74,21.01,4.33,31.9c-0.03,0.67,1,0.66,1.04,0c0.93-14.2-2.48-30.07-7.78-43.21
					c-2.67-6.63-5.68-13.01-7.26-20.03c-0.89-3.95-1.45-8.07-1.27-12.12c0.07-1.59,2.79-16.71,7.28-12.11
					C239.51,189.72,240.22,189.01,239.77,188.55L239.77,188.55z"/>
			</g>
		</g>
		<g>
			<g>
				<path class="st15" d="M273.55,201.62c0.86,1.43,1.71,2.86,2.57,4.28c0.17,0.95,0.34,1.91,0.51,2.86
					c0.09,1.05,0.04,2.12-0.03,3.16c-0.19,2.85-0.89,5.65-1.36,8.47c-0.89,5.43-1.58,10.89-2.51,16.32
					c-1.79,10.46-4.18,20.79-7.56,30.86c-0.19,0.56,0.68,0.79,0.87,0.24c4.72-13.46,7.29-27.44,9.4-41.52
					c0.97-6.52,6.53-22.07-2.25-25.45c-0.35-0.14-0.69,0.27-0.6,0.6c0.03,0.1,0.06,0.2,0.08,0.29
					C272.83,202.22,273.53,202.11,273.55,201.62L273.55,201.62z"/>
			</g>
		</g>
		<path class="st19" d="M261.38,330.39c0.01-0.89-0.8-1.79-1.73-1.73c-6.31,0.42-12.61,0.85-18.92,1.27
			c-0.95,0.06-1.7,0.74-1.73,1.73c-0.27,9.71,0.24,19.54-0.27,29.23c-0.05,0.89,0.83,1.8,1.73,1.73c6.22-0.47,12.44-0.89,18.65-1.42
			c0.05,0,0.09-0.02,0.14-0.03c0.71,0.04,1.38-0.32,1.53-1.24C262.27,350.39,261.31,340.03,261.38,330.39z"/>
		<g>
			<g>
				<path class="st20" d="M262.58,160.35c-2.83,0.38-4.99,1.06-7.05-1.54c-0.83-1.04-1.49-2.13-2.78-2.62
					c-0.17-0.06-0.3,0.18-0.17,0.29c1.6,1.46,2.75,3.97,4.86,4.78c1.67,0.64,3.73,0.18,5.28-0.59
					C262.92,160.58,262.76,160.32,262.58,160.35L262.58,160.35z"/>
			</g>
		</g>
		<circle class="st21" cx="301.46" cy="161.46" r="8.75"/>
		<g>
			<g>
				<path class="st22" d="M310.48,159.16c0.32-0.19,0.46-0.49,0.75-0.73c0.42-0.35,0.97-0.55,1.5-0.65
					c0.49-0.09,1.02-0.09,1.49,0.09c0.44,0.17,0.55,0.59,0.95,0.76c0.11,0.05,0.21,0.03,0.29-0.08c0.03-0.04,0.06-0.09,0.1-0.13
					c0.09-0.12,0.06-0.27,0-0.39c-0.51-1.1-1.98-1.19-3.02-0.97c-0.89,0.19-2.49,0.87-2.32,1.99
					C310.22,159.17,310.39,159.21,310.48,159.16L310.48,159.16z"/>
			</g>
		</g>
		<g>
			<path class="st14" d="M262.46,145.77c4.47,3.22,32.42-0.73,41.45-4.87c18.34-8.41,20.14-23.22,15.85-26
				c-0.52-0.34-1.09-0.6-1.7-0.68c-1.44-0.17-2.76,0.72-3.93,1.57c0.46-1.68,2.13-8.97-2.32-11.87c-5.98-3.89-13.5,2.69-14.73,3.51
				c-8.53,5.71-13.14,6.68-13.14,6.68s1.5-14.39-10.28-3.34c-3.71,3.48-10.6,6.73-14.3,10.23c-3.88,3.67-6.09,9.66-3.85,14.78"/>
		</g>
		<g>
			<path class="st14" d="M275.56,137.05c2.56,2.08,3.7,5.41,4.44,8.63c1.11,4.84,1.55,9.98,0.01,14.7
				c-0.44,1.34,0.11,7.54-0.94,7.36c-0.33-0.05-1.07-4.8-2.32-7.22c-1.95-3.75-8.14-4.26-10.39-1.32c-2.79,3.64-1,6.21,0.24,9.84
				c0.92,2.7,0.01,6.09-3.29,7.02c-3.08,0.87-2.19-1.46-3.42-3.64c-2.64-4.7-5.4-8.81-7.17-14.04c-2.79-8.25-5.09-20.77,3.54-26.48
				c2.16-1.43,9.28-3.17,11.68-2.21"/>
		</g>
		<ellipse class="st8" cx="302.55" cy="162.73" rx="0.79" ry="1.03"/>
		<g>
			<g>
				<path class="st22" d="M273.46,155.46c1.29,2.54,4.28,3.04,6.82,3.68c3.66,0.92,7.58,1.64,11.37,1.63c0.66,0,0.62-0.92,0-1
					c-3.25-0.41-6.48-0.69-9.68-1.39c-2.64-0.57-6.23-1.08-8.02-3.29C273.71,154.8,273.31,155.16,273.46,155.46L273.46,155.46z"/>
			</g>
		</g>
		<g>
			<g>
				<path class="st9" d="M277.51,184.61c1.36,2.6,3.5,5.17,6.16,6.51c0.12,0.06,0.25-0.09,0.15-0.19c-2.1-2.13-4.19-4.09-5.97-6.51
					C277.7,184.22,277.4,184.39,277.51,184.61L277.51,184.61z"/>
			</g>
		</g>
		<g>
			<g>
				<path class="st14" d="M329.95,153.75c1.25-0.82,2.59-1.59,3.59-2.72c0.07-0.08,0-0.25-0.12-0.2c-1.4,0.54-2.58,1.52-3.77,2.41
					C329.35,153.46,329.62,153.96,329.95,153.75L329.95,153.75z"/>
			</g>
		</g>
		<g>
			<g>
				<path class="st14" d="M331.76,157.23c0.94-0.2,2.12-0.42,2.92-0.97c0.21-0.15,0.13-0.46-0.13-0.48c-0.97-0.06-2.09,0.38-3,0.7
					C331.08,156.64,331.27,157.33,331.76,157.23L331.76,157.23z"/>
			</g>
		</g>
		<g>
			<g>
				<path class="st14" d="M332.1,161.52c0.58-0.16,1.16-0.29,1.77-0.36c0.49-0.05,0.99-0.05,1.47-0.16
					c0.14-0.03,0.18-0.25,0.04-0.32c-1.04-0.5-2.44-0.26-3.47,0.16C331.5,161,331.65,161.64,332.1,161.52L332.1,161.52z"/>
			</g>
		</g>
		<g>
			<g>
				<path d="M147.11,289.53c-2.55-0.08-2.44,3.9-2.68,5.6c-0.32,2.31-0.97,5.29,1.02,7.03c0.34,0.3,0.8,0.08,0.85-0.35
					c0.01-0.11,0.02-0.22,0.03-0.32c0.03-0.25-0.26-0.33-0.44-0.25c-0.11,0.05-0.23,0.1-0.34,0.15c0.23,0.06,0.45,0.12,0.68,0.18
					c-1.17-1.78-1.04-3.5-0.79-5.51c0.25-2.02,0.11-4.71,1.84-6.09C147.48,289.82,147.31,289.54,147.11,289.53L147.11,289.53z"/>
			</g>
		</g>
		<g>
			<g>
				<path d="M150.02,291.48c-1.59,2.62-1.97,7.49-0.68,10.28c0.15,0.33,0.63,0.14,0.64-0.17c0.07-1.68-0.34-3.33-0.24-5.03
					c0.1-1.68,0.59-3.28,0.74-4.95C150.51,291.35,150.14,291.28,150.02,291.48L150.02,291.48z"/>
			</g>
		</g>
		<g>
			<g>
				<path d="M199.27,312.64c-0.34,1.04-0.66,2.09-1.12,3.09c-0.42,0.91-1.06,1.71-1.46,2.62c-0.19,0.43,0.29,0.85,0.67,0.51
					c1.56-1.4,2.42-4.11,2.57-6.14C199.95,312.34,199.38,312.29,199.27,312.64L199.27,312.64z"/>
			</g>
		</g>
		<g>
			<g>
				<path d="M201.49,316.2c-0.32,1.15-0.84,2.1-1.37,3.15c-0.22,0.45,0.39,1.02,0.74,0.57c0.8-1.02,1.16-2.36,1.26-3.64
					C202.14,315.92,201.58,315.86,201.49,316.2L201.49,316.2z"/>
			</g>
		</g>
		<g>
			<g>
				<path d="M125.75,289.39c3.16,1.9,6.46,3.5,9.6,5.48c2.74,1.72,5.62,3.34,8.88,3.77c0.48,0.06,0.58-0.74,0.11-0.84
					c-3.78-0.83-6.88-2.65-10.1-4.71c-2.48-1.59-5.38-3.76-8.41-3.98C125.67,289.11,125.63,289.32,125.75,289.39L125.75,289.39z"/>
			</g>
		</g>
		<g>
			<g>
				<path d="M149.64,299.29c7.98,4.14,15.51,9.25,23.69,12.99c3.74,1.71,7.67,2.9,11.71,3.73c3.82,0.78,8.34,1.84,12.23,1.42
					c0.4-0.04,0.54-0.63,0.1-0.74c-4.16-1.05-8.68-0.96-12.91-1.88c-4.25-0.93-8.32-2.3-12.23-4.22
					c-7.56-3.7-14.43-8.92-22.31-11.95C149.54,298.49,149.29,299.1,149.64,299.29L149.64,299.29z"/>
			</g>
		</g>
		<g>
			<g>
				<path d="M185.83,356.16c1.27-1.47,2.56-2.92,4.03-4.19c0.83-0.72,5.08-4.49,6.38-3.23c0.12,0.12,0.36,0,0.3-0.17
					c-0.65-2-3.49,0.07-4.44,0.69c-2.64,1.74-4.96,3.95-6.58,6.67C185.4,356.11,185.68,356.33,185.83,356.16L185.83,356.16z"/>
			</g>
		</g>
		<g>
			<g>
				<path d="M176.32,354.99c-3.9-3.86-9.09-6.55-14.63-6.77c-0.16-0.01-0.19,0.24-0.04,0.28c5.36,1.22,10.1,3.23,14.23,6.93
					C176.18,355.69,176.6,355.27,176.32,354.99L176.32,354.99z"/>
			</g>
		</g>
		<g>
			<g>
				<path d="M185.44,358.71c4.77,1.68,8.51,4.65,9.61,9.82c0.24-0.18,0.48-0.37,0.72-0.55c-1.23-0.79-2.3-1.77-3.2-2.92
					c-0.64-0.82-1.1-1.91-1.85-2.64c-0.82-0.79-2.11-1.06-3.08-0.43c-0.06,0.04-0.02,0.14,0.05,0.11c2.16-0.8,3.39,2.55,4.41,3.8
					c0.92,1.14,2.01,2.05,3.18,2.92c0.37,0.28,0.79-0.18,0.72-0.55c-0.99-4.91-5.22-9.8-10.48-10.1
					C185.18,358.15,185.16,358.61,185.44,358.71L185.44,358.71z"/>
			</g>
		</g>
		<g>
			<g>
				<path d="M125.18,321.88c4.88-3.02,9.34-6.72,12.01-11.9c0.33-0.64-0.64-1.21-0.97-0.57c-2.59,5.01-6.88,8.57-11.61,11.5
					C124,321.29,124.56,322.26,125.18,321.88L125.18,321.88z"/>
			</g>
		</g>
		<g>
			<g>
				<path d="M183.53,316.21c0.34,5.05,1.08,9.98,0.98,15.06c-0.11,5.33-0.79,10.62-1.95,15.82c-0.11,0.49,0.65,0.71,0.76,0.21
					c1.15-5.12,1.85-10.31,1.98-15.56c0.13-5.11,0.03-10.63-1.35-15.59C183.89,315.92,183.52,315.96,183.53,316.21L183.53,316.21z"
					/>
			</g>
		</g>
		<g>
			<g>
				<path d="M182.62,349.29c-0.48,0.8-0.56,1.85-0.73,2.75c-0.15,0.8-0.47,1.71-0.21,2.51c0.05,0.15,0.24,0.17,0.33,0.04
					c0.49-0.71,0.47-1.72,0.62-2.55c0.16-0.86,0.48-1.76,0.42-2.64C183.03,349.18,182.74,349.08,182.62,349.29L182.62,349.29z"/>
			</g>
		</g>
		<g>
			<g>
				<path d="M190.64,316.75c-0.14,3.99,0.02,8,0.06,11.99c0.04,3.73,0.38,7.59,0.01,11.3c-0.62,6.12-6.57,9.23-8.8,14.6
					c-0.15,0.36,0.47,0.62,0.63,0.27c2.34-5.18,8.09-8.08,9.02-13.99c0.57-3.63,0.12-7.53,0.06-11.19
					c-0.07-4.32-0.02-8.67-0.28-12.99C191.32,316.3,190.66,316.3,190.64,316.75L190.64,316.75z"/>
			</g>
		</g>
		<g>
			<g>
				<path class="st13" d="M235.91,201.62c-0.08,7.46,7.77,12.17,14.48,12.83c0.53,0.05,0.56-0.72,0.12-0.88
					c-3.15-1.16-6.34-1.76-9.13-3.78c-2.66-1.94-4.63-4.85-5-8.16C236.35,201.32,235.91,201.31,235.91,201.62L235.91,201.62z"/>
			</g>
		</g>
		<g>
			<g>
				<path class="st13" d="M254.59,214.4c1.05,0.23,2.12,0.22,3.19,0.23c1.09,0.02,2.13,0.06,3.17-0.31c0.24-0.09,0.24-0.41,0-0.5
					c-1.04-0.36-2.08-0.32-3.17-0.31c-1.07,0.02-2.14,0-3.19,0.23C254.27,213.82,254.27,214.33,254.59,214.4L254.59,214.4z"/>
			</g>
		</g>
		<g>
			<g>
				<path class="st13" d="M183.07,241.43c-0.18-1.86-0.75-3.46-2-4.88c-0.96-1.09-2.96-2.7-4.5-2.31c-0.27,0.07-0.4,0.46-0.17,0.65
					c0.53,0.45,1.15,0.53,1.77,0.82c0.76,0.36,1.44,0.85,2.05,1.42c1.22,1.14,2.17,2.69,2.45,4.34
					C182.7,241.71,183.09,241.66,183.07,241.43L183.07,241.43z"/>
			</g>
		</g>
		<g>
			<g>
				<path class="st9" d="M274.98,167.3c0.82-2.68-1.91-8.09-5.19-6.94c-0.96,0.34-0.35,0.8,0.4,0.6c0.8-0.22,2.35,2.44,2.59,2.9
					c0.61,1.16,0.71,2.49,1.3,3.63C274.2,167.73,274.91,167.52,274.98,167.3L274.98,167.3z"/>
			</g>
		</g>
		<g>
			<g>
				<path class="st9" d="M273.03,163.43c-0.03-0.89-0.83-1.35-1.66-1.27c-0.44,0.05-0.92,0.19-1.27,0.47
					c-0.21,0.16-0.5,0.52-0.27,0.76c0.13,0.13,0.47-0.01,0.58-0.09c0.33-0.23,0.5-0.61,0.88-0.44c0.36,0.15,0.61,0.49,0.73,0.85
					C272.11,163.99,273.04,163.73,273.03,163.43L273.03,163.43z"/>
			</g>
		</g>
		<g>
			<g>
				<path class="st9" d="M299.43,163.45c0.14,1.01,0.83,1.66,1.87,1.63c0.04,0,0.34-0.08,0.25-0.16c-0.25-0.22-0.57-0.36-0.83-0.59
					c-0.3-0.27-0.63-0.64-0.78-1.02C299.88,163.18,299.4,163.3,299.43,163.45L299.43,163.45z"/>
			</g>
		</g>
		<g>
			<g>
				<path class="st13" d="M229.56,231.41c0.37,10.53,1.66,21.02,3,31.46c0.69,5.36,0.99,11.5,2.47,16.54
					c0.16,0.54,0.89,0.3,0.81-0.22c0-0.01,0-0.01,0-0.02c-0.07-0.54-0.89-0.31-0.81,0.22c0,0.01,0,0.01,0,0.02
					c0.27-0.07,0.54-0.15,0.81-0.22c0.07,0.24,0.02-0.89,0-1.15c-0.09-1.07-0.3-2.15-0.45-3.22c-0.58-4.09-1.14-8.18-1.67-12.27
					c-1.34-10.36-2.53-20.74-3.5-31.14C230.19,230.99,229.54,230.97,229.56,231.41L229.56,231.41z"/>
			</g>
		</g>
		<g>
			<g>
				<path class="st13" d="M247.68,277.39c-4.11,0.9-7.92,2.77-11.74,4.57c-3.94,1.85-8.01,3.61-11.6,6.09
					c-0.26,0.18-0.11,0.63,0.22,0.53c8.14-2.45,15.56-7.33,23.31-10.71C248.16,277.74,247.95,277.33,247.68,277.39L247.68,277.39z"
					/>
			</g>
		</g>
		<g>
			<g>
				<path class="st13" d="M318.48,321.61c-1.09,3.9-1.33,7.73-2.96,11.54c-1.72,4.01-4.26,7.12-6.95,10.5
					c-0.33,0.41,0.17,0.92,0.58,0.58c3.29-2.7,5.72-6.79,7.38-10.66c1.51-3.51,3.06-8.08,2.44-11.96
					C318.92,321.35,318.54,321.38,318.48,321.61L318.48,321.61z"/>
			</g>
		</g>
		<g>
			<g>
				<path class="st13" d="M144.05,286.05c-0.93-3.15-1.66-6.43-1.72-9.73c-0.07-3.39,0.81-6.49,1.33-9.79
					c0.06-0.41-0.5-0.74-0.73-0.31c-3.1,5.83-2.27,14.33,0.49,20.09C143.59,286.67,144.15,286.42,144.05,286.05L144.05,286.05z"/>
			</g>
		</g>
		<g>
			<g>
				<path class="st13" d="M153.02,290.41c-0.77-2-1.64-3.98-2.21-6.05c-0.21-0.78-1.12-3.25-0.65-3.83c1.84-0.85,2.84-0.44,3,1.23
					c0.12,0.71,0.17,1.43,0.15,2.15c0,0.33,0.52,0.42,0.59,0.08c0.41-1.79-1.17-7.81-4-5.59c-1.23,0.97-0.59,3.41-0.33,4.65
					c0.57,2.64,1.83,5.11,2.89,7.58C152.6,290.96,153.14,290.73,153.02,290.41L153.02,290.41z"/>
			</g>
		</g>
		<g>
			<g>
				<path class="st13" d="M172.11,302.25c-2.13-3.43-3.09-6.88-4.18-10.71c-0.07-0.23-0.4-0.18-0.41,0.06
					c-0.16,3.94,1.76,7.97,4.19,10.96C171.9,302.78,172.26,302.5,172.11,302.25L172.11,302.25z"/>
			</g>
		</g>
		<g>
			<g>
				<path class="st13" d="M189.21,308.92c2.98-0.27,6.93-2.49,7.41-5.76c0.04-0.28-0.3-0.58-0.54-0.31
					c-0.93,1.08-1.58,2.31-2.69,3.25c-1.22,1.03-2.74,1.76-4.27,2.19C188.78,308.37,188.83,308.96,189.21,308.92L189.21,308.92z"/>
			</g>
		</g>
		<g>
			<g>
				<path class="st13" d="M189.29,305.59c1.94-0.67,4.34-2.39,4.68-4.58c0.04-0.26-0.29-0.55-0.51-0.29
					c-0.65,0.77-1.12,1.66-1.85,2.37c-0.76,0.75-1.67,1.33-2.64,1.76C188.56,305.04,188.85,305.74,189.29,305.59L189.29,305.59z"/>
			</g>
		</g>
		<g>
			<g>
				<path class="st9" d="M298.76,188.83c0.9-0.37,1.52,0.22,2.35,0.45c0.09,0.02,0.34,0,0.37-0.12c0.18-0.67-0.73-0.9-1.25-0.95
					c-0.65-0.06-1.36,0.06-1.89,0.48C298.05,188.92,298.65,188.88,298.76,188.83L298.76,188.83z"/>
			</g>
		</g>
	</g>
	<g>
		<g>
			<path class="st23" d="M444.69,85.06h-79.8c-6.78,0-12.58,4.89-13.71,11.58l-6.89,40.54c-1.44,8.49,5.1,16.24,13.71,16.24h0.4
				l-3.11,16.62l15.35-16.62h67.15c6.78,0,12.58-4.89,13.71-11.58l6.89-40.54C459.85,92.81,453.3,85.06,444.69,85.06z"/>
			<g class="st24">
				<g>
					<path d="M398.9,100.48c6.67,0.43,13.37,0.55,20.06,0.69c6.69,0.15,13.37,0.29,20.06,0.44c1.83,0.04,3.65,0.08,5.48,0.12
						c1.86,0.04,3.79,0.23,5.63-0.08c0.56-0.09,0.53-0.99,0-1.1c-1.6-0.34-3.26-0.27-4.89-0.31c-1.66-0.04-3.32-0.08-4.98-0.11
						c-3.36-0.08-6.73-0.15-10.09-0.23c-6.69-0.15-13.37-0.3-20.06-0.41c-3.74-0.06-7.47-0.13-11.21-0.06
						C398.23,99.46,398.24,100.44,398.9,100.48L398.9,100.48z"/>
				</g>
			</g>
			<g class="st24">
				<g>
					<path d="M396.6,110.89c12.81,0.75,25.66,0.88,38.49,0.38c1.82-0.07,3.65-0.15,5.47-0.25c0.91-0.05,1.82-0.1,2.73-0.15
						c0.91-0.05,1.76-0.18,2.66-0.31c0.75-0.11,0.54-1.27-0.17-1.28c-0.8-0.01-1.56-0.04-2.36,0.01c-0.83,0.05-1.66,0.1-2.49,0.14
						c-1.62,0.09-3.23,0.16-4.85,0.23c-3.15,0.13-6.29,0.22-9.44,0.27c-6.37,0.11-12.75,0.06-19.12-0.14
						c-3.64-0.11-7.28-0.28-10.91-0.5C395.57,109.22,395.57,110.83,396.6,110.89L396.6,110.89z"/>
				</g>
			</g>
			<g class="st24">
				<g>
					<path d="M396.66,119.11c6.5,0.65,13.01,1.18,19.53,1.61c4.08,0.27,8.16,0.26,12.25,0.15c4.48-0.11,8.95-0.21,13.43-0.38
						c1.32-0.05,1.33-2.11,0-2.06c-6.52,0.24-13.03,0.68-19.55,0.68c-4.09,0-8.17-0.32-12.25-0.61c-4.47-0.32-8.93-0.58-13.41-0.7
						C395.8,117.77,395.84,119.02,396.66,119.11L396.66,119.11z"/>
				</g>
			</g>
			<g class="st24">
				<g>
					<path d="M358.43,126.72c9.99,0.88,20.01,1.23,30.03,1.53c11.52,0.34,23.05,0.56,34.58,0.67c2.73,0.03,5.46,0.02,8.18,0.01
						c2.33-0.01,4.68,0.03,7.01-0.1c1.12-0.06,1.13-1.7,0-1.74c-2.06-0.07-4.13-0.02-6.19-0.03c-2.43-0.01-4.85-0.03-7.28-0.03
						c-5.53,0-11.07-0.02-16.6-0.07c-11.52-0.1-23.05-0.28-34.57-0.66c-5.06-0.17-10.11-0.25-15.17-0.53
						C357.8,125.73,357.82,126.67,358.43,126.72L358.43,126.72z"/>
				</g>
			</g>
			<g class="st24">
				<g>
					<path d="M357.52,134c9.85,0.86,19.72,1.28,29.6,1.62c11.38,0.39,22.76,0.68,34.15,0.84c2.71,0.04,5.42,0.05,8.14,0.04
						c2.33-0.01,4.68,0.04,7.01-0.09c1.12-0.06,1.13-1.7,0-1.74c-2.05-0.07-4.12-0.02-6.17-0.03c-2.36-0.01-4.72-0.04-7.07-0.05
						c-5.46-0.02-10.93-0.07-16.39-0.14c-11.38-0.16-22.76-0.4-34.14-0.82c-5.04-0.19-10.08-0.3-15.12-0.57
						C356.89,133.01,356.91,133.95,357.52,134L357.52,134z"/>
				</g>
			</g>
			<g class="st24">
				<g>
					<path d="M361.28,96.16c-1.03,3.64-1.09,7.47-1.1,11.22c-0.02,3.75,0,7.49-1.21,11.08c-0.47,1.39,1.82,2.04,2.21,0.61
						c0.99-3.64,1.04-7.48,1.03-11.23c-0.01-3.75-0.05-7.51,1.06-11.13C363.66,95.44,361.64,94.89,361.28,96.16L361.28,96.16z"/>
				</g>
			</g>
			<g class="st24">
				<g>
					<path d="M363.03,96.94c4.8,0.15,9.61,0.23,14.41,0.48c4.8,0.25,9.59,0.66,14.37,1.2c-0.39-0.51-0.78-1.03-1.17-1.54
						c-0.53,3.69-0.98,7.4-1.34,11.11c-0.36,3.68-0.43,7.39-0.42,11.08c0.01,1.94,3.04,1.95,3.02,0c-0.03-3.66,0.11-7.3,0.23-10.96
						c0.12-3.65,0.42-7.28,0.89-10.91c0.09-0.7-0.63-1.16-1.22-1.22c-9.52-0.96-19.23-1.5-28.78-0.79
						C362.05,95.47,362.03,96.91,363.03,96.94L363.03,96.94z"/>
				</g>
			</g>
			<g class="st24">
				<g>
					<path d="M360.98,120.67c4.58-0.51,9.19-0.68,13.8-0.48c2.27,0.1,4.53,0.28,6.78,0.54c1.06,0.13,2.12,0.28,3.17,0.44
						c0.56,0.09,1.12,0.16,1.68,0.25c0.67,0.1,1.43,0.33,2.11,0.26c0.69-0.07,1.31-0.44,1.51-1.15c0.17-0.63-0.1-1.46-0.72-1.76
						c-1.14-0.56-2.65-0.65-3.9-0.81c-1.12-0.14-2.24-0.26-3.37-0.36c-2.37-0.21-4.76-0.32-7.14-0.33
						c-4.77-0.03-9.52,0.33-14.24,1.03C359.33,118.5,359.63,120.82,360.98,120.67L360.98,120.67z"/>
				</g>
			</g>
			<g class="st24">
				<g>
					<path d="M365.27,100.79c-0.38,3.86-0.7,7.75-0.89,11.63c-0.06,1.27,2.01,1.28,1.98,0c-0.12-3.89-0.06-7.75,0.22-11.63
						C366.63,99.95,365.35,99.97,365.27,100.79L365.27,100.79z"/>
				</g>
			</g>
			<g class="st24">
				<g>
					<path d="M365.53,113.35c3.8,0.28,7.61,0.43,11.42,0.58c1.9,0.08,3.81,0.15,5.71,0.21c1.89,0.06,3.82,0.23,5.71,0.16
						c1.31-0.04,1.27-1.89,0-2c-1.89-0.18-3.81-0.13-5.71-0.18c-1.9-0.05-3.81-0.09-5.71-0.13c-3.81-0.08-7.61-0.16-11.42-0.11
						C364.56,111.88,364.58,113.28,365.53,113.35L365.53,113.35z"/>
				</g>
			</g>
			<g class="st24">
				<g>
					<path d="M369.11,109.98c0.39-1.17,0.78-2.35,1.18-3.52c0.18-0.52,0.33-1.06,0.53-1.58c0.13-0.34,0.32-0.8,0.73-0.88
						c0.95-0.18,1.62,1.53,1.97,2.15c0.57,1,1.06,2.13,1.79,3.01c0.65,0.79,1.65,1.32,2.66,0.89c1-0.42,1.35-1.49,1.66-2.44
						c0.39-1.17,0.72-2.37,1.19-3.51c0.01-0.02,0.13-0.31,0.13-0.31c-0.04,0.01-0.08,0.02-0.13,0.03c-0.14,0-0.16,0.02-0.07,0.07
						c0.03,0.13,0.44,0.51,0.53,0.62c0.37,0.48,0.75,0.96,1.12,1.44c0.74,0.96,1.67,1.94,3,1.51c1.19-0.38,1.74-1.79,2.23-2.82
						c-0.19,0.15-0.38,0.29-0.57,0.44c0.17-0.03,0.35-0.06,0.52-0.08c1.37-0.22,1.42-2.2,0.37-2.81c-1.08-0.63-2.77,0.44-2.26,1.74
						c0.06,0.16,0.13,0.32,0.19,0.49c0.03-0.25,0.06-0.49,0.1-0.74c-0.33,0.48-0.62,0.97-0.93,1.46c-0.05,0.09-0.13,0.26-0.23,0.32
						c-0.06,0.03-0.03,0.05,0.01,0.05c-0.08,0-0.2-0.11-0.27-0.15c-0.41-0.3-0.74-0.78-1.07-1.15c-0.41-0.46-0.8-0.97-1.25-1.4
						c-0.75-0.72-1.94-1.07-2.64-0.09c-0.3,0.42-0.41,0.95-0.58,1.42c-0.23,0.62-0.5,1.23-0.74,1.84c-0.22,0.55-0.43,1.11-0.67,1.65
						c-0.07,0.16-0.14,0.38-0.27,0.5c-0.13,0.12-0.04,0.09-0.13,0.06c-0.28-0.09-0.57-0.67-0.72-0.9c-0.37-0.55-0.74-1.09-1.1-1.64
						c-0.61-0.91-1.18-1.96-2.09-2.61c-0.77-0.54-1.86-0.73-2.69-0.23c-0.93,0.56-1.21,1.74-1.53,2.69
						c-0.46,1.36-0.91,2.73-1.37,4.09C367.38,110.49,368.81,110.88,369.11,109.98L369.11,109.98z"/>
				</g>
			</g>
		</g>
		<g class="st0">
			<path class="st25" d="M432.58,55.22h-70.15c-5.96,0-11.05,4.3-12.05,10.18l-6.06,35.64c-1.27,7.46,4.48,14.28,12.05,14.28h0.36
				l-7.02,10.22l17.78-10.22h59.03c5.96,0,11.06-4.3,12.05-10.18l6.06-35.64C445.9,62.03,440.15,55.22,432.58,55.22z"/>
			<g class="st26">
				<g>
					<path d="M360.63,67.68c9.97,0.51,19.96,0.76,29.94,1.03c9.94,0.27,19.88,0.54,29.82,0.81c2.79,0.08,5.57,0.15,8.36,0.23
						c2.82,0.08,5.67,0.3,8.48,0.08c0.51-0.04,0.72-0.89,0.13-0.97c-2.44-0.33-4.91-0.3-7.37-0.37c-2.5-0.07-4.99-0.14-7.49-0.21
						c-4.99-0.14-9.98-0.28-14.97-0.41c-9.98-0.28-19.96-0.54-29.94-0.78c-5.66-0.13-11.31-0.28-16.97-0.29
						C360.05,66.78,360.06,67.65,360.63,67.68L360.63,67.68z"/>
				</g>
			</g>
			<g class="st26">
				<g>
					<path d="M357.4,76.78c9.58,0.46,19.16,0.79,28.75,0.99c9.59,0.19,19.18,0.25,28.77,0.17c5.39-0.05,10.82,0,16.19-0.38
						c0.72-0.05,0.73-1.11,0-1.12c-4.81-0.11-9.63,0.08-14.45,0.13c-4.77,0.05-9.55,0.06-14.32,0.04
						c-9.59-0.04-19.18-0.22-28.77-0.54c-5.39-0.18-10.79-0.4-16.18-0.66C356.51,75.36,356.51,76.74,357.4,76.78L357.4,76.78z"/>
				</g>
			</g>
			<g class="st26">
				<g>
					<path d="M355.45,85c9.34,0.73,18.68,1.14,28.04,1.38c9.31,0.24,18.63,0.29,27.95,0.18c5.26-0.06,10.52-0.17,15.77-0.36
						c0.87-0.03,0.88-1.39,0-1.36c-9.35,0.34-18.71,0.56-28.07,0.55c-9.32-0.01-18.63-0.2-27.94-0.57
						c-5.25-0.21-10.5-0.43-15.75-0.68C354.89,84.11,354.9,84.96,355.45,85L355.45,85z"/>
				</g>
			</g>
			<g class="st26">
				<g>
					<path d="M353.54,93.87c12.83,1.14,25.7,1.67,38.57,1.83c3.64,0.05,7.32,0.15,10.96-0.06c0.74-0.04,0.74-1.12,0-1.15
						c-3.23-0.12-6.48-0.02-9.71-0.02c-3.24,0-6.48-0.03-9.71-0.08c-6.39-0.11-12.78-0.32-19.17-0.63
						c-3.65-0.18-7.29-0.32-10.94-0.52C353.13,93.21,353.14,93.83,353.54,93.87L353.54,93.87z"/>
				</g>
			</g>
		</g>
		<g>
			<path class="st27" d="M335.47,35.07h-71.6c-6.09,0-11.28,4.39-12.3,10.39l-6.18,36.38c-1.3,7.62,4.58,14.57,12.3,14.57h60.52
				l10.56,13.3l0.43-13.3h0.1c6.09,0,11.28-4.39,12.3-10.39l6.18-36.38C349.07,42.02,343.2,35.07,335.47,35.07z"/>
			<g class="st28">
				<g>
					<path d="M289.28,48.59c6.65,0.33,13.32,0.47,19.98,0.63c6.58,0.15,13.15,0.31,19.73,0.46c1.83,0.04,3.66,0.09,5.49,0.13
						c1.9,0.04,3.85,0.2,5.74,0.02c0.37-0.04,0.53-0.65,0.1-0.71c-1.6-0.23-3.23-0.2-4.84-0.24c-1.66-0.04-3.33-0.08-4.99-0.12
						c-3.33-0.08-6.66-0.16-9.99-0.24c-6.66-0.16-13.32-0.31-19.98-0.44c-3.75-0.07-7.49-0.15-11.24-0.14
						C288.86,47.93,288.86,48.57,289.28,48.59L289.28,48.59z"/>
				</g>
			</g>
			<g class="st28">
				<g>
					<path d="M287.02,57.85c12.72,0.71,25.47,0.88,38.2,0.48c3.61-0.11,7.25-0.17,10.83-0.55c0.52-0.06,0.55-0.83,0-0.83
						c-3.19,0.01-6.39,0.23-9.59,0.34c-3.2,0.11-6.39,0.18-9.59,0.22c-6.35,0.07-12.7,0.01-19.04-0.19
						c-3.61-0.11-7.21-0.28-10.82-0.48C286.37,56.79,286.37,57.81,287.02,57.85L287.02,57.85z"/>
				</g>
			</g>
			<g class="st28">
				<g>
					<path d="M256.75,65.42c9.5,0.73,19.01,1.15,28.54,1.39c9.52,0.24,19.04,0.29,28.57,0.18c5.38-0.06,10.76-0.18,16.14-0.37
						c0.8-0.03,0.8-1.27,0-1.24c-9.52,0.35-19.04,0.56-28.56,0.55c-9.52-0.01-19.04-0.21-28.56-0.59
						c-5.38-0.21-10.75-0.45-16.12-0.71C256.24,64.6,256.25,65.38,256.75,65.42L256.75,65.42z"/>
				</g>
			</g>
			<g class="st28">
				<g>
					<path d="M254.8,74.48c13.08,1.14,26.21,1.67,39.34,1.83c3.73,0.05,7.49,0.14,11.22-0.05c0.67-0.04,0.68-1.03,0-1.05
						c-3.32-0.11-6.65-0.01-9.97-0.02c-3.24,0-6.48-0.03-9.72-0.09c-6.56-0.11-13.12-0.33-19.68-0.65
						c-3.73-0.18-7.46-0.34-11.19-0.55C254.43,73.88,254.43,74.45,254.8,74.48L254.8,74.48z"/>
				</g>
			</g>
			<g class="st28">
				<g>
					<path d="M259.15,44.75c-0.37,2.53-0.63,5.06-1.02,7.59c-0.18,1.16-0.44,2.35-0.49,3.52c-0.03,0.87,0.18,1.76,0.85,2.35
						c0.7,0.62,1.66,0.79,2.56,0.9c1.24,0.16,2.49,0.27,3.74,0.39c2.54,0.24,5.07,0.51,7.61,0.72c2.09,0.17,4.8,0.69,6.69-0.52
						c0.95-0.61,1.13-1.55,1.11-2.61c-0.03-1.19-0.13-2.37-0.2-3.56c-0.15-2.43-0.11-4.71,0.72-7.02c0.35-0.99,0.61-2.09,0.04-3.06
						c-0.48-0.81-1.39-1.2-2.29-1.34c-1.21-0.19-2.47-0.12-3.69-0.13c-1.43,0-2.87,0-4.3,0.03c-1.43,0.03-2.87,0.12-4.3,0.11
						c-1.47-0.01-2.94-0.03-4.42-0.02c-0.67,0-1.23,0.56-1.23,1.23c0,0.6,0.57,1.32,1.23,1.23c2.25-0.29,4.48-0.56,6.75-0.66
						c2.25-0.09,4.5-0.14,6.76-0.15c0.94,0,1.92-0.08,2.85,0.05c0.7,0.1,1.35,0.36,1.25,1.19c-0.06,0.5-0.29,0.98-0.44,1.45
						c-0.17,0.5-0.29,1.01-0.38,1.53c-0.17,1-0.22,2.01-0.2,3.02c0.05,2.11,0.42,4.19,0.5,6.3c0.02,0.5,0.02,0.92-0.44,1.21
						c-0.41,0.26-0.95,0.36-1.43,0.43c-1.03,0.15-2.08,0.06-3.11-0.04c-2.25-0.2-4.49-0.37-6.74-0.55c-2.14-0.17-4.3-0.25-6.44-0.47
						c-1.09-0.11-2.04-0.52-2.09-1.76c-0.04-1.14,0.25-2.32,0.4-3.45c0.34-2.57,0.81-5.11,1.18-7.67
						C260.28,44.36,259.25,44.07,259.15,44.75L259.15,44.75z"/>
				</g>
			</g>
			<g class="st28">
				<g>
					<path d="M266.87,53.14c0.37-1.72,0.49-3.49,0.72-5.23c-0.07,0.17-0.14,0.35-0.22,0.52c0.12-0.13,0.03-0.1-0.27,0.08
						c-0.09-0.02-0.1-0.02-0.01,0.01c-0.1-0.12,0.12,0.09,0.06,0.04c0.09,0.07,0.32,0.32,0.45,0.46c0.34,0.36,0.67,0.72,1.01,1.08
						c0.69,0.75,1.38,1.5,2.05,2.26c0.12-0.46,0.24-0.92,0.36-1.38c-1.32,0.53-2.65,1.04-3.96,1.6c-0.42,0.18-0.72,0.56-0.59,1.04
						c0.11,0.4,0.61,0.76,1.04,0.59c1.33-0.52,2.63-1.09,3.95-1.63c0.58-0.24,0.81-0.88,0.36-1.38c-0.7-0.79-1.41-1.57-2.15-2.31
						c-0.37-0.37-0.75-0.74-1.13-1.1c-0.38-0.36-0.78-0.71-1.33-0.75c-0.23-0.02-0.47,0.02-0.67,0.15
						c-0.36,0.22-0.43,0.55-0.47,0.95c-0.05,0.54-0.1,1.08-0.15,1.62c-0.1,1.08-0.22,2.15-0.22,3.24
						C265.71,53.63,266.73,53.8,266.87,53.14L266.87,53.14z"/>
				</g>
			</g>
		</g>
	</g>
</g>
</svg>
