<svg width="3718" height="3718" viewBox="0 0 3718 3718" fill="none" xmlns="http://www.w3.org/2000/svg">
<g filter="url(#filter0_d_0_3)">
<path d="M3217.63 1644.13C3141.75 1147.44 2830.63 537.23 2215.98 473.37C2215.98 473.37 1749.31 416.61 1289.28 502.64C1016.25 553.7 776.84 705.69 625.36 924.14C473.87 1142.59 423.27 1408.96 484.68 1662.91C524.57 1827.85 551.52 1998.56 544.12 2168.05C531.25 2463.03 538.65 2738.37 824.92 2914.29C1080.53 3071.36 1402.21 3209.9 1709.1 3234.16C1917.66 3250.65 2151.55 3223.97 2352.56 3169.67C3376.98 2892.94 3293.51 2140.81 3217.63 1644.13Z" fill="#B0DBFF"/>
<g opacity="0.3">
<path d="M2145.67 797.92L2160.33 870.22C2128.89 882.94 2098.92 898.14 2070.76 915.79L2022.06 860.69C2008.77 845.66 1985.78 844.41 1970.69 857.9L1876.25 942.36C1861.13 955.88 1859.63 979.07 1872.9 994.16L1922.03 1050.03C1901.27 1076.51 1882.76 1104.74 1866.77 1134.42L1796.04 1110.95C1776.97 1104.62 1756.24 1115.16 1749.74 1134.49L1708.99 1255.62C1702.46 1275.02 1712.65 1295.93 1731.76 1302.3L1802.73 1325.97C1797.72 1359.06 1795.62 1392.89 1796.38 1427.12L1722.42 1442.77C1702.57 1446.97 1689.63 1466.67 1693.53 1486.78L1717.99 1612.82C1721.91 1633.02 1741.23 1645.99 1761.14 1641.77L1835.31 1626.08C1847.55 1658.12 1862.29 1688.68 1879.49 1717.42L1822.74 1768.61C1807.44 1782.41 1805.9 1806.15 1819.31 1821.63L1903.33 1918.63C1916.79 1934.17 1940.14 1935.54 1955.46 1921.67L2012.2 1870.33C2038.53 1891.67 2066.68 1910.61 2096.28 1927.01L2072.24 2000.24C2065.73 2020.07 2076.16 2041.47 2095.55 2048.03L2216.94 2089.11C2236.37 2095.69 2257.38 2084.9 2263.85 2065.03L2287.51 1992.37C2320.76 1997.41 2354.75 1999.37 2389.13 1998.37L2404.33 2073.3C2408.49 2093.81 2428.15 2107 2448.23 2102.75L2573.83 2076.18C2593.91 2071.93 2606.77 2051.86 2602.55 2031.36L2587.26 1957.07C2619.41 1944.17 2650.01 1928.64 2678.73 1910.6L2728.14 1966.79C2741.86 1982.39 2765.35 1983.77 2780.59 1969.85L2875.83 1882.94C2891.04 1869.06 2892.23 1845.2 2878.49 1829.66L2829.24 1773.94C2850.36 1746.67 2869.03 1717.56 2885.1 1686.99L2954.81 1710.24C2974.29 1716.74 2995.17 1706.02 3001.42 1686.31L3040.48 1563.27C3046.71 1543.63 3036 1522.48 3016.56 1516.03L2947.52 1493.12C2952.2 1459.25 2953.8 1424.66 2952.44 1389.73L3023.37 1374.72C3043.28 1370.51 3055.92 1350.78 3051.61 1330.66L3024.66 1205.15C3020.36 1185.12 3000.78 1172.3 2980.93 1176.5L2910.21 1191.46C2897.28 1159.22 2881.83 1128.54 2863.89 1099.81L2917.34 1051.45C2932.37 1037.85 2933.53 1014.55 2919.94 999.4L2835.12 904.84C2821.58 889.75 2798.44 888.49 2783.43 902.03L2729.64 950.55C2702.96 929.63 2674.55 911.08 2644.7 895.17L2667.19 826.1C2673.45 806.88 2662.98 786.22 2643.82 779.95L2524.12 740.79C2505 734.54 2484.4 745.01 2478.11 764.18L2455.37 833.42C2422.47 828.8 2388.88 827.14 2354.91 828.43L2340.15 756.75C2336.09 737.03 2316.84 724.42 2297.15 728.59L2174.04 754.64C2154.38 758.81 2141.67 778.18 2145.67 797.92ZM1936.01 1500.6C1887.53 1256.67 2043.24 1018.78 2283.55 967.94C2523.85 917.1 2759.86 1072.11 2810.98 1315.49C2862.4 1560.34 2707.37 1801.59 2464.43 1852.99C2221.49 1904.38 1984.79 1746.01 1936.01 1500.6Z" fill="url(#paint0_linear_0_3)"/>
</g>
<path d="M1967.53 2805.75C1936.43 2795.43 1913.18 2769.04 1906.63 2736.6L1861.36 2512.57L1474.14 2526.32L1426.48 2759.71C1419.81 2792.4 1446.52 2825.19 1477.29 2837.23L1639.29 2900.62C1669.42 2912.41 1701.81 2917.11 1734 2914.35L2076.37 2885.06C2086.38 2884.2 2094.41 2876.34 2095.57 2866.24C2096.73 2856.15 2103.75 2844.81 2094.2 2841.65L1967.53 2805.75Z" fill="#97A6B7"/>
<path d="M1971.36 2792.12C1940.29 2781.93 1917.07 2755.87 1910.52 2723.84L1865.3 2502.62L1487.52 2516.21L1439.91 2746.67C1433.24 2778.95 1450.88 2811.31 1481.62 2823.2L1643.46 2885.79C1673.56 2897.43 1705.92 2902.07 1738.08 2899.35L2080.11 2870.43C2090.11 2869.58 2098.13 2861.82 2099.29 2851.85C2100.45 2841.88 2094.44 2832.48 2084.9 2829.35L1971.36 2792.12Z" fill="#D8DEE8"/>
<path d="M682.92 2661.47C640.93 2663.97 606.58 2636.73 606.58 2600.73V1303.2C606.58 1267.2 640.93 1239.4 682.92 1241.22L2624.84 1325.36C2655.67 1326.7 2680.63 1352.69 2680.63 1383.3V2486.83C2680.63 2517.45 2655.67 2543.85 2624.84 2545.68L682.92 2661.47Z" fill="#BFC8D6"/>
<path d="M700.37 2661.47C658.38 2663.97 624.03 2636.73 624.03 2600.73V1303.2C624.03 1267.2 658.38 1239.4 700.37 1241.22L2642.29 1325.36C2673.12 1326.7 2698.08 1352.69 2698.08 1383.3V2486.83C2698.08 2517.45 2673.12 2543.85 2642.29 2545.68L700.37 2661.47Z" fill="white"/>
<path opacity="0.3" d="M2642.29 1351.33L700.37 1271.44C677.92 1270.52 659.67 1285.35 659.67 1304.57V2313.7V2598.76C659.67 2617.98 677.92 2632.52 700.37 2631.23L2642.29 2519.72C2658.81 2518.77 2672.18 2504.69 2672.18 2488.26V2236V1382.31C2672.17 1365.88 2658.81 1352.01 2642.29 1351.33Z" fill="#D8DEE8"/>
<path d="M700.37 2521.01C691.63 2521.44 684.51 2515.71 684.51 2508.23V1305.54C684.51 1298.06 691.63 1292.26 700.37 1292.61L2642.29 1369.52C2648.74 1369.78 2653.97 1375.2 2653.97 1381.61V2412.81C2653.97 2419.22 2648.73 2424.7 2642.29 2425.02L700.37 2521.01Z" fill="#D8DEE8"/>
<path opacity="0.6" d="M2439.56 2465.38C2276.19 2364.32 2390.3 2076.98 2206.83 1932.62C2021.86 1787.07 1761.58 1965.59 1632.01 1814.85C1535.53 1702.61 1648.42 1567.09 1556.3 1461.54C1411.84 1296.01 1042.02 1523.67 872.12 1360.59C848 1337.44 823.65 1302.31 809.8 1245.96L700.38 1241.22C658.39 1239.4 624.04 1267.2 624.04 1303.2V2600.72C624.04 2636.72 658.39 2663.96 700.38 2661.46L2642.3 2545.69C2673.13 2543.85 2698.09 2517.45 2698.09 2486.84V2467.22C2569.14 2510.98 2490.31 2496.78 2439.56 2465.38Z" fill="white"/>
<path d="M1033.22 1808.83L1050.47 1808.55L1378.44 2038.23C1328.58 2108.49 1299.3 2190.12 1299.3 2284.9L860.76 2296.29C860.76 2111.75 925.24 1947.42 1033.22 1808.83Z" fill="url(#paint1_linear_0_3)"/>
<path d="M1607.16 1870.49C1532.5 1895.19 1476.4 1943.8 1424.44 2000.71C1424.03 2001.16 1423.81 2002.31 1423.21 2002.34C1410.17 2003.06 1414.78 2003.27 1406.62 2002.73L1405.89 2002.21L1064.01 1773.94C1176.35 1648.42 1325.38 1557.04 1490.67 1517.4L1507.11 1517.38L1607.16 1870.49Z" fill="url(#paint2_linear_0_3)"/>
<path d="M1997.26 1546.76L1908.91 1869.09C1869.5 1856.03 1825.69 1844.83 1781.26 1843.36C1741.38 1842.04 1688.86 1852.75 1651.25 1861.23L1535.05 1506.67C1610.21 1492.03 1688.04 1487.48 1766.77 1493.99C1848.77 1500.76 1926.06 1519.07 1997.26 1546.76Z" fill="url(#paint3_linear_0_3)"/>
<path d="M2353.14 1824.09L2106.77 2000.88L2109.09 2010.32L2093.68 2010.76C2052.02 1956.35 1996.83 1913.57 1932.39 1885.07L2035.54 1563.04C2046.24 1562.43 2041.27 1562.89 2051.04 1562.85C2051.32 1562.85 2051.56 1563.03 2051.82 1563.15C2176.68 1622.09 2277.89 1716.83 2353.14 1824.09Z" fill="url(#paint4_linear_0_3)"/>
<path d="M2488.16 2252.79L2179.73 2261.22C2179.73 2177.49 2156.72 2105.73 2116.73 2042.75L2374.41 1856.68C2389.35 1856.38 2387.28 1855.87 2389.35 1856.38C2391.88 1857 2380.77 1866.97 2382.18 1869.32C2449.64 1981.48 2488.16 2111.19 2488.16 2252.79Z" fill="url(#paint5_linear_0_3)"/>
<path d="M1716.83 2149.82L2143.75 1812.67L1842.61 2259.08L1716.83 2149.82Z" fill="url(#paint6_linear_0_3)"/>
<path d="M1879.93 2225.96C1879.93 2286.47 1829.72 2337.36 1766.78 2339.68C1702.7 2342.04 1649.89 2293.31 1649.89 2230.81C1649.89 2168.31 1702.7 2117.35 1766.78 2117.01C1829.73 2116.67 1879.93 2165.45 1879.93 2225.96Z" fill="url(#paint7_linear_0_3)"/>
<path d="M1766.78 2295.99C1728.04 2297.18 1696.21 2267.5 1696.21 2229.83C1696.21 2192.16 1728.04 2161.14 1766.78 2160.69C1805.1 2160.25 1835.97 2189.94 1835.97 2226.88C1835.97 2263.82 1805.1 2294.82 1766.78 2295.99ZM1766.78 2173.89C1735.64 2174.31 1710.09 2199.27 1710.09 2229.54C1710.09 2259.81 1735.63 2283.69 1766.78 2282.79C1797.65 2281.9 1822.57 2256.95 1822.57 2227.16C1822.57 2197.37 1797.66 2173.48 1766.78 2173.89Z" fill="url(#paint8_linear_0_3)"/>
<path d="M1050.47 1810.1L1395.07 2038.51C1345.29 2108.71 1316.07 2189.88 1316.07 2284.58L878.31 2296.54C878.31 2112.17 942.68 1945.57 1050.47 1810.1Z" fill="url(#paint9_linear_0_3)"/>
<path d="M1623.39 1869.72C1545.47 1895.52 1476.28 1941.58 1423.21 2002.23L1081.21 1773.23C1193.35 1647.83 1342.12 1557.87 1507.12 1516.5L1623.39 1869.72Z" fill="url(#paint10_linear_0_3)"/>
<path d="M2012.83 1546.71L1908.91 1869.08C1869.5 1856.02 1827.16 1848.24 1782.74 1846.79C1742.87 1845.48 1703.81 1849.34 1666.26 1857.81L1551.41 1506.66C1626.44 1492.03 1704.13 1487.49 1782.73 1493.99C1864.59 1500.75 1941.75 1519.05 2012.83 1546.71Z" fill="url(#paint11_linear_0_3)"/>
<path d="M2368.11 1823.82L2109.09 2009.3C2067.5 1956.05 2012.41 1912.7 1948.07 1884.22L2051.05 1562.72C2181.53 1621.42 2290.39 1712.94 2368.11 1823.82Z" fill="url(#paint12_linear_0_3)"/>
<path d="M2502.91 2252.17L2194.99 2260.58C2194.99 2176.92 2172.02 2105.22 2132.1 2042.29L2389.35 1856.38C2461.5 1971.32 2502.91 2105.36 2502.91 2252.17Z" fill="url(#paint13_linear_0_3)"/>
<path d="M1732.88 2149.25L2159.08 1812.4L1858.44 2258.43L1732.88 2149.25Z" fill="url(#paint14_linear_0_3)"/>
<path d="M1895.7 2225.33C1895.7 2285.78 1845.58 2336.64 1782.74 2338.95C1718.77 2341.3 1666.05 2292.62 1666.05 2230.17C1666.05 2167.72 1718.76 2116.81 1782.74 2116.47C1845.58 2116.14 1895.7 2164.88 1895.7 2225.33Z" fill="url(#paint15_linear_0_3)"/>
<path d="M1782.75 2295.3C1744.08 2296.48 1712.3 2266.83 1712.3 2229.19C1712.3 2191.55 1744.08 2160.56 1782.75 2160.11C1821 2159.67 1851.82 2189.34 1851.82 2226.25C1851.81 2263.16 1821 2294.13 1782.75 2295.3ZM1782.75 2173.31C1751.66 2173.73 1726.16 2198.67 1726.16 2228.91C1726.16 2259.15 1751.66 2283.01 1782.75 2282.12C1813.57 2281.23 1838.45 2256.3 1838.45 2226.54C1838.44 2196.78 1813.56 2172.9 1782.75 2173.31Z" fill="white"/>
<path d="M2559.25 2083.46C2559.25 2083.46 2565.41 2060.35 2561.05 2054.44C2556.69 2048.53 2529.98 2024.91 2532.55 2032.61C2535.12 2040.31 2538.97 2045.45 2538.97 2045.45C2538.97 2045.45 2524.59 2052.13 2533.83 2062.14C2543.07 2072.15 2546.16 2074.47 2546.67 2083.45C2547.18 2092.45 2553.09 2095.53 2559.25 2083.46Z" fill="url(#paint16_linear_0_3)"/>
<path d="M2815.78 3081.03C2815.78 3081.03 2819.05 3101.02 2818.63 3108.13C2818.22 3115.24 2739.28 3118.88 2738.48 3113.55C2737.68 3108.22 2751.53 3099.75 2761.27 3096.76C2771.02 3093.77 2799.54 3085.79 2799.54 3085.79L2815.78 3081.03Z" fill="url(#paint17_linear_0_3)"/>
<path d="M2796.62 3061.1L2799.14 3085.95C2799.14 3085.95 2808.31 3092.01 2816.39 3087.33L2820.43 3060.28L2796.62 3061.1Z" fill="url(#paint18_linear_0_3)"/>
<path d="M2956.62 3113.43C2956.62 3113.43 2959.89 3133.42 2959.47 3140.53C2959.05 3147.64 2880.12 3151.28 2879.32 3145.95C2878.52 3140.62 2892.37 3132.15 2902.11 3129.16C2911.85 3126.17 2940.38 3118.19 2940.38 3118.19L2956.62 3113.43Z" fill="url(#paint19_linear_0_3)"/>
<path d="M2937.46 3093.51L2939.98 3118.36C2939.98 3118.36 2949.15 3124.42 2957.23 3119.74L2961.27 3092.69L2937.46 3093.51Z" fill="url(#paint20_linear_0_3)"/>
<path d="M2810.94 2412.28C2801.82 2430.78 2792.69 2449.28 2783.57 2467.78C2776.23 2573.35 2772.58 2688.14 2774.93 2810.9C2776.67 2902.24 2781.55 2988.76 2788.57 3069.97C2800.94 3069.4 2813.31 3068.83 2825.68 3068.27C2843.57 3032.77 2864.69 2978.98 2866.63 2912.58C2868.66 2843.32 2847.66 2834.12 2848.99 2767.81C2850.72 2681.86 2886.76 2658.93 2905.96 2555.54C2913.3 2516 2918.25 2464.36 2912.37 2401.71C2878.56 2405.23 2844.75 2408.76 2810.94 2412.28Z" fill="url(#paint21_linear_0_3)"/>
<path opacity="0.3" d="M2912.37 2401.7C2894.11 2403.6 2875.85 2405.51 2857.59 2407.42C2824.72 2464.62 2815.55 2524.15 2821.31 2550.48C2829.47 2587.74 2851.05 2599.67 2849.87 2637.08C2848.7 2674.09 2826.89 2683.69 2813.06 2727.31C2803.48 2757.51 2806.01 2785.28 2811.46 2839.59C2822.43 2948.98 2848.85 2982.44 2826.72 3018.3C2820.43 3028.49 2809.1 3040.63 2786.91 3049.89C2787.45 3056.6 2787.99 3063.33 2788.56 3069.96C2800.93 3069.4 2813.3 3068.82 2825.67 3068.26C2843.56 3032.75 2864.68 2978.96 2866.62 2912.57C2868.65 2843.31 2847.65 2834.11 2848.98 2767.8C2850.71 2681.85 2886.75 2658.92 2905.95 2555.53C2913.3 2516 2918.25 2464.35 2912.37 2401.7Z" fill="url(#paint22_linear_0_3)"/>
<path d="M2860.03 2445.58C2877.16 2538.98 2892.29 2638.94 2904.09 2744.95C2918.34 2872.95 2925.95 2993.62 2928.94 3105.66C2942.52 3106.05 2956.1 3106.43 2969.68 3106.81C3023.19 3000.96 3026.46 2929.19 3018.74 2882.47C3015.77 2864.47 3007.69 2829.16 3005.85 2776.4C3004.57 2739.62 3006.91 2711.63 3009.84 2677.98C3016.27 2604.2 3024.06 2588.1 3025.18 2531.67C3026.23 2478.71 3026.45 2451.91 3011.33 2436.27C2971.51 2395.07 2867.89 2441.94 2860.03 2445.58Z" fill="url(#paint23_linear_0_3)"/>
<path d="M2566.35 2079.9C2557.32 2079.27 2548.29 2078.64 2539.26 2078.01C2517.96 2164.1 2533.24 2247.6 2581.32 2278.32C2656.44 2326.3 2796.05 2235.9 2826.31 2137.47C2839.59 2094.26 2836.57 2031.91 2810.03 2019.8C2802.66 2016.44 2791.23 2015.91 2766.46 2029.82C2692.49 2071.35 2690.55 2149.84 2652.95 2156.48C2636.23 2159.43 2609.23 2148.77 2566.35 2079.9Z" fill="url(#paint24_linear_0_3)"/>
<path d="M2773.18 2486.72C2760.17 2465.13 2776.51 2444.31 2780.23 2403.41C2784.45 2357.06 2766.59 2349.34 2748.93 2272.52C2737.19 2221.43 2725.91 2172.38 2739.37 2114.97C2745.82 2087.45 2756.76 2040.79 2795.38 2018.24C2815.31 2006.61 2842.53 2007.77 2896.14 2010.58C2962.44 2014.05 2995.59 2015.78 3020.31 2028.8C3023.93 2030.71 3099.14 2071.62 3104.32 2138.3C3109.59 2206.17 3035.68 2215.29 3025.82 2305.8C3021.39 2346.43 3029.28 2408.92 3034.4 2449.45C3039.31 2488.37 3042.69 2498.33 3035.01 2510.11C3016.5 2538.51 2959.83 2530.41 2846.49 2514.23C2802.02 2507.89 2782.89 2502.83 2773.18 2486.72Z" fill="url(#paint25_linear_0_3)"/>
<path d="M2945.63 2291.24C2950.42 2308.88 2967.66 2322.06 2979.66 2364.96C2982.25 2374.23 3000.7 2440.2 2976.77 2456.44C2962.95 2465.82 2950.54 2448.05 2916.99 2445.73C2858.85 2441.71 2831.16 2490.57 2793.18 2477.23C2786.59 2474.91 2777.89 2469.98 2769.21 2458.63C2767.48 2468.85 2767.78 2477.73 2773.19 2486.72C2782.9 2502.83 2802.03 2507.89 2846.49 2514.24C2959.83 2530.42 3016.5 2538.52 3035.01 2510.12C3042.69 2498.34 3039.31 2488.37 3034.4 2449.46C3029.28 2408.93 3021.4 2346.44 3025.82 2305.81C3035.68 2215.3 3109.59 2206.18 3104.32 2138.31C3102.91 2120.17 3096.24 2104.01 3087.31 2089.95C2993.54 2127.88 2930.56 2235.81 2945.63 2291.24Z" fill="url(#paint26_linear_0_3)"/>
<path d="M3064.06 2424.75L3045.3 2436.73C3041.93 2432.84 3034.13 2424.99 3021.96 2422.31C3008.24 2419.3 2992.49 2423.62 2992.13 2428C2991.84 2431.51 3001.43 2435.05 3002.91 2435.59C3014.88 2440.01 3023.76 2436.34 3028.6 2441.15C3030.31 2442.85 3032.44 2446.02 3037.35 2448.95C3038.64 2449.72 3039.99 2450.4 3040.7 2450.68C3048.69 2453.79 3062.39 2439.88 3063.57 2438.66L3064.06 2424.75Z" fill="url(#paint27_linear_0_3)"/>
<path d="M3008.63 2178.7C2995.06 2146.2 2985.66 2096.43 3007.09 2022.53C3148.33 2078.18 3220.36 2210.11 3192.23 2314.7C3169.05 2400.92 3084.69 2442.91 3065.88 2451.75C3061.5 2441.78 3057.12 2431.82 3052.75 2421.86C3074.56 2397.58 3099.13 2361.67 3095.65 2320.7C3090.83 2263.89 3036.11 2244.5 3008.63 2178.7Z" fill="url(#paint28_linear_0_3)"/>
<path d="M2899.6 1943.71C2899.6 1943.71 2900.72 1968.42 2908.38 1986.92C2915.31 2003.64 2951.76 2014.15 2959.15 2017.89C2966.54 2021.62 2945.31 2032.53 2923.98 2034.68C2902.66 2036.82 2841.76 2031.98 2830.79 2023.9C2819.81 2015.82 2839.61 2016.43 2854.83 2010.84C2870.05 2005.25 2878.85 1975.49 2876.16 1961.98C2873.49 1948.46 2899.6 1943.71 2899.6 1943.71Z" fill="url(#paint29_linear_0_3)"/>
<path d="M2865.88 1934.76C2854.82 1923.89 2853.27 1922.62 2852.07 1918.86C2847.23 1903.78 2858.93 1883.13 2874.27 1878.04C2875.07 1877.78 2885.36 1874.48 2889.28 1878.95C2892.62 1882.74 2887.71 1887.98 2890.04 1895.28C2892.23 1902.12 2898.15 1902.63 2909.14 1911.6C2918.19 1918.99 2923.82 1923.58 2925.12 1930.04C2927.8 1943.36 2911.67 1962.66 2897.4 1962.13C2892.28 1961.94 2890.88 1959.32 2865.88 1934.76Z" fill="url(#paint30_linear_0_3)"/>
<path d="M2896.01 1964.19C2896.01 1964.19 2884.25 1977.51 2866.33 1973.1C2850.29 1969.16 2854.38 1932.34 2866.12 1926.46C2870.04 1924.5 2877.15 1924.66 2882.5 1927.24C2885.66 1928.76 2886.54 1930.35 2891.75 1932.74C2896.56 1934.94 2898.08 1934.64 2899.38 1936.19C2901 1938.13 2901.69 1942.3 2896.63 1952.38C2900.28 1949.79 2904.21 1949.25 2906.63 1950.96C2907.01 1951.23 2907.99 1952.19 2908.42 1953.45C2909.95 1958.01 2905.21 1962.65 2896.01 1964.19Z" fill="url(#paint31_linear_0_3)"/>
<path d="M899.47 719.39C845.77 707.87 779.32 745.3 748.01 791.57C691.07 875.7 728.56 1021.13 825.13 1057.2C887.43 1080.47 968.3 1055.99 1003.73 1007.53C1035.96 963.45 1012.5 924.29 1052.65 884.37C1086.29 850.93 1114.59 863.54 1142.75 827.13C1163.48 800.32 1178.6 753.52 1157.57 720.82C1139.85 693.26 1101.77 684.01 1073.66 686.64C1022.57 691.41 1011.26 734.74 960.29 735.96C932.43 736.63 928 725.51 899.47 719.39Z" fill="url(#paint32_linear_0_3)"/>
<path d="M1122.73 813.69C1138.37 801.82 1187.64 831.89 1218.77 868.69C1255.33 911.93 1249.34 943.76 1279.93 996.13C1295.13 1022.17 1322.02 1057.8 1372.32 1091.43C1367.72 1100.46 1363.13 1109.5 1358.54 1118.53C1332.82 1117.75 1282.67 1112.3 1238.58 1077.43C1207.96 1053.21 1193.76 1023.5 1166.62 965.08C1139.37 906.44 1103.18 828.53 1122.73 813.69Z" fill="url(#paint33_linear_0_3)"/>
<path d="M1450.98 1618.14L1433.75 1581.54C1431.3 1576.34 1427.49 1571.9 1422.71 1568.71L1414.18 1563C1414.18 1563 1393.79 1562.46 1390.62 1575.28C1389.94 1591.56 1421.57 1627.92 1441.57 1642.37C1444.89 1644.77 1449.63 1647.96 1452.5 1646.32C1457.38 1643.52 1453.96 1628.55 1450.98 1618.14Z" fill="url(#paint34_linear_0_3)"/>
<path d="M1418.61 1543.1C1415.9 1558.8 1419.33 1566.98 1423.03 1571.57C1425.63 1574.8 1446.76 1609.63 1438.08 1615.26C1434.16 1617.8 1407.32 1584.47 1404.72 1579.36C1402.36 1574.74 1400.83 1575.83 1400.69 1563.23C1400.6 1554.93 1398.91 1548.26 1397.59 1544.08C1404.59 1543.75 1411.6 1543.42 1418.61 1543.1Z" fill="url(#paint35_linear_0_3)"/>
<path d="M1449.12 1418.68C1449.12 1418.68 1468.19 1441.43 1465.08 1466.37C1461.98 1491.31 1428.58 1454.85 1423.93 1442.52C1419.27 1430.2 1413.83 1412.64 1413.83 1412.64C1413.83 1412.64 1437.25 1398.08 1449.12 1418.68Z" fill="url(#paint36_linear_0_3)"/>
<path d="M1441.84 1383.08C1441.84 1383.08 1436.67 1409.59 1446.53 1423.58C1451.44 1430.55 1458.07 1436.46 1456.12 1442.13C1454.81 1445.93 1449.85 1448.66 1445.65 1448.23C1437.61 1447.4 1433.15 1435.07 1430 1426.38C1425.36 1413.53 1422.77 1386.05 1422.77 1386.05L1441.84 1383.08Z" fill="url(#paint37_linear_0_3)"/>
<path d="M1426.65 1405.42C1432.51 1403.28 1438.38 1401.15 1444.24 1399.01C1453.39 1378.12 1464.55 1343.8 1460.82 1302.08C1451.23 1194.81 1352.01 1137.96 1340.99 1131.88C1313.96 1145.44 1286.58 1164.58 1285.58 1188.7C1284.34 1218.98 1325.59 1234.99 1364.36 1279.26C1387.64 1305.84 1412.51 1345.44 1426.65 1405.42Z" fill="url(#paint38_linear_0_3)"/>
<path d="M1420.32 1555.37C1439.69 1479.69 1434.74 1417.92 1429.16 1382.35C1420.71 1328.57 1403.53 1219.19 1330.5 1178.4C1314.55 1169.49 1291.75 1161.52 1263.97 1136.75C1240.77 1116.07 1226.02 1094.32 1217.12 1079C1119.45 1050.35 1029.36 1061.96 989.61 1114.34C985.02 1120.39 973.52 1133.52 971.29 1152.88C966.27 1196.56 1009.19 1249.14 1057.34 1260.12C1118.54 1274.08 1154.05 1211.23 1208.28 1232.14C1223.45 1237.99 1236.31 1252.48 1262.03 1281.47C1294.75 1318.35 1313.14 1352.37 1320.1 1365.99C1340.82 1406.53 1356.53 1436.46 1358.82 1475.25C1359.35 1484.29 1359.67 1502.54 1370.26 1522.23C1378.38 1537.34 1389.4 1547.42 1397.59 1553.65C1405.17 1554.22 1412.75 1554.8 1420.32 1555.37Z" fill="url(#paint39_linear_0_3)"/>
<path opacity="0.3" d="M971.29 1152.88C973.51 1133.52 985.01 1120.39 989.61 1114.34C1029.36 1061.96 1119.45 1050.35 1217.12 1079C1226.02 1094.32 1240.77 1116.07 1263.97 1136.75C1291.76 1161.51 1314.56 1169.49 1330.5 1178.4C1375.1 1203.31 1398.85 1253.79 1412.52 1301.57C1392.23 1270.11 1374.86 1261.75 1361.42 1261.6C1342.18 1261.39 1333.59 1277.83 1310.62 1275.59C1286.07 1273.19 1280.46 1252.89 1260.55 1250.56C1254.59 1249.86 1247.26 1250.78 1238.46 1255.47C1226.71 1243.17 1217.96 1235.89 1208.27 1232.16C1154.04 1211.25 1118.54 1274.1 1057.33 1260.14C1009.18 1249.14 966.27 1196.56 971.29 1152.88Z" fill="url(#paint40_linear_0_3)"/>
<path d="M1369.72 1212.25C1358.67 1211.66 1341.64 1211.32 1321.11 1213.35C1223.66 1222.98 1196.79 1271.19 1116.25 1282.95C1097.2 1285.73 1012.36 1298.12 975.62 1249.08C949.24 1213.87 953.23 1153.2 982.09 1129.34C994.3 1119.24 1006.39 1119.52 1084.59 1120.23C1114.04 1120.5 1143.49 1120.59 1172.94 1120.97C1297.6 1122.56 1321.44 1113.92 1344.13 1134.54C1354.71 1144.16 1370.18 1164.82 1369.72 1212.25Z" fill="url(#paint41_linear_0_3)"/>
<path d="M1106.54 812.26C1106.54 812.26 1008.14 783.56 964.8 832.62C956.84 841.63 950.55 853.47 945.98 876.33C922.65 992.84 1010.88 1062.81 976.12 1124.28C962.32 1148.69 938 1156.04 920.73 1199.91C917.8 1207.34 907.23 1234.2 916.93 1242.66C925.48 1250.11 939.54 1234.38 964.52 1237.42C990.97 1240.64 997.15 1260.96 1014.95 1258C1026.55 1256.07 1031.56 1246.16 1048.65 1221.47C1073.4 1185.71 1085.77 1167.84 1094.64 1161.57C1129.64 1136.84 1156.69 1169.09 1196.59 1144.6C1211.04 1135.73 1264.57 1066.81 1248.82 1085.74C1211.33 1038.97 1202.62 1000.39 1201.73 973.56C1200.75 944.15 1209.23 930.78 1201.73 896.02C1201.73 896.02 1193.37 857.23 1163.19 823.92C1158.85 819.13 1153.69 814.15 1106.54 812.26Z" fill="url(#paint42_linear_0_3)"/>
<path d="M1074.95 748.44C1076.28 754.67 1083.07 788.08 1069.4 796.67C1066.44 798.53 1060.74 799.6 1049.36 801.74C1041.91 803.14 1035.65 803.99 1031.24 804.52C1051.2 831.49 1082.15 845.42 1110.97 839.86C1131.25 835.95 1144.56 823.52 1150.44 817.17C1144.56 812.61 1135.89 806.97 1124.44 802.81C1116.94 800.09 1110.09 798.66 1104.44 797.91C1103.44 791.46 1102.43 785 1101.42 778.55C1092.58 768.5 1083.77 758.47 1074.95 748.44Z" fill="url(#paint43_linear_0_3)"/>
<path d="M1074.31 765.09C1074.31 765.09 1076.78 789.57 1100.58 793.89C1121.89 797.75 1137.93 746.26 1127.02 732.94C1123.38 728.5 1114.4 724.27 1106.62 724.49C1101.14 724.65 1082.65 731.69 1080.07 750.2C1076.39 746.32 1071.8 745.2 1069.53 746.83C1066.66 748.89 1068.2 754.88 1068.55 756.24C1069.75 760.94 1072.83 763.86 1074.31 765.09Z" fill="url(#paint44_linear_0_3)"/>
<path opacity="0.3" d="M1248.81 1085.73C1244.3 1080.1 1240.23 1074.6 1236.51 1069.22C1215.84 1062.29 1197.95 1059.72 1183.52 1059.01C1150.97 1057.43 1133.15 1065.09 1111 1051.76C1085.85 1036.63 1090.3 1015.62 1066.04 1003.9C1040.5 991.56 1022.44 1005.51 997.87 1001C983.03 998.28 964.96 988.36 946.51 959.41C960.63 1029.1 1001.71 1079.02 976.11 1124.29C962.31 1148.7 937.99 1156.05 920.72 1199.92C917.79 1207.35 907.22 1234.21 916.92 1242.67C925.47 1250.12 939.53 1234.39 964.51 1237.43C990.96 1240.65 997.14 1260.97 1014.94 1258.01C1026.54 1256.08 1031.55 1246.17 1048.64 1221.48C1073.39 1185.72 1085.76 1167.85 1094.63 1161.58C1129.63 1136.85 1156.68 1169.1 1196.58 1144.61C1211.03 1135.72 1264.56 1066.8 1248.81 1085.73Z" fill="url(#paint45_linear_0_3)"/>
<path d="M1278.47 1097.69L1055.82 1108.52C1052.76 1108.67 1049.96 1110.31 1048.34 1112.91L1042.18 1122.8C1039.11 1127.72 1042.8 1134.07 1048.59 1133.85L1284.43 1124.87L1278.47 1097.69Z" fill="url(#paint46_linear_0_3)"/>
<path d="M1510.04 973.71L1280.02 978.17C1273.21 978.3 1266.98 982.01 1263.62 987.93L1183.97 1128.07L1426.9 1118.39C1433.57 1118.12 1439.65 1114.51 1443.08 1108.79L1516.88 985.5C1520.02 980.24 1516.16 973.59 1510.04 973.71Z" fill="url(#paint47_linear_0_3)"/>
<path opacity="0.3" d="M1263.62 987.92C1266.98 982 1273.22 978.29 1280.02 978.16L1285.06 978.06C1285.81 985.48 1288.09 992.28 1292.63 997.76C1306.81 1014.88 1330.38 1004.32 1347.94 1022.44C1367.23 1042.34 1349.41 1066.04 1366.66 1084.56C1384.82 1104.06 1414.18 1088.18 1447.93 1100.66L1443.07 1108.78C1439.64 1114.51 1433.56 1118.12 1426.89 1118.38L1183.96 1128.06L1263.62 987.92Z" fill="url(#paint48_linear_0_3)"/>
<path d="M1073.96 1090.25C1076.86 1082.6 1079.76 1074.95 1082.65 1067.29C1050.62 1058.51 1006.32 1045.53 960.89 1029.3C953.77 1026.76 945.32 1023.61 942.55 1016.12C934.78 995.12 984.17 973.35 1003.37 927.49C1021.13 885.07 1022.17 821.56 1001.56 814.61C958.68 800.14 795.78 994.08 850.1 1073.88C880.81 1118.98 975.46 1126.17 1073.96 1090.25Z" fill="url(#paint49_linear_0_3)"/>
<path d="M1082.65 1067.29C1102.76 1056.61 1126.83 1067.56 1128.38 1068.29C1132.8 1070.38 1139.23 1074.09 1145.73 1080.73C1146.46 1081.73 1155.19 1093.82 1152.01 1097.69C1149.46 1100.79 1139.6 1098.22 1127.74 1090.85C1122.77 1090.15 1115.37 1089.51 1106.51 1090.33C1090.24 1091.83 1082.78 1096.97 1076.87 1092.53C1072.54 1089.28 1071.07 1082.41 1072.63 1077.31C1074.3 1071.82 1079.25 1069.1 1082.65 1067.29Z" fill="url(#paint50_linear_0_3)"/>
<path d="M2340.01 723.43L1615.51 694.75C1603.7 694.28 1593.82 704.5 1593.82 717.58V743.93V757.98V1138.12C1593.82 1151.21 1603.76 1162.17 1615.57 1162.55L1625.35 1162.87L1636.98 1138.47L2348.71 1160.03C2360.29 1160.38 2360.82 1176.57 2360.82 1163.62V787.64V773.75V747.69C2360.81 734.75 2351.57 723.89 2340.01 723.43Z" fill="url(#paint51_linear_0_3)"/>
<path d="M2372.14 774.34V1164.66C2372.14 1176.63 2364.42 1186.24 2354.07 1187.35C2353.19 1187.46 2352.45 1187.5 2351.55 1187.47L1625.38 1163.51C1613.54 1163.12 1603.51 1152.15 1603.51 1139.05V744.45L2372.14 774.34Z" fill="white"/>
<path d="M2351.7 723.99L1625.92 695.26C1614.09 694.79 1604.49 705.03 1604.49 718.13V758.57L2372.67 788.28V748.28C2372.67 735.33 2363.28 724.45 2351.7 723.99Z" fill="url(#paint52_linear_0_3)"/>
<path d="M1653.71 727.98C1653.71 733.8 1649.45 738.35 1644.19 738.15C1638.93 737.94 1634.67 733.06 1634.67 727.24C1634.67 721.42 1638.93 716.87 1644.19 717.07C1649.45 717.27 1653.71 722.16 1653.71 727.98Z" fill="white"/>
<path opacity="0.2" d="M1753.08 1116.01L1698.47 1114.17V818.38L1753.08 820.45V1116.01Z" fill="url(#paint53_linear_0_3)"/>
<path d="M1753.08 1116.01L1698.47 1114.17V973.74L1753.08 975.69V1116.01Z" fill="url(#paint54_linear_0_3)"/>
<path opacity="0.2" d="M1828.91 1118.57L1774.42 1116.73V821.26L1828.91 823.32V1118.57Z" fill="url(#paint55_linear_0_3)"/>
<path d="M1828.91 1118.57L1774.42 1116.73V1046.59L1828.91 1048.48V1118.57Z" fill="url(#paint56_linear_0_3)"/>
<path opacity="0.2" d="M1904.58 1121.12L1850.21 1119.28V824.13L1904.58 826.19V1121.12Z" fill="url(#paint57_linear_0_3)"/>
<path d="M1904.58 1121.12L1850.21 1119.28V1082.5L1904.58 1084.36V1121.12Z" fill="url(#paint58_linear_0_3)"/>
<path opacity="0.2" d="M1980.08 1123.66L1925.83 1121.83V826.99L1980.08 829.05V1123.66Z" fill="url(#paint59_linear_0_3)"/>
<path d="M1980.08 1123.66L1925.83 1121.83V890.86L1980.08 892.87V1123.66Z" fill="url(#paint60_linear_0_3)"/>
<path opacity="0.2" d="M2055.43 1126.2L2001.29 1124.37V829.85L2055.43 831.9V1126.2Z" fill="url(#paint61_linear_0_3)"/>
<path d="M2055.43 1126.2L2001.29 1124.37V919.87L2055.43 921.85V1126.2Z" fill="url(#paint62_linear_0_3)"/>
<path opacity="0.2" d="M2130.61 1128.73L2076.59 1126.91V832.7L2130.61 834.75V1128.73Z" fill="url(#paint63_linear_0_3)"/>
<path d="M2130.61 1128.73L2076.59 1126.91V875.48L2130.61 877.49V1128.73Z" fill="url(#paint64_linear_0_3)"/>
<path opacity="0.2" d="M2205.63 1131.25L2151.72 1129.44V835.55L2205.63 837.59V1131.25Z" fill="url(#paint65_linear_0_3)"/>
<path d="M2205.63 1131.25L2151.72 1129.44V948.92L2205.63 950.87V1131.25Z" fill="url(#paint66_linear_0_3)"/>
<path opacity="0.2" d="M2280.49 1133.77L2226.7 1131.96V838.39L2280.49 840.43V1133.77Z" fill="url(#paint67_linear_0_3)"/>
<path d="M2280.49 1133.77L2226.7 1131.96V1030.04L2280.49 1031.93V1133.77Z" fill="url(#paint68_linear_0_3)"/>
<path opacity="0.4" d="M2354.34 1187.38C2353.46 1187.49 2352.59 1187.52 2351.69 1187.49L1625.44 1163.53C1613.6 1163.14 1603.52 1152.16 1603.52 1139.07V764.09C1610.81 785.02 1629.37 824.18 1697.98 835.22C1709.9 837.16 1723.57 838.25 1738.68 838.24C1743.45 838.23 1748.3 838.35 1752.96 838.56C1760.23 838.86 1767.39 839.41 1774.36 840.21C1793.69 842.39 1811.94 846.37 1828.88 851.87C1836.24 854.25 1843.36 856.94 1850.21 859.91C1870.59 868.68 1888.82 879.81 1904.58 892.83C1912.26 899.17 1919.36 905.95 1925.84 913.1C1954.38 944.55 1971.09 983.23 1973.71 1023.98C1974.16 1030.86 1976.36 1036.79 1980.11 1041.92C1984.86 1048.44 1992.09 1053.68 2001.3 1058.02C2015.33 1064.64 2033.97 1069.12 2055.44 1072.7C2062.24 1073.84 2069.31 1074.86 2076.6 1075.86C2093.61 1078.16 2111.87 1080.19 2130.62 1082.39C2137.6 1083.22 2144.67 1084.07 2151.75 1084.99C2169.73 1087.3 2187.9 1089.96 2205.65 1093.37C2212.76 1094.74 2219.77 1096.21 2226.71 1097.86C2245.76 1102.36 2263.96 1107.94 2280.5 1115.21C2315.08 1130.46 2342.29 1152.87 2354.34 1187.38Z" fill="#D8DEE8"/>
<path d="M937.9 3004.27C980 3004.7 1034.52 2997.87 1088.86 2968.91C1147.65 2937.58 1226.67 2869.43 1212 2820.72C1206.52 2802.53 1187.57 2785.69 1169.61 2785.52C1143.07 2785.28 1136.72 2821.61 1087.39 2857.33C1078.27 2863.93 1031.14 2898.06 1010.54 2883.3C1000.3 2875.96 998.69 2858.01 1001.65 2844.74C1010.32 2805.94 1058.8 2804.2 1108.69 2765.83C1159.27 2726.92 1204.95 2655.24 1187.24 2602.42C1177.06 2572.07 1145.29 2545.97 1122.46 2550.46C1112.71 2552.38 1105.98 2559.61 1071.53 2619.38C1043.26 2668.44 1036.65 2682.89 1020.94 2686.37C1004.77 2689.96 980.89 2681.5 972.99 2665.18C952.41 2622.67 1062.31 2572.48 1081.92 2460.44C1090.71 2410.23 1083.74 2334.02 1039.36 2313.85C1009.36 2300.21 963.75 2312.85 945.26 2339.84C928.59 2364.17 944.33 2385 928.21 2441.56C923.32 2458.72 913.25 2494.04 898.62 2494.63C881.45 2495.32 866.56 2447.81 863.17 2436.26C837.65 2349.3 879.41 2309.5 851.9 2265.93C830.45 2231.96 778.74 2214.45 735.42 2226.76C697.52 2237.53 664.93 2271.46 659.58 2309.16C654.14 2347.52 683.11 2388.79 741.07 2471.32C768.55 2510.46 790.81 2537.23 786.18 2573.27C783.92 2590.84 774.71 2615.01 761.88 2616.15C733.56 2618.65 729.89 2505.2 665.39 2481.95C632.37 2470.05 588.8 2483.72 567.61 2512.55C541.65 2547.86 552.06 2602.15 577.99 2632.52C611.82 2672.15 652.31 2647.96 718.58 2693.21C747.98 2713.28 793.32 2754.45 783.48 2784.24C779.19 2797.21 764.14 2808.95 748.74 2809.31C714.22 2810.13 707.95 2753.12 655.22 2723.58C617.23 2702.3 562.33 2699.32 547.33 2720.47C526.16 2750.34 584.93 2827.71 616.75 2862.43C655.23 2904.39 747.55 2985.71 937.9 3004.27Z" fill="url(#paint69_linear_0_3)"/>
<g opacity="0.5">
<path d="M922.82 2984.95C936.78 2891.45 891.74 2694.59 854.6 2600.15C818.41 2508.12 788.7 2364.9 788.4 2363.46L781.45 2364.89C781.75 2366.33 811.58 2510.15 847.99 2602.74C884.85 2696.46 929.59 2891.54 915.79 2983.9L922.82 2984.95Z" fill="white"/>
</g>
<path d="M1035.34 3025.31C1070.73 2984.43 1123.97 2909.71 1141.69 2804.96C1149 2761.8 1163.26 2677.49 1117.88 2599.6C1095.26 2560.78 1045.2 2501.88 1006.71 2514.13C981.94 2522.01 963.71 2558.8 967.85 2588.39C972.02 2618.22 996.48 2623.14 1018.94 2675.14C1027.25 2694.38 1036.69 2716.94 1026.87 2728.33C1018.66 2737.84 998.46 2737.89 983.97 2730.45C954.06 2715.08 967.22 2677.3 936.14 2646.58C914.04 2624.73 875.09 2611.9 856.48 2626.51C840.32 2639.19 839.98 2672.17 851.2 2695.18C869.16 2732.02 907.89 2725.16 929.12 2765.58C938.54 2783.51 944.02 2809.82 933.54 2819.08C921.6 2829.64 890.39 2816.79 870.96 2802.19C845.31 2782.92 845.91 2764.91 828.22 2761.07C808.49 2756.78 781.85 2773.55 776.06 2794.22C767.96 2823.17 801.24 2858.16 828.61 2874.52C863.65 2895.46 891.78 2887.53 907.51 2913.26C913.28 2922.7 918 2937.7 911.83 2945.99C903.03 2957.82 875.65 2951.2 857.46 2946.81C813.21 2936.12 802.32 2918.75 785.54 2925.21C768.55 2931.75 757.74 2958.03 763.08 2977.61C766.05 2988.5 776.33 3005.87 833.63 3021.3C873.75 3032.1 941.75 3043.26 1035.34 3025.31Z" fill="url(#paint70_linear_0_3)"/>
</g>
<defs>
<filter id="filter0_d_0_3" x="0" y="0" width="3718" height="3718" filterUnits="userSpaceOnUse" color-interpolation-filters="sRGB">
<feFlood flood-opacity="0" result="BackgroundImageFix"/>
<feColorMatrix in="SourceAlpha" type="matrix" values="0 0 0 0 0 0 0 0 0 0 0 0 0 0 0 0 0 0 127 0" result="hardAlpha"/>
<feOffset dy="4"/>
<feGaussianBlur stdDeviation="2"/>
<feComposite in2="hardAlpha" operator="out"/>
<feColorMatrix type="matrix" values="0 0 0 0 0 0 0 0 0 0 0 0 0 0 0 0 0 0 0.25 0"/>
<feBlend mode="normal" in2="BackgroundImageFix" result="effect1_dropShadow_0_3"/>
<feBlend mode="normal" in="SourceGraphic" in2="effect1_dropShadow_0_3" result="shape"/>
</filter>
<linearGradient id="paint0_linear_0_3" x1="1692.85" y1="1415.68" x2="3052.49" y2="1415.68" gradientUnits="userSpaceOnUse">
<stop offset="0.00359712" stop-color="#E38DDD"/>
<stop offset="1" stop-color="#9571F6"/>
</linearGradient>
<linearGradient id="paint1_linear_0_3" x1="1109.19" y1="2158.81" x2="467.29" y2="4649.75" gradientUnits="userSpaceOnUse">
<stop stop-color="#311944"/>
<stop offset="1" stop-color="#893976"/>
</linearGradient>
<linearGradient id="paint2_linear_0_3" x1="1364.91" y1="1037.02" x2="1325.65" y2="2088.41" gradientUnits="userSpaceOnUse">
<stop stop-color="#311944"/>
<stop offset="1" stop-color="#893976"/>
</linearGradient>
<linearGradient id="paint3_linear_0_3" x1="1745.18" y1="1865.05" x2="1611.17" y2="4025.89" gradientUnits="userSpaceOnUse">
<stop stop-color="#311944"/>
<stop offset="1" stop-color="#893976"/>
</linearGradient>
<linearGradient id="paint4_linear_0_3" x1="2043.42" y1="1809.15" x2="3725.75" y2="520.64" gradientUnits="userSpaceOnUse">
<stop stop-color="#311944"/>
<stop offset="1" stop-color="#893976"/>
</linearGradient>
<linearGradient id="paint5_linear_0_3" x1="2722.66" y1="562.985" x2="2174.6" y2="2629.95" gradientUnits="userSpaceOnUse">
<stop stop-color="#311944"/>
<stop offset="1" stop-color="#893976"/>
</linearGradient>
<linearGradient id="paint6_linear_0_3" x1="1897.93" y1="1951.67" x2="2020.88" y2="2064.03" gradientUnits="userSpaceOnUse">
<stop stop-color="#311944"/>
<stop offset="1" stop-color="#893976"/>
</linearGradient>
<linearGradient id="paint7_linear_0_3" x1="1649.9" y1="2228.38" x2="1879.93" y2="2228.38" gradientUnits="userSpaceOnUse">
<stop stop-color="#311944"/>
<stop offset="1" stop-color="#893976"/>
</linearGradient>
<linearGradient id="paint8_linear_0_3" x1="1696.22" y1="2228.36" x2="1835.97" y2="2228.36" gradientUnits="userSpaceOnUse">
<stop stop-color="#311944"/>
<stop offset="1" stop-color="#893976"/>
</linearGradient>
<linearGradient id="paint9_linear_0_3" x1="1125.72" y1="2160.99" x2="490.784" y2="4624.9" gradientUnits="userSpaceOnUse">
<stop stop-color="#AB316D"/>
<stop offset="1" stop-color="#792D3D"/>
</linearGradient>
<linearGradient id="paint10_linear_0_3" x1="1415.27" y1="135.196" x2="1376.04" y2="1185.85" gradientUnits="userSpaceOnUse">
<stop stop-color="#FFC444"/>
<stop offset="0.5407" stop-color="#F8964E"/>
<stop offset="0.9964" stop-color="#F36F56"/>
</linearGradient>
<linearGradient id="paint11_linear_0_3" x1="1847.1" y1="478.945" x2="1714.3" y2="2620.4" gradientUnits="userSpaceOnUse">
<stop stop-color="#FFC444"/>
<stop offset="0.5407" stop-color="#F8964E"/>
<stop offset="0.9964" stop-color="#F36F56"/>
</linearGradient>
<linearGradient id="paint12_linear_0_3" x1="1546.54" y1="2201.09" x2="3224.22" y2="916.141" gradientUnits="userSpaceOnUse">
<stop stop-color="#FFC444"/>
<stop offset="0.2965" stop-color="#FBAB49"/>
<stop offset="0.9964" stop-color="#F36F56"/>
</linearGradient>
<linearGradient id="paint13_linear_0_3" x1="2140.25" y1="2393.7" x2="942.921" y2="4058.55" gradientUnits="userSpaceOnUse">
<stop stop-color="#FFC444"/>
<stop offset="0.9964" stop-color="#F36F56"/>
</linearGradient>
<linearGradient id="paint14_linear_0_3" x1="-20850.6" y1="10412.6" x2="-19465.9" y2="10419" gradientUnits="userSpaceOnUse">
<stop stop-color="#AA80F9"/>
<stop offset="0.9964" stop-color="#6165D7"/>
</linearGradient>
<linearGradient id="paint15_linear_0_3" x1="1361.52" y1="2781.38" x2="2042.45" y2="1882.33" gradientUnits="userSpaceOnUse">
<stop stop-color="#AA80F9"/>
<stop offset="0.9964" stop-color="#6165D7"/>
</linearGradient>
<linearGradient id="paint16_linear_0_3" x1="2516.35" y1="2032.88" x2="2622.05" y2="2140.46" gradientUnits="userSpaceOnUse">
<stop stop-color="#FFC444"/>
<stop offset="0.9964" stop-color="#F36F56"/>
</linearGradient>
<linearGradient id="paint17_linear_0_3" x1="2778.35" y1="3054.84" x2="2777.46" y2="2816.15" gradientUnits="userSpaceOnUse">
<stop stop-color="#AA80F9"/>
<stop offset="0.9964" stop-color="#6165D7"/>
</linearGradient>
<linearGradient id="paint18_linear_0_3" x1="2802" y1="3131.53" x2="2813.36" y2="3008.2" gradientUnits="userSpaceOnUse">
<stop stop-color="#FFC444"/>
<stop offset="0.9964" stop-color="#F36F56"/>
</linearGradient>
<linearGradient id="paint19_linear_0_3" x1="2919.07" y1="3054.31" x2="2918.18" y2="2815.63" gradientUnits="userSpaceOnUse">
<stop stop-color="#AA80F9"/>
<stop offset="0.9964" stop-color="#6165D7"/>
</linearGradient>
<linearGradient id="paint20_linear_0_3" x1="2944.61" y1="3144.67" x2="2955.98" y2="3021.34" gradientUnits="userSpaceOnUse">
<stop stop-color="#FFC444"/>
<stop offset="0.9964" stop-color="#F36F56"/>
</linearGradient>
<linearGradient id="paint21_linear_0_3" x1="2806.31" y1="2510.09" x2="2893.79" y2="2957.36" gradientUnits="userSpaceOnUse">
<stop stop-color="#311944"/>
<stop offset="1" stop-color="#893976"/>
</linearGradient>
<linearGradient id="paint22_linear_0_3" x1="2762.65" y1="2728.8" x2="2894.09" y2="2739.33" gradientUnits="userSpaceOnUse">
<stop stop-color="#311944"/>
<stop offset="1" stop-color="#893976"/>
</linearGradient>
<linearGradient id="paint23_linear_0_3" x1="2835.35" y1="2753.52" x2="3034.88" y2="2769.51" gradientUnits="userSpaceOnUse">
<stop stop-color="#311944"/>
<stop offset="1" stop-color="#893976"/>
</linearGradient>
<linearGradient id="paint24_linear_0_3" x1="2677.74" y1="2094.94" x2="2825.37" y2="3043.02" gradientUnits="userSpaceOnUse">
<stop stop-color="#AA80F9"/>
<stop offset="0.9964" stop-color="#6165D7"/>
</linearGradient>
<linearGradient id="paint25_linear_0_3" x1="2991.71" y1="3135.6" x2="3063.12" y2="4092.44" gradientUnits="userSpaceOnUse">
<stop stop-color="#AA80F9"/>
<stop offset="0.9964" stop-color="#6165D7"/>
</linearGradient>
<linearGradient id="paint26_linear_0_3" x1="3234.46" y1="2809.35" x2="2840.39" y2="2134.34" gradientUnits="userSpaceOnUse">
<stop stop-color="#AA80F9"/>
<stop offset="0.9964" stop-color="#6165D7"/>
</linearGradient>
<linearGradient id="paint27_linear_0_3" x1="3094.77" y1="2342.63" x2="3011.66" y2="2454.9" gradientUnits="userSpaceOnUse">
<stop stop-color="#FFC444"/>
<stop offset="0.9964" stop-color="#F36F56"/>
</linearGradient>
<linearGradient id="paint28_linear_0_3" x1="3166.16" y1="3122.58" x2="3237.56" y2="4079.42" gradientUnits="userSpaceOnUse">
<stop stop-color="#AA80F9"/>
<stop offset="0.9964" stop-color="#6165D7"/>
</linearGradient>
<linearGradient id="paint29_linear_0_3" x1="2858.75" y1="2062.86" x2="2938.76" y2="1963.31" gradientUnits="userSpaceOnUse">
<stop stop-color="#FFC444"/>
<stop offset="0.9964" stop-color="#F36F56"/>
</linearGradient>
<linearGradient id="paint30_linear_0_3" x1="2919.59" y1="2026.29" x2="2877.18" y2="1886.79" gradientUnits="userSpaceOnUse">
<stop stop-color="#444B8C"/>
<stop offset="0.9964" stop-color="#3E4177"/>
</linearGradient>
<linearGradient id="paint31_linear_0_3" x1="2811.44" y1="1977.61" x2="2930.72" y2="1924.52" gradientUnits="userSpaceOnUse">
<stop stop-color="#FFC444"/>
<stop offset="0.9964" stop-color="#F36F56"/>
</linearGradient>
<linearGradient id="paint32_linear_0_3" x1="741.954" y1="890.071" x2="1157.66" y2="865.844" gradientUnits="userSpaceOnUse">
<stop stop-color="#444B8C"/>
<stop offset="0.9964" stop-color="#26264F"/>
</linearGradient>
<linearGradient id="paint33_linear_0_3" x1="1154.08" y1="667.268" x2="1270.93" y2="1052.62" gradientUnits="userSpaceOnUse">
<stop stop-color="#FFC444"/>
<stop offset="0.0564" stop-color="#FDB647"/>
<stop offset="0.1813" stop-color="#F99C4C"/>
<stop offset="0.3198" stop-color="#F78851"/>
<stop offset="0.4772" stop-color="#F57A54"/>
<stop offset="0.6695" stop-color="#F37155"/>
<stop offset="0.9964" stop-color="#F36F56"/>
</linearGradient>
<linearGradient id="paint34_linear_0_3" x1="1453.7" y1="1327.61" x2="1425.73" y2="1581.2" gradientUnits="userSpaceOnUse">
<stop stop-color="#444B8C"/>
<stop offset="0.9964" stop-color="#26264F"/>
</linearGradient>
<linearGradient id="paint35_linear_0_3" x1="1528.86" y1="1392.23" x2="1404.87" y2="1602" gradientUnits="userSpaceOnUse">
<stop stop-color="#311944"/>
<stop offset="1" stop-color="#A03976"/>
</linearGradient>
<linearGradient id="paint36_linear_0_3" x1="1451.82" y1="1327.41" x2="1423.86" y2="1580.99" gradientUnits="userSpaceOnUse">
<stop stop-color="#444B8C"/>
<stop offset="0.9964" stop-color="#26264F"/>
</linearGradient>
<linearGradient id="paint37_linear_0_3" x1="1440.9" y1="1417.77" x2="1480.99" y2="1522.19" gradientUnits="userSpaceOnUse">
<stop stop-color="#311944"/>
<stop offset="1" stop-color="#A03976"/>
</linearGradient>
<linearGradient id="paint38_linear_0_3" x1="10510.7" y1="10583.3" x2="10181.1" y2="10246.6" gradientUnits="userSpaceOnUse">
<stop stop-color="#AA80F9"/>
<stop offset="0.9964" stop-color="#6165D7"/>
</linearGradient>
<linearGradient id="paint39_linear_0_3" x1="1302.8" y1="1587.65" x2="1213.46" y2="1304.92" gradientUnits="userSpaceOnUse">
<stop stop-color="#AA80F9"/>
<stop offset="0.9964" stop-color="#6165D7"/>
</linearGradient>
<linearGradient id="paint40_linear_0_3" x1="1302.79" y1="1587.65" x2="1213.46" y2="1304.92" gradientUnits="userSpaceOnUse">
<stop stop-color="#AA80F9"/>
<stop offset="0.9964" stop-color="#6165D7"/>
</linearGradient>
<linearGradient id="paint41_linear_0_3" x1="10431" y1="10661.4" x2="10101.3" y2="10324.7" gradientUnits="userSpaceOnUse">
<stop stop-color="#AA80F9"/>
<stop offset="0.9964" stop-color="#6165D7"/>
</linearGradient>
<linearGradient id="paint42_linear_0_3" x1="942.667" y1="1167.09" x2="1250.69" y2="777.395" gradientUnits="userSpaceOnUse">
<stop stop-color="#FFC444"/>
<stop offset="0.9964" stop-color="#F36F56"/>
</linearGradient>
<linearGradient id="paint43_linear_0_3" x1="1070.66" y1="703.899" x2="1102.46" y2="872.551" gradientUnits="userSpaceOnUse">
<stop stop-color="#311944"/>
<stop offset="1" stop-color="#A03976"/>
</linearGradient>
<linearGradient id="paint44_linear_0_3" x1="1011.04" y1="604.924" x2="1127.72" y2="796.273" gradientUnits="userSpaceOnUse">
<stop stop-color="#311944"/>
<stop offset="1" stop-color="#A03976"/>
</linearGradient>
<linearGradient id="paint45_linear_0_3" x1="1251.68" y1="1108.85" x2="912.915" y2="1108.85" gradientUnits="userSpaceOnUse">
<stop stop-color="#FFC444"/>
<stop offset="0.9964" stop-color="#F36F56"/>
</linearGradient>
<linearGradient id="paint46_linear_0_3" x1="1284.43" y1="1115.78" x2="1041.07" y2="1115.78" gradientUnits="userSpaceOnUse">
<stop stop-color="#40447E"/>
<stop offset="0.9964" stop-color="#3C3B6B"/>
</linearGradient>
<linearGradient id="paint47_linear_0_3" x1="1440.05" y1="962.267" x2="1280.5" y2="1120.54" gradientUnits="userSpaceOnUse">
<stop stop-color="#40447E"/>
<stop offset="0.9964" stop-color="#3C3B6B"/>
</linearGradient>
<linearGradient id="paint48_linear_0_3" x1="1440.05" y1="962.267" x2="1280.5" y2="1120.54" gradientUnits="userSpaceOnUse">
<stop stop-color="#40447E"/>
<stop offset="0.9964" stop-color="#3C3B6B"/>
</linearGradient>
<linearGradient id="paint49_linear_0_3" x1="884.569" y1="1121.74" x2="1203.4" y2="718.379" gradientUnits="userSpaceOnUse">
<stop stop-color="#FFC444"/>
<stop offset="0.9964" stop-color="#F36F56"/>
</linearGradient>
<linearGradient id="paint50_linear_0_3" x1="1132.02" y1="1067.79" x2="1051.13" y2="1144.03" gradientUnits="userSpaceOnUse">
<stop stop-color="#311944"/>
<stop offset="1" stop-color="#A03976"/>
</linearGradient>
<linearGradient id="paint51_linear_0_3" x1="2112.36" y1="519.319" x2="1790.96" y2="1522.31" gradientUnits="userSpaceOnUse">
<stop stop-color="#311944"/>
<stop offset="1" stop-color="#893976"/>
</linearGradient>
<linearGradient id="paint52_linear_0_3" x1="2048.22" y1="652.149" x2="1729.54" y2="1173.12" gradientUnits="userSpaceOnUse">
<stop stop-color="#FF9085"/>
<stop offset="1" stop-color="#FB6FBB"/>
</linearGradient>
<linearGradient id="paint53_linear_0_3" x1="1698.47" y1="967.197" x2="1753.08" y2="967.197" gradientUnits="userSpaceOnUse">
<stop stop-color="#FF9085"/>
<stop offset="1" stop-color="#FB6FBB"/>
</linearGradient>
<linearGradient id="paint54_linear_0_3" x1="1757.21" y1="946.771" x2="1682.69" y2="1179.31" gradientUnits="userSpaceOnUse">
<stop stop-color="#FF9085"/>
<stop offset="1" stop-color="#FB6FBB"/>
</linearGradient>
<linearGradient id="paint55_linear_0_3" x1="1774.42" y1="969.913" x2="1828.91" y2="969.913" gradientUnits="userSpaceOnUse">
<stop stop-color="#FF9085"/>
<stop offset="1" stop-color="#FB6FBB"/>
</linearGradient>
<linearGradient id="paint56_linear_0_3" x1="1818.94" y1="1028.67" x2="1777.99" y2="1156.45" gradientUnits="userSpaceOnUse">
<stop stop-color="#FF9085"/>
<stop offset="1" stop-color="#FB6FBB"/>
</linearGradient>
<linearGradient id="paint57_linear_0_3" x1="1850.21" y1="972.622" x2="1904.58" y2="972.622" gradientUnits="userSpaceOnUse">
<stop stop-color="#FF9085"/>
<stop offset="1" stop-color="#FB6FBB"/>
</linearGradient>
<linearGradient id="paint58_linear_0_3" x1="1887.94" y1="1068.88" x2="1862.94" y2="1146.92" gradientUnits="userSpaceOnUse">
<stop stop-color="#FF9085"/>
<stop offset="1" stop-color="#FB6FBB"/>
</linearGradient>
<linearGradient id="paint59_linear_0_3" x1="1925.83" y1="975.326" x2="1980.08" y2="975.326" gradientUnits="userSpaceOnUse">
<stop stop-color="#FF9085"/>
<stop offset="1" stop-color="#FB6FBB"/>
</linearGradient>
<linearGradient id="paint60_linear_0_3" x1="2002.6" y1="852.323" x2="1884.92" y2="1219.58" gradientUnits="userSpaceOnUse">
<stop stop-color="#FF9085"/>
<stop offset="1" stop-color="#FB6FBB"/>
</linearGradient>
<linearGradient id="paint61_linear_0_3" x1="2001.29" y1="978.024" x2="2055.43" y2="978.024" gradientUnits="userSpaceOnUse">
<stop stop-color="#FF9085"/>
<stop offset="1" stop-color="#FB6FBB"/>
</linearGradient>
<linearGradient id="paint62_linear_0_3" x1="2072.67" y1="884.749" x2="1967.64" y2="1212.53" gradientUnits="userSpaceOnUse">
<stop stop-color="#FF9085"/>
<stop offset="1" stop-color="#FB6FBB"/>
</linearGradient>
<linearGradient id="paint63_linear_0_3" x1="2076.59" y1="980.715" x2="2130.61" y2="980.715" gradientUnits="userSpaceOnUse">
<stop stop-color="#FF9085"/>
<stop offset="1" stop-color="#FB6FBB"/>
</linearGradient>
<linearGradient id="paint64_linear_0_3" x1="2157.35" y1="834.355" x2="2029.94" y2="1231.98" gradientUnits="userSpaceOnUse">
<stop stop-color="#FF9085"/>
<stop offset="1" stop-color="#FB6FBB"/>
</linearGradient>
<linearGradient id="paint65_linear_0_3" x1="2151.72" y1="983.402" x2="2205.63" y2="983.402" gradientUnits="userSpaceOnUse">
<stop stop-color="#FF9085"/>
<stop offset="1" stop-color="#FB6FBB"/>
</linearGradient>
<linearGradient id="paint66_linear_0_3" x1="2218.14" y1="916.918" x2="2124.59" y2="1208.87" gradientUnits="userSpaceOnUse">
<stop stop-color="#FF9085"/>
<stop offset="1" stop-color="#FB6FBB"/>
</linearGradient>
<linearGradient id="paint67_linear_0_3" x1="2226.7" y1="986.082" x2="2280.49" y2="986.082" gradientUnits="userSpaceOnUse">
<stop stop-color="#FF9085"/>
<stop offset="1" stop-color="#FB6FBB"/>
</linearGradient>
<linearGradient id="paint68_linear_0_3" x1="2277.23" y1="1008.15" x2="2221.21" y2="1182.97" gradientUnits="userSpaceOnUse">
<stop stop-color="#FF9085"/>
<stop offset="1" stop-color="#FB6FBB"/>
</linearGradient>
<linearGradient id="paint69_linear_0_3" x1="844.409" y1="1918.91" x2="945.164" y2="4492.05" gradientUnits="userSpaceOnUse">
<stop stop-color="#FFC444"/>
<stop offset="0.9964" stop-color="#F36F56"/>
</linearGradient>
<linearGradient id="paint70_linear_0_3" x1="824.572" y1="2622.21" x2="1191.85" y2="3152.31" gradientUnits="userSpaceOnUse">
<stop offset="0.00359712" stop-color="#E38DDD"/>
<stop offset="1" stop-color="#9571F6"/>
</linearGradient>
</defs>
</svg>
