<?xml version="1.0" encoding="utf-8"?>
<!-- Generator: Adobe Illustrator 28.0.0, SVG Export Plug-In . SVG Version: 6.00 Build 0)  -->
<svg version="1.1" xmlns="http://www.w3.org/2000/svg" xmlns:xlink="http://www.w3.org/1999/xlink" x="0px" y="0px"
	 viewBox="0 0 3710 3710" style="enable-background:new 0 0 3710 3710;" xml:space="preserve">
<style type="text/css">
	.st0{fill:#FFFFFF;}
	.st1{fill:#B0DBFF;}
	.st2{opacity:0.3;}
	.st3{fill:url(#SVGID_1_);}
	.st4{fill:#97A6B7;}
	.st5{fill:#D8DEE8;}
	.st6{fill:#BFC8D6;}
	.st7{opacity:0.3;fill:#D8DEE8;}
	.st8{opacity:0.6;fill:#FFFFFF;}
	.st9{fill:url(#SVGID_00000115475169310337769800000016827943265774024097_);}
	.st10{fill:url(#SVGID_00000008865395311950256750000003217411559630641078_);}
	.st11{fill:url(#SVGID_00000109022738460035700650000011209315410171509146_);}
	.st12{fill:url(#SVGID_00000084524657233170576500000010432219624175631276_);}
	.st13{fill:url(#SVGID_00000021798056154825925510000000779345842993842622_);}
	.st14{fill:url(#SVGID_00000127733734198448997010000012400487452840803486_);}
	.st15{fill:url(#SVGID_00000134249286391814875720000000786086814403809664_);}
	.st16{fill:url(#SVGID_00000176018462835494077450000010473287918799278731_);}
	.st17{fill:url(#SVGID_00000039852773031846926060000009888022294015289515_);}
	.st18{fill:url(#SVGID_00000148661453863842017720000015387840250619390345_);}
	.st19{fill:url(#SVGID_00000109723351112597974090000012907833403514235833_);}
	.st20{fill:url(#SVGID_00000106861598109995338780000012491784770603555208_);}
	.st21{fill:url(#SVGID_00000115472418383155945290000007133615575630919340_);}
	.st22{fill:url(#SVGID_00000053533917637045915190000013582644311345645974_);}
	.st23{fill:url(#SVGID_00000008131589241980942050000014258931337879795373_);}
	.st24{fill:url(#SVGID_00000016052357682375029070000013038410372641654972_);}
	.st25{fill:url(#SVGID_00000068647953408593125740000000411635656817182650_);}
	.st26{fill:url(#SVGID_00000172418990720804768730000000287483144741582473_);}
	.st27{fill:url(#SVGID_00000099623370303560867960000001673945931114758315_);}
	.st28{fill:url(#SVGID_00000063614951130922770060000008509117266010895288_);}
	.st29{fill:url(#SVGID_00000067926485595898930910000001923810399334733195_);}
	.st30{opacity:0.3;fill:url(#SVGID_00000043430707454536128570000005088522743699476887_);}
	.st31{fill:url(#SVGID_00000029763994870054438270000002957222568685383071_);}
	.st32{fill:url(#SVGID_00000054250535739651525830000009880762864719008925_);}
	.st33{fill:url(#SVGID_00000054228813844924344210000001208765856655078828_);}
	.st34{fill:url(#SVGID_00000056403739355675312160000015585197519853032089_);}
	.st35{fill:url(#SVGID_00000081648749132756037540000015734570704777530810_);}
	.st36{fill:url(#SVGID_00000083771792164968472550000005454914697208537531_);}
	.st37{fill:url(#SVGID_00000101063692283058181970000017249971362709598129_);}
	.st38{fill:url(#SVGID_00000009568438636074901070000012948386219695911604_);}
	.st39{fill:url(#SVGID_00000000924735432522857020000001974369528799664515_);}
	.st40{fill:url(#SVGID_00000127008647509578903040000010266286644604543890_);}
	.st41{fill:url(#SVGID_00000098901337497333384360000016411202443630294947_);}
	.st42{fill:url(#SVGID_00000069360260788347702000000010049922529799714748_);}
	.st43{fill:url(#SVGID_00000078004797655623388180000016224654485353933498_);}
	.st44{fill:url(#SVGID_00000176045495746621764810000017973547180036348305_);}
	.st45{fill:url(#SVGID_00000005944924988897545890000001955150494184482441_);}
	.st46{fill:url(#SVGID_00000134955882049620043870000010266593250342685591_);}
	.st47{fill:url(#SVGID_00000070099411075302915410000001337155813025335201_);}
	.st48{opacity:0.3;fill:url(#SVGID_00000013190033901773008220000010749519355481673603_);}
	.st49{fill:url(#SVGID_00000181807150523590994070000008294532338194371729_);}
	.st50{fill:url(#SVGID_00000041985371998320403130000003352732383560618406_);}
	.st51{fill:url(#SVGID_00000124133596990735217710000000486786662705902253_);}
	.st52{fill:url(#SVGID_00000023270390715508310440000012677578717507569849_);}
	.st53{opacity:0.3;fill:url(#SVGID_00000066474887524722844450000012853221219409290378_);}
	.st54{fill:url(#SVGID_00000090271721819593769120000012170924436359393681_);}
	.st55{fill:url(#SVGID_00000183946445755926285130000004391402178584962692_);}
	.st56{opacity:0.3;fill:url(#SVGID_00000158742810669475890200000001369395883376229298_);}
	.st57{fill:url(#SVGID_00000163036728506663672040000007080551697019414970_);}
	.st58{fill:url(#SVGID_00000036240308326561741360000018039795519358045878_);}
	.st59{fill:url(#SVGID_00000041270764228670486320000006818753262652012975_);}
	.st60{fill:url(#SVGID_00000039836487108803928740000011260858380854311315_);}
	.st61{opacity:0.2;fill:url(#SVGID_00000017490744219784444310000004685265826084995983_);}
	.st62{fill:url(#SVGID_00000078032247254200066870000011708497112638148758_);}
	.st63{opacity:0.2;fill:url(#SVGID_00000170975719597143589790000002099470311209247129_);}
	.st64{fill:url(#SVGID_00000110459288041646647150000013711037961387215755_);}
	.st65{opacity:0.2;fill:url(#SVGID_00000130612218348195012970000016021770760523944577_);}
	.st66{fill:url(#SVGID_00000036955564374452719160000005457343333690889627_);}
	.st67{opacity:0.2;fill:url(#SVGID_00000129893613593098765170000005373707825109725058_);}
	.st68{fill:url(#SVGID_00000122678541595982204660000015126931483111336329_);}
	.st69{opacity:0.2;fill:url(#SVGID_00000142880127549859399070000011100763543667949453_);}
	.st70{fill:url(#SVGID_00000036229850788076548770000003561116559371306400_);}
	.st71{opacity:0.2;fill:url(#SVGID_00000023260415538323150300000009440224861435546503_);}
	.st72{fill:url(#SVGID_00000095313533659980578600000017362739246025549443_);}
	.st73{opacity:0.2;fill:url(#SVGID_00000021100103794622717000000013616144892429425032_);}
	.st74{fill:url(#SVGID_00000173139380071161576150000001639493613739088007_);}
	.st75{opacity:0.2;fill:url(#SVGID_00000066510766528785617690000010450694467277559203_);}
	.st76{fill:url(#SVGID_00000142162447614190113030000002492075141129293716_);}
	.st77{opacity:0.4;fill:#D8DEE8;}
	.st78{fill:url(#SVGID_00000147910398334810521540000007608834525629578161_);}
	.st79{opacity:0.5;}
	.st80{fill:url(#SVGID_00000034049555697147377350000017496285576496303250_);}
</style>
<g id="Background">
	<g>
		<g>
			<rect class="st0" width="3710" height="3710"/>
		</g>
	</g>
</g>
<g id="Illustration">
	<g>
		<path class="st1" d="M3213.63,1644.13c-75.88-496.69-387-1106.9-1001.65-1170.76c0,0-466.67-56.76-926.7,29.27
			c-273.03,51.06-512.44,203.05-663.92,421.5c-151.49,218.45-202.09,484.82-140.68,738.77c39.89,164.94,66.84,335.65,59.44,505.14
			c-12.87,294.98-5.47,570.32,280.8,746.24c255.61,157.07,577.29,295.61,884.18,319.87c208.56,16.49,442.45-10.19,643.46-64.49
			C3372.98,2892.94,3289.51,2140.81,3213.63,1644.13z"/>
		<g class="st2">
			<linearGradient id="SVGID_1_" gradientUnits="userSpaceOnUse" x1="1688.8541" y1="1415.675" x2="3048.4912" y2="1415.675">
				<stop  offset="3.597120e-03" style="stop-color:#E38DDD"/>
				<stop  offset="1" style="stop-color:#9571F6"/>
			</linearGradient>
			<path class="st3" d="M2141.67,797.92l14.66,72.3c-31.44,12.72-61.41,27.92-89.57,45.57l-48.7-55.1
				c-13.29-15.03-36.28-16.28-51.37-2.79l-94.44,84.46c-15.12,13.52-16.62,36.71-3.35,51.8l49.13,55.87
				c-20.76,26.48-39.27,54.71-55.26,84.39l-70.73-23.47c-19.07-6.33-39.8,4.21-46.3,23.54l-40.75,121.13
				c-6.53,19.4,3.66,40.31,22.77,46.68l70.97,23.67c-5.01,33.09-7.11,66.92-6.35,101.15l-73.96,15.65
				c-19.85,4.2-32.79,23.9-28.89,44.01l24.46,126.04c3.92,20.2,23.24,33.17,43.15,28.95l74.17-15.69
				c12.24,32.04,26.98,62.6,44.18,91.34l-56.75,51.19c-15.3,13.8-16.84,37.54-3.43,53.02l84.02,97
				c13.46,15.54,36.81,16.91,52.13,3.04l56.74-51.34c26.33,21.34,54.48,40.28,84.08,56.68l-24.04,73.23
				c-6.51,19.83,3.92,41.23,23.31,47.79l121.39,41.08c19.43,6.58,40.44-4.21,46.91-24.08l23.66-72.66c33.25,5.04,67.24,7,101.62,6
				l15.2,74.93c4.16,20.51,23.82,33.7,43.9,29.45l125.6-26.57c20.08-4.25,32.94-24.32,28.72-44.82l-15.29-74.29
				c32.15-12.9,62.75-28.43,91.47-46.47l49.41,56.19c13.72,15.6,37.21,16.98,52.45,3.06l95.24-86.91
				c15.21-13.88,16.4-37.74,2.66-53.28l-49.25-55.72c21.12-27.27,39.79-56.38,55.86-86.95l69.71,23.25
				c19.48,6.5,40.36-4.22,46.61-23.93l39.06-123.04c6.23-19.64-4.48-40.79-23.92-47.24l-69.04-22.91
				c4.68-33.87,6.28-68.46,4.92-103.39l70.93-15.01c19.91-4.21,32.55-23.94,28.24-44.06l-26.95-125.51
				c-4.3-20.03-23.88-32.85-43.73-28.65l-70.72,14.96c-12.93-32.24-28.38-62.92-46.32-91.65l53.45-48.36
				c15.03-13.6,16.19-36.9,2.6-52.05l-84.82-94.56c-13.54-15.09-36.68-16.35-51.69-2.81l-53.79,48.52
				c-26.68-20.92-55.09-39.47-84.94-55.38l22.49-69.07c6.26-19.22-4.21-39.88-23.37-46.15l-119.7-39.16
				c-19.12-6.25-39.72,4.22-46.01,23.39l-22.74,69.24c-32.9-4.62-66.49-6.28-100.46-4.99l-14.76-71.68
				c-4.06-19.72-23.31-32.33-43-28.16l-123.11,26.05C2150.38,758.81,2137.67,778.18,2141.67,797.92z M1932.01,1500.6
				c-48.48-243.93,107.23-481.82,347.54-532.66c240.3-50.84,476.31,104.17,527.43,347.55c51.42,244.85-103.61,486.1-346.55,537.5
				C2217.49,1904.38,1980.79,1746.01,1932.01,1500.6z"/>
		</g>
		<g>
			<g>
				<g>
					<path class="st4" d="M1963.53,2805.75c-31.1-10.32-54.35-36.71-60.9-69.15l-45.27-224.03l-387.22,13.75l-47.66,233.39
						c-6.67,32.69,20.04,65.48,50.81,77.52l162,63.39c30.13,11.79,62.52,16.49,94.71,13.73l342.37-29.29
						c10.01-0.86,18.04-8.72,19.2-18.82c1.16-10.09,8.18-21.43-1.37-24.59L1963.53,2805.75z"/>
					<path class="st5" d="M1967.36,2792.12c-31.07-10.19-54.29-36.25-60.84-68.28l-45.22-221.22l-377.78,13.59l-47.61,230.46
						c-6.67,32.28,10.97,64.64,41.71,76.53l161.84,62.59c30.1,11.64,62.46,16.28,94.62,13.56l342.03-28.92
						c10-0.85,18.02-8.61,19.18-18.58s-4.85-19.37-14.39-22.5L1967.36,2792.12z"/>
				</g>
				<g>
					<g>
						<path class="st6" d="M678.92,2661.47c-41.99,2.5-76.34-24.74-76.34-60.74V1303.2c0-36,34.35-63.8,76.34-61.98l1941.92,84.14
							c30.83,1.34,55.79,27.33,55.79,57.94v1103.53c0,30.62-24.96,57.02-55.79,58.85L678.92,2661.47z"/>
						<path class="st0" d="M696.37,2661.47c-41.99,2.5-76.34-24.74-76.34-60.74V1303.2c0-36,34.35-63.8,76.34-61.98l1941.92,84.14
							c30.83,1.34,55.79,27.33,55.79,57.94v1103.53c0,30.62-24.96,57.02-55.79,58.85L696.37,2661.47z"/>
						<path class="st7" d="M2638.29,1351.33l-1941.92-79.89c-22.45-0.92-40.7,13.91-40.7,33.13v1009.13v285.06
							c0,19.22,18.25,33.76,40.7,32.47l1941.92-111.51c16.52-0.95,29.89-15.03,29.89-31.46V2236v-853.69
							C2668.17,1365.88,2654.81,1352.01,2638.29,1351.33z"/>
						<path class="st5" d="M696.37,2521.01c-8.74,0.43-15.86-5.3-15.86-12.78V1305.54c0-7.48,7.12-13.28,15.86-12.93l1941.92,76.91
							c6.45,0.26,11.68,5.68,11.68,12.09v1031.2c0,6.41-5.24,11.89-11.68,12.21L696.37,2521.01z"/>
					</g>
					<path class="st8" d="M2435.56,2465.38c-163.37-101.06-49.26-388.4-232.73-532.76c-184.97-145.55-445.25,32.97-574.82-117.77
						c-96.48-112.24,16.41-247.76-75.71-353.31c-144.46-165.53-514.28,62.13-684.18-100.95c-24.12-23.15-48.47-58.28-62.32-114.63
						l-109.42-4.74c-41.99-1.82-76.34,25.98-76.34,61.98v1297.52c0,36,34.35,63.24,76.34,60.74l1941.92-115.77
						c30.83-1.84,55.79-28.24,55.79-58.85v-19.62C2565.14,2510.98,2486.31,2496.78,2435.56,2465.38z"/>
				</g>
			</g>
			<g>
				<g>
					<g>
						
							<linearGradient id="SVGID_00000129188048858554112090000003072429306363213972_" gradientUnits="userSpaceOnUse" x1="1105.1865" y1="2158.8108" x2="463.2896" y2="4649.7539">
							<stop  offset="0" style="stop-color:#311944"/>
							<stop  offset="1" style="stop-color:#893976"/>
						</linearGradient>
						<path style="fill:url(#SVGID_00000129188048858554112090000003072429306363213972_);" d="M1029.22,1808.83l17.25-0.28
							l327.97,229.68c-49.86,70.26-79.14,151.89-79.14,246.67l-438.54,11.39C856.76,2111.75,921.24,1947.42,1029.22,1808.83z"/>
						
							<linearGradient id="SVGID_00000149356908747480531260000017029035548415502767_" gradientUnits="userSpaceOnUse" x1="1360.9098" y1="1037.0155" x2="1321.6459" y2="2088.4097">
							<stop  offset="0" style="stop-color:#311944"/>
							<stop  offset="1" style="stop-color:#893976"/>
						</linearGradient>
						<path style="fill:url(#SVGID_00000149356908747480531260000017029035548415502767_);" d="M1603.16,1870.49
							c-74.66,24.7-130.76,73.31-182.72,130.22c-0.41,0.45-0.63,1.6-1.23,1.63c-13.04,0.72-8.43,0.93-16.59,0.39l-0.73-0.52
							l-341.88-228.27c112.34-125.52,261.37-216.9,426.66-256.54l16.44-0.02L1603.16,1870.49z"/>
						
							<linearGradient id="SVGID_00000179645628378477339130000017565518192288392852_" gradientUnits="userSpaceOnUse" x1="1741.1779" y1="1865.0452" x2="1607.171" y2="4025.8926">
							<stop  offset="0" style="stop-color:#311944"/>
							<stop  offset="1" style="stop-color:#893976"/>
						</linearGradient>
						<path style="fill:url(#SVGID_00000179645628378477339130000017565518192288392852_);" d="M1993.26,1546.76l-88.35,322.33
							c-39.41-13.06-83.22-24.26-127.65-25.73c-39.88-1.32-92.4,9.39-130.01,17.87l-116.2-354.56
							c75.16-14.64,152.99-19.19,231.72-12.68C1844.77,1500.76,1922.06,1519.07,1993.26,1546.76z"/>
						
							<linearGradient id="SVGID_00000162338077085215712430000005715212644357317813_" gradientUnits="userSpaceOnUse" x1="2039.4225" y1="1809.1511" x2="3721.7546" y2="520.6392">
							<stop  offset="0" style="stop-color:#311944"/>
							<stop  offset="1" style="stop-color:#893976"/>
						</linearGradient>
						<path style="fill:url(#SVGID_00000162338077085215712430000005715212644357317813_);" d="M2349.14,1824.09l-246.37,176.79
							l2.32,9.44l-15.41,0.44c-41.66-54.41-96.85-97.19-161.29-125.69l103.15-322.03c10.7-0.61,5.73-0.15,15.5-0.19
							c0.28,0,0.52,0.18,0.78,0.3C2172.68,1622.09,2273.89,1716.83,2349.14,1824.09z"/>
						
							<linearGradient id="SVGID_00000183946735684832235070000000940678871468413086_" gradientUnits="userSpaceOnUse" x1="2718.6572" y1="562.9849" x2="2170.5991" y2="2629.9524">
							<stop  offset="0" style="stop-color:#311944"/>
							<stop  offset="1" style="stop-color:#893976"/>
						</linearGradient>
						<path style="fill:url(#SVGID_00000183946735684832235070000000940678871468413086_);" d="M2484.16,2252.79l-308.43,8.43
							c0-83.73-23.01-155.49-63-218.47l257.68-186.07c14.94-0.3,12.87-0.81,14.94-0.3c2.53,0.62-8.58,10.59-7.17,12.94
							C2445.64,1981.48,2484.16,2111.19,2484.16,2252.79z"/>
					</g>
					
						<linearGradient id="SVGID_00000145026613144177665470000002152719620121548213_" gradientUnits="userSpaceOnUse" x1="7083.0283" y1="-1392.257" x2="7249.5947" y2="-1392.257" gradientTransform="matrix(0.7381 0.6746 -0.9837 1.0763 -4703.6128 -1328.0571)">
						<stop  offset="0" style="stop-color:#311944"/>
						<stop  offset="1" style="stop-color:#893976"/>
					</linearGradient>
					<polygon style="fill:url(#SVGID_00000145026613144177665470000002152719620121548213_);" points="1712.83,2149.82 
						2139.75,1812.67 1838.61,2259.08 					"/>
					<g>
						
							<linearGradient id="SVGID_00000062171420224458345180000013783115658604234145_" gradientUnits="userSpaceOnUse" x1="1645.8954" y1="2228.384" x2="1875.9341" y2="2228.384">
							<stop  offset="0" style="stop-color:#311944"/>
							<stop  offset="1" style="stop-color:#893976"/>
						</linearGradient>
						<path style="fill:url(#SVGID_00000062171420224458345180000013783115658604234145_);" d="M1875.93,2225.96
							c0,60.51-50.21,111.4-113.15,113.72c-64.08,2.36-116.89-46.37-116.89-108.87s52.81-113.46,116.89-113.8
							C1825.73,2116.67,1875.93,2165.45,1875.93,2225.96z"/>
						<g>
							
								<linearGradient id="SVGID_00000169559900319391758860000015089875083463058575_" gradientUnits="userSpaceOnUse" x1="1692.2159" y1="2228.3586" x2="1831.9707" y2="2228.3586">
								<stop  offset="0" style="stop-color:#311944"/>
								<stop  offset="1" style="stop-color:#893976"/>
							</linearGradient>
							<path style="fill:url(#SVGID_00000169559900319391758860000015089875083463058575_);" d="M1762.78,2295.99
								c-38.74,1.19-70.57-28.49-70.57-66.16s31.83-68.69,70.57-69.14c38.32-0.44,69.19,29.25,69.19,66.19
								S1801.1,2294.82,1762.78,2295.99z M1762.78,2173.89c-31.14,0.42-56.69,25.38-56.69,55.65s25.54,54.15,56.69,53.25
								c30.87-0.89,55.79-25.84,55.79-55.63S1793.66,2173.48,1762.78,2173.89z"/>
						</g>
					</g>
					<g>
						<g>
							
								<linearGradient id="SVGID_00000149383609971079275460000001362505861577563312_" gradientUnits="userSpaceOnUse" x1="1121.7164" y1="2160.9883" x2="486.7841" y2="4624.9043">
								<stop  offset="0" style="stop-color:#AB316D"/>
								<stop  offset="1" style="stop-color:#792D3D"/>
							</linearGradient>
							<path style="fill:url(#SVGID_00000149383609971079275460000001362505861577563312_);" d="M1046.47,1810.1l344.6,228.41
								c-49.78,70.2-79,151.37-79,246.07l-437.76,11.96C874.31,2112.17,938.68,1945.57,1046.47,1810.1z"/>
							
								<linearGradient id="SVGID_00000091720830575546489540000007831963177056796067_" gradientUnits="userSpaceOnUse" x1="1411.2743" y1="135.1957" x2="1372.0377" y2="1185.8539">
								<stop  offset="0" style="stop-color:#FFC444"/>
								<stop  offset="0.5407" style="stop-color:#F8964E"/>
								<stop  offset="0.9964" style="stop-color:#F36F56"/>
							</linearGradient>
							<path style="fill:url(#SVGID_00000091720830575546489540000007831963177056796067_);" d="M1619.39,1869.72
								c-77.92,25.8-147.11,71.86-200.18,132.51l-342-229c112.14-125.4,260.91-215.36,425.91-256.73L1619.39,1869.72z"/>
							
								<linearGradient id="SVGID_00000163074856048329445610000006571456009338605190_" gradientUnits="userSpaceOnUse" x1="1843.1019" y1="478.9445" x2="1710.298" y2="2620.3972">
								<stop  offset="0" style="stop-color:#FFC444"/>
								<stop  offset="0.5407" style="stop-color:#F8964E"/>
								<stop  offset="0.9964" style="stop-color:#F36F56"/>
							</linearGradient>
							<path style="fill:url(#SVGID_00000163074856048329445610000006571456009338605190_);" d="M2008.83,1546.71l-103.92,322.37
								c-39.41-13.06-81.75-20.84-126.17-22.29c-39.87-1.31-78.93,2.55-116.48,11.02l-114.85-351.15
								c75.03-14.63,152.72-19.17,231.32-12.67C1860.59,1500.75,1937.75,1519.05,2008.83,1546.71z"/>
							
								<linearGradient id="SVGID_00000099655403520817247350000017357200831847276430_" gradientUnits="userSpaceOnUse" x1="1542.54" y1="2201.0908" x2="3220.2207" y2="916.1415">
								<stop  offset="0" style="stop-color:#FFC444"/>
								<stop  offset="0.2965" style="stop-color:#FBAB49"/>
								<stop  offset="0.9964" style="stop-color:#F36F56"/>
							</linearGradient>
							<path style="fill:url(#SVGID_00000099655403520817247350000017357200831847276430_);" d="M2364.11,1823.82l-259.02,185.48
								c-41.59-53.25-96.68-96.6-161.02-125.08l102.98-321.5C2177.53,1621.42,2286.39,1712.94,2364.11,1823.82z"/>
							
								<linearGradient id="SVGID_00000041260056291922564400000013042658350909235334_" gradientUnits="userSpaceOnUse" x1="2136.2522" y1="2393.6963" x2="938.9219" y2="4058.553">
								<stop  offset="0" style="stop-color:#FFC444"/>
								<stop  offset="0.9964" style="stop-color:#F36F56"/>
							</linearGradient>
							<path style="fill:url(#SVGID_00000041260056291922564400000013042658350909235334_);" d="M2498.91,2252.17l-307.92,8.41
								c0-83.66-22.97-155.36-62.89-218.29l257.25-185.91C2457.5,1971.32,2498.91,2105.36,2498.91,2252.17z"/>
						</g>
						
							<linearGradient id="SVGID_00000155140273526267151600000013440816543391039408_" gradientUnits="userSpaceOnUse" x1="-4001.3145" y1="13416.252" x2="-3320.3679" y2="12517.1904" gradientTransform="matrix(0.7381 0.6746 -0.9837 1.0763 -4703.6128 -1328.0571)">
							<stop  offset="0" style="stop-color:#AA80F9"/>
							<stop  offset="0.9964" style="stop-color:#6165D7"/>
						</linearGradient>
						<polygon style="fill:url(#SVGID_00000155140273526267151600000013440816543391039408_);" points="1728.88,2149.25 
							2155.08,1812.4 1854.44,2258.43 						"/>
						<g>
							
								<linearGradient id="SVGID_00000119106676078629032540000001210996798099653794_" gradientUnits="userSpaceOnUse" x1="1357.5153" y1="2781.3767" x2="2038.4512" y2="1882.3297">
								<stop  offset="0" style="stop-color:#AA80F9"/>
								<stop  offset="0.9964" style="stop-color:#6165D7"/>
							</linearGradient>
							<path style="fill:url(#SVGID_00000119106676078629032540000001210996798099653794_);" d="M1891.7,2225.33
								c0,60.45-50.12,111.31-112.96,113.62c-63.97,2.35-116.69-46.33-116.69-108.78c0-62.45,52.71-113.36,116.69-113.7
								C1841.58,2116.14,1891.7,2164.88,1891.7,2225.33z"/>
							<g>
								<path class="st0" d="M1778.75,2295.3c-38.67,1.18-70.45-28.47-70.45-66.11c0-37.64,31.78-68.63,70.45-69.08
									c38.25-0.44,69.07,29.23,69.07,66.14C1847.81,2263.16,1817,2294.13,1778.75,2295.3z M1778.75,2173.31
									c-31.09,0.42-56.59,25.36-56.59,55.6c0,30.24,25.5,54.1,56.59,53.21c30.82-0.89,55.7-25.82,55.7-55.58
									C1834.44,2196.78,1809.56,2172.9,1778.75,2173.31z"/>
							</g>
						</g>
					</g>
				</g>
			</g>
		</g>
		<g>
			
				<linearGradient id="SVGID_00000048459399920979176300000009734127651100138382_" gradientUnits="userSpaceOnUse" x1="2370.3657" y1="2032.8763" x2="2476.0657" y2="2140.4639" gradientTransform="matrix(1 0 0 1 141.9832 0)">
				<stop  offset="0" style="stop-color:#FFC444"/>
				<stop  offset="0.9964" style="stop-color:#F36F56"/>
			</linearGradient>
			<path style="fill:url(#SVGID_00000048459399920979176300000009734127651100138382_);" d="M2555.25,2083.46
				c0,0,6.16-23.11,1.8-29.02s-31.07-29.53-28.5-21.83s6.42,12.84,6.42,12.84s-14.38,6.68-5.14,16.69
				c9.24,10.01,12.33,12.33,12.84,21.31C2543.18,2092.45,2549.09,2095.53,2555.25,2083.46z"/>
			
				<linearGradient id="SVGID_00000058567844428251148770000000166434183930652313_" gradientUnits="userSpaceOnUse" x1="2632.3665" y1="3054.8352" x2="2631.4758" y2="2816.1543" gradientTransform="matrix(1 0 0 1 141.9832 0)">
				<stop  offset="0" style="stop-color:#AA80F9"/>
				<stop  offset="0.9964" style="stop-color:#6165D7"/>
			</linearGradient>
			<path style="fill:url(#SVGID_00000058567844428251148770000000166434183930652313_);" d="M2811.78,3081.03
				c0,0,3.27,19.99,2.85,27.1c-0.41,7.11-79.35,10.75-80.15,5.42c-0.8-5.33,13.05-13.8,22.79-16.79
				c9.75-2.99,38.27-10.97,38.27-10.97L2811.78,3081.03z"/>
			
				<linearGradient id="SVGID_00000127739596756626363330000000410710891371144578_" gradientUnits="userSpaceOnUse" x1="-457.6818" y1="3112.6267" x2="-456.2074" y2="2988.7788" gradientTransform="matrix(0.9968 0.0799 -0.0799 0.9968 3502.9116 65.4365)">
				<stop  offset="0" style="stop-color:#FFC444"/>
				<stop  offset="0.9964" style="stop-color:#F36F56"/>
			</linearGradient>
			<path style="fill:url(#SVGID_00000127739596756626363330000000410710891371144578_);" d="M2792.62,3061.1l2.52,24.85
				c0,0,9.17,6.06,17.25,1.38l4.04-27.05L2792.62,3061.1z"/>
			
				<linearGradient id="SVGID_00000137828034344230818810000008317514256885172359_" gradientUnits="userSpaceOnUse" x1="2773.084" y1="3054.3098" x2="2772.1934" y2="2815.6292" gradientTransform="matrix(1 0 0 1 141.9832 0)">
				<stop  offset="0" style="stop-color:#AA80F9"/>
				<stop  offset="0.9964" style="stop-color:#6165D7"/>
			</linearGradient>
			<path style="fill:url(#SVGID_00000137828034344230818810000008317514256885172359_);" d="M2952.62,3113.43
				c0,0,3.27,19.99,2.85,27.1c-0.42,7.11-79.35,10.75-80.15,5.42c-0.8-5.33,13.05-13.8,22.79-16.79
				c9.74-2.99,38.27-10.97,38.27-10.97L2952.62,3113.43z"/>
			
				<linearGradient id="SVGID_00000056429247681168988980000007992840437218687901_" gradientUnits="userSpaceOnUse" x1="-314.4732" y1="3114.3286" x2="-312.9987" y2="2990.4795" gradientTransform="matrix(0.9968 0.0799 -0.0799 0.9968 3502.9116 65.4365)">
				<stop  offset="0" style="stop-color:#FFC444"/>
				<stop  offset="0.9964" style="stop-color:#F36F56"/>
			</linearGradient>
			<path style="fill:url(#SVGID_00000056429247681168988980000007992840437218687901_);" d="M2933.46,3093.51l2.52,24.85
				c0,0,9.17,6.06,17.25,1.38l4.04-27.05L2933.46,3093.51z"/>
			
				<linearGradient id="SVGID_00000167371309512212818220000014610651172920592778_" gradientUnits="userSpaceOnUse" x1="2660.3257" y1="2510.0867" x2="2747.8118" y2="2957.3582" gradientTransform="matrix(1 0 0 1 141.9832 0)">
				<stop  offset="0" style="stop-color:#311944"/>
				<stop  offset="1" style="stop-color:#893976"/>
			</linearGradient>
			<path style="fill:url(#SVGID_00000167371309512212818220000014610651172920592778_);" d="M2806.94,2412.28
				c-9.12,18.5-18.25,37-27.37,55.5c-7.34,105.57-10.99,220.36-8.64,343.12c1.74,91.34,6.62,177.86,13.64,259.07
				c12.37-0.57,24.74-1.14,37.11-1.7c17.89-35.5,39.01-89.29,40.95-155.69c2.03-69.26-18.97-78.46-17.64-144.77
				c1.73-85.95,37.77-108.88,56.97-212.27c7.34-39.54,12.29-91.18,6.41-153.83C2874.56,2405.23,2840.75,2408.76,2806.94,2412.28z"/>
			
				<linearGradient id="SVGID_00000103965543080906309870000009543753828945447613_" gradientUnits="userSpaceOnUse" x1="-529.0814" y1="2714.3206" x2="-397.2217" y2="2714.3206" gradientTransform="matrix(0.9968 0.0799 -0.0799 0.9968 3502.9116 65.4365)">
				<stop  offset="0" style="stop-color:#311944"/>
				<stop  offset="1" style="stop-color:#893976"/>
			</linearGradient>
			<path style="opacity:0.3;fill:url(#SVGID_00000103965543080906309870000009543753828945447613_);" d="M2908.37,2401.7
				c-18.26,1.9-36.52,3.81-54.78,5.72c-32.87,57.2-42.04,116.73-36.28,143.06c8.16,37.26,29.74,49.19,28.56,86.6
				c-1.17,37.01-22.98,46.61-36.81,90.23c-9.58,30.2-7.05,57.97-1.6,112.28c10.97,109.39,37.39,142.85,15.26,178.71
				c-6.29,10.19-17.62,22.33-39.81,31.59c0.54,6.71,1.08,13.44,1.65,20.07c12.37-0.56,24.74-1.14,37.11-1.7
				c17.89-35.51,39.01-89.3,40.95-155.69c2.03-69.26-18.97-78.46-17.64-144.77c1.73-85.95,37.77-108.88,56.97-212.27
				C2909.3,2516,2914.25,2464.35,2908.37,2401.7z"/>
			
				<linearGradient id="SVGID_00000083049425246202169210000004597207996679802252_" gradientUnits="userSpaceOnUse" x1="-454.639" y1="2733.1562" x2="-254.4635" y2="2733.1562" gradientTransform="matrix(0.9968 0.0799 -0.0799 0.9968 3502.9116 65.4365)">
				<stop  offset="0" style="stop-color:#311944"/>
				<stop  offset="1" style="stop-color:#893976"/>
			</linearGradient>
			<path style="fill:url(#SVGID_00000083049425246202169210000004597207996679802252_);" d="M2856.03,2445.58
				c17.13,93.4,32.26,193.36,44.06,299.37c14.25,128,21.86,248.67,24.85,360.71c13.58,0.39,27.16,0.77,40.74,1.15
				c53.51-105.85,56.78-177.62,49.06-224.34c-2.97-18-11.05-53.31-12.89-106.07c-1.28-36.78,1.06-64.77,3.99-98.42
				c6.43-73.78,14.22-89.88,15.34-146.31c1.05-52.96,1.27-79.76-13.85-95.4C2967.51,2395.07,2863.89,2441.94,2856.03,2445.58z"/>
			
				<linearGradient id="SVGID_00000090266094033499584520000014782061037663608249_" gradientUnits="userSpaceOnUse" x1="2531.759" y1="2094.9382" x2="2679.3838" y2="3043.0188" gradientTransform="matrix(1 0 0 1 141.9832 0)">
				<stop  offset="0" style="stop-color:#AA80F9"/>
				<stop  offset="0.9964" style="stop-color:#6165D7"/>
			</linearGradient>
			<path style="fill:url(#SVGID_00000090266094033499584520000014782061037663608249_);" d="M2562.35,2079.9
				c-9.03-0.63-18.06-1.26-27.09-1.89c-21.3,86.09-6.02,169.59,42.06,200.31c75.12,47.98,214.73-42.42,244.99-140.85
				c13.28-43.21,10.26-105.56-16.28-117.67c-7.37-3.36-18.8-3.89-43.57,10.02c-73.97,41.53-75.91,120.02-113.51,126.66
				C2632.23,2159.43,2605.23,2148.77,2562.35,2079.9z"/>
			
				<linearGradient id="SVGID_00000093871994443577734060000005130817207048393364_" gradientUnits="userSpaceOnUse" x1="-268.2441" y1="3101.5176" x2="-120.6195" y2="4049.5977" gradientTransform="matrix(0.9968 0.0799 -0.0799 0.9968 3502.9116 65.4365)">
				<stop  offset="0" style="stop-color:#AA80F9"/>
				<stop  offset="0.9964" style="stop-color:#6165D7"/>
			</linearGradient>
			<path style="fill:url(#SVGID_00000093871994443577734060000005130817207048393364_);" d="M2769.18,2486.72
				c-13.01-21.59,3.33-42.41,7.05-83.31c4.22-46.35-13.64-54.07-31.3-130.89c-11.74-51.09-23.02-100.14-9.56-157.55
				c6.45-27.52,17.39-74.18,56.01-96.73c19.93-11.63,47.15-10.47,100.76-7.66c66.3,3.47,99.45,5.2,124.17,18.22
				c3.62,1.91,78.83,42.82,84.01,109.5c5.27,67.87-68.64,76.99-78.5,167.5c-4.43,40.63,3.46,103.12,8.58,143.65
				c4.91,38.92,8.29,48.88,0.61,60.66c-18.51,28.4-75.18,20.3-188.52,4.12C2798.02,2507.89,2778.89,2502.83,2769.18,2486.72z"/>
			
				<linearGradient id="SVGID_00000075883263590939415830000004868376483638336668_" gradientUnits="userSpaceOnUse" x1="-52.3374" y1="2756.9146" x2="-499.0832" y2="2115.5464" gradientTransform="matrix(0.9968 0.0799 -0.0799 0.9968 3502.9116 65.4365)">
				<stop  offset="0" style="stop-color:#AA80F9"/>
				<stop  offset="0.9964" style="stop-color:#6165D7"/>
			</linearGradient>
			<path style="fill:url(#SVGID_00000075883263590939415830000004868376483638336668_);" d="M2941.63,2291.24
				c4.79,17.64,22.03,30.82,34.03,73.72c2.59,9.27,21.04,75.24-2.89,91.48c-13.82,9.38-26.23-8.39-59.78-10.71
				c-58.14-4.02-85.83,44.84-123.81,31.5c-6.59-2.32-15.29-7.25-23.97-18.6c-1.73,10.22-1.43,19.1,3.98,28.09
				c9.71,16.11,28.84,21.17,73.3,27.52c113.34,16.18,170.01,24.28,188.52-4.12c7.68-11.78,4.3-21.75-0.61-60.66
				c-5.12-40.53-13-103.02-8.58-143.65c9.86-90.51,83.77-99.63,78.5-167.5c-1.41-18.14-8.08-34.3-17.01-48.36
				C2989.54,2127.88,2926.56,2235.81,2941.63,2291.24z"/>
			
				<linearGradient id="SVGID_00000115480991504801820520000014643500183922762368_" gradientUnits="userSpaceOnUse" x1="2948.7888" y1="2342.6299" x2="2865.677" y2="2454.9036" gradientTransform="matrix(1 0 0 1 141.9832 0)">
				<stop  offset="0" style="stop-color:#FFC444"/>
				<stop  offset="0.9964" style="stop-color:#F36F56"/>
			</linearGradient>
			<path style="fill:url(#SVGID_00000115480991504801820520000014643500183922762368_);" d="M3060.06,2424.75l-18.76,11.98
				c-3.37-3.89-11.17-11.74-23.34-14.42c-13.72-3.01-29.47,1.31-29.83,5.69c-0.29,3.51,9.3,7.05,10.78,7.59
				c11.97,4.42,20.85,0.75,25.69,5.56c1.71,1.7,3.84,4.87,8.75,7.8c1.29,0.77,2.64,1.45,3.35,1.73c7.99,3.11,21.69-10.8,22.87-12.02
				L3060.06,2424.75z"/>
			
				<linearGradient id="SVGID_00000155112189228798533640000011075374080724776104_" gradientUnits="userSpaceOnUse" x1="-95.3938" y1="3074.6042" x2="52.2312" y2="4022.6865" gradientTransform="matrix(0.9968 0.0799 -0.0799 0.9968 3502.9116 65.4365)">
				<stop  offset="0" style="stop-color:#AA80F9"/>
				<stop  offset="0.9964" style="stop-color:#6165D7"/>
			</linearGradient>
			<path style="fill:url(#SVGID_00000155112189228798533640000011075374080724776104_);" d="M3004.63,2178.7
				c-13.57-32.5-22.97-82.27-1.54-156.17c141.24,55.65,213.27,187.58,185.14,292.17c-23.18,86.22-107.54,128.21-126.35,137.05
				c-4.38-9.97-8.76-19.93-13.13-29.89c21.81-24.28,46.38-60.19,42.9-101.16C3086.83,2263.89,3032.11,2244.5,3004.63,2178.7z"/>
			
				<linearGradient id="SVGID_00000082365425887780569630000008346205402805275526_" gradientUnits="userSpaceOnUse" x1="-2193.7605" y1="3611.3467" x2="-2193.7605" y2="3483.6355" gradientTransform="matrix(0.7795 0.6265 -0.6265 0.7795 6827.2944 622.2045)">
				<stop  offset="0" style="stop-color:#FFC444"/>
				<stop  offset="0.9964" style="stop-color:#F36F56"/>
			</linearGradient>
			<path style="fill:url(#SVGID_00000082365425887780569630000008346205402805275526_);" d="M2895.6,1943.71
				c0,0,1.12,24.71,8.78,43.21c6.93,16.72,43.38,27.23,50.77,30.97c7.39,3.73-13.84,14.64-35.17,16.79
				c-21.32,2.14-82.22-2.7-93.19-10.78c-10.98-8.08,8.82-7.47,24.04-13.06c15.22-5.59,24.02-35.35,21.33-48.86
				C2869.49,1948.46,2895.6,1943.71,2895.6,1943.71z"/>
			
				<linearGradient id="SVGID_00000137121811195526767430000005974871086445587896_" gradientUnits="userSpaceOnUse" x1="-428.774" y1="2001.5214" x2="-482.1924" y2="1865.8484" gradientTransform="matrix(0.9968 0.0799 -0.0799 0.9968 3502.9116 65.4365)">
				<stop  offset="0" style="stop-color:#444B8C"/>
				<stop  offset="0.9964" style="stop-color:#3E4177"/>
			</linearGradient>
			<path style="fill:url(#SVGID_00000137121811195526767430000005974871086445587896_);" d="M2861.88,1934.76
				c-11.06-10.87-12.61-12.14-13.81-15.9c-4.84-15.08,6.86-35.73,22.2-40.82c0.8-0.26,11.09-3.56,15.01,0.91
				c3.34,3.79-1.57,9.03,0.76,16.33c2.19,6.84,8.11,7.35,19.1,16.32c9.05,7.39,14.68,11.98,15.98,18.44
				c2.68,13.32-13.45,32.62-27.72,32.09C2888.28,1961.94,2886.88,1959.32,2861.88,1934.76z"/>
			<g>
				
					<linearGradient id="SVGID_00000108997822305687208870000008529700444413172146_" gradientUnits="userSpaceOnUse" x1="-2284.0342" y1="3574.5415" x2="-2224.3245" y2="3458.4392" gradientTransform="matrix(0.7795 0.6265 -0.6265 0.7795 6827.2944 622.2045)">
					<stop  offset="0" style="stop-color:#FFC444"/>
					<stop  offset="0.9964" style="stop-color:#F36F56"/>
				</linearGradient>
				<path style="fill:url(#SVGID_00000108997822305687208870000008529700444413172146_);" d="M2892.01,1964.19
					c0,0-11.76,13.32-29.68,8.91c-16.04-3.94-11.95-40.76-0.21-46.64c3.92-1.96,11.03-1.8,16.38,0.78c3.16,1.52,4.04,3.11,9.25,5.5
					c4.81,2.2,6.33,1.9,7.63,3.45c1.62,1.94,2.31,6.11-2.75,16.19c3.65-2.59,7.58-3.13,10-1.42c0.38,0.27,1.36,1.23,1.79,2.49
					C2905.95,1958.01,2901.21,1962.65,2892.01,1964.19z"/>
			</g>
		</g>
		<g>
			<g>
				
					<linearGradient id="SVGID_00000099620159720453590570000017779140791523610760_" gradientUnits="userSpaceOnUse" x1="-3335.7954" y1="-763.2815" x2="-3046.8367" y2="-463.4187" gradientTransform="matrix(0.6508 -0.7592 0.7592 0.6508 3488.3733 -1145.7214)">
					<stop  offset="0" style="stop-color:#444B8C"/>
					<stop  offset="0.9964" style="stop-color:#26264F"/>
				</linearGradient>
				<path style="fill:url(#SVGID_00000099620159720453590570000017779140791523610760_);" d="M895.47,719.39
					c-53.7-11.52-120.15,25.91-151.46,72.18c-56.94,84.13-19.45,229.56,77.12,265.63c62.3,23.27,143.17-1.21,178.6-49.67
					c32.23-44.08,8.77-83.24,48.92-123.16c33.64-33.44,61.94-20.83,90.1-57.24c20.73-26.81,35.85-73.61,14.82-106.31
					c-17.72-27.56-55.8-36.81-83.91-34.18c-51.09,4.77-62.4,48.1-113.37,49.32C928.43,736.63,924,725.51,895.47,719.39z"/>
				
					<linearGradient id="SVGID_00000031189246068271544280000011651429990361472693_" gradientUnits="userSpaceOnUse" x1="1150.0785" y1="667.2682" x2="1266.9271" y2="1052.6187">
					<stop  offset="0" style="stop-color:#FFC444"/>
					<stop  offset="0.0564" style="stop-color:#FDB647"/>
					<stop  offset="0.1813" style="stop-color:#F99C4C"/>
					<stop  offset="0.3198" style="stop-color:#F78851"/>
					<stop  offset="0.4772" style="stop-color:#F57A54"/>
					<stop  offset="0.6695" style="stop-color:#F37155"/>
					<stop  offset="0.9964" style="stop-color:#F36F56"/>
				</linearGradient>
				<path style="fill:url(#SVGID_00000031189246068271544280000011651429990361472693_);" d="M1118.73,813.69
					c15.64-11.87,64.91,18.2,96.04,55c36.56,43.24,30.57,75.07,61.16,127.44c15.2,26.04,42.09,61.67,92.39,95.3
					c-4.6,9.03-9.19,18.07-13.78,27.1c-25.72-0.78-75.87-6.23-119.96-41.1c-30.62-24.22-44.82-53.93-71.96-112.35
					C1135.37,906.44,1099.18,828.53,1118.73,813.69z"/>
				
					<linearGradient id="SVGID_00000150819296289456953880000001189015621453226653_" gradientUnits="userSpaceOnUse" x1="1449.6956" y1="1327.6124" x2="1421.7269" y2="1581.1975">
					<stop  offset="0" style="stop-color:#444B8C"/>
					<stop  offset="0.9964" style="stop-color:#26264F"/>
				</linearGradient>
				<path style="fill:url(#SVGID_00000150819296289456953880000001189015621453226653_);" d="M1446.98,1618.14l-17.23-36.6
					c-2.45-5.2-6.26-9.64-11.04-12.83l-8.53-5.71c0,0-20.39-0.54-23.56,12.28c-0.68,16.28,30.95,52.64,50.95,67.09
					c3.32,2.4,8.06,5.59,10.93,3.95C1453.38,1643.52,1449.96,1628.55,1446.98,1618.14z"/>
				
					<linearGradient id="SVGID_00000182514243462513354290000005536877555254494878_" gradientUnits="userSpaceOnUse" x1="1524.8627" y1="1392.2308" x2="1400.8665" y2="1601.9989">
					<stop  offset="0" style="stop-color:#311944"/>
					<stop  offset="1" style="stop-color:#A03976"/>
				</linearGradient>
				<path style="fill:url(#SVGID_00000182514243462513354290000005536877555254494878_);" d="M1414.61,1543.1
					c-2.71,15.7,0.72,23.88,4.42,28.47c2.6,3.23,23.73,38.06,15.05,43.69c-3.92,2.54-30.76-30.79-33.36-35.9
					c-2.36-4.62-3.89-3.53-4.03-16.13c-0.09-8.3-1.78-14.97-3.1-19.15C1400.59,1543.75,1407.6,1543.42,1414.61,1543.1z"/>
				
					<linearGradient id="SVGID_00000138548378870338799550000010374314922577464466_" gradientUnits="userSpaceOnUse" x1="1447.824" y1="1327.4061" x2="1419.8552" y2="1580.9913">
					<stop  offset="0" style="stop-color:#444B8C"/>
					<stop  offset="0.9964" style="stop-color:#26264F"/>
				</linearGradient>
				<path style="fill:url(#SVGID_00000138548378870338799550000010374314922577464466_);" d="M1445.12,1418.68
					c0,0,19.07,22.75,15.96,47.69c-3.1,24.94-36.5-11.52-41.15-23.85c-4.66-12.32-10.1-29.88-10.1-29.88
					S1433.25,1398.08,1445.12,1418.68z"/>
				
					<linearGradient id="SVGID_00000069366555156393116220000004870270659538506410_" gradientUnits="userSpaceOnUse" x1="1436.9045" y1="1417.7739" x2="1476.9935" y2="1522.1918">
					<stop  offset="0" style="stop-color:#311944"/>
					<stop  offset="1" style="stop-color:#A03976"/>
				</linearGradient>
				<path style="fill:url(#SVGID_00000069366555156393116220000004870270659538506410_);" d="M1437.84,1383.08
					c0,0-5.17,26.51,4.69,40.5c4.91,6.97,11.54,12.88,9.59,18.55c-1.31,3.8-6.27,6.53-10.47,6.1c-8.04-0.83-12.5-13.16-15.65-21.85
					c-4.64-12.85-7.23-40.33-7.23-40.33L1437.84,1383.08z"/>
				
					<linearGradient id="SVGID_00000022553955503628408240000013343204393213219252_" gradientUnits="userSpaceOnUse" x1="-2919.3201" y1="10583.2764" x2="-2589.6528" y2="10246.5654" gradientTransform="matrix(-1 0 0 1 7587.4121 0)">
					<stop  offset="0" style="stop-color:#AA80F9"/>
					<stop  offset="0.9964" style="stop-color:#6165D7"/>
				</linearGradient>
				<path style="fill:url(#SVGID_00000022553955503628408240000013343204393213219252_);" d="M1422.65,1405.42
					c5.86-2.14,11.73-4.27,17.59-6.41c9.15-20.89,20.31-55.21,16.58-96.93c-9.59-107.27-108.81-164.12-119.83-170.2
					c-27.03,13.56-54.41,32.7-55.41,56.82c-1.24,30.28,40.01,46.29,78.78,90.56C1383.64,1305.84,1408.51,1345.44,1422.65,1405.42z"
					/>
				
					<linearGradient id="SVGID_00000150803163003584880480000010596602151351099833_" gradientUnits="userSpaceOnUse" x1="6288.6143" y1="1587.6505" x2="6377.9487" y2="1304.921" gradientTransform="matrix(-1 0 0 1 7587.4121 0)">
					<stop  offset="0" style="stop-color:#AA80F9"/>
					<stop  offset="0.9964" style="stop-color:#6165D7"/>
				</linearGradient>
				<path style="fill:url(#SVGID_00000150803163003584880480000010596602151351099833_);" d="M1416.32,1555.37
					c19.37-75.68,14.42-137.45,8.84-173.02c-8.45-53.78-25.63-163.16-98.66-203.95c-15.95-8.91-38.75-16.88-66.53-41.65
					c-23.2-20.68-37.95-42.43-46.85-57.75c-97.67-28.65-187.76-17.04-227.51,35.34c-4.59,6.05-16.09,19.18-18.32,38.54
					c-5.02,43.68,37.9,96.26,86.05,107.24c61.2,13.96,96.71-48.89,150.94-27.98c15.17,5.85,28.03,20.34,53.75,49.33
					c32.72,36.88,51.11,70.9,58.07,84.52c20.72,40.54,36.43,70.47,38.72,109.26c0.53,9.04,0.85,27.29,11.44,46.98
					c8.12,15.11,19.14,25.19,27.33,31.42C1401.17,1554.22,1408.75,1554.8,1416.32,1555.37z"/>
				
					<linearGradient id="SVGID_00000086657480870694441330000013273962025485357968_" gradientUnits="userSpaceOnUse" x1="6288.6221" y1="1587.6538" x2="6377.957" y2="1304.9241" gradientTransform="matrix(-1 0 0 1 7587.4121 0)">
					<stop  offset="0" style="stop-color:#AA80F9"/>
					<stop  offset="0.9964" style="stop-color:#6165D7"/>
				</linearGradient>
				<path style="opacity:0.3;fill:url(#SVGID_00000086657480870694441330000013273962025485357968_);" d="M967.29,1152.88
					c2.22-19.36,13.72-32.49,18.32-38.54c39.75-52.38,129.84-63.99,227.51-35.34c8.9,15.32,23.65,37.07,46.85,57.75
					c27.79,24.76,50.59,32.74,66.53,41.65c44.6,24.91,68.35,75.39,82.02,123.17c-20.29-31.46-37.66-39.82-51.1-39.97
					c-19.24-0.21-27.83,16.23-50.8,13.99c-24.55-2.4-30.16-22.7-50.07-25.03c-5.96-0.7-13.29,0.22-22.09,4.91
					c-11.75-12.3-20.5-19.58-30.19-23.31c-54.23-20.91-89.73,41.94-150.94,27.98C1005.18,1249.14,962.27,1196.56,967.29,1152.88z"/>
				
					<linearGradient id="SVGID_00000097488250916479645820000009670028831748256683_" gradientUnits="userSpaceOnUse" x1="-2839.5581" y1="10661.3857" x2="-2509.8899" y2="10324.6738" gradientTransform="matrix(-1 0 0 1 7587.4121 0)">
					<stop  offset="0" style="stop-color:#AA80F9"/>
					<stop  offset="0.9964" style="stop-color:#6165D7"/>
				</linearGradient>
				<path style="fill:url(#SVGID_00000097488250916479645820000009670028831748256683_);" d="M1365.72,1212.25
					c-11.05-0.59-28.08-0.93-48.61,1.1c-97.45,9.63-124.32,57.84-204.86,69.6c-19.05,2.78-103.89,15.17-140.63-33.87
					c-26.38-35.21-22.39-95.88,6.47-119.74c12.21-10.1,24.3-9.82,102.5-9.11c29.45,0.27,58.9,0.36,88.35,0.74
					c124.66,1.59,148.5-7.05,171.19,13.57C1350.71,1144.16,1366.18,1164.82,1365.72,1212.25z"/>
				<g>
					<g>
						
							<linearGradient id="SVGID_00000002364673139823326910000006621239390612404407_" gradientUnits="userSpaceOnUse" x1="2234.3711" y1="1167.0933" x2="1926.3464" y2="777.3951" gradientTransform="matrix(-1 0 0 1 3173.0376 0)">
							<stop  offset="0" style="stop-color:#FFC444"/>
							<stop  offset="0.9964" style="stop-color:#F36F56"/>
						</linearGradient>
						<path style="fill:url(#SVGID_00000002364673139823326910000006621239390612404407_);" d="M1102.54,812.26
							c0,0-98.4-28.7-141.74,20.36c-7.96,9.01-14.25,20.85-18.82,43.71c-23.33,116.51,64.9,186.48,30.14,247.95
							c-13.8,24.41-38.12,31.76-55.39,75.63c-2.93,7.43-13.5,34.29-3.8,42.75c8.55,7.45,22.61-8.28,47.59-5.24
							c26.45,3.22,32.63,23.54,50.43,20.58c11.6-1.93,16.61-11.84,33.7-36.53c24.75-35.76,37.12-53.63,45.99-59.9
							c35-24.73,62.05,7.52,101.95-16.97c14.45-8.87,67.98-77.79,52.23-58.86l0,0c-37.49-46.77-46.2-85.35-47.09-112.18
							c-0.98-29.41,7.5-42.78,0-77.54c0,0-8.36-38.79-38.54-72.1C1154.85,819.13,1149.69,814.15,1102.54,812.26z"/>
					</g>
				</g>
				<g>
					
						<linearGradient id="SVGID_00000160891185442975352700000018102177984493593753_" gradientUnits="userSpaceOnUse" x1="1066.6639" y1="703.8989" x2="1098.4591" y2="872.5509">
						<stop  offset="0" style="stop-color:#311944"/>
						<stop  offset="1" style="stop-color:#A03976"/>
					</linearGradient>
					<path style="fill:url(#SVGID_00000160891185442975352700000018102177984493593753_);" d="M1070.95,748.44
						c1.33,6.23,8.12,39.64-5.55,48.23c-2.96,1.86-8.66,2.93-20.04,5.07c-7.45,1.4-13.71,2.25-18.12,2.78
						c19.96,26.97,50.91,40.9,79.73,35.34c20.28-3.91,33.59-16.34,39.47-22.69c-5.88-4.56-14.55-10.2-26-14.36
						c-7.5-2.72-14.35-4.15-20-4.9c-1-6.45-2.01-12.91-3.02-19.36C1088.58,768.5,1079.77,758.47,1070.95,748.44z"/>
					
						<linearGradient id="SVGID_00000123404150307311942160000005705033576256713861_" gradientUnits="userSpaceOnUse" x1="2165.9944" y1="604.9242" x2="2049.3181" y2="796.273" gradientTransform="matrix(-1 0 0 1 3173.0376 0)">
						<stop  offset="0" style="stop-color:#311944"/>
						<stop  offset="1" style="stop-color:#A03976"/>
					</linearGradient>
					<path style="fill:url(#SVGID_00000123404150307311942160000005705033576256713861_);" d="M1070.31,765.09
						c0,0,2.47,24.48,26.27,28.8c21.31,3.86,37.35-47.63,26.44-60.95c-3.64-4.44-12.62-8.67-20.4-8.45
						c-5.48,0.16-23.97,7.2-26.55,25.71c-3.68-3.88-8.27-5-10.54-3.37c-2.87,2.06-1.33,8.05-0.98,9.41
						C1065.75,760.94,1068.83,763.86,1070.31,765.09z"/>
				</g>
				
					<linearGradient id="SVGID_00000134243552167050669270000011848935763880490172_" gradientUnits="userSpaceOnUse" x1="1925.3527" y1="1108.8505" x2="2264.1228" y2="1108.8505" gradientTransform="matrix(-1 0 0 1 3173.0376 0)">
					<stop  offset="0" style="stop-color:#FFC444"/>
					<stop  offset="0.9964" style="stop-color:#F36F56"/>
				</linearGradient>
				<path style="opacity:0.3;fill:url(#SVGID_00000134243552167050669270000011848935763880490172_);" d="M1244.81,1085.73
					c-4.51-5.63-8.58-11.13-12.3-16.51c-20.67-6.93-38.56-9.5-52.99-10.21c-32.55-1.58-50.37,6.08-72.52-7.25
					c-25.15-15.13-20.7-36.14-44.96-47.86c-25.54-12.34-43.6,1.61-68.17-2.9c-14.84-2.72-32.91-12.64-51.36-41.59
					c14.12,69.69,55.2,119.61,29.6,164.88c-13.8,24.41-38.12,31.76-55.39,75.63c-2.93,7.43-13.5,34.29-3.8,42.75
					c8.55,7.45,22.61-8.28,47.59-5.24c26.45,3.22,32.63,23.54,50.43,20.58c11.6-1.93,16.61-11.84,33.7-36.53
					c24.75-35.76,37.12-53.63,45.99-59.9c35-24.73,62.05,7.52,101.95-16.97C1207.03,1135.72,1260.56,1066.8,1244.81,1085.73z"/>
			</g>
			<g>
				
					<linearGradient id="SVGID_00000116200870237301558940000015278834140914753156_" gradientUnits="userSpaceOnUse" x1="7816.979" y1="1115.7795" x2="8060.3384" y2="1115.7795" gradientTransform="matrix(-1 0 0 1 9097.4053 0)">
					<stop  offset="0" style="stop-color:#40447E"/>
					<stop  offset="0.9964" style="stop-color:#3C3B6B"/>
				</linearGradient>
				<path style="fill:url(#SVGID_00000116200870237301558940000015278834140914753156_);" d="M1274.47,1097.69l-222.65,10.83
					c-3.06,0.15-5.86,1.79-7.48,4.39l-6.16,9.89c-3.07,4.92,0.62,11.27,6.41,11.05l235.84-8.98L1274.47,1097.69z"/>
				
					<linearGradient id="SVGID_00000115483044768703823020000012037572059932761507_" gradientUnits="userSpaceOnUse" x1="7661.3506" y1="962.2672" x2="7820.9038" y2="1120.5438" gradientTransform="matrix(-1 0 0 1 9097.4053 0)">
					<stop  offset="0" style="stop-color:#40447E"/>
					<stop  offset="0.9964" style="stop-color:#3C3B6B"/>
				</linearGradient>
				<path style="fill:url(#SVGID_00000115483044768703823020000012037572059932761507_);" d="M1506.04,973.71l-230.02,4.46
					c-6.81,0.13-13.04,3.84-16.4,9.76l-79.65,140.14l242.93-9.68c6.67-0.27,12.75-3.88,16.18-9.6l73.8-123.29
					C1516.02,980.24,1512.16,973.59,1506.04,973.71z"/>
				
					<linearGradient id="SVGID_00000011745115711814100140000016113595866067490495_" gradientUnits="userSpaceOnUse" x1="7661.3511" y1="962.2672" x2="7820.9043" y2="1120.5441" gradientTransform="matrix(-1 0 0 1 9097.4053 0)">
					<stop  offset="0" style="stop-color:#40447E"/>
					<stop  offset="0.9964" style="stop-color:#3C3B6B"/>
				</linearGradient>
				<path style="opacity:0.3;fill:url(#SVGID_00000011745115711814100140000016113595866067490495_);" d="M1259.62,987.92
					c3.36-5.92,9.6-9.63,16.4-9.76l5.04-0.1c0.75,7.42,3.03,14.22,7.57,19.7c14.18,17.12,37.75,6.56,55.31,24.68
					c19.29,19.9,1.47,43.6,18.72,62.12c18.16,19.5,47.52,3.62,81.27,16.1l-4.86,8.12c-3.43,5.73-9.51,9.34-16.18,9.6l-242.93,9.68
					L1259.62,987.92z"/>
			</g>
			<g>
				
					<linearGradient id="SVGID_00000134249148532538694060000011168367964836664962_" gradientUnits="userSpaceOnUse" x1="2292.469" y1="1121.7434" x2="1973.6422" y2="718.3789" gradientTransform="matrix(-1 0 0 1 3173.0376 0)">
					<stop  offset="0" style="stop-color:#FFC444"/>
					<stop  offset="0.9964" style="stop-color:#F36F56"/>
				</linearGradient>
				<path style="fill:url(#SVGID_00000134249148532538694060000011168367964836664962_);" d="M1069.96,1090.25
					c2.9-7.65,5.8-15.3,8.69-22.96c-32.03-8.78-76.33-21.76-121.76-37.99c-7.12-2.54-15.57-5.69-18.34-13.18
					c-7.77-21,41.62-42.77,60.82-88.63c17.76-42.42,18.8-105.93-1.81-112.88c-42.88-14.47-205.78,179.47-151.46,259.27
					C876.81,1118.98,971.46,1126.17,1069.96,1090.25z"/>
			</g>
			
				<linearGradient id="SVGID_00000023982043701380174150000015906461154823566759_" gradientUnits="userSpaceOnUse" x1="-6229.1035" y1="1067.7919" x2="-6310.0005" y2="1144.0271" gradientTransform="matrix(1 0 0 1 7357.1265 0)">
				<stop  offset="0" style="stop-color:#311944"/>
				<stop  offset="1" style="stop-color:#A03976"/>
			</linearGradient>
			<path style="fill:url(#SVGID_00000023982043701380174150000015906461154823566759_);" d="M1078.65,1067.29
				c20.11-10.68,44.18,0.27,45.73,1c4.42,2.09,10.85,5.8,17.35,12.44c0.73,1,9.46,13.09,6.28,16.96c-2.55,3.1-12.41,0.53-24.27-6.84
				c-4.97-0.7-12.37-1.34-21.23-0.52c-16.27,1.5-23.73,6.64-29.64,2.2c-4.33-3.25-5.8-10.12-4.24-15.22
				C1070.3,1071.82,1075.25,1069.1,1078.65,1067.29z"/>
		</g>
		<g>
			
				<linearGradient id="SVGID_00000099639113347718845910000003775361545928102036_" gradientUnits="userSpaceOnUse" x1="2108.3555" y1="519.3186" x2="1786.9553" y2="1522.3113">
				<stop  offset="0" style="stop-color:#311944"/>
				<stop  offset="1" style="stop-color:#893976"/>
			</linearGradient>
			<path style="fill:url(#SVGID_00000099639113347718845910000003775361545928102036_);" d="M2336.01,723.43l-724.5-28.68
				c-11.81-0.47-21.69,9.75-21.69,22.83v26.35v14.05v380.14c0,13.09,9.94,24.05,21.75,24.43l9.78,0.32l11.63-24.4l711.73,21.56
				c11.58,0.35,12.11,16.54,12.11,3.59V787.64v-13.89v-26.06C2356.81,734.75,2347.57,723.89,2336.01,723.43z"/>
			<g>
				<g>
					<path class="st0" d="M2368.14,774.34v390.32c0,11.97-7.72,21.58-18.07,22.69c-0.88,0.11-1.62,0.15-2.52,0.12l-726.17-23.96
						c-11.84-0.39-21.87-11.36-21.87-24.46v-394.6L2368.14,774.34z"/>
					
						<linearGradient id="SVGID_00000176763055016880822380000011442474758471916727_" gradientUnits="userSpaceOnUse" x1="2044.218" y1="652.1492" x2="1725.5408" y2="1173.1176">
						<stop  offset="0" style="stop-color:#FF9085"/>
						<stop  offset="1" style="stop-color:#FB6FBB"/>
					</linearGradient>
					<path style="fill:url(#SVGID_00000176763055016880822380000011442474758471916727_);" d="M2347.7,723.99l-725.78-28.73
						c-11.83-0.47-21.43,9.77-21.43,22.87v40.44l768.18,29.71v-40C2368.67,735.33,2359.28,724.45,2347.7,723.99z"/>
					<path class="st0" d="M1649.71,727.98c0,5.82-4.26,10.37-9.52,10.17c-5.26-0.21-9.52-5.09-9.52-10.91
						c0-5.82,4.26-10.37,9.52-10.17C1645.45,717.27,1649.71,722.16,1649.71,727.98z"/>
				</g>
				<g>
					
						<linearGradient id="SVGID_00000178887053824284778410000008650750076793822338_" gradientUnits="userSpaceOnUse" x1="1694.4701" y1="967.1974" x2="1749.0758" y2="967.1974">
						<stop  offset="0" style="stop-color:#FF9085"/>
						<stop  offset="1" style="stop-color:#FB6FBB"/>
					</linearGradient>
					<polygon style="opacity:0.2;fill:url(#SVGID_00000178887053824284778410000008650750076793822338_);" points="1749.08,1116.01 
						1694.47,1114.17 1694.47,818.38 1749.08,820.45 					"/>
					
						<linearGradient id="SVGID_00000104683283631810677750000010846667129436451459_" gradientUnits="userSpaceOnUse" x1="1753.21" y1="946.7706" x2="1678.6942" y2="1179.3119">
						<stop  offset="0" style="stop-color:#FF9085"/>
						<stop  offset="1" style="stop-color:#FB6FBB"/>
					</linearGradient>
					<polygon style="fill:url(#SVGID_00000104683283631810677750000010846667129436451459_);" points="1749.08,1116.01 
						1694.47,1114.17 1694.47,973.74 1749.08,975.69 					"/>
					
						<linearGradient id="SVGID_00000121996557936271805110000002584933925302804911_" gradientUnits="userSpaceOnUse" x1="1770.4204" y1="969.9127" x2="1824.9082" y2="969.9127">
						<stop  offset="0" style="stop-color:#FF9085"/>
						<stop  offset="1" style="stop-color:#FB6FBB"/>
					</linearGradient>
					<polygon style="opacity:0.2;fill:url(#SVGID_00000121996557936271805110000002584933925302804911_);" points="1824.91,1118.57 
						1770.42,1116.73 1770.42,821.26 1824.91,823.32 					"/>
					
						<linearGradient id="SVGID_00000015327259352669662950000016047460797088062337_" gradientUnits="userSpaceOnUse" x1="1814.9395" y1="1028.6681" x2="1773.9937" y2="1156.4475">
						<stop  offset="0" style="stop-color:#FF9085"/>
						<stop  offset="1" style="stop-color:#FB6FBB"/>
					</linearGradient>
					<polygon style="fill:url(#SVGID_00000015327259352669662950000016047460797088062337_);" points="1824.91,1118.57 
						1770.42,1116.73 1770.42,1046.59 1824.91,1048.48 					"/>
					
						<linearGradient id="SVGID_00000076581777924911032360000003644501001325604270_" gradientUnits="userSpaceOnUse" x1="1846.2065" y1="972.6223" x2="1900.577" y2="972.6223">
						<stop  offset="0" style="stop-color:#FF9085"/>
						<stop  offset="1" style="stop-color:#FB6FBB"/>
					</linearGradient>
					<polygon style="opacity:0.2;fill:url(#SVGID_00000076581777924911032360000003644501001325604270_);" points="1900.58,1121.12 
						1846.21,1119.28 1846.21,824.13 1900.58,826.19 					"/>
					
						<linearGradient id="SVGID_00000106853873633467237210000013764277072132849049_" gradientUnits="userSpaceOnUse" x1="1883.9431" y1="1068.8799" x2="1858.9358" y2="1146.92">
						<stop  offset="0" style="stop-color:#FF9085"/>
						<stop  offset="1" style="stop-color:#FB6FBB"/>
					</linearGradient>
					<polygon style="fill:url(#SVGID_00000106853873633467237210000013764277072132849049_);" points="1900.58,1121.12 
						1846.21,1119.28 1846.21,1082.5 1900.58,1084.36 					"/>
					
						<linearGradient id="SVGID_00000090284507513792543710000007509861005896440459_" gradientUnits="userSpaceOnUse" x1="1921.8298" y1="975.3257" x2="1976.0831" y2="975.3257">
						<stop  offset="0" style="stop-color:#FF9085"/>
						<stop  offset="1" style="stop-color:#FB6FBB"/>
					</linearGradient>
					<polygon style="opacity:0.2;fill:url(#SVGID_00000090284507513792543710000007509861005896440459_);" points="1976.08,1123.66 
						1921.83,1121.83 1921.83,826.99 1976.08,829.05 					"/>
					
						<linearGradient id="SVGID_00000045609856189373095130000010344321872295105714_" gradientUnits="userSpaceOnUse" x1="1998.6044" y1="852.3231" x2="1880.9209" y2="1219.5775">
						<stop  offset="0" style="stop-color:#FF9085"/>
						<stop  offset="1" style="stop-color:#FB6FBB"/>
					</linearGradient>
					<polygon style="fill:url(#SVGID_00000045609856189373095130000010344321872295105714_);" points="1976.08,1123.66 
						1921.83,1121.83 1921.83,890.86 1976.08,892.87 					"/>
					
						<linearGradient id="SVGID_00000080897713170875391470000017694309774046096299_" gradientUnits="userSpaceOnUse" x1="1997.2899" y1="978.0236" x2="2051.4268" y2="978.0236">
						<stop  offset="0" style="stop-color:#FF9085"/>
						<stop  offset="1" style="stop-color:#FB6FBB"/>
					</linearGradient>
					<polygon style="opacity:0.2;fill:url(#SVGID_00000080897713170875391470000017694309774046096299_);" points="2051.43,1126.2 
						1997.29,1124.37 1997.29,829.85 2051.43,831.9 					"/>
					
						<linearGradient id="SVGID_00000020388180511153620490000014642580821667377341_" gradientUnits="userSpaceOnUse" x1="2068.6699" y1="884.7491" x2="1963.6361" y2="1212.5278">
						<stop  offset="0" style="stop-color:#FF9085"/>
						<stop  offset="1" style="stop-color:#FB6FBB"/>
					</linearGradient>
					<polygon style="fill:url(#SVGID_00000020388180511153620490000014642580821667377341_);" points="2051.43,1126.2 
						1997.29,1124.37 1997.29,919.87 2051.43,921.85 					"/>
					
						<linearGradient id="SVGID_00000155855692867432035710000009993655852189746868_" gradientUnits="userSpaceOnUse" x1="2072.5881" y1="980.7155" x2="2126.6086" y2="980.7155">
						<stop  offset="0" style="stop-color:#FF9085"/>
						<stop  offset="1" style="stop-color:#FB6FBB"/>
					</linearGradient>
					<polygon style="opacity:0.2;fill:url(#SVGID_00000155855692867432035710000009993655852189746868_);" points="2126.61,1128.73 
						2072.59,1126.91 2072.59,832.7 2126.61,834.75 					"/>
					
						<linearGradient id="SVGID_00000178919029278830532510000009621290224299577760_" gradientUnits="userSpaceOnUse" x1="2153.3521" y1="834.3552" x2="2025.9362" y2="1231.9817">
						<stop  offset="0" style="stop-color:#FF9085"/>
						<stop  offset="1" style="stop-color:#FB6FBB"/>
					</linearGradient>
					<polygon style="fill:url(#SVGID_00000178919029278830532510000009621290224299577760_);" points="2126.61,1128.73 
						2072.59,1126.91 2072.59,875.48 2126.61,877.49 					"/>
					
						<linearGradient id="SVGID_00000010997175736002177730000003324231446572524433_" gradientUnits="userSpaceOnUse" x1="2147.7244" y1="983.4019" x2="2201.6289" y2="983.4019">
						<stop  offset="0" style="stop-color:#FF9085"/>
						<stop  offset="1" style="stop-color:#FB6FBB"/>
					</linearGradient>
					<polygon style="opacity:0.2;fill:url(#SVGID_00000010997175736002177730000003324231446572524433_);" points="2201.63,1131.25 
						2147.72,1129.44 2147.72,835.55 2201.63,837.59 					"/>
					
						<linearGradient id="SVGID_00000171708981215275379140000005354244953860237744_" gradientUnits="userSpaceOnUse" x1="2214.145" y1="916.9177" x2="2120.5918" y2="1208.8689">
						<stop  offset="0" style="stop-color:#FF9085"/>
						<stop  offset="1" style="stop-color:#FB6FBB"/>
					</linearGradient>
					<polygon style="fill:url(#SVGID_00000171708981215275379140000005354244953860237744_);" points="2201.63,1131.25 
						2147.72,1129.44 2147.72,948.92 2201.63,950.87 					"/>
					
						<linearGradient id="SVGID_00000003100768797231246190000009983762016084141987_" gradientUnits="userSpaceOnUse" x1="2222.6997" y1="986.0822" x2="2276.4885" y2="986.0822">
						<stop  offset="0" style="stop-color:#FF9085"/>
						<stop  offset="1" style="stop-color:#FB6FBB"/>
					</linearGradient>
					<polygon style="opacity:0.2;fill:url(#SVGID_00000003100768797231246190000009983762016084141987_);" points="2276.49,1133.77 
						2222.7,1131.96 2222.7,838.39 2276.49,840.43 					"/>
					
						<linearGradient id="SVGID_00000035517584712171993470000005361585027264200329_" gradientUnits="userSpaceOnUse" x1="2273.2288" y1="1008.1505" x2="2217.2083" y2="1182.9731">
						<stop  offset="0" style="stop-color:#FF9085"/>
						<stop  offset="1" style="stop-color:#FB6FBB"/>
					</linearGradient>
					<polygon style="fill:url(#SVGID_00000035517584712171993470000005361585027264200329_);" points="2276.49,1133.77 
						2222.7,1131.96 2222.7,1030.04 2276.49,1031.93 					"/>
				</g>
			</g>
			<path class="st77" d="M2350.34,1187.38c-0.88,0.11-1.75,0.14-2.65,0.11l-726.25-23.96c-11.84-0.39-21.92-11.37-21.92-24.46
				V764.09c7.29,20.93,25.85,60.09,94.46,71.13c11.92,1.94,25.59,3.03,40.7,3.02c4.77-0.01,9.62,0.11,14.28,0.32
				c7.27,0.3,14.43,0.85,21.4,1.65c19.33,2.18,37.58,6.16,54.52,11.66c7.36,2.38,14.48,5.07,21.33,8.04
				c20.38,8.77,38.61,19.9,54.37,32.92c7.68,6.34,14.78,13.12,21.26,20.27c28.54,31.45,45.25,70.13,47.87,110.88
				c0.45,6.88,2.65,12.81,6.4,17.94c4.75,6.52,11.98,11.76,21.19,16.1c14.03,6.62,32.67,11.1,54.14,14.68
				c6.8,1.14,13.87,2.16,21.16,3.16c17.01,2.3,35.27,4.33,54.02,6.53c6.98,0.83,14.05,1.68,21.13,2.6
				c17.98,2.31,36.15,4.97,53.9,8.38c7.11,1.37,14.12,2.84,21.06,4.49c19.05,4.5,37.25,10.08,53.79,17.35
				C2311.08,1130.46,2338.29,1152.87,2350.34,1187.38z"/>
		</g>
		<g>
			<g>
				
					<linearGradient id="SVGID_00000011720866884139945170000006554177535391205030_" gradientUnits="userSpaceOnUse" x1="-499.3802" y1="1863.1093" x2="-829.264" y2="4417.0322" gradientTransform="matrix(-0.996 -0.0892 -0.0892 0.996 509.2159 18.7124)">
					<stop  offset="0" style="stop-color:#FFC444"/>
					<stop  offset="0.9964" style="stop-color:#F36F56"/>
				</linearGradient>
				<path style="fill:url(#SVGID_00000011720866884139945170000006554177535391205030_);" d="M933.9,3004.27
					c42.1,0.43,96.62-6.4,150.96-35.36c58.79-31.33,137.81-99.48,123.14-148.19c-5.48-18.19-24.43-35.03-42.39-35.2
					c-26.54-0.24-32.89,36.09-82.22,71.81c-9.12,6.6-56.25,40.73-76.85,25.97c-10.24-7.34-11.85-25.29-8.89-38.56
					c8.67-38.8,57.15-40.54,107.04-78.91c50.58-38.91,96.26-110.59,78.55-163.41c-10.18-30.35-41.95-56.45-64.78-51.96
					c-9.75,1.92-16.48,9.15-50.93,68.92c-28.27,49.06-34.88,63.51-50.59,66.99c-16.17,3.59-40.05-4.87-47.95-21.19
					c-20.58-42.51,89.32-92.7,108.93-204.74c8.79-50.21,1.82-126.42-42.56-146.59c-30-13.64-75.61-1-94.1,25.99
					c-16.67,24.33-0.93,45.16-17.05,101.72c-4.89,17.16-14.96,52.48-29.59,53.07c-17.17,0.69-32.06-46.82-35.45-58.37
					c-25.52-86.96,16.24-126.76-11.27-170.33c-21.45-33.97-73.16-51.48-116.48-39.17c-37.9,10.77-70.49,44.7-75.84,82.4
					c-5.44,38.36,23.53,79.63,81.49,162.16c27.48,39.14,49.74,65.91,45.11,101.95c-2.26,17.57-11.47,41.74-24.3,42.88
					c-28.32,2.5-31.99-110.95-96.49-134.2c-33.02-11.9-76.59,1.77-97.78,30.6c-25.96,35.31-15.55,89.6,10.38,119.97
					c33.83,39.63,74.32,15.44,140.59,60.69c29.4,20.07,74.74,61.24,64.9,91.03c-4.29,12.97-19.34,24.71-34.74,25.07
					c-34.52,0.82-40.79-56.19-93.52-85.73c-37.99-21.28-92.89-24.26-107.89-3.11c-21.17,29.87,37.6,107.24,69.42,141.96
					C651.23,2904.39,743.55,2985.71,933.9,3004.27z"/>
				<g class="st79">
					<path class="st0" d="M918.82,2984.95c13.96-93.5-31.08-290.36-68.22-384.8c-36.19-92.03-65.9-235.25-66.2-236.69l-6.95,1.43
						c0.3,1.44,30.13,145.26,66.54,237.85c36.86,93.72,81.6,288.8,67.8,381.16L918.82,2984.95z"/>
				</g>
			</g>
			
				<linearGradient id="SVGID_00000072961881395160439780000003024819575023543174_" gradientUnits="userSpaceOnUse" x1="-542.3581" y1="2565.3835" x2="-955.4659" y2="3060.6147" gradientTransform="matrix(-0.996 -0.0892 -0.0892 0.996 509.2159 18.7124)">
				<stop  offset="3.597120e-03" style="stop-color:#E38DDD"/>
				<stop  offset="1" style="stop-color:#9571F6"/>
			</linearGradient>
			<path style="fill:url(#SVGID_00000072961881395160439780000003024819575023543174_);" d="M1031.34,3025.31
				c35.39-40.88,88.63-115.6,106.35-220.35c7.31-43.16,21.57-127.47-23.81-205.36c-22.62-38.82-72.68-97.72-111.17-85.47
				c-24.77,7.88-43,44.67-38.86,74.26c4.17,29.83,28.63,34.75,51.09,86.75c8.31,19.24,17.75,41.8,7.93,53.19
				c-8.21,9.51-28.41,9.56-42.9,2.12c-29.91-15.37-16.75-53.15-47.83-83.87c-22.1-21.85-61.05-34.68-79.66-20.07
				c-16.16,12.68-16.5,45.66-5.28,68.67c17.96,36.84,56.69,29.98,77.92,70.4c9.42,17.93,14.9,44.24,4.42,53.5
				c-11.94,10.56-43.15-2.29-62.58-16.89c-25.65-19.27-25.05-37.28-42.74-41.12c-19.73-4.29-46.37,12.48-52.16,33.15
				c-8.1,28.95,25.18,63.94,52.55,80.3c35.04,20.94,63.17,13.01,78.9,38.74c5.77,9.44,10.49,24.44,4.32,32.73
				c-8.8,11.83-36.18,5.21-54.37,0.82c-44.25-10.69-55.14-28.06-71.92-21.6c-16.99,6.54-27.8,32.82-22.46,52.4
				c2.97,10.89,13.25,28.26,70.55,43.69C869.75,3032.1,937.75,3043.26,1031.34,3025.31z"/>
		</g>
	</g>
</g>
</svg>
