<svg id="wave" style="transform:rotate(0deg); transition: 0.3s" viewBox="0 0 1440 180" version="1.1" xmlns="http://www.w3.org/2000/svg"><defs><linearGradient id="sw-gradient-0" x1="0" x2="0" y1="1" y2="0"><stop stop-color="rgba(82.837, 59.836, 255, 1)" offset="0%"></stop><stop stop-color="rgba(243.071, 242.651, 246.213, 1)" offset="100%"></stop></linearGradient></defs><path style="transform:translate(0, 0px); opacity:1" fill="url(#sw-gradient-0)" d="M0,90L40,81C80,72,160,54,240,48C320,42,400,48,480,60C560,72,640,90,720,81C800,72,880,36,960,39C1040,42,1120,84,1200,93C1280,102,1360,78,1440,66C1520,54,1600,54,1680,60C1760,66,1840,78,1920,78C2000,78,2080,66,2160,57C2240,48,2320,42,2400,57C2480,72,2560,108,2640,114C2720,120,2800,96,2880,75C2960,54,3040,36,3120,51C3200,66,3280,114,3360,129C3440,144,3520,126,3600,105C3680,84,3760,60,3840,51C3920,42,4000,48,4080,54C4160,60,4240,66,4320,72C4400,78,4480,84,4560,93C4640,102,4720,114,4800,99C4880,84,4960,42,5040,36C5120,30,5200,60,5280,66C5360,72,5440,54,5520,63C5600,72,5680,108,5720,126L5760,144L5760,180L5720,180C5680,180,5600,180,5520,180C5440,180,5360,180,5280,180C5200,180,5120,180,5040,180C4960,180,4880,180,4800,180C4720,180,4640,180,4560,180C4480,180,4400,180,4320,180C4240,180,4160,180,4080,180C4000,180,3920,180,3840,180C3760,180,3680,180,3600,180C3520,180,3440,180,3360,180C3280,180,3200,180,3120,180C3040,180,2960,180,2880,180C2800,180,2720,180,2640,180C2560,180,2480,180,2400,180C2320,180,2240,180,2160,180C2080,180,2000,180,1920,180C1840,180,1760,180,1680,180C1600,180,1520,180,1440,180C1360,180,1280,180,1200,180C1120,180,1040,180,960,180C880,180,800,180,720,180C640,180,560,180,480,180C400,180,320,180,240,180C160,180,80,180,40,180L0,180Z"></path><defs><linearGradient id="sw-gradient-1" x1="0" x2="0" y1="1" y2="0"><stop stop-color="rgba(62, 65.193, 243, 1)" offset="0%"></stop><stop stop-color="rgba(203.789, 195.793, 248.49, 1)" offset="100%"></stop></linearGradient></defs><path style="transform:translate(0, 50px); opacity:0.9" fill="url(#sw-gradient-1)" d="M0,126L40,120C80,114,160,102,240,108C320,114,400,138,480,135C560,132,640,102,720,99C800,96,880,120,960,123C1040,126,1120,108,1200,108C1280,108,1360,126,1440,123C1520,120,1600,96,1680,96C1760,96,1840,120,1920,111C2000,102,2080,60,2160,39C2240,18,2320,18,2400,42C2480,66,2560,114,2640,138C2720,162,2800,162,2880,153C2960,144,3040,126,3120,123C3200,120,3280,132,3360,129C3440,126,3520,108,3600,102C3680,96,3760,102,3840,93C3920,84,4000,60,4080,63C4160,66,4240,96,4320,117C4400,138,4480,150,4560,141C4640,132,4720,102,4800,102C4880,102,4960,132,5040,120C5120,108,5200,54,5280,51C5360,48,5440,96,5520,120C5600,144,5680,144,5720,144L5760,144L5760,180L5720,180C5680,180,5600,180,5520,180C5440,180,5360,180,5280,180C5200,180,5120,180,5040,180C4960,180,4880,180,4800,180C4720,180,4640,180,4560,180C4480,180,4400,180,4320,180C4240,180,4160,180,4080,180C4000,180,3920,180,3840,180C3760,180,3680,180,3600,180C3520,180,3440,180,3360,180C3280,180,3200,180,3120,180C3040,180,2960,180,2880,180C2800,180,2720,180,2640,180C2560,180,2480,180,2400,180C2320,180,2240,180,2160,180C2080,180,2000,180,1920,180C1840,180,1760,180,1680,180C1600,180,1520,180,1440,180C1360,180,1280,180,1200,180C1120,180,1040,180,960,180C880,180,800,180,720,180C640,180,560,180,480,180C400,180,320,180,240,180C160,180,80,180,40,180L0,180Z"></path></svg>