<svg xmlns="http://www.w3.org/2000/svg" fill="currentColor" viewBox="0 0 16 16" className="w-6 h-6">
<path d="M13.601 2.326A7.854 7.854 0 0 0 8 0C3.58 0 0 3.579 0 8c0 1.748.568 3.355 1.523 4.657L0 
16l4.327-1.516A7.932 7.932 0 0 0 8 16c4.42 0 8-3.579 8-8 0-2.02-.746-3.874-1.987-5.299a.658.658
 0 0 0-.412-.375zm-5.602 13.567c-1.328 0-2.578-.41-3.608-1.118l-.304-.209-2.571.715.688-2.469-.216
 -.322a6.02 6.02 0 0 1-1.242-3.395c0-3.313 2.701-6.013 6.014-6.013 1.602 0 3.065.624 4.184 1.745a6
 .046 6.046 0 0 1 1.745 4.185c0 3.312-2.701 6.012-6.014 6.012zm3.437-3.428c-.185-.093-1.092-.539-1
 .262-.601-.17-.061-.294-.093-.418.093s-.489.601-.601.729c-.112.128-.224.144-.418.052-.193-.093-.82
 -.301-1.559-.965-.569-.512-.953-1.145-1.062-1.339-.11-.193-.011-.297.082-.395.086-.093.193-.247.29
 -.371.098-.123.123-.216.185-.36.061-.144.03-.27-.015-.373-.045-.104-.389-1-.533-1.367-.144-.367-.2
 9-.317-.418-.322-.127-.006-.272-.006-.418-.006s-.295.045-.455.216c-.157.17-.601.58-.601 1.396 0 .
 816.596 1.598.678 1.71.083.112.928 1.416 2.263 1.986 1.362.581 1.362.386 1.605.362.244-.024.79-.323.
 901-.634.112-.31.112-.576.075-.633-.037-.061-.137-.093-.275-.185z"/>
</svg>